<?xml version="1.0" standalone="no"?>
<!DOCTYPE svg PUBLIC "-//W3C//DTD SVG 1.1//EN" "http://www.w3.org/Graphics/SVG/1.1/DTD/svg11.dtd" >
<svg xmlns="http://www.w3.org/2000/svg" xmlns:xlink="http://www.w3.org/1999/xlink" version="1.1">
<metadata>
Created by FontForge 20201107 at Fri May 12 09:16:14 2023
 By 
Copyright (C) 2023 by UICreative. All Right Reserved
</metadata>
<defs>
<font id="Meditative" horiz-adv-x="590" >
  <font-face 
    font-family="Meditative"
    font-weight="400"
    font-stretch="normal"
    units-per-em="1000"
    panose-1="0 0 0 0 0 0 0 0 0 0"
    ascent="800"
    descent="-200"
    x-height="463"
    cap-height="631"
    bbox="-48 -185 1009 839"
    underline-thickness="0"
    underline-position="0"
    unicode-range="U+000A-20AC"
  />
<missing-glyph horiz-adv-x="527" 
d="M50 700h427v-700h-427v700zM78 680l185 -309l186 309h-371zM276 350l181 -303v605zM251 350l-180 300v-601zM264 329l-185 -308h370z" />
    <glyph glyph-name=".notdef" horiz-adv-x="527" 
d="M50 700h427v-700h-427v700zM78 680l185 -309l186 309h-371zM276 350l181 -303v605zM251 350l-180 300v-601zM264 329l-185 -308h370z" />
    <glyph glyph-name="uni0000" horiz-adv-x="0" 
 />
    <glyph glyph-name="uni0000" horiz-adv-x="0" 
 />
    <glyph glyph-name="uni000D" unicode="&#xd;" horiz-adv-x="0" 
 />
    <glyph glyph-name="uni000A" unicode="&#xa;" horiz-adv-x="0" 
 />
    <glyph glyph-name="space" unicode=" " horiz-adv-x="275" 
 />
    <glyph glyph-name="exclam" unicode="!" horiz-adv-x="235" 
d="M125 160h-12q-3 18 -14.5 79t-19 101.5t-16.5 94t-14 91t-5 56.5q0 34 21 54t57 20q28 0 48 -16.5t20 -57.5q0 -55 -24.5 -204.5t-40.5 -217.5zM122 127q24 0 42.5 -18.5t18.5 -43.5q0 -29 -18 -47t-46 -18q-26 0 -45 19t-19 46q0 24 21 43t46 19z" />
    <glyph glyph-name="quotedbl" unicode="&#x22;" horiz-adv-x="298" 
d="M106 681q9 0 15.5 -6.5t6.5 -15.5v-73q0 -9 -5 -21l-33 -65h-22l-32 66q-4 12 -4 20v73q0 9 6.5 15.5t15.5 6.5h52zM244 681q9 0 15.5 -6.5t6.5 -15.5v-73q0 -9 -5 -21l-33 -65h-22l-31 66q-5 10 -5 20v73q0 9 6.5 15.5t15.5 6.5h52z" />
    <glyph glyph-name="numbersign" unicode="#" horiz-adv-x="539" 
d="M35 182l14 49h87l26 93h-88l13 49h88l49 179h68l-50 -179h98l48 179h69l-51 -179h97l-13 -49h-96l-26 -93h98l-13 -49h-97l-50 -182h-66l48 182h-98l-48 -182h-68l50 182h-89zM230 324l-26 -93h97l26 93h-97z" />
    <glyph glyph-name="dollar" unicode="$" horiz-adv-x="543" 
d="M324 392q44 -28 66 -43.5t52.5 -43t44 -56.5t13.5 -62q0 -80 -55.5 -131t-146.5 -56v-75h-51v75q-107 6 -202 49v179h17q5 -8 13 -21.5t33.5 -48.5t50 -61.5t57 -48.5t60.5 -22q31 0 58.5 18.5t27.5 52.5q0 23 -10.5 44t-34 42t-42 34t-54.5 36q-34 22 -50 33.5t-43 33.5
t-40 40t-23.5 43.5t-10.5 52.5q0 87 57 138.5t136 54.5v62h51v-63q47 -2 90 -10t62 -14l20 -7v-202h-19l-2 4q-94 206 -190 206q-44 0 -68 -26q-19 -19 -18 -46q1 -23 12 -44t37 -43.5t44.5 -35.5t57.5 -38z" />
    <glyph glyph-name="percent" unicode="%" horiz-adv-x="628" 
d="M211 0h-89l287 631h89zM164 356q-53 0 -91.5 40t-38.5 96q0 57 38.5 98t91.5 41q52 0 90.5 -41t38.5 -98q0 -56 -38.5 -96t-90.5 -40zM165 620q-17 0 -30 -37t-13 -90t13 -90.5t30 -37.5t29.5 37.5t12.5 90.5t-12.5 90t-29.5 37zM465 0q-53 0 -91.5 40t-38.5 96
q0 58 38.5 98.5t91.5 40.5q52 0 90.5 -41t38.5 -98q0 -56 -38.5 -96t-90.5 -40zM466 265q-17 0 -30 -38t-13 -90t13 -89.5t30 -37.5t29.5 37t12.5 90t-12.5 90.5t-29.5 37.5z" />
    <glyph glyph-name="ampersand" unicode="&#x26;" horiz-adv-x="680" 
d="M504 129q63 -85 109 -110l17 -12v-12h-64q-88 0 -115 23q-3 3 -8 7.5t-8 8.5l-3 3q-22 -18 -37.5 -27t-57.5 -19.5t-99 -10.5q-76 0 -127 29t-67 80q-8 37 -7.5 66.5t17 56t33 45t40.5 34.5t39 24t29 14q-2 4 -14 20.5t-16.5 24.5t-12 24t-10.5 32t-3 34q0 66 45.5 99.5
t108.5 33.5q69 0 101 -35t32 -76q0 -25 -11.5 -47.5t-28 -36t-33.5 -23.5t-29 -14l-11 -4l169 -209q33 50 46 118l29 -5q-6 -34 -19 -68t-24 -51zM304 574q-26 0 -40.5 -23t-14.5 -55q0 -48 49 -117l6 3t14.5 11.5t18 21t14 32.5t6.5 46q0 31 -13 56t-40 25zM168 116
q46 -80 151 -80q33 0 60 7.5t34 16.5l-204 253q-4 -4 -11 -10.5t-21.5 -27t-22.5 -42.5t-6 -54t20 -63z" />
    <glyph glyph-name="quotesingle" unicode="'" horiz-adv-x="160" 
d="M106 681q9 0 15.5 -6.5t6.5 -15.5v-73q0 -9 -5 -21l-33 -65h-22l-32 66q-4 12 -4 20v73q0 9 6.5 15.5t15.5 6.5h52z" />
    <glyph glyph-name="parenleft" unicode="(" horiz-adv-x="242" 
d="M251 -100l-8 1q-73 10 -119.5 62t-60.5 128q-1 4 -2 9.5t-2 12.5t-2 11l-3 36q-3 18 -3 36q0 10 -1 15v16q-1 4 -1 15v30q0 9 -1 14v55q1 5 1 15v46q1 5 1.5 16t0.5 16q0 17 3 35l3 34l6 33q4 20 7 30q6 26 24 58q55 92 149 105l8 2v-34l-4 -2q-34 -16 -55.5 -63.5
t-28 -107t-8 -94t-0.5 -58.5v-126v-11l1 -24q0 -80 22 -157t71 -117l2 -3v-34z" />
    <glyph glyph-name="parenright" unicode=")" horiz-adv-x="242" 
d="M-10 -100v34l3 3q38 31 60.5 90t27 98.5t4.5 73.5q0 8 0.5 23.5t1.5 23.5v125q1 24 -1 59t-8.5 94.5t-28 107t-55.5 63.5l-4 2v34l9 -2q71 -10 110 -55q44 -44 63 -108q6 -25 6 -30l6 -33l4 -34q2 -24 3 -35q0 -6 0.5 -16.5t0.5 -15.5v-8l1 -15v-8v-129v-4l-1 -8v-4v-4
l-1 -7v-4v-15l-3 -36l-4 -35q-4 -24 -6 -34q0 -2 -6 -31q-10 -32 -25 -56q-50 -89 -148 -103z" />
    <glyph glyph-name="asterisk" unicode="*" horiz-adv-x="327" 
d="M291 551q4 -7 1 -18.5t-13 -14.5l-70 -22q-9 -2 -4 -10l49 -62q12 -18 -9 -34q-8 -5 -18 -5q-12 0 -17 9l-42 66q-2 3 -5.5 3t-5.5 -3l-42 -63q-6 -9 -18 -9q-10 0 -17 5q-8 5 -11.5 14t1.5 19l50 60q6 8 -3 10l-69 22q-10 3 -13 14.5t1 18.5q3 8 11 14t18 3l66 -29
q4 -2 7 0t2 6l-3 75q0 11 8.5 16.5t17.5 5.5q27 0 27 -23l-5 -74q-1 -4 2 -6t7 -1l67 30q20 7 30 -17z" />
    <glyph glyph-name="plus" unicode="+" horiz-adv-x="453" 
d="M264 319h159v-39h-159v-180h-76v180h-159v39h159v176h76v-176z" />
    <glyph glyph-name="comma" unicode="," horiz-adv-x="191" 
d="M92 121q29 0 47.5 -19.5t18.5 -53.5q0 -62 -51 -108l-9 6q7 9 10.5 21t0 22.5t-16.5 10.5q-26 0 -43 16t-17 42t17 44.5t43 18.5z" />
    <glyph glyph-name="hyphen" unicode="-" horiz-adv-x="279" 
d="M250 250h-222v64h222v-64z" />
    <glyph glyph-name="period" unicode="." horiz-adv-x="188" 
d="M94 122q25 0 43.5 -17t18.5 -43q0 -23 -18.5 -42.5t-43.5 -19.5q-28 0 -45 19t-17 43q0 26 18 43t44 17z" />
    <glyph glyph-name="slash" unicode="/" horiz-adv-x="440" 
d="M119 0h-108l271 631h108z" />
    <glyph glyph-name="zero" unicode="0" horiz-adv-x="582" 
d="M540 316q0 -130 -72.5 -222.5t-174.5 -92.5q-104 0 -177.5 92t-73.5 223t73.5 223t177.5 92q102 0 174.5 -92.5t72.5 -222.5zM387 316q0 128 -29 213.5t-65 85.5q-40 0 -68 -87.5t-28 -211.5t28 -211.5t68 -87.5q36 0 65 85.5t29 213.5z" />
    <glyph glyph-name="one" unicode="1" horiz-adv-x="282" 
d="M231 1h-141v494q0 25 -13 36.5t-25 10.5h-13v22l192 67v-630z" />
    <glyph glyph-name="two" unicode="2" horiz-adv-x="512" 
d="M447 1h-417v14q77 63 148 130q85 78 121.5 164.5t3.5 163.5q-15 34 -48 53.5t-72 19.5q-79 0 -123 -70l-13 5l8 16t25 36t43 46t61 36t81 16q82 0 133.5 -36t65.5 -104q11 -52 -11 -106.5t-61.5 -95.5t-80.5 -74.5t-71 -50.5l-30 -18h237v-145z" />
    <glyph glyph-name="three" unicode="3" horiz-adv-x="495" 
d="M314 348q58 -7 100 -47t41 -111q-2 -87 -69 -141.5t-164 -54.5q-46 0 -98 20.5t-93 53.5l15 14q31 -24 93 -24q53 0 94 29t54 96q11 55 -5.5 93t-60.5 50q-4 1 -5 5.5t2 7.5q27 24 40.5 57t11.5 60.5t-15 41.5q-36 37 -82 37q-30 0 -58 -14.5t-44 -33.5l-2 -2l-13 5l3 4
q38 63 83.5 100.5t114.5 37.5q50 0 92 -28.5t51 -91.5q7 -45 -17 -93t-69 -71z" />
    <glyph glyph-name="four" unicode="4" horiz-adv-x="535" 
d="M411 1h-143v117h-244v19l370 494h17l1 -397h86v-116h-87v-117zM268 433l-152 -199h152v199z" />
    <glyph glyph-name="five" unicode="5" horiz-adv-x="458" 
d="M416 201q-5 -85 -67 -146t-154 -61q-39 0 -88 14t-75 41l9 14q43 -24 80 -24q62 0 101.5 56.5t41.5 137.5q3 82 -43 132q-3 4 -7.5 7t-10.5 6t-11 5t-13 4t-13 3.5t-14.5 3t-13.5 2.5t-15 2.5t-14 2.5q-16 1 -26 13q-13 18 -8 39l31 178h259v-120h-260l-8 -48
q-3 -17 5 -28q8 -10 61 -10q99 0 161 -39q43 -26 69 -73t23 -112z" />
    <glyph glyph-name="six" unicode="6" horiz-adv-x="487" 
d="M448 220q9 -95 -50.5 -157t-142.5 -62q-101 0 -157.5 69t-56.5 172q0 132 89.5 246t217.5 143h4l5 -19l-4 -1q-58 -13 -101.5 -84t-57.5 -136q3 2 8.5 4t24.5 5.5t39 2.5q63 -3 118 -46.5t64 -136.5zM211 377q-18 -5 -22.5 -44.5t-0.5 -76t10 -69.5q16 -75 42 -123.5
t51 -44.5q23 5 24 70t-13 123q-16 77 -40.5 124.5t-50.5 40.5z" />
    <glyph glyph-name="seven" unicode="7" horiz-adv-x="447" 
d="M184 1h-152l233 607h-233v23h397z" />
    <glyph glyph-name="eight" unicode="8" horiz-adv-x="522" 
d="M478 170q-11 -57 -75.5 -117.5t-146.5 -60.5q-97 0 -158 56.5t-57 146.5q7 108 110 170q-8 6 -19 17t-30 42.5t-19 59.5q0 71 57 110.5t135 39.5q62 0 110.5 -41t39.5 -102q-4 -27 -22.5 -50.5t-34.5 -33.5l-17 -10q36 -31 57 -51.5t42.5 -49.5t28 -60t-0.5 -66zM342 406
q18 33 24 79.5t-11 87t-61 44.5q-34 4 -55.5 -20t-13.5 -55q4 -15 13 -31t24.5 -32t25.5 -26t30 -26.5t24 -20.5zM349 129q-7 32 -33 69.5t-50.5 61t-61 56t-42.5 38.5q-27 -54 -38 -114.5t-3.5 -113t42.5 -87t93 -34.5q44 0 73 39.5t20 84.5z" />
    <glyph glyph-name="nine" unicode="9" horiz-adv-x="487" 
d="M39 413q-9 95 50.5 156.5t142.5 61.5q101 0 157.5 -69t56.5 -171q0 -132 -89.5 -246t-218.5 -143l-3 -1l-5 20l3 1q41 9 77 51t55 86t27 83q-3 -2 -8.5 -4t-24 -5.5t-38.5 -2.5q-64 3 -118.5 46.5t-63.5 136.5zM275 255q18 5 22.5 44t0.5 77t-10 69q-15 74 -41 123
t-51 45q-24 -4 -25 -69.5t13 -122.5q16 -77 40.5 -124.5t50.5 -41.5z" />
    <glyph glyph-name="colon" unicode=":" horiz-adv-x="200" 
d="M100 335q-28 0 -45 19t-17 43q0 26 18 43t44 17q25 0 43.5 -17t18.5 -43q0 -23 -18.5 -42.5t-43.5 -19.5zM100 122q25 0 43.5 -17t18.5 -43q0 -23 -18.5 -42.5t-43.5 -19.5q-28 0 -45 19t-17 43q0 26 18 43t44 17z" />
    <glyph glyph-name="semicolon" unicode=";" horiz-adv-x="203" 
d="M102 338q-28 0 -45.5 19t-17.5 43q0 26 18 43t45 17q25 0 43 -17t18 -43q0 -23 -18 -42.5t-43 -19.5zM98 121q29 0 47.5 -19.5t18.5 -53.5q0 -62 -51 -108l-9 6q7 9 10.5 21t0 22.5t-16.5 10.5q-26 0 -43 16t-17 42t17 44.5t43 18.5z" />
    <glyph glyph-name="less" unicode="&#x3c;" horiz-adv-x="467" 
d="M428 100l-395 180v71l395 180v-65l-296 -134l296 -136v-96z" />
    <glyph glyph-name="equal" unicode="=" horiz-adv-x="465" 
d="M429 295h-394v76h394v-76zM429 150h-394v75h394v-75z" />
    <glyph glyph-name="greater" unicode="&#x3e;" horiz-adv-x="467" 
d="M39 100v65l296 133l-296 137v96l395 -180v-71z" />
    <glyph glyph-name="question" unicode="?" horiz-adv-x="436" 
d="M219 649q76 0 129.5 -44t53.5 -113q-1 -36 -17.5 -69t-40.5 -56t-52 -49.5t-52 -49.5t-40 -54.5t-16 -66.5h-21q0 51 14 100.5t31.5 81t31.5 67.5t14 64q0 49 -29.5 77t-69.5 28q-33 0 -65 -15t-48 -41h-20q27 63 78 101.5t119 38.5zM174 122q25 0 43 -18t18 -43
t-17.5 -43t-43.5 -18q-25 0 -43 18.5t-18 45.5q0 24 18.5 41t42.5 17z" />
    <glyph glyph-name="at" unicode="@" horiz-adv-x="717" 
d="M631 -20q-21 -23 -40 -40t-54.5 -39t-86.5 -34t-113 -12q-122 0 -209.5 83t-87.5 207q0 158 106.5 252t258.5 94q111 0 191 -71.5t80 -207.5q0 -91 -53.5 -152t-151.5 -61q-35 0 -61 21q-14 13 -34 13q-17 0 -33 -11q-30 -23 -61 -23q-54 0 -83 41.5t-29 99.5
q0 84 50 140t129 56q25 0 43 -15.5t25 -42.5l14 47h139q-73 -219 -73 -280q0 -6 4.5 -13.5t13.5 -7.5q55 0 98.5 55t43.5 127q0 113 -70 189t-182 76q-154 0 -248.5 -98.5t-94.5 -227.5q0 -115 84 -193.5t191 -78.5q177 0 272 108zM289 63q0 -49 11 -49q25 0 46.5 30.5
t33.5 73t18.5 79t6.5 55.5q0 60 -26 60q-34 0 -62 -102t-28 -147z" />
    <glyph glyph-name="A" unicode="A" 
d="M587 19q4 -3 2.5 -10.5t-9.5 -7.5h-155q-16 0 -6 16q5 8 -64 210h-244q-11 -52 -6.5 -97t13.5 -74t19 -42q3 -4 1.5 -9t-6.5 -5h-119q-4 0 -7 2.5t-2 6.5q2 18 11.5 47.5t18 50.5t22 53.5t15.5 36.5q74 191 156 395q-10 22 -15 24q-6 2 -5.5 9t6.5 7h158q8 0 9.5 -7
t-3.5 -9q-4 -3 -5 -9.5t1.5 -17t5 -18t8 -22t7.5 -19.5q8 -25 83.5 -240.5t80.5 -227.5q3 -8 6 -14.5t5 -10t5 -7t4 -4.5t4.5 -3.5t4.5 -3.5zM117 249h231l-109 316q-91 -231 -107 -270q-9 -25 -15 -46z" />
    <glyph glyph-name="B" unicode="B" horiz-adv-x="560" 
d="M326 350q85 0 148 -50t63 -127q0 -83 -64 -128t-186 -45h-243q-6 0 -7.5 5.5t3.5 9.5q13 9 13 35v530q0 27 -13 37q-5 4 -4 9t8 5h208q122 0 182.5 -36.5t60.5 -98.5q0 -31 -16.5 -57t-44 -43t-53.5 -28t-55 -18zM209 614q-24 0 -24 -32v-272q32 17 88 41q40 16 70 56
t30 85q0 122 -133 122h-31zM241 17q184 0 184 160q0 75 -36.5 113.5t-87.5 38.5q-39 0 -116 -42v-236q0 -34 16 -34h40z" />
    <glyph glyph-name="C" unicode="C" horiz-adv-x="612" 
d="M582 202l19 -10q-3 -9 -10 -23t-32.5 -49.5t-56.5 -62t-83.5 -47t-111.5 -16.5q-80 5 -139 41.5t-88.5 89t-42.5 100t-13 89.5q0 143 79.5 236t219.5 93q172 0 246 -151l-117 -35q-15 75 -56.5 121.5t-96.5 46.5q-15 0 -28 -3q-42 -9 -73 -54.5t-44.5 -108t-7.5 -133
t30 -130t75.5 -98.5t121.5 -39q41 0 78 14.5t60 35.5t40 42.5t24 36.5z" />
    <glyph glyph-name="D" unicode="D" horiz-adv-x="595" 
d="M252 631q133 0 226 -85.5t93 -228.5q0 -60 -17 -115t-51.5 -101t-92.5 -73.5t-133 -27.5h-233q-6 0 -7.5 5.5t3.5 9.5q13 9 13 35v530q0 27 -13 37q-5 4 -4 9t8 5h208zM268 17q51 0 87 44t51 107.5t15 140.5q0 161 -47 233t-125 72h-40q-24 0 -24 -32v-531q0 -34 16 -34
h67z" />
    <glyph glyph-name="E" unicode="E" horiz-adv-x="540" 
d="M349 607h-59q-44 0 -74.5 -31t-30.5 -75v-226q50 49 109 76t93 30l34 3l-1 -96q-24 5 -60 5q-107 0 -175 -54v-143q0 -30 21 -51t50 -21h91q94 0 139 139q2 7 11 5t9 -9v-159h-462q-7 0 -8 5.5t4 9.5q13 9 13 35v530q0 27 -13 37q-5 3 -4 7.5t7 5.5l-3 1h468v-159
q0 -7 -9 -8.5t-10 5.5q-17 54 -51 96t-89 42z" />
    <glyph glyph-name="F" unicode="F" horiz-adv-x="520" 
d="M185 239v-188q0 -27 13 -36q5 -4 3.5 -9.5t-8.5 -5.5h-149q-7 0 -8 5.5t4 9.5q13 9 13 35v530q0 27 -13 37q-5 3 -4 7.5t7 5.5l-3 1h468v-159q0 -7 -9 -8.5t-10 5.5q-17 54 -51 96t-89 42h-59q-44 0 -74.5 -31t-30.5 -75v-226q50 49 109 76t93 30l34 3l-1 -96
q-24 5 -60 5q-107 0 -175 -54z" />
    <glyph glyph-name="G" unicode="G" horiz-adv-x="630" 
d="M613 312q-17 -32 -17 -84v-35q-7 -20 -26.5 -49.5t-53 -65.5t-86 -60.5t-111.5 -24.5q-137 0 -215.5 92t-78.5 232q0 139 78.5 231t215.5 92q169 0 242 -148l-115 -35q-15 74 -55.5 119.5t-94.5 45.5q-14 0 -28 -3q-36 -7 -63 -43t-38.5 -87.5t-13.5 -111.5t14 -119
t43 -107.5t74.5 -78.5t107.5 -30q34 0 67 12v175q0 47 -19 83q-2 5 0.5 9t7.5 4h158q5 0 7.5 -4.5t-0.5 -8.5z" />
    <glyph glyph-name="H" unicode="H" horiz-adv-x="596" 
d="M543 51q0 -27 13 -36q5 -4 3.5 -9.5t-8.5 -5.5h-149q-6 0 -7.5 5.5t3.5 9.5q13 9 13 35v273h-226v-272q0 -27 13 -36q5 -4 3.5 -9.5t-8.5 -5.5h-149q-6 0 -7.5 5.5t3.5 9.5q13 9 13 35v530q0 27 -13 37q-5 4 -4 9t8 5h149q7 0 8.5 -5t-3.5 -9q-13 -9 -13 -35v-239h226
v237q0 27 -13 37q-5 4 -3.5 9t7.5 5h149q7 0 8.5 -5t-3.5 -9q-13 -10 -13 -35v-531z" />
    <glyph glyph-name="I" unicode="I" horiz-adv-x="238" 
d="M185 51q0 -27 13 -36q5 -4 3.5 -9.5t-8.5 -5.5h-149q-6 0 -7.5 5.5t3.5 9.5q13 9 13 35v530q0 27 -13 37q-5 4 -4 9t8 5h149q7 0 8.5 -5t-3.5 -9q-13 -9 -13 -35v-531z" />
    <glyph glyph-name="J" unicode="J" horiz-adv-x="261" 
d="M69 631h148q7 0 8.5 -5t-3.5 -9q-13 -10 -13 -35l1 -473q0 -117 -106 -117q-39 0 -86 35q-5 5 -5 9.5t4.5 7t8.5 0.5q8 -3 13 -3q19 0 28.5 26.5t9.5 57.5v455q0 27 -13 37q-5 4 -3.5 9t8.5 5z" />
    <glyph glyph-name="K" unicode="K" horiz-adv-x="557" 
d="M554 16q5 0 5.5 -8.5t-5.5 -8.5h-124q-43 0 -65 42q-60 120 -110 224q-12 24 -25.5 35.5t-21 13t-20.5 1.5h-3v-264q0 -27 13 -36q5 -4 3.5 -9.5t-8.5 -5.5h-149q-6 0 -7.5 5.5t3.5 9.5q13 9 13 35v530q0 27 -13 37q-5 4 -4 9t8 5h149q7 0 8.5 -5t-3.5 -9q-13 -9 -13 -35
v-244q83 30 135 119.5t31 171.5q5 1 13 1.5t28.5 -1t36 -5.5t28.5 -16.5t13 -30.5q0 -55 -79 -132t-161 -113h74q26 0 48 -14.5t34 -38.5q4 -7 22 -46t34 -70.5t36 -68t37.5 -57.5t29.5 -21h9z" />
    <glyph glyph-name="L" unicode="L" horiz-adv-x="477" 
d="M40 0l3 1q-6 1 -7 5.5t4 8.5q13 10 13 36v531q0 25 -13 35q-5 4 -4 9t8 5h149q7 0 8.5 -5t-3.5 -9q-13 -9 -13 -37v-491q0 -27 19 -46t45 -19h60q55 0 89 42.5t50 96.5q2 7 11 5t9 -9v-159h-428z" />
    <glyph glyph-name="M" unicode="M" horiz-adv-x="741" 
d="M687 51q0 -26 14 -36q5 -4 3.5 -9.5t-8.5 -5.5h-149q-7 0 -8 5.5t4 9.5q12 8 13 35v510l-204 -546q-3 -9 -12 -9q-10 0 -13 8l-252 545v-507q0 -27 13 -36q5 -4 3.5 -9.5t-8.5 -5.5h-39q-6 0 -7.5 5.5t3.5 9.5q13 9 13 35v530q0 27 -13 37q-5 4 -4 9t8 5h129q20 0 26 -15
l193 -424l161 426q5 13 20 13h123q7 0 8.5 -5t-3.5 -9q-13 -9 -13 -35z" />
    <glyph glyph-name="N" unicode="N" horiz-adv-x="580" 
d="M526 0h-32q-342 458 -419 557v-506q0 -27 13 -36q5 -4 3.5 -9.5t-8.5 -5.5h-39q-6 0 -7.5 5.5t3.5 9.5q13 9 13 35v530q0 27 -13 37q-5 4 -4 9t8 5h147l313 -409v358q0 28 -13 37q-5 4 -3.5 9t8.5 5h39q7 0 8 -5t-4 -9q-12 -9 -13 -35v-582z" />
    <glyph glyph-name="O" unicode="O" horiz-adv-x="698" 
d="M337 643q135 0 234.5 -96t103.5 -231q5 -135 -87 -231q-92 -95 -227 -95q-136 0 -235 95.5t-104 230.5t88 231q91 96 227 96zM470 32q67 28 79.5 131t-37.5 221q-42 100 -109.5 162t-131.5 62q-24 0 -41 -8q-67 -28 -79 -131t38 -221q42 -100 109 -162t131 -62q24 0 41 8
z" />
    <glyph glyph-name="P" unicode="P" horiz-adv-x="518" 
d="M44 631h231q119 0 173.5 -48t54.5 -126q0 -55 -23.5 -96t-62 -61.5t-78.5 -30t-83 -9.5q-38 0 -71 7v-216q0 -27 13 -36q5 -4 3.5 -9.5t-8.5 -5.5h-149q-6 0 -7.5 5.5t3.5 9.5q13 9 13 35v530q0 27 -13 37q-5 4 -4 9t8 5zM185 283q24 -6 46 -6q62 0 102 45t40 126
q0 64 -31.5 115t-101.5 51h-31q-24 0 -24 -32v-299z" />
    <glyph glyph-name="Q" unicode="Q" horiz-adv-x="699" 
d="M441 -39q64 -37 122 -37q57 0 68 27h9q-35 -93 -120 -93q-37 0 -65 14t-65 43q-56 44 -88 50q-10 2 -19.5 -0.5t-14.5 -6.5l-4 -3l-5 3q26 29 58 34q-121 17 -206 109t-89 215q-5 135 88 231t228 96t234.5 -96t103.5 -232q5 -135 -88 -231q-86 -89 -212 -94q25 -6 58 -26
zM188 247q42 -100 109 -162t131 -62q25 0 42 8q67 28 79 131.5t-38 221.5q-42 100 -109.5 162t-131.5 62q-24 0 -41 -8q-67 -28 -79 -131t38 -222z" />
    <glyph glyph-name="R" unicode="R" horiz-adv-x="587" 
d="M580 16q7 0 7 -11q1 -6 -4 -6h-124q-43 0 -72 42q-11 17 -58.5 80t-66.5 92q-28 41 -53 50q-5 1 -13.5 2.5t-10.5 1.5v-216q0 -27 13 -36q5 -4 3.5 -9.5t-8.5 -5.5h-149q-6 0 -7.5 5.5t3.5 9.5q13 9 13 35v530q0 27 -13 37q-5 4 -4 9t8 5h231q118 0 173 -50t55 -124
q0 -79 -43.5 -124t-112.5 -62q34 -10 53 -37q5 -7 26.5 -39t40 -58t41 -56t39 -47.5t24.5 -17.5h9zM185 582v-299q24 -6 46 -6q62 0 102 45t40 126q0 64 -31.5 115t-101.5 51h-31q-24 0 -24 -32z" />
    <glyph glyph-name="S" unicode="S" horiz-adv-x="520" 
d="M308 380q191 -112 191 -219q0 -76 -65 -123t-175 -47q-83 0 -156 50t-73 110q0 91 116 91q11 0 15.5 -4.5t3 -10t-6.5 -8.5q-13 -8 -16 -32t5.5 -53t25 -57t46.5 -46.5t66 -18.5q32 0 53 21t21 60q0 21 -11 41.5t-35.5 42t-45 36t-56.5 37.5q-93 61 -121 89
q-56 54 -56 113q0 89 60 139.5t140 50.5q89 0 157.5 -40.5t68.5 -89.5q0 -40 -29.5 -57t-67.5 -17q-19 0 -28 3q-10 3 -10.5 11t7.5 12q15 15 5.5 49t-47.5 69t-78 35q-15 0 -30 -6q-18 -7 -27.5 -21.5t-7.5 -37t17 -48.5t52 -59t92 -65z" />
    <glyph glyph-name="T" unicode="T" horiz-adv-x="513" 
d="M7 631h498v-159h-11q-9 26 -65.5 77.5t-106.5 62.5v-561q0 -26 13 -36q5 -4 3.5 -9.5t-8.5 -5.5h-148q-7 0 -8.5 5.5t3.5 9.5q13 9 13 35v562q-50 -11 -106.5 -63t-64.5 -77h-12v159z" />
    <glyph glyph-name="U" unicode="U" horiz-adv-x="575" 
d="M536 631q7 0 8.5 -5t-3.5 -9q-13 -10 -13 -37v-319q0 -136 -61.5 -200t-168.5 -64q-64 0 -111.5 18t-74 45t-42.5 67.5t-20.5 76t-4.5 79.5l1 297q0 27 -13 37q-5 4 -4 9t8 5h149q7 0 8.5 -5t-3.5 -9q-13 -9 -13 -37v-316q0 -241 163 -241q73 0 120.5 60.5t47.5 176.5
v320q0 28 -13 37q-5 4 -3.5 9t8.5 5h35z" />
    <glyph glyph-name="V" unicode="V" horiz-adv-x="589" 
d="M585 623q-2 -17 -11 -47t-17 -50t-22.5 -54.5t-15.5 -36.5q-8 -19 -75 -188.5t-82 -205.5q12 -23 16 -25q6 -2 5 -9t-6 -7h-158q-6 0 -8 3.5t-1.5 7.5t3.5 5q4 3 5 9t-2 17.5t-5 18t-8 22.5t-7 19q-8 25 -83.5 240.5t-80.5 227.5q-3 8 -6 14.5t-5 10t-5 7t-4 4.5
t-4.5 3.5t-4.5 3.5q-4 3 -2.5 10.5t9.5 7.5h154q8 0 9 -5.5t-3 -10.5q-3 -5 42 -142t92 -271l46 -135q92 231 108 270q25 61 27 125.5t-8.5 101.5t-23.5 54q-3 4 -2 9.5t6 5.5h119q11 0 9 -10z" />
    <glyph glyph-name="W" unicode="W" horiz-adv-x="862" 
d="M859 621q-2 -18 -11.5 -47.5t-18 -50.5t-22 -53.5t-15.5 -36.5q-55 -147 -157 -395q12 -23 16 -25q6 -2 5 -8.5t-6 -6.5h-158q-8 0 -9.5 7t3.5 9q4 3 5 9t-1.5 16.5t-5 18.5t-8 22t-7.5 20q-1 5 -6.5 19.5t-14.5 41t-17 49.5q-39 -99 -69 -172q12 -23 16 -25q6 -2 5 -8.5
t-6 -6.5h-158q-8 0 -9.5 7t3.5 9q4 3 5 9t-2 16.5t-5 18t-7.5 22.5t-7.5 20q-8 25 -83.5 240t-80.5 227q-3 8 -6 14.5t-5 10t-5 7t-4 4.5t-4.5 3.5t-4.5 3.5q-4 3 -2.5 10.5t9.5 7.5h154q8 0 9 -6t-3 -10q-3 -5 42 -142t92 -271l46 -134q36 90 70 177q-21 58 -49.5 139
t-46.5 132t-19 54q-3 8 -6 14.5t-5 10t-5 7t-4 4.5t-4.5 3.5t-4.5 3.5q-4 3 -2.5 10.5t9.5 7.5h154q15 0 7 -16q-4 -5 41 -142t91 -271l47 -134q94 230 108 270q22 62 24 125.5t-7.5 101.5t-21.5 54q-3 4 -2 9t6 5h120q9 0 9 -9z" />
    <glyph glyph-name="X" unicode="X" horiz-adv-x="568" 
d="M562 18q5 -5 4 -11.5t-6 -6.5h-163q-16 0 -10 17q5 14 -39 85q-1 2 -15.5 24t-42 65t-51.5 80q-49 -58 -75.5 -149t-9.5 -110q3 -4 2 -8.5t-6 -4.5h-120q-9 0 -9 9q3 27 74 117.5t134 162.5q-117 185 -156 244q-25 42 -65 82q-5 5 -3.5 11.5t6.5 6.5h162q16 0 11 -16
t39 -85q1 -3 13.5 -22t36.5 -57.5t44 -69.5q50 58 70.5 137t3.5 100q-3 4 -2 8.5t6 4.5h120q9 0 9 -9q-5 -45 -196 -258q32 -49 75 -116.5t67.5 -106.5t26.5 -42q27 -44 65 -82z" />
    <glyph glyph-name="Y" unicode="Y" horiz-adv-x="550" 
d="M341 51q0 -27 13 -36q5 -4 3.5 -9.5t-8.5 -5.5h-148q-7 0 -8.5 5.5t3.5 9.5q13 9 13 35v265q-147 223 -153 232q-32 52 -55 66q-6 4 -5 11t6 7h164q16 0 11 -16q-6 -17 30 -72l132 -201q33 35 55.5 79t31.5 82t7 69.5t-15 45.5q-4 3 -2.5 8t6.5 5h120q9 0 9 -9
q0 -55 -210 -307v-264z" />
    <glyph glyph-name="Z" unicode="Z" horiz-adv-x="540" 
d="M508 631q8 0 12 -6.5t0 -13.5l-330 -587h163q55 0 89 42.5t50 96.5q2 7 11 5t9 -9v-159h-481q-11 0 -16.5 10t0.5 20l333 577h-138q-54 0 -88 -42t-51 -96q-2 -7 -11 -5.5t-9 8.5v159h457z" />
    <glyph glyph-name="bracketleft" unicode="[" horiz-adv-x="192" 
d="M236 -100h-186v829h186v-92h-94v-645h94v-92z" />
    <glyph glyph-name="backslash" unicode="\" horiz-adv-x="369" 
d="M345 0h-106l-216 631h106z" />
    <glyph glyph-name="bracketright" unicode="]" horiz-adv-x="192" 
d="M141 -100h-186v92h95v645h-95v92h186v-829z" />
    <glyph glyph-name="underscore" unicode="_" horiz-adv-x="605" 
d="M554 -150h-504v105h504v-105z" />
    <glyph glyph-name="grave" unicode="`" horiz-adv-x="181" 
d="M95 671l58 -121h-62l-100 121h104z" />
    <glyph glyph-name="a" unicode="a" horiz-adv-x="485" 
d="M458 29q6 0 7 -5.5t-5 -8.5q-12 -9 -70 -9q-30 0 -51.5 11t-28.5 21l-6 11l-7 -6q-42 -46 -116 -46q-64 0 -110 32.5t-47 95.5q0 18 9.5 40.5t35 52t83.5 53t140 32.5v77q0 36 -18.5 56t-47.5 20q-50 0 -77.5 -57t-9.5 -82q3 -5 -0.5 -10.5t-7.5 -6.5q-26 -4 -53 11
t-27 46q0 51 59.5 83.5t136.5 32.5q76 0 128.5 -35t52.5 -105v-242q0 -14 0.5 -19.5t2.5 -18.5t9 -18.5t18 -5.5zM237 33q18 0 33 7.5t21 14.5l6 7q-5 14 -5 34v191q-23 -4 -38 -7.5t-41 -14.5t-40.5 -26.5t-24.5 -43.5t-6 -65q5 -41 31 -69t64 -28z" />
    <glyph glyph-name="b" unicode="b" horiz-adv-x="519" 
d="M181 418q52 51 122 51q76 0 132 -64t56 -174q0 -114 -64.5 -174.5t-148.5 -60.5q-59 0 -100 29q-9 -19 -29 -19h-108q-7 0 -8.5 5t3.5 9q13 9 13 36v494q0 10 -6 9q-9 -1 -11 8.5t7 13.5q90 42 122 53q11 4 15.5 1t4.5 -10v-207zM246 21q56 0 84.5 56.5t28.5 146.5
q0 105 -27.5 157.5t-69.5 52.5q-44 0 -81 -42v-346q27 -25 65 -25z" />
    <glyph glyph-name="c" unicode="c" horiz-adv-x="464" 
d="M437 98q2 2 6.5 -1t2.5 -7q-27 -40 -77 -68t-120 -25q-102 5 -162.5 68.5t-60.5 168.5q0 104 65 171t165 67q137 0 174 -86q12 -29 -16 -52.5t-73 -18.5q-17 2 -13 22q9 39 -24.5 75.5t-75.5 36.5q-17 0 -31 -7q-40 -18 -47 -86t15 -122q30 -87 81 -132.5t102 -45.5
q50 0 89 42z" />
    <glyph glyph-name="d" unicode="d" horiz-adv-x="524" 
d="M487 20q5 -4 3.5 -9t-8.5 -5h-108q-14 0 -23 9t-9 23v15q-55 -56 -127 -56q-77 0 -132.5 63.5t-55.5 173.5q0 114 64.5 174.5t148.5 60.5q60 0 102 -30v111q0 10 -7 9q-9 -1 -11 8.5t7 13.5q86 40 122 53q11 4 15.5 1t4.5 -10v-569q0 -26 14 -36zM342 80v336
q-31 29 -70 29q-56 0 -84.5 -57t-28.5 -147q0 -104 27.5 -156.5t69.5 -52.5q48 0 86 48z" />
    <glyph glyph-name="e" unicode="e" horiz-adv-x="474" 
d="M434 95q5 6 11 -1q4 -4 1 -9q-19 -36 -72 -62t-123 -26q-99 0 -160 63t-65 168q-3 103 59 173q65 71 168 71q86 0 138 -43t52 -102q0 -47 -26.5 -78.5t-62 -45t-69.5 -24t-51 -24.5t-4 -37q6 -7 16.5 -17.5t43.5 -28.5t67 -18q48 0 77 41zM237 449q-57 0 -76.5 -62.5
t-5 -134t47.5 -101.5q6 23 25.5 45t39 37t36.5 44t19 66q3 47 -20 76.5t-66 29.5z" />
    <glyph glyph-name="f" unicode="f" horiz-adv-x="264" 
d="M193 463h46q13 0 13 -11q0 -9 -12 -9h-47v-387q0 -26 13 -36q5 -4 3.5 -9t-8.5 -5h-148q-7 0 -8.5 5t3.5 9q13 10 13 35v388h-30q-13 0 -13 10t12 10h31v22q0 68 42 115t108 47q20 0 40 -5t30 -10l10 -5l-43 -92q-1 4 -3 11t-8.5 24t-14.5 29t-22 20.5t-30 4.5
q-19 -4 -20.5 -32.5t23.5 -68.5q19 -25 20 -60z" />
    <glyph glyph-name="g" unicode="g" horiz-adv-x="476" 
d="M451 23q19 -60 -20 -114t-109 -77q-54 -17 -105 -17q-50 0 -83 16t-33 46q0 26 26.5 40.5t45.5 11.5q12 -2 8 -19q-7 -27 22 -46t71 -19q48 0 96.5 33t48.5 77q0 21 -16.5 32t-40.5 11q-14 0 -26 -3q-112 -29 -178 -47q-39 -12 -59 -12q-31 0 -48.5 17t-17.5 46
q0 32 18.5 68.5t36.5 56.5l18 21l-7 4q-36 26 -53 64.5t-17 75.5q0 69 57 126t141 57q61 0 100 -22q34 31 70 31q15 0 28 -7q23 -14 14.5 -37t-29.5 -23q-27 32 -57 32l-17 -3q40 -26 61.5 -67.5t21.5 -86.5q0 -77 -56.5 -126t-134.5 -49q-55 0 -94 16q-16 7 -26 -6
q-26 -31 -26 -54q0 -9 8 -15t25 -2q59 12 170 40q23 6 46 6q43 0 76 -19.5t44 -56.5zM157 431q-28 -45 2 -166q15 -60 41.5 -94.5t59.5 -34.5q9 0 18 3q59 21 15 184q-16 61 -45 97.5t-59 32.5q-19 -3 -32 -22z" />
    <glyph glyph-name="h" unicode="h" horiz-adv-x="494" 
d="M459 20q5 -4 4 -9t-8 -5h-149q-7 0 -8.5 5t3.5 9q13 9 13 36v288q0 74 -57 74q-39 0 -77 -40v-322q0 -26 13 -36q5 -4 4 -9t-8 -5h-149q-7 0 -8.5 5t3.5 9q13 9 13 35v494q0 11 -6 10q-9 -1 -11 8.5t7 13.5q74 34 122 53q10 4 15 1t5 -10v-223q62 70 152 70
q51 0 82.5 -32.5t31.5 -74.5v-309q0 -26 13 -36z" />
    <glyph glyph-name="i" unicode="i" horiz-adv-x="231" 
d="M115 501q-27 0 -46 19.5t-19 46.5t19 46t46 19t46.5 -19t19.5 -46t-19.5 -46.5t-46.5 -19.5zM194 20q5 -4 4 -9t-8 -5h-149q-7 0 -8.5 5t3.5 9q13 9 13 35v321q0 10 -6 9q-9 -1 -11 8.5t7 13.5q88 41 122 54q20 7 20 -10v-395q0 -26 13 -36z" />
    <glyph glyph-name="j" unicode="j" horiz-adv-x="227" 
d="M116 501q-27 0 -46 19.5t-19 46.5t19 46t46 19q28 0 47 -19t19 -46t-19 -46.5t-47 -19.5zM161 461q20 7 20 -10l1 -502q0 -117 -106 -117q-39 0 -86 35q-5 5 -5 9.5t4.5 7t8.5 0.5q8 -3 13 -3q19 0 28.5 26.5t9.5 57.5v411q0 10 -6 9q-9 -1 -11 8.5t7 13.5q57 28 122 54z
" />
    <glyph glyph-name="k" unicode="k" horiz-adv-x="487" 
d="M469 22q5 0 5.5 -8.5t-5.5 -8.5h-124q-41 0 -65 41q-26 50 -100 181v-171q0 -26 13 -36q5 -4 4 -9t-8 -5h-149q-7 0 -8.5 5t3.5 9q13 9 13 35v494q0 11 -6 10q-9 -1 -11 8.5t7 13.5q74 34 122 53q10 4 15 1t5 -10v-347q10 18 41.5 57.5t85.5 83.5t94 44q26 0 41 -18.5
t14 -39t-5 -35.5q-8 -19 -30 -13q-44 11 -81 11q-38 0 -66 -12q-16 -7 -8 -24q5 -10 24 -45t31 -57t31.5 -57.5t33.5 -58t29.5 -46t26.5 -35t18 -11.5h9z" />
    <glyph glyph-name="l" unicode="l" horiz-adv-x="230" 
d="M193 20q5 -4 4 -9t-8 -5h-149q-7 0 -8.5 5t3.5 9q13 9 13 35v494q0 11 -6 10q-9 -1 -11 8.5t7 13.5q74 34 122 53q10 4 15 1t5 -10v-569q0 -26 13 -36z" />
    <glyph glyph-name="m" unicode="m" horiz-adv-x="746" 
d="M712 20q5 -4 3.5 -9t-8.5 -5h-148q-7 0 -8.5 5t3.5 9q13 10 13 36v286q0 74 -57 74q-43 0 -79 -43v-2l1 -6v-2v-307q0 -27 13 -36q5 -4 3.5 -9t-8.5 -5h-149q-7 0 -8 5t4 9q13 10 13 36l-1 286q0 74 -56 74q-30 0 -62 -26v-334q0 -27 13 -36q5 -4 3.5 -9t-8.5 -5h-149
q-6 0 -7.5 5t3.5 9q13 10 13 36v356q0 26 -13 36q-5 4 -4 9.5t8 5.5h108q14 0 23.5 -9.5t9.5 -23.5v-15q57 55 137 55q41 0 70 -22.5t39 -55.5q12 16 29 31t53 31t76 16q50 0 82 -33t32 -74v-307q0 -26 13 -36z" />
    <glyph glyph-name="n" unicode="n" horiz-adv-x="493" 
d="M459 20q5 -4 3.5 -9t-8.5 -5h-148q-7 0 -8.5 5t3.5 9q13 10 13 36v288q0 74 -57 74q-39 0 -76 -39v-323q0 -27 13 -36q5 -4 3.5 -9t-8.5 -5h-149q-7 0 -8 5t4 9q13 10 13 36v356q0 26 -13 36q-5 4 -4 9.5t8 5.5h108q14 0 23.5 -9.5t9.5 -23.5v-27q61 69 151 69
q50 0 82 -33t32 -74v-309q0 -26 13 -36z" />
    <glyph glyph-name="o" unicode="o" horiz-adv-x="505" 
d="M457 326q41 -92 10.5 -183.5t-115.5 -129.5q-41 -19 -87 -19q-68 0 -127.5 39.5t-89.5 107.5q-41 91 -10.5 182.5t115.5 130.5q41 19 86 19q67 0 127 -40t91 -107zM346 27q31 14 25 84t-44 156q-39 86 -88 136.5t-80 36.5t-25.5 -84.5t44.5 -155.5q39 -86 88 -136.5
t80 -36.5z" />
    <glyph glyph-name="p" unicode="p" horiz-adv-x="522" 
d="M180 451v-35q55 55 126 55q77 0 132.5 -63.5t55.5 -173.5q0 -114 -64.5 -174.5t-149.5 -60.5q-59 0 -100 29v-147q0 -27 13 -37q5 -4 4 -9t-8 -5h-149q-7 0 -8.5 5t3.5 9q13 9 13 35v497q0 10 -6 9q-9 -1 -11 8.5t7 13.5q88 41 122 54q20 7 20 -10zM249 24
q56 0 84.5 56.5t28.5 146.5q0 105 -27 157.5t-70 52.5q-48 0 -85 -47v-338q30 -28 69 -28z" />
    <glyph glyph-name="q" unicode="q" horiz-adv-x="498" 
d="M465 -156q5 -4 3.5 -9t-8.5 -5h-149q-7 0 -8 5t4 9q12 9 13 35v158q-47 -37 -105 -37q-77 0 -132.5 63.5t-55.5 173.5q0 108 63.5 174t147.5 66q48 0 91 -24q20 -11 42 -11q15 0 30 6q4 2 11 5t11.5 5t8.5 3q9 4 14.5 0.5t5.5 -10.5v-570q0 -28 13 -37zM320 60v374
q-15 18 -48 18q-56 0 -84.5 -58.5t-28.5 -149.5q0 -105 27.5 -157.5t69.5 -52.5q34 0 64 26z" />
    <glyph glyph-name="r" unicode="r" horiz-adv-x="380" 
d="M362 442q15 -22 7.5 -43.5t-17 -33t-19.5 -17.5q-8 -4 -17 -4q-10 0 -14 6q-33 59 -77 59q-23 0 -44 -21v-332q0 -27 13 -36q5 -4 3.5 -9t-8.5 -5h-149q-6 0 -7.5 5t3.5 9q13 10 13 36v356q0 26 -13 36q-5 4 -4 9.5t8 5.5h108q14 0 23.5 -9.5t9.5 -23.5v-16q37 60 106 60
q57 0 75 -32z" />
    <glyph glyph-name="s" unicode="s" horiz-adv-x="432" 
d="M342 225q80 -52 62 -129q-9 -41 -51.5 -70t-117.5 -29q-79 0 -133.5 31t-71.5 71q-12 27 7 51.5t47 33.5q4 1 8 0.5t6 -2t3.5 -3.5t1.5 -4t-1 -4q-10 -16 6 -54t55 -72t85 -34q33 0 45.5 20.5t1 49t-42.5 49.5q-14 9 -72.5 49.5t-79.5 54.5q-32 22 -53 63.5t-2 87.5
q18 44 62 66.5t100 22.5q105 0 167 -53q11 -10 12.5 -22t-3.5 -22t-15 -20.5t-18 -16.5t-15 -10q-8 -4 -14 -1t-6 11q0 53 -43 85t-88 32q-26 0 -36 -11q-13 -13 -16 -32t9 -42t41 -42q53 -36 160 -105z" />
    <glyph glyph-name="t" unicode="t" horiz-adv-x="287" 
d="M260 443h-58v-313q0 -31 9.5 -57.5t28.5 -26.5q6 0 13 3q4 2 8.5 -0.5t4.5 -7t-5 -9.5q-47 -35 -86 -35q-106 0 -106 117v329h-46q-13 0 -13 10t12 10q74 0 114.5 39t40.5 89q0 18 13 18q12 0 12 -15v-131h57q13 0 13 -11q0 -9 -12 -9z" />
    <glyph glyph-name="u" unicode="u" horiz-adv-x="495" 
d="M450 54q9 2 11 -7.5t-7 -13.5t-52 -13.5t-71 -13.5q-19 -4 -19 15v40q-1 -3 -3.5 -7t-13.5 -15t-24 -19.5t-37 -15.5t-52 -7q-62 0 -98.5 32t-36.5 74v309q0 27 -13 37q-5 4 -4 9t8 5h149q7 0 8.5 -5t-3.5 -9q-13 -9 -13 -37v-287q0 -31 17.5 -52.5t49.5 -21.5
q29 0 47.5 19t18.5 47v296q0 27 -13 36q-5 4 -3.5 9t8.5 5h148q7 0 8.5 -5t-3.5 -9q-13 -10 -13 -36v-353q0 -6 6 -6z" />
    <glyph glyph-name="v" unicode="v" horiz-adv-x="469" 
d="M460 453q-2 -18 -11.5 -47.5t-18 -50.5t-22 -53.5t-15.5 -36.5q-10 -26 -89 -219q10 -22 16 -25q6 -2 5 -8.5t-6 -6.5h-158q-8 0 -9.5 7t3.5 9q4 3 5 9t-2 16.5t-5 18t-7.5 22.5t-7.5 20q-40 122 -101 294q-4 12 -8.5 20.5t-6.5 10.5t-8 7l-6 5q-4 2 -2.5 10t9.5 8h154
q8 0 9 -6.5t-3 -10.5q-3 -5 26 -98t60 -184l31 -91q52 115 67 155q18 43 12 91t-18.5 80t-25.5 49q-3 4 -2 9.5t7 5.5h119q9 0 9 -10z" />
    <glyph glyph-name="w" unicode="w" horiz-adv-x="678" 
d="M668 453q-2 -23 -14.5 -58.5t-31 -80.5t-20.5 -49q-79 -192 -90 -219q12 -23 16 -25q6 -2 5 -8.5t-6 -6.5h-158q-8 0 -9.5 7t3.5 9q4 3 5 9t-1.5 16.5t-5 18.5t-8 22t-7.5 20q0 2 -3 9.5t-4 12.5q-6 -13 -12 -28t-13 -31.5t-10 -24.5q10 -22 16 -25q6 -2 5 -8.5t-6 -6.5
h-158q-8 0 -9.5 7t3.5 9q4 3 5 9t-2 16.5t-5 18t-7.5 22.5t-7.5 20q-40 122 -101 294q-4 12 -8.5 20.5t-6.5 10.5t-8 7l-6 5q-4 2 -2.5 10t9.5 8h154q8 0 9 -6.5t-3 -10.5q-3 -5 26 -98t60 -184l31 -91l38 84q-12 35 -33 95t-35.5 103t-16.5 47q-4 12 -8.5 20.5t-6.5 10.5
t-8 7l-6 5q-4 2 -2.5 10t9.5 8h155q14 0 6 -17q-3 -5 26 -98t60 -184l31 -91q52 115 67 155q18 43 11.5 91t-18.5 80t-25 49q-4 4 -2.5 9.5t6.5 5.5h119q4 0 7 -3t2 -7z" />
    <glyph glyph-name="x" unicode="x" horiz-adv-x="466" 
d="M454 24q5 -5 3.5 -11.5t-6.5 -6.5h-162q-16 0 -11 16q5 15 -39 85q-2 4 -41 65q-17 -31 -23 -64.5t-3.5 -56t11.5 -32.5q3 -4 1.5 -8.5t-6.5 -4.5h-119q-4 0 -7 2.5t-2 5.5q5 38 133 181q-97 152 -108 168q-27 44 -65 82q-5 5 -3.5 11.5t6.5 6.5h162q8 0 10.5 -5.5
t0.5 -10.5q-5 -16 39 -85q1 -3 51 -81q20 34 28 70.5t5.5 61.5t-11.5 36q-4 4 -2.5 9t6.5 5h119q10 -2 9 -9q-5 -40 -140 -194q95 -149 98 -155q33 -50 66 -81z" />
    <glyph glyph-name="y" unicode="y" horiz-adv-x="432" 
d="M413 463v-1q11 0 9 -9q-2 -18 -11 -47.5t-17.5 -50t-22.5 -54t-15 -36.5q-9 -24 -43.5 -107.5t-45.5 -110.5q-18 -45 -23 -57q-30 -80 -64.5 -118t-88.5 -38q-27 0 -51.5 15t-34.5 30l51 102q47 -47 96 -47q29 0 50 21t31 51h-17q-16 0 -21 13q-106 251 -140 344
q-4 12 -12 26.5t-14 24.5t-14 21.5t-9 13.5q-2 5 0.5 9t7.5 4h118q38 0 51 -33l107 -284q11 29 32 83q18 43 11.5 91t-18.5 80t-25 49q-3 4 -2 9.5t6 5.5h119z" />
    <glyph glyph-name="z" unicode="z" horiz-adv-x="476" 
d="M442 463q8 0 12 -6.5t0 -13.5l-259 -413h82q55 0 89 42t50 96q2 7 11 5t9 -9v-158h-400q-11 0 -16.5 9.5t0.5 19.5l262 404h-73q-95 0 -140 -139q-1 -7 -10 -5t-9 9v159h392z" />
    <glyph glyph-name="braceleft" unicode="{" horiz-adv-x="273" 
d="M251 -100q-45 0 -77 27t-44 60.5t-12 66.5q2 82 -1 134q-1 20 -8.5 37t-16.5 26.5t-18.5 16t-15.5 8.5t-7 2l-16 4v59l15 5q3 1 8 3t15.5 9.5t19 17.5t16 27.5t8.5 38.5q1 23 1.5 56t-0.5 55v22q0 33 12 66.5t44 60.5t77 27h67v-77q-32 4 -39 4q-56 0 -56 -34v-101
q0 -152 -53 -205q23 -22 36.5 -65.5t15 -65t1.5 -35.5v-139q0 -34 56 -34l39 4v-81h-67z" />
    <glyph glyph-name="bar" unicode="|" horiz-adv-x="192" 
d="M141 -100h-91v811h91v-811z" />
    <glyph glyph-name="braceright" unicode="}" horiz-adv-x="273" 
d="M21 -100h-66v77q31 -4 39 -4q56 0 56 34v101q1 10 0 42.5t12.5 84.5t40.5 78q-24 22 -37 65.5t-14.5 64.5t-1.5 36v139q0 34 -56 34l-39 -4v81h66q45 0 77 -27t44.5 -60.5t12.5 -66.5q-2 -82 1 -133q1 -15 5 -28t9.5 -22t12.5 -16.5t13.5 -12t12 -7t9.5 -4.5l3 -1l17 -4
v-59l-15 -5q-3 -1 -8 -3t-15.5 -9.5t-19 -17t-16 -27t-8.5 -38.5q-1 -23 -1.5 -56.5t-0.5 -55.5l1 -22q0 -33 -12.5 -66.5t-44.5 -60.5t-77 -27z" />
    <glyph glyph-name="uni00A0" unicode="&#xa0;" horiz-adv-x="275" 
 />
    <glyph glyph-name="exclamdown" unicode="&#xa1;" horiz-adv-x="219" 
d="M106 388q-24 0 -42.5 19t-18.5 44q0 29 18 47t45 18q26 0 45 -19.5t19 -45.5q0 -25 -20.5 -44t-45.5 -19zM115 355q4 -23 18.5 -101t23.5 -129.5t17.5 -109.5t8.5 -81q0 -34 -21 -54t-56 -20q-69 0 -69 74q0 53 24 199t41 222h13z" />
    <glyph glyph-name="cent" unicode="&#xa2;" horiz-adv-x="507" 
d="M453 126l17 -18q-2 -4 -7 -11.5t-22 -26t-37 -33t-52.5 -26.5t-68.5 -12v-159h-51v164q-79 16 -133.5 74.5t-59.5 152.5q-4 94 49 156.5t144 70.5v158h51v-159q75 -8 120 -51.5t48 -88.5q1 -23 -14.5 -46t-54.5 -23q-60 0 -79 70q-1 2 -4 16t-5 21t-6 20.5t-8 21
t-10 16.5t-13.5 13t-15.5 4q-7 0 -19 -5q-29 -14 -38 -64t3 -106t49.5 -106.5t90.5 -64.5q15 -4 30 -4q27 0 51 11.5t34 22.5z" />
    <glyph glyph-name="sterling" unicode="&#xa3;" horiz-adv-x="542" 
d="M483 91l21 -63q2 -3 -2 -5q-38 -23 -97 -23q-38 0 -126 30q-32 11 -65 11q-63 0 -114 -36q-15 -9 -22 5l-24 42q-7 13 3 21q11 10 21.5 21.5t26 33t22.5 43.5t11.5 52.5t-6.5 60.5l-5 14h-88v50h74q-3 13 -8.5 32.5t-6.5 23.5q-22 90 33 161q63 80 184 80q58 0 103 -32
t74 -126l2 -7l-111 -23v8q0 6 -1 18t-6 38t-13.5 47t-26 37.5t-41.5 16.5q-46 0 -61.5 -55.5t6.5 -126.5q2 -6 12 -38t16 -51q0 -3 4 -3h139v-50h-125q-6 0 -4 -4q3 -9 0 -34t-8 -52t-24 -60t-49 -58q-3 -3 -1.5 -6t5.5 -2q16 5 36 5q19 0 60 -9q60 -14 94 -14
q18 0 32.5 4.5t22.5 9t26 16.5q5 2 7 -3z" />
    <glyph glyph-name="yen" unicode="&#xa5;" horiz-adv-x="719" 
d="M494 631h175v-18q-4 -1 -10 -4t-22.5 -12.5t-31.5 -21.5t-31.5 -31t-26.5 -41l-95 -201v-16h117v-50h-116v-26q0 -14 1 -21h115v-51h-110q6 -42 18.5 -72.5t21.5 -39.5l9 -10v-16h-274v16q4 3 10.5 9.5t20 37.5t19.5 75h-111v51h115q1 7 1 21v26h-116v50h116v1l-101 181
q-30 53 -64.5 89t-53.5 46l-20 10v18h321v-16q-2 -1 -6 -3.5t-11.5 -12t-10.5 -22t0.5 -35t16.5 -48.5l68 -129q5 -8 13 -8t13 8l65 142q16 42 10.5 65.5t-20.5 32.5l-15 9v17z" />
    <glyph glyph-name="section" unicode="&#xa7;" horiz-adv-x="535" 
d="M375 194q85 -57 85 -130q0 -77 -61.5 -120.5t-144.5 -43.5q-38 0 -86 6.5t-77 13.5l-29 6v168h22q3 -7 9.5 -18t27 -39.5t42 -50.5t53.5 -40t63 -18q32 0 51 14.5t19 36.5q0 16 -9.5 30.5t-30.5 28t-37.5 22t-47.5 23.5q-43 21 -65.5 33t-54 35.5t-46 51.5t-14.5 63
q0 112 116 147q-84 54 -84 131q0 81 57.5 120t134.5 39q30 0 76 -9.5t76 -19.5l31 -9l-1 -163h-19q-4 6 -10.5 17t-28.5 38t-46 47.5t-60 37.5t-73 17q-18 0 -33 -7.5t-15 -21.5q0 -17 20.5 -35t41.5 -29t64 -32q38 -17 58.5 -27.5t52 -30.5t48 -37t29.5 -42.5t13 -53.5
q0 -54 -32.5 -92.5t-84.5 -56.5zM344 222q17 -1 27 9t10 27q0 7 -2.5 14.5t-8.5 14.5t-11 13t-15.5 12.5t-16.5 11t-18.5 11.5t-18 10t-18.5 9.5t-16 7.5q-45 23 -80 23q-20 0 -31.5 -8.5t-11.5 -21.5q0 -34 88.5 -82t122.5 -51z" />
    <glyph glyph-name="dieresis" unicode="&#xa8;" horiz-adv-x="302" 
d="M111 550h-81v88h81v-88zM272 550h-81v88h81v-88z" />
    <glyph glyph-name="copyright" unicode="&#xa9;" horiz-adv-x="713" 
d="M356 630q131 0 223.5 -92.5t92.5 -222.5t-92.5 -222.5t-223.5 -92.5q-130 0 -222.5 92t-92.5 223t92.5 223t222.5 92zM356 28q118 0 202.5 84t84.5 203t-84.5 203t-202.5 84t-202 -84t-84 -203t84 -203t202 -84zM411 206q26 -7 49.5 1t33.5 19l11 12l13 -14
q-2 -3 -5.5 -8.5t-16.5 -19.5t-28 -24.5t-39.5 -19.5t-51.5 -9q-70 0 -124 45.5t-58 127.5q-4 76 41 123.5t121 47.5q66 0 105 -34t42 -72q0 -18 -11.5 -35t-40.5 -17q-47 0 -59 53q0 2 -2.5 12t-4 15l-4.5 15t-6.5 16t-7.5 12.5t-10 9.5t-12 3t-14 -3q-22 -11 -28.5 -48.5
t2.5 -79.5t37 -80t68 -48z" />
    <glyph glyph-name="guillemotleft" unicode="&#xab;" horiz-adv-x="501" 
d="M289 436l-141 -167l141 -169h-113l-142 166l-2 2l2 4l144 164h111zM469 436l-141 -167l141 -169h-113l-142 166l-2 2q0 2 2 4l143 164h112z" />
    <glyph glyph-name="uni00AD" unicode="&#xad;" horiz-adv-x="0" 
 />
    <glyph glyph-name="registered" unicode="&#xae;" horiz-adv-x="482" 
d="M241 705q83 0 142.5 -59t59.5 -143t-59.5 -143.5t-142.5 -59.5q-84 0 -143.5 59.5t-59.5 143.5t59.5 143t143.5 59zM241 319q76 0 130 54t54 130t-54 130t-130 54t-130 -54t-54 -130q0 -77 53.5 -130.5t130.5 -53.5zM323 443q14 -20 27 -32t20 -13l6 -2v-7h-121v7
q15 9 4 41.5t-27 42.5q-8 4 -12.5 1.5t-4.5 -9.5q0 -29 5.5 -48t10.5 -24l5 -4v-6h-105v6q21 14 21 79v72q0 29 -5 48.5t-11 24.5l-5 6v6l101 1q49 0 77 -20t28 -55q0 -29 -20.5 -46.5t-50.5 -24.5q34 -9 57 -44zM217 492q55 3 55 66q0 62 -55 65v-131z" />
    <glyph glyph-name="degree" unicode="&#xb0;" horiz-adv-x="288" 
d="M143 731q48 0 81 -33.5t33 -81.5q0 -50 -32.5 -83t-81.5 -33q-48 0 -79.5 33t-31.5 83q0 49 32 82t79 33zM143 553q28 0 44.5 17t16.5 46q0 26 -17.5 44t-43.5 18t-42.5 -17.5t-16.5 -44.5q0 -29 16 -46t43 -17z" />
    <glyph glyph-name="acute" unicode="&#xb4;" horiz-adv-x="214" 
d="M84 121h102l-95 -121h-64z" />
    <glyph glyph-name="periodcentered" unicode="&#xb7;" horiz-adv-x="188" 
d="M94 322q25 0 43.5 -17t18.5 -42q0 -24 -18 -43.5t-44 -19.5q-28 0 -45 19.5t-17 43.5q0 25 18 42t44 17z" />
    <glyph glyph-name="cedilla" unicode="&#xb8;" horiz-adv-x="96" 
d="M65 -35q30 -3 52 -19t22 -44q0 -29 -21.5 -48.5t-48 -26.5t-55.5 -7q-32 0 -62 5l5 51q18 -2 40 -2q70 0 70 32q0 7 -5 14q-15 15 -63 15l22 76h58z" />
    <glyph glyph-name="guillemotright" unicode="&#xbb;" horiz-adv-x="501" 
d="M289 268q0 -1 -2 -3l-144 -165h-111l141 168l-141 168h113l142 -165zM466 271l3 -3q0 -2 -3 -3l-143 -165h-111l141 168l-141 168h113z" />
    <glyph glyph-name="questiondown" unicode="&#xbf;" horiz-adv-x="349" 
d="M256 386q-25 0 -43 18t-18 43t17.5 43t43.5 18q25 0 43 -18.5t18 -44.5q0 -24 -19 -41.5t-42 -17.5zM388 -1l19 1q-27 -63 -78 -101.5t-119 -38.5q-75 0 -128.5 43.5t-53.5 112.5q1 43 23.5 80.5t54.5 66t63.5 57t53.5 65t22 77.5h21q0 -65 -22.5 -125t-45 -107
t-22.5 -81q0 -49 29.5 -77.5t69.5 -28.5q33 0 64.5 14.5t48.5 41.5z" />
    <glyph glyph-name="Agrave" unicode="&#xc0;" 
d="M318 839l58 -121h-62l-100 121h104zM587 19q4 -3 2.5 -10.5t-9.5 -7.5h-155q-16 0 -6 16q5 8 -64 210h-244q-11 -52 -6.5 -97t13.5 -74t19 -42q3 -4 1.5 -9t-6.5 -5h-119q-4 0 -7 2.5t-2 6.5q2 18 11.5 47.5t18 50.5t22 53.5t15.5 36.5q74 191 156 395q-10 22 -15 24
q-6 2 -5.5 9t6.5 7h158q8 0 9.5 -7t-3.5 -9q-4 -3 -5 -9.5t1.5 -17t5 -18t8 -22t7.5 -19.5q8 -25 83.5 -240.5t80.5 -227.5q3 -8 6 -14.5t5 -10t5 -7t4 -4.5t4.5 -3.5t4.5 -3.5zM117 249h231l-109 316q-91 -231 -107 -270q-9 -25 -15 -46z" />
    <glyph glyph-name="Aacute" unicode="&#xc1;" 
d="M290 821h102l-95 -121h-64zM587 19q4 -3 2.5 -10.5t-9.5 -7.5h-155q-16 0 -6 16q5 8 -64 210h-244q-11 -52 -6.5 -97t13.5 -74t19 -42q3 -4 1.5 -9t-6.5 -5h-119q-4 0 -7 2.5t-2 6.5q2 18 11.5 47.5t18 50.5t22 53.5t15.5 36.5q74 191 156 395q-10 22 -15 24q-6 2 -5.5 9
t6.5 7h158q8 0 9.5 -7t-3.5 -9q-4 -3 -5 -9.5t1.5 -17t5 -18t8 -22t7.5 -19.5q8 -25 83.5 -240.5t80.5 -227.5q3 -8 6 -14.5t5 -10t5 -7t4 -4.5t4.5 -3.5t4.5 -3.5zM117 249h231l-109 316q-91 -231 -107 -270q-9 -25 -15 -46z" />
    <glyph glyph-name="Acircumflex" unicode="&#xc2;" 
d="M335 839l97 -121h-88l-47 73l-49 -73h-89l93 121h83zM587 19q4 -3 2.5 -10.5t-9.5 -7.5h-155q-16 0 -6 16q5 8 -64 210h-244q-11 -52 -6.5 -97t13.5 -74t19 -42q3 -4 1.5 -9t-6.5 -5h-119q-4 0 -7 2.5t-2 6.5q2 18 11.5 47.5t18 50.5t22 53.5t15.5 36.5q74 191 156 395
q-10 22 -15 24q-6 2 -5.5 9t6.5 7h158q8 0 9.5 -7t-3.5 -9q-4 -3 -5 -9.5t1.5 -17t5 -18t8 -22t7.5 -19.5q8 -25 83.5 -240.5t80.5 -227.5q3 -8 6 -14.5t5 -10t5 -7t4 -4.5t4.5 -3.5t4.5 -3.5zM117 249h231l-109 316q-91 -231 -107 -270q-9 -25 -15 -46z" />
    <glyph glyph-name="Atilde" unicode="&#xc3;" 
d="M383 817h56q0 -42 -21.5 -70t-62.5 -28q-27 0 -72 24q-28 16 -42 16q-15 0 -24 -11q-9 -9 -9 -30h-57q0 46 25 71q24 27 63 27q26 0 72 -23q25 -13 41 -13q17 0 22.5 9t8.5 28zM587 19q4 -3 2.5 -10.5t-9.5 -7.5h-155q-16 0 -6 16q5 8 -64 210h-244q-11 -52 -6.5 -97
t13.5 -74t19 -42q3 -4 1.5 -9t-6.5 -5h-119q-4 0 -7 2.5t-2 6.5q2 18 11.5 47.5t18 50.5t22 53.5t15.5 36.5q74 191 156 395q-10 22 -15 24q-6 2 -5.5 9t6.5 7h158q8 0 9.5 -7t-3.5 -9q-4 -3 -5 -9.5t1.5 -17t5 -18t8 -22t7.5 -19.5q8 -25 83.5 -240.5t80.5 -227.5
q3 -8 6 -14.5t5 -10t5 -7t4 -4.5t4.5 -3.5t4.5 -3.5zM117 249h231l-109 316q-91 -231 -107 -270q-9 -25 -15 -46z" />
    <glyph glyph-name="Adieresis" unicode="&#xc4;" 
d="M255 718h-81v88h81v-88zM416 718h-81v88h81v-88zM587 19q4 -3 2.5 -10.5t-9.5 -7.5h-155q-16 0 -6 16q5 8 -64 210h-244q-11 -52 -6.5 -97t13.5 -74t19 -42q3 -4 1.5 -9t-6.5 -5h-119q-4 0 -7 2.5t-2 6.5q2 18 11.5 47.5t18 50.5t22 53.5t15.5 36.5q74 191 156 395
q-10 22 -15 24q-6 2 -5.5 9t6.5 7h158q8 0 9.5 -7t-3.5 -9q-4 -3 -5 -9.5t1.5 -17t5 -18t8 -22t7.5 -19.5q8 -25 83.5 -240.5t80.5 -227.5q3 -8 6 -14.5t5 -10t5 -7t4 -4.5t4.5 -3.5t4.5 -3.5zM117 249h231l-109 316q-91 -231 -107 -270q-9 -25 -15 -46z" />
    <glyph glyph-name="Aring" unicode="&#xc5;" 
d="M587 20q4 -3 2.5 -10.5t-9.5 -7.5h-155q-14 0 -6 16q4 7 -64 210h-244q-11 -51 -6.5 -97t13.5 -75t19 -42q3 -4 1.5 -9t-6.5 -5h-119q-4 0 -7 2.5t-2 6.5q2 18 11.5 47.5t18 50.5t22 53.5t15.5 36.5q86 228 157 395q-13 24 -16 25q-6 2 -5 8.5t6 6.5h40q-34 23 -34 67
q0 34 22 57t55 23t56 -23t23 -57q0 -44 -35 -67h31q8 0 9.5 -7t-3.5 -9q-4 -3 -5 -9t1.5 -16.5t5 -18.5t8 -22t7.5 -20q8 -25 83.5 -240t80.5 -227q3 -8 6 -14.5t5 -10t5 -7t4 -4.5t4.5 -3.5t4.5 -3.5zM296 738q-16 0 -26 -11t-10 -28t10 -28t26 -11q17 0 27.5 11t10.5 28
t-10.5 28t-27.5 11zM117 250h231l-109 315q-91 -231 -107 -270q-9 -23 -15 -45z" />
    <glyph glyph-name="AE" unicode="&#xc6;" horiz-adv-x="813" 
d="M622 608h-58q-44 0 -75 -30.5t-31 -74.5v-226q50 48 109 75t93 30l34 3v-96q-24 5 -60 5q-108 0 -176 -54v-143q0 -29 21 -50t50 -21h91q55 0 89 42t50 96q2 7 11 5t9 -9v-158h-461q-7 0 -8.5 5t3.5 9q13 10 13 35v177h-215q-11 -51 -6.5 -97t13.5 -75t19 -42
q3 -4 1.5 -9t-6.5 -5h-119q-4 0 -7 2.5t-2 6.5q2 18 11.5 47.5t18 50.5t22 53.5t15.5 36.5q67 179 156 395q-11 23 -15 25q-6 1 -5.5 8t6.5 7h568v-158q0 -7 -8.5 -9t-10.5 5q-17 54 -51 96t-89 42zM117 250h209v332q0 17 -4 25h-65q-109 -273 -125 -312q-9 -23 -15 -45z
" />
    <glyph glyph-name="Ccedilla" unicode="&#xc7;" horiz-adv-x="612" 
d="M582 202l19 -10q-3 -8 -9 -21t-29.5 -46.5t-51.5 -59.5t-75.5 -48t-100.5 -23l-9 -29q30 -3 52 -19t22 -44q0 -29 -21.5 -48.5t-48 -26.5t-55.5 -7q-32 0 -62 5l5 51q18 -2 40 -2q70 0 70 32q0 7 -5 14q-15 15 -63 15l18 62q-58 8 -104 35.5t-73.5 62t-45.5 76.5
t-24.5 77t-6.5 66q0 143 79.5 236t219.5 93q172 0 246 -151l-117 -35q-15 75 -56.5 121.5t-96.5 46.5q-15 0 -28 -3q-42 -9 -73 -54.5t-44.5 -108t-7.5 -133t30 -130t75.5 -98.5t121.5 -39q41 0 78 14.5t60 35.5t40 42.5t24 36.5z" />
    <glyph glyph-name="Egrave" unicode="&#xc8;" horiz-adv-x="540" 
d="M293 839l58 -121h-62l-100 121h104zM349 607h-59q-44 0 -74.5 -31t-30.5 -75v-226q50 49 109 76t93 30l34 3l-1 -96q-24 5 -60 5q-107 0 -175 -54v-143q0 -30 21 -51t50 -21h91q94 0 139 139q2 7 11 5t9 -9v-159h-462q-7 0 -8 5.5t4 9.5q13 9 13 35v530q0 27 -13 37
q-5 3 -4 7.5t7 5.5l-3 1h468v-159q0 -7 -9 -8.5t-10 5.5q-17 54 -51 96t-89 42z" />
    <glyph glyph-name="Eacute" unicode="&#xc9;" horiz-adv-x="540" 
d="M309 821h102l-95 -121h-64zM349 607h-59q-44 0 -74.5 -31t-30.5 -75v-226q50 49 109 76t93 30l34 3l-1 -96q-24 5 -60 5q-107 0 -175 -54v-143q0 -30 21 -51t50 -21h91q94 0 139 139q2 7 11 5t9 -9v-159h-462q-7 0 -8 5.5t4 9.5q13 9 13 35v530q0 27 -13 37q-5 3 -4 7.5
t7 5.5l-3 1h468v-159q0 -7 -9 -8.5t-10 5.5q-17 54 -51 96t-89 42z" />
    <glyph glyph-name="Ecircumflex" unicode="&#xca;" horiz-adv-x="540" 
d="M310 839l97 -121h-88l-47 73l-49 -73h-89l93 121h83zM349 607h-59q-44 0 -74.5 -31t-30.5 -75v-226q50 49 109 76t93 30l34 3l-1 -96q-24 5 -60 5q-107 0 -175 -54v-143q0 -30 21 -51t50 -21h91q94 0 139 139q2 7 11 5t9 -9v-159h-462q-7 0 -8 5.5t4 9.5q13 9 13 35v530
q0 27 -13 37q-5 3 -4 7.5t7 5.5l-3 1h468v-159q0 -7 -9 -8.5t-10 5.5q-17 54 -51 96t-89 42z" />
    <glyph glyph-name="Edieresis" unicode="&#xcb;" horiz-adv-x="540" 
d="M230 718h-81v88h81v-88zM391 718h-81v88h81v-88zM349 607h-59q-44 0 -74.5 -31t-30.5 -75v-226q50 49 109 76t93 30l34 3l-1 -96q-24 5 -60 5q-107 0 -175 -54v-143q0 -30 21 -51t50 -21h91q94 0 139 139q2 7 11 5t9 -9v-159h-462q-7 0 -8 5.5t4 9.5q13 9 13 35v530
q0 27 -13 37q-5 3 -4 7.5t7 5.5l-3 1h468v-159q0 -7 -9 -8.5t-10 5.5q-17 54 -51 96t-89 42z" />
    <glyph glyph-name="Igrave" unicode="&#xcc;" horiz-adv-x="238" 
d="M142 839l58 -121h-62l-100 121h104zM185 51q0 -27 13 -36q5 -4 3.5 -9.5t-8.5 -5.5h-149q-6 0 -7.5 5.5t3.5 9.5q13 9 13 35v530q0 27 -13 37q-5 4 -4 9t8 5h149q7 0 8.5 -5t-3.5 -9q-13 -9 -13 -35v-531z" />
    <glyph glyph-name="Iacute" unicode="&#xcd;" horiz-adv-x="238" 
d="M97 821h102l-95 -121h-64zM185 51q0 -27 13 -36q5 -4 3.5 -9.5t-8.5 -5.5h-149q-6 0 -7.5 5.5t3.5 9.5q13 9 13 35v530q0 27 -13 37q-5 4 -4 9t8 5h149q7 0 8.5 -5t-3.5 -9q-13 -9 -13 -35v-531z" />
    <glyph glyph-name="Icircumflex" unicode="&#xce;" horiz-adv-x="238" 
d="M158 839l97 -121h-88l-47 73l-49 -73h-89l93 121h83zM185 51q0 -27 13 -36q5 -4 3.5 -9.5t-8.5 -5.5h-149q-6 0 -7.5 5.5t3.5 9.5q13 9 13 35v530q0 27 -13 37q-5 4 -4 9t8 5h149q7 0 8.5 -5t-3.5 -9q-13 -9 -13 -35v-531z" />
    <glyph glyph-name="Idieresis" unicode="&#xcf;" horiz-adv-x="238" 
d="M79 718h-81v88h81v-88zM240 718h-81v88h81v-88zM185 51q0 -27 13 -36q5 -4 3.5 -9.5t-8.5 -5.5h-149q-6 0 -7.5 5.5t3.5 9.5q13 9 13 35v530q0 27 -13 37q-5 4 -4 9t8 5h149q7 0 8.5 -5t-3.5 -9q-13 -9 -13 -35v-531z" />
    <glyph glyph-name="Ntilde" unicode="&#xd1;" horiz-adv-x="580" 
d="M378 817h56q0 -42 -21.5 -70t-62.5 -28q-27 0 -72 24q-28 16 -42 16q-15 0 -24 -11q-9 -9 -9 -30h-57q0 46 25 71q24 27 63 27q26 0 72 -23q25 -13 41 -13q17 0 22.5 9t8.5 28zM526 0h-32q-342 458 -419 557v-506q0 -27 13 -36q5 -4 3.5 -9.5t-8.5 -5.5h-39
q-6 0 -7.5 5.5t3.5 9.5q13 9 13 35v530q0 27 -13 37q-5 4 -4 9t8 5h147l313 -409v358q0 28 -13 37q-5 4 -3.5 9t8.5 5h39q7 0 8 -5t-4 -9q-12 -9 -13 -35v-582z" />
    <glyph glyph-name="Ograve" unicode="&#xd2;" horiz-adv-x="698" 
d="M372 839l58 -121h-62l-100 121h104zM337 643q135 0 234.5 -96t103.5 -231q5 -135 -87 -231q-92 -95 -227 -95q-136 0 -235 95.5t-104 230.5t88 231q91 96 227 96zM470 32q67 28 79.5 131t-37.5 221q-42 100 -109.5 162t-131.5 62q-24 0 -41 -8q-67 -28 -79 -131t38 -221
q42 -100 109 -162t131 -62q24 0 41 8z" />
    <glyph glyph-name="Oacute" unicode="&#xd3;" horiz-adv-x="698" 
d="M327 821h102l-95 -121h-64zM337 643q135 0 234.5 -96t103.5 -231q5 -135 -87 -231q-92 -95 -227 -95q-136 0 -235 95.5t-104 230.5t88 231q91 96 227 96zM470 32q67 28 79.5 131t-37.5 221q-42 100 -109.5 162t-131.5 62q-24 0 -41 -8q-67 -28 -79 -131t38 -221
q42 -100 109 -162t131 -62q24 0 41 8z" />
    <glyph glyph-name="Ocircumflex" unicode="&#xd4;" horiz-adv-x="698" 
d="M389 839l97 -121h-88l-47 73l-49 -73h-89l93 121h83zM337 643q135 0 234.5 -96t103.5 -231q5 -135 -87 -231q-92 -95 -227 -95q-136 0 -235 95.5t-104 230.5t88 231q91 96 227 96zM470 32q67 28 79.5 131t-37.5 221q-42 100 -109.5 162t-131.5 62q-24 0 -41 -8
q-67 -28 -79 -131t38 -221q42 -100 109 -162t131 -62q24 0 41 8z" />
    <glyph glyph-name="Otilde" unicode="&#xd5;" horiz-adv-x="698" 
d="M437 817h56q0 -42 -21.5 -70t-62.5 -28q-27 0 -72 24q-28 16 -42 16q-15 0 -24 -11q-9 -9 -9 -30h-57q0 46 25 71q24 27 63 27q26 0 72 -23q25 -13 41 -13q17 0 22.5 9t8.5 28zM337 643q135 0 234.5 -96t103.5 -231q5 -135 -87 -231q-92 -95 -227 -95q-136 0 -235 95.5
t-104 230.5t88 231q91 96 227 96zM470 32q67 28 79.5 131t-37.5 221q-42 100 -109.5 162t-131.5 62q-24 0 -41 -8q-67 -28 -79 -131t38 -221q42 -100 109 -162t131 -62q24 0 41 8z" />
    <glyph glyph-name="Odieresis" unicode="&#xd6;" horiz-adv-x="698" 
d="M309 718h-81v88h81v-88zM470 718h-81v88h81v-88zM337 643q135 0 234.5 -96t103.5 -231q5 -135 -87 -231q-92 -95 -227 -95q-136 0 -235 95.5t-104 230.5t88 231q91 96 227 96zM470 32q67 28 79.5 131t-37.5 221q-42 100 -109.5 162t-131.5 62q-24 0 -41 -8
q-67 -28 -79 -131t38 -221q42 -100 109 -162t131 -62q24 0 41 8z" />
    <glyph glyph-name="multiply" unicode="&#xd7;" horiz-adv-x="402" 
d="M367 379l-124 -124l112 -113l-28 -28l-112 113l-128 -127l-53 53l127 128l-113 112l28 28l113 -113l124 125z" />
    <glyph glyph-name="Oslash" unicode="&#xd8;" horiz-adv-x="704" 
d="M576 556q99 -95 103 -230q5 -135 -87 -231q-93 -95 -228 -95q-113 0 -205 71l-69 -81l-30 26l70 80q-99 96 -104 230q-5 135 88 231q91 96 227 96q113 0 205 -71l69 80l30 -25zM193 258q13 -32 27 -56l245 285q-42 61 -92.5 96.5t-97.5 35.5q-20 0 -41 -8
q-67 -29 -79 -132t38 -221zM474 42q67 28 79.5 131t-37.5 221q-11 25 -29 58l-245 -285q42 -62 93 -97.5t98 -35.5q24 0 41 8z" />
    <glyph glyph-name="Ugrave" unicode="&#xd9;" horiz-adv-x="575" 
d="M311 839l58 -121h-62l-100 121h104zM536 631q7 0 8.5 -5t-3.5 -9q-13 -10 -13 -37v-319q0 -136 -61.5 -200t-168.5 -64q-64 0 -111.5 18t-74 45t-42.5 67.5t-20.5 76t-4.5 79.5l1 297q0 27 -13 37q-5 4 -4 9t8 5h149q7 0 8.5 -5t-3.5 -9q-13 -9 -13 -37v-316
q0 -241 163 -241q73 0 120.5 60.5t47.5 176.5v320q0 28 -13 37q-5 4 -3.5 9t8.5 5h35z" />
    <glyph glyph-name="Uacute" unicode="&#xda;" horiz-adv-x="575" 
d="M265 821h102l-95 -121h-64zM536 631q7 0 8.5 -5t-3.5 -9q-13 -10 -13 -37v-319q0 -136 -61.5 -200t-168.5 -64q-64 0 -111.5 18t-74 45t-42.5 67.5t-20.5 76t-4.5 79.5l1 297q0 27 -13 37q-5 4 -4 9t8 5h149q7 0 8.5 -5t-3.5 -9q-13 -9 -13 -37v-316q0 -241 163 -241
q73 0 120.5 60.5t47.5 176.5v320q0 28 -13 37q-5 4 -3.5 9t8.5 5h35z" />
    <glyph glyph-name="Ucircumflex" unicode="&#xdb;" horiz-adv-x="575" 
d="M327 839l97 -121h-88l-47 73l-49 -73h-89l93 121h83zM536 631q7 0 8.5 -5t-3.5 -9q-13 -10 -13 -37v-319q0 -136 -61.5 -200t-168.5 -64q-64 0 -111.5 18t-74 45t-42.5 67.5t-20.5 76t-4.5 79.5l1 297q0 27 -13 37q-5 4 -4 9t8 5h149q7 0 8.5 -5t-3.5 -9q-13 -9 -13 -37
v-316q0 -241 163 -241q73 0 120.5 60.5t47.5 176.5v320q0 28 -13 37q-5 4 -3.5 9t8.5 5h35z" />
    <glyph glyph-name="Udieresis" unicode="&#xdc;" horiz-adv-x="575" 
d="M248 718h-81v88h81v-88zM409 718h-81v88h81v-88zM536 631q7 0 8.5 -5t-3.5 -9q-13 -10 -13 -37v-319q0 -136 -61.5 -200t-168.5 -64q-64 0 -111.5 18t-74 45t-42.5 67.5t-20.5 76t-4.5 79.5l1 297q0 27 -13 37q-5 4 -4 9t8 5h149q7 0 8.5 -5t-3.5 -9q-13 -9 -13 -37v-316
q0 -241 163 -241q73 0 120.5 60.5t47.5 176.5v320q0 28 -13 37q-5 4 -3.5 9t8.5 5h35z" />
    <glyph glyph-name="Yacute" unicode="&#xdd;" horiz-adv-x="550" 
d="M253 821h102l-95 -121h-64zM341 51q0 -27 13 -36q5 -4 3.5 -9.5t-8.5 -5.5h-148q-7 0 -8.5 5.5t3.5 9.5q13 9 13 35v265q-147 223 -153 232q-32 52 -55 66q-6 4 -5 11t6 7h164q16 0 11 -16q-6 -17 30 -72l132 -201q33 35 55.5 79t31.5 82t7 69.5t-15 45.5q-4 3 -2.5 8
t6.5 5h120q9 0 9 -9q0 -55 -210 -307v-264z" />
    <glyph glyph-name="germandbls" unicode="&#xdf;" horiz-adv-x="578" 
d="M423 361q47 -17 83.5 -58t49 -101.5t-29.5 -128.5q-44 -73 -130 -73q-47 0 -91.5 24t-73.5 66l73 65q26 -39 73 -69.5t85 -30.5q32 0 46 25q37 67 -41 133.5t-194 66.5v20q29 96 50 187q6 26 8 49.5t-1.5 46t-18.5 36t-41 13.5q-27 0 -44.5 -14.5t-25 -42.5t-9.5 -51
t-2 -57v-465h-143v444q0 53 20 94t52.5 63t67.5 33t71 11q23 0 45.5 -4.5t49 -15.5t46 -32.5t32.5 -51.5t11.5 -77t-18.5 -105z" />
    <glyph glyph-name="agrave" unicode="&#xe0;" horiz-adv-x="485" 
d="M266 671l58 -121h-62l-100 121h104zM458 29q6 0 7 -5.5t-5 -8.5q-12 -9 -70 -9q-30 0 -51.5 11t-28.5 21l-6 11l-7 -6q-42 -46 -116 -46q-64 0 -110 32.5t-47 95.5q0 18 9.5 40.5t35 52t83.5 53t140 32.5v77q0 36 -18.5 56t-47.5 20q-50 0 -77.5 -57t-9.5 -82
q3 -5 -0.5 -10.5t-7.5 -6.5q-26 -4 -53 11t-27 46q0 51 59.5 83.5t136.5 32.5q76 0 128.5 -35t52.5 -105v-242q0 -14 0.5 -19.5t2.5 -18.5t9 -18.5t18 -5.5zM237 33q18 0 33 7.5t21 14.5l6 7q-5 14 -5 34v191q-23 -4 -38 -7.5t-41 -14.5t-40.5 -26.5t-24.5 -43.5t-6 -65
q5 -41 31 -69t64 -28z" />
    <glyph glyph-name="aacute" unicode="&#xe1;" horiz-adv-x="485" 
d="M267 657h102l-95 -121h-64zM458 29q6 0 7 -5.5t-5 -8.5q-12 -9 -70 -9q-30 0 -51.5 11t-28.5 21l-6 11l-7 -6q-42 -46 -116 -46q-64 0 -110 32.5t-47 95.5q0 18 9.5 40.5t35 52t83.5 53t140 32.5v77q0 36 -18.5 56t-47.5 20q-50 0 -77.5 -57t-9.5 -82q3 -5 -0.5 -10.5
t-7.5 -6.5q-26 -4 -53 11t-27 46q0 51 59.5 83.5t136.5 32.5q76 0 128.5 -35t52.5 -105v-242q0 -14 0.5 -19.5t2.5 -18.5t9 -18.5t18 -5.5zM237 33q18 0 33 7.5t21 14.5l6 7q-5 14 -5 34v191q-23 -4 -38 -7.5t-41 -14.5t-40.5 -26.5t-24.5 -43.5t-6 -65q5 -41 31 -69t64 -28
z" />
    <glyph glyph-name="acircumflex" unicode="&#xe2;" horiz-adv-x="485" 
d="M282 671l97 -121h-88l-47 73l-49 -73h-89l93 121h83zM458 29q6 0 7 -5.5t-5 -8.5q-12 -9 -70 -9q-30 0 -51.5 11t-28.5 21l-6 11l-7 -6q-42 -46 -116 -46q-64 0 -110 32.5t-47 95.5q0 18 9.5 40.5t35 52t83.5 53t140 32.5v77q0 36 -18.5 56t-47.5 20q-50 0 -77.5 -57
t-9.5 -82q3 -5 -0.5 -10.5t-7.5 -6.5q-26 -4 -53 11t-27 46q0 51 59.5 83.5t136.5 32.5q76 0 128.5 -35t52.5 -105v-242q0 -14 0.5 -19.5t2.5 -18.5t9 -18.5t18 -5.5zM237 33q18 0 33 7.5t21 14.5l6 7q-5 14 -5 34v191q-23 -4 -38 -7.5t-41 -14.5t-40.5 -26.5t-24.5 -43.5
t-6 -65q5 -41 31 -69t64 -28z" />
    <glyph glyph-name="atilde" unicode="&#xe3;" horiz-adv-x="485" 
d="M331 649h56q0 -42 -21.5 -70t-62.5 -28q-27 0 -72 24q-28 16 -42 16q-15 0 -24 -11q-9 -9 -9 -30h-57q0 46 25 71q24 27 63 27q26 0 72 -23q25 -13 41 -13q17 0 22.5 9t8.5 28zM458 29q6 0 7 -5.5t-5 -8.5q-12 -9 -70 -9q-30 0 -51.5 11t-28.5 21l-6 11l-7 -6
q-42 -46 -116 -46q-64 0 -110 32.5t-47 95.5q0 18 9.5 40.5t35 52t83.5 53t140 32.5v77q0 36 -18.5 56t-47.5 20q-50 0 -77.5 -57t-9.5 -82q3 -5 -0.5 -10.5t-7.5 -6.5q-26 -4 -53 11t-27 46q0 51 59.5 83.5t136.5 32.5q76 0 128.5 -35t52.5 -105v-242q0 -14 0.5 -19.5
t2.5 -18.5t9 -18.5t18 -5.5zM237 33q18 0 33 7.5t21 14.5l6 7q-5 14 -5 34v191q-23 -4 -38 -7.5t-41 -14.5t-40.5 -26.5t-24.5 -43.5t-6 -65q5 -41 31 -69t64 -28z" />
    <glyph glyph-name="adieresis" unicode="&#xe4;" horiz-adv-x="485" 
d="M203 550h-81v88h81v-88zM364 550h-81v88h81v-88zM458 29q6 0 7 -5.5t-5 -8.5q-12 -9 -70 -9q-30 0 -51.5 11t-28.5 21l-6 11l-7 -6q-42 -46 -116 -46q-64 0 -110 32.5t-47 95.5q0 18 9.5 40.5t35 52t83.5 53t140 32.5v77q0 36 -18.5 56t-47.5 20q-50 0 -77.5 -57
t-9.5 -82q3 -5 -0.5 -10.5t-7.5 -6.5q-26 -4 -53 11t-27 46q0 51 59.5 83.5t136.5 32.5q76 0 128.5 -35t52.5 -105v-242q0 -14 0.5 -19.5t2.5 -18.5t9 -18.5t18 -5.5zM237 33q18 0 33 7.5t21 14.5l6 7q-5 14 -5 34v191q-23 -4 -38 -7.5t-41 -14.5t-40.5 -26.5t-24.5 -43.5
t-6 -65q5 -41 31 -69t64 -28z" />
    <glyph glyph-name="aring" unicode="&#xe5;" horiz-adv-x="485" 
d="M244 529q-34 0 -55.5 22.5t-21.5 57.5q0 34 22 57t55 23t55.5 -23t22.5 -57q0 -35 -22 -57.5t-56 -22.5zM244 648q-16 0 -26 -11t-10 -28t10 -28t26 -11q17 0 27.5 11t10.5 28q0 16 -11 27.5t-27 11.5zM458 35q6 0 7 -6t-5 -9q-18 -9 -70 -9q-30 0 -51.5 11t-28.5 22
l-6 11l-7 -7q-42 -45 -116 -45q-64 0 -110 32.5t-47 95.5q0 13 5 29.5t22 41t44.5 44.5t78.5 38t118 25v77q0 36 -18.5 55.5t-47.5 19.5q-26 0 -47.5 -17.5t-31 -41t-13.5 -46.5t5 -34q3 -5 0 -10t-8 -6q-25 -5 -52.5 10.5t-27.5 46.5q0 51 59.5 83.5t136.5 32.5
q76 0 128.5 -35t52.5 -105v-242q0 -14 0.5 -19.5t2.5 -18.5t9 -18.5t18 -5.5zM237 38q18 0 33 7t21 15l6 7q-5 15 -5 35v190q-22 -3 -38 -7t-41 -15t-40 -26.5t-25 -43.5t-6 -65q5 -40 31 -68.5t64 -28.5z" />
    <glyph glyph-name="ae" unicode="&#xe6;" horiz-adv-x="753" 
d="M715 101q2 2 5.5 2t6 -4t0.5 -8q-19 -36 -72.5 -62t-123.5 -26q-43 0 -82 14q-26 -6 -59 -6q-30 0 -51.5 11t-28.5 22l-6 11l-7 -7q-42 -45 -116 -45q-64 0 -110 32.5t-47 95.5q0 18 9.5 40.5t35 52t83.5 53t140 32.5v77q0 36 -18.5 55.5t-47.5 19.5q-26 0 -47.5 -17.5
t-31 -41t-13.5 -46.5t5 -34q3 -5 0 -10t-8 -6q-25 -5 -52.5 10.5t-27.5 46.5q0 50 59.5 83t135.5 33q95 0 145 -49q59 47 142 47q87 0 138.5 -42.5t51.5 -101.5q0 -47 -26.5 -78.5t-62 -45t-69.5 -24t-50.5 -24.5t-3.5 -37q6 -7 16 -18t43 -29t67 -18q46 0 78 42zM517 455
q-57 0 -76.5 -62.5t-5 -134.5t47.5 -101q6 23 25.5 45t39.5 37t37 44t19 66q2 47 -21 76.5t-66 29.5zM237 38q18 0 33 7t21 15l6 7q-5 15 -5 35v190q-22 -3 -38 -7t-41 -15t-40 -26.5t-25 -43.5t-6 -65q5 -40 31 -68.5t64 -28.5z" />
    <glyph glyph-name="ccedilla" unicode="&#xe7;" horiz-adv-x="464" 
d="M437 98q2 2 6.5 -1t2.5 -7q-26 -39 -73 -66.5t-111 -26.5l-10 -32q30 -3 52 -19t22 -44q0 -29 -21.5 -48.5t-48 -26.5t-55.5 -7q-32 0 -62 5l5 51q18 -2 40 -2q70 0 70 32q0 7 -5 14q-15 15 -63 15l20 67q-84 17 -132 78t-48 154q0 104 65 171t165 67q137 0 174 -86
q12 -29 -16 -52.5t-73 -18.5q-17 2 -13 22q9 39 -24.5 75.5t-75.5 36.5q-17 0 -31 -7q-40 -18 -47 -86t15 -122q30 -87 81 -132.5t102 -45.5q50 0 89 42z" />
    <glyph glyph-name="egrave" unicode="&#xe8;" horiz-adv-x="474" 
d="M260 671l58 -121h-62l-100 121h104zM434 95q5 6 11 -1q4 -4 1 -9q-19 -36 -72 -62t-123 -26q-99 0 -160 63t-65 168q-3 103 59 173q65 71 168 71q86 0 138 -43t52 -102q0 -47 -26.5 -78.5t-62 -45t-69.5 -24t-51 -24.5t-4 -37q6 -7 16.5 -17.5t43.5 -28.5t67 -18
q48 0 77 41zM237 449q-57 0 -76.5 -62.5t-5 -134t47.5 -101.5q6 23 25.5 45t39 37t36.5 44t19 66q3 47 -20 76.5t-66 29.5z" />
    <glyph glyph-name="eacute" unicode="&#xe9;" horiz-adv-x="474" 
d="M215 657h102l-95 -121h-64zM434 95q5 6 11 -1q4 -4 1 -9q-19 -36 -72 -62t-123 -26q-99 0 -160 63t-65 168q-3 103 59 173q65 71 168 71q86 0 138 -43t52 -102q0 -47 -26.5 -78.5t-62 -45t-69.5 -24t-51 -24.5t-4 -37q6 -7 16.5 -17.5t43.5 -28.5t67 -18q48 0 77 41z
M237 449q-57 0 -76.5 -62.5t-5 -134t47.5 -101.5q6 23 25.5 45t39 37t36.5 44t19 66q3 47 -20 76.5t-66 29.5z" />
    <glyph glyph-name="ecircumflex" unicode="&#xea;" horiz-adv-x="474" 
d="M277 671l97 -121h-88l-47 73l-49 -73h-89l93 121h83zM434 95q5 6 11 -1q4 -4 1 -9q-19 -36 -72 -62t-123 -26q-99 0 -160 63t-65 168q-3 103 59 173q65 71 168 71q86 0 138 -43t52 -102q0 -47 -26.5 -78.5t-62 -45t-69.5 -24t-51 -24.5t-4 -37q6 -7 16.5 -17.5
t43.5 -28.5t67 -18q48 0 77 41zM237 449q-57 0 -76.5 -62.5t-5 -134t47.5 -101.5q6 23 25.5 45t39 37t36.5 44t19 66q3 47 -20 76.5t-66 29.5z" />
    <glyph glyph-name="edieresis" unicode="&#xeb;" horiz-adv-x="474" 
d="M197 550h-81v88h81v-88zM358 550h-81v88h81v-88zM434 95q5 6 11 -1q4 -4 1 -9q-19 -36 -72 -62t-123 -26q-99 0 -160 63t-65 168q-3 103 59 173q65 71 168 71q86 0 138 -43t52 -102q0 -47 -26.5 -78.5t-62 -45t-69.5 -24t-51 -24.5t-4 -37q6 -7 16.5 -17.5t43.5 -28.5
t67 -18q48 0 77 41zM237 449q-57 0 -76.5 -62.5t-5 -134t47.5 -101.5q6 23 25.5 45t39 37t36.5 44t19 66q3 47 -20 76.5t-66 29.5z" />
    <glyph glyph-name="igrave" unicode="&#xec;" horiz-adv-x="231" 
d="M139 671l58 -121h-62l-100 121h104zM194 14q5 -4 4 -9t-8 -5h-149q-7 0 -8.5 5t3.5 9q13 9 13 35v321q0 11 -6 10q-9 -2 -11 7.5t7 13.5q79 37 122 54q20 7 20 -10v-394q0 -27 13 -37z" />
    <glyph glyph-name="iacute" unicode="&#xed;" horiz-adv-x="231" 
d="M93 657h102l-95 -121h-64zM194 14q5 -4 4 -9t-8 -5h-149q-7 0 -8.5 5t3.5 9q13 9 13 35v321q0 11 -6 10q-9 -2 -11 7.5t7 13.5q79 37 122 54q20 7 20 -10v-394q0 -27 13 -37z" />
    <glyph glyph-name="icircumflex" unicode="&#xee;" horiz-adv-x="231" 
d="M155 671l97 -121h-88l-47 73l-49 -73h-89l93 121h83zM194 14q5 -4 4 -9t-8 -5h-149q-7 0 -8.5 5t3.5 9q13 9 13 35v321q0 11 -6 10q-9 -2 -11 7.5t7 13.5q79 37 122 54q20 7 20 -10v-394q0 -27 13 -37z" />
    <glyph glyph-name="idieresis" unicode="&#xef;" horiz-adv-x="231" 
d="M75 550h-81v88h81v-88zM236 550h-81v88h81v-88zM194 14q5 -4 4 -9t-8 -5h-149q-7 0 -8.5 5t3.5 9q13 9 13 35v321q0 11 -6 10q-9 -2 -11 7.5t7 13.5q79 37 122 54q20 7 20 -10v-394q0 -27 13 -37z" />
    <glyph glyph-name="ntilde" unicode="&#xf1;" horiz-adv-x="493" 
d="M335 649h56q0 -42 -21.5 -70t-62.5 -28q-27 0 -72 24q-28 16 -42 16q-15 0 -24 -11q-9 -9 -9 -30h-57q0 46 25 71q24 27 63 27q26 0 72 -23q25 -13 41 -13q17 0 22.5 9t8.5 28zM459 20q5 -4 3.5 -9t-8.5 -5h-148q-7 0 -8.5 5t3.5 9q13 10 13 36v288q0 74 -57 74
q-39 0 -76 -39v-323q0 -27 13 -36q5 -4 3.5 -9t-8.5 -5h-149q-7 0 -8 5t4 9q13 10 13 36v356q0 26 -13 36q-5 4 -4 9.5t8 5.5h108q14 0 23.5 -9.5t9.5 -23.5v-27q61 69 151 69q50 0 82 -33t32 -74v-309q0 -26 13 -36z" />
    <glyph glyph-name="ograve" unicode="&#xf2;" horiz-adv-x="505" 
d="M276 671l58 -121h-62l-100 121h104zM457 326q41 -92 10.5 -183.5t-115.5 -129.5q-41 -19 -87 -19q-68 0 -127.5 39.5t-89.5 107.5q-41 91 -10.5 182.5t115.5 130.5q41 19 86 19q67 0 127 -40t91 -107zM346 27q31 14 25 84t-44 156q-39 86 -88 136.5t-80 36.5t-25.5 -84.5
t44.5 -155.5q39 -86 88 -136.5t80 -36.5z" />
    <glyph glyph-name="oacute" unicode="&#xf3;" horiz-adv-x="505" 
d="M230 657h102l-95 -121h-64zM457 326q41 -92 10.5 -183.5t-115.5 -129.5q-41 -19 -87 -19q-68 0 -127.5 39.5t-89.5 107.5q-41 91 -10.5 182.5t115.5 130.5q41 19 86 19q67 0 127 -40t91 -107zM346 27q31 14 25 84t-44 156q-39 86 -88 136.5t-80 36.5t-25.5 -84.5
t44.5 -155.5q39 -86 88 -136.5t80 -36.5z" />
    <glyph glyph-name="ocircumflex" unicode="&#xf4;" horiz-adv-x="505" 
d="M292 671l97 -121h-88l-47 73l-49 -73h-89l93 121h83zM457 326q41 -92 10.5 -183.5t-115.5 -129.5q-41 -19 -87 -19q-68 0 -127.5 39.5t-89.5 107.5q-41 91 -10.5 182.5t115.5 130.5q41 19 86 19q67 0 127 -40t91 -107zM346 27q31 14 25 84t-44 156q-39 86 -88 136.5
t-80 36.5t-25.5 -84.5t44.5 -155.5q39 -86 88 -136.5t80 -36.5z" />
    <glyph glyph-name="otilde" unicode="&#xf5;" horiz-adv-x="505" 
d="M341 649h56q0 -42 -21.5 -70t-62.5 -28q-27 0 -72 24q-28 16 -42 16q-15 0 -24 -11q-9 -9 -9 -30h-57q0 46 25 71q24 27 63 27q26 0 72 -23q25 -13 41 -13q17 0 22.5 9t8.5 28zM457 326q41 -92 10.5 -183.5t-115.5 -129.5q-41 -19 -87 -19q-68 0 -127.5 39.5t-89.5 107.5
q-41 91 -10.5 182.5t115.5 130.5q41 19 86 19q67 0 127 -40t91 -107zM346 27q31 14 25 84t-44 156q-39 86 -88 136.5t-80 36.5t-25.5 -84.5t44.5 -155.5q39 -86 88 -136.5t80 -36.5z" />
    <glyph glyph-name="odieresis" unicode="&#xf6;" horiz-adv-x="505" 
d="M213 550h-81v88h81v-88zM374 550h-81v88h81v-88zM457 326q41 -92 10.5 -183.5t-115.5 -129.5q-41 -19 -87 -19q-68 0 -127.5 39.5t-89.5 107.5q-41 91 -10.5 182.5t115.5 130.5q41 19 86 19q67 0 127 -40t91 -107zM346 27q31 14 25 84t-44 156q-39 86 -88 136.5t-80 36.5
t-25.5 -84.5t44.5 -155.5q39 -86 88 -136.5t80 -36.5z" />
    <glyph glyph-name="oslash" unicode="&#xf8;" horiz-adv-x="508" 
d="M459 332q41 -92 10.5 -183.5t-115.5 -129.5q-41 -19 -87 -19q-74 0 -135 46l-46 -61l-32 24l48 62q-33 33 -52 75q-41 92 -10.5 183.5t115.5 129.5q41 19 86 19q71 0 136 -46l46 61l31 -24l-47 -62q32 -32 52 -75zM180 205l9 -19l110 144q-36 61 -75 94t-63 22
q-31 -14 -25.5 -85t44.5 -156zM348 32q31 14 25 84.5t-44 156.5q-8 16 -10 19l-109 -144q37 -62 75 -94.5t63 -21.5z" />
    <glyph glyph-name="ugrave" unicode="&#xf9;" horiz-adv-x="495" 
d="M271 671l58 -121h-62l-100 121h104zM450 54q9 2 11 -7.5t-7 -13.5t-52 -13.5t-71 -13.5q-19 -4 -19 15v40q-1 -3 -3.5 -7t-13.5 -15t-24 -19.5t-37 -15.5t-52 -7q-62 0 -98.5 32t-36.5 74v309q0 27 -13 37q-5 4 -4 9t8 5h149q7 0 8.5 -5t-3.5 -9q-13 -9 -13 -37v-287
q0 -31 17.5 -52.5t49.5 -21.5q29 0 47.5 19t18.5 47v296q0 27 -13 36q-5 4 -3.5 9t8.5 5h148q7 0 8.5 -5t-3.5 -9q-13 -10 -13 -36v-353q0 -6 6 -6z" />
    <glyph glyph-name="uacute" unicode="&#xfa;" horiz-adv-x="495" 
d="M225 657h102l-95 -121h-64zM450 54q9 2 11 -7.5t-7 -13.5t-52 -13.5t-71 -13.5q-19 -4 -19 15v40q-1 -3 -3.5 -7t-13.5 -15t-24 -19.5t-37 -15.5t-52 -7q-62 0 -98.5 32t-36.5 74v309q0 27 -13 37q-5 4 -4 9t8 5h149q7 0 8.5 -5t-3.5 -9q-13 -9 -13 -37v-287
q0 -31 17.5 -52.5t49.5 -21.5q29 0 47.5 19t18.5 47v296q0 27 -13 36q-5 4 -3.5 9t8.5 5h148q7 0 8.5 -5t-3.5 -9q-13 -10 -13 -36v-353q0 -6 6 -6z" />
    <glyph glyph-name="ucircumflex" unicode="&#xfb;" horiz-adv-x="495" 
d="M287 671l97 -121h-88l-47 73l-49 -73h-89l93 121h83zM450 54q9 2 11 -7.5t-7 -13.5t-52 -13.5t-71 -13.5q-19 -4 -19 15v40q-1 -3 -3.5 -7t-13.5 -15t-24 -19.5t-37 -15.5t-52 -7q-62 0 -98.5 32t-36.5 74v309q0 27 -13 37q-5 4 -4 9t8 5h149q7 0 8.5 -5t-3.5 -9
q-13 -9 -13 -37v-287q0 -31 17.5 -52.5t49.5 -21.5q29 0 47.5 19t18.5 47v296q0 27 -13 36q-5 4 -3.5 9t8.5 5h148q7 0 8.5 -5t-3.5 -9q-13 -10 -13 -36v-353q0 -6 6 -6z" />
    <glyph glyph-name="udieresis" unicode="&#xfc;" horiz-adv-x="495" 
d="M208 550h-81v88h81v-88zM369 550h-81v88h81v-88zM450 54q9 2 11 -7.5t-7 -13.5t-52 -13.5t-71 -13.5q-19 -4 -19 15v40q-1 -3 -3.5 -7t-13.5 -15t-24 -19.5t-37 -15.5t-52 -7q-62 0 -98.5 32t-36.5 74v309q0 27 -13 37q-5 4 -4 9t8 5h149q7 0 8.5 -5t-3.5 -9
q-13 -9 -13 -37v-287q0 -31 17.5 -52.5t49.5 -21.5q29 0 47.5 19t18.5 47v296q0 27 -13 36q-5 4 -3.5 9t8.5 5h148q7 0 8.5 -5t-3.5 -9q-13 -10 -13 -36v-353q0 -6 6 -6z" />
    <glyph glyph-name="yacute" unicode="&#xfd;" horiz-adv-x="432" 
d="M194 657h102l-95 -121h-64zM413 463v-1q11 0 9 -9q-2 -18 -11 -47.5t-17.5 -50t-22.5 -54t-15 -36.5q-9 -24 -43.5 -107.5t-45.5 -110.5q-18 -45 -23 -57q-30 -80 -64.5 -118t-88.5 -38q-27 0 -51.5 15t-34.5 30l51 102q47 -47 96 -47q29 0 50 21t31 51h-17q-16 0 -21 13
q-106 251 -140 344q-4 12 -12 26.5t-14 24.5t-14 21.5t-9 13.5q-2 5 0.5 9t7.5 4h118q38 0 51 -33l107 -284q11 29 32 83q18 43 11.5 91t-18.5 80t-25 49q-3 4 -2 9.5t6 5.5h119z" />
    <glyph glyph-name="ydieresis" unicode="&#xff;" horiz-adv-x="432" 
d="M176 550h-81v88h81v-88zM337 550h-81v88h81v-88zM413 463v-1q11 0 9 -9q-2 -18 -11 -47.5t-17.5 -50t-22.5 -54t-15 -36.5q-9 -24 -43.5 -107.5t-45.5 -110.5q-18 -45 -23 -57q-30 -80 -64.5 -118t-88.5 -38q-27 0 -51.5 15t-34.5 30l51 102q47 -47 96 -47q29 0 50 21
t31 51h-17q-16 0 -21 13q-106 251 -140 344q-4 12 -12 26.5t-14 24.5t-14 21.5t-9 13.5q-2 5 0.5 9t7.5 4h118q38 0 51 -33l107 -284q11 29 32 83q18 43 11.5 91t-18.5 80t-25 49q-3 4 -2 9.5t6 5.5h119z" />
    <glyph glyph-name="dotlessi" unicode="&#x131;" horiz-adv-x="231" 
d="M194 14q5 -4 4 -9t-8 -5h-149q-7 0 -8.5 5t3.5 9q13 9 13 35v321q0 11 -6 10q-9 -2 -11 7.5t7 13.5q79 37 122 54q20 7 20 -10v-394q0 -27 13 -37z" />
    <glyph glyph-name="OE" unicode="&#x152;" horiz-adv-x="1041" 
d="M850 608h-59q-43 0 -74 -31t-31 -75v-226q50 48 109 75t93 30l34 3l-1 -96q-25 5 -61 5q-107 0 -174 -53v-144q0 -29 21 -50t50 -21h91q55 0 89 42.5t50 95.5q2 7 11 5t9 -9v-158h-461q-7 0 -8.5 5t3.5 9q13 10 13 35v6q-84 -66 -194 -66q-135 0 -234.5 96t-103.5 231
q-5 135 88 231q92 95 227 95q123 0 217 -80v18q0 26 -13 36q-3 2 -3.5 5.5t1.5 6t5 2.5h465v-158q0 -7 -8.5 -9t-10.5 5q-17 54 -51 96t-89 43zM470 32q67 28 79.5 131.5t-37.5 221.5q-42 100 -109.5 162t-131.5 62q-24 0 -41 -8q-67 -29 -79 -132t38 -221q42 -100 109 -162
t131 -62q24 0 41 8z" />
    <glyph glyph-name="oe" unicode="&#x153;" horiz-adv-x="803" 
d="M764 101q2 2 6 2t6 -4t0 -8q-19 -36 -72 -62t-124 -26q-100 0 -161 64q-59 -67 -154 -67q-68 0 -127.5 39.5t-89.5 106.5q-41 92 -10.5 183.5t115.5 129.5q41 19 87 19q98 0 170 -77q1 1 1 2l3 3q63 71 169 71q86 0 137.5 -42.5t51.5 -101.5q0 -47 -26.5 -78.5t-62 -45
t-69.5 -24t-50.5 -24.5t-3.5 -37q6 -7 16.5 -18t43.5 -29t66 -18q48 0 78 42zM566 455q-43 0 -65 -38.5t-21.5 -89t15 -99.5t37.5 -71q6 23 26 45t39.5 37t36.5 44t19 66q2 47 -21 76.5t-66 29.5zM346 32q31 14 25 84.5t-44 156.5q-39 85 -88 136t-80 37t-25.5 -84.5
t44.5 -156.5q39 -85 88 -136t80 -37z" />
    <glyph glyph-name="Scaron" unicode="&#x160;" horiz-adv-x="520" 
d="M309 839h88l-97 -121h-83l-93 121h89l49 -74zM308 380q191 -112 191 -219q0 -76 -65 -123t-175 -47q-83 0 -156 50t-73 110q0 91 116 91q11 0 15.5 -4.5t3 -10t-6.5 -8.5q-13 -8 -16 -32t5.5 -53t25 -57t46.5 -46.5t66 -18.5q32 0 53 21t21 60q0 21 -11 41.5t-35.5 42
t-45 36t-56.5 37.5q-93 61 -121 89q-56 54 -56 113q0 89 60 139.5t140 50.5q89 0 157.5 -40.5t68.5 -89.5q0 -40 -29.5 -57t-67.5 -17q-19 0 -28 3q-10 3 -10.5 11t7.5 12q15 15 5.5 49t-47.5 69t-78 35q-15 0 -30 -6q-18 -7 -27.5 -21.5t-7.5 -37t17 -48.5t52 -59t92 -65z
" />
    <glyph glyph-name="scaron" unicode="&#x161;" horiz-adv-x="432" 
d="M265 671h88l-97 -121h-83l-93 121h89l49 -74zM342 225q80 -52 62 -129q-9 -41 -51.5 -70t-117.5 -29q-79 0 -133.5 31t-71.5 71q-12 27 7 51.5t47 33.5q4 1 8 0.5t6 -2t3.5 -3.5t1.5 -4t-1 -4q-10 -16 6 -54t55 -72t85 -34q33 0 45.5 20.5t1 49t-42.5 49.5
q-14 9 -72.5 49.5t-79.5 54.5q-32 22 -53 63.5t-2 87.5q18 44 62 66.5t100 22.5q105 0 167 -53q11 -10 12.5 -22t-3.5 -22t-15 -20.5t-18 -16.5t-15 -10q-8 -4 -14 -1t-6 11q0 53 -43 85t-88 32q-26 0 -36 -11q-13 -13 -16 -32t9 -42t41 -42q53 -36 160 -105z" />
    <glyph glyph-name="Ydieresis" unicode="&#x178;" horiz-adv-x="550" 
d="M235 718h-81v88h81v-88zM396 718h-81v88h81v-88zM341 51q0 -27 13 -36q5 -4 3.5 -9.5t-8.5 -5.5h-148q-7 0 -8.5 5.5t3.5 9.5q13 9 13 35v265q-147 223 -153 232q-32 52 -55 66q-6 4 -5 11t6 7h164q16 0 11 -16q-6 -17 30 -72l132 -201q33 35 55.5 79t31.5 82t7 69.5
t-15 45.5q-4 3 -2.5 8t6.5 5h120q9 0 9 -9q0 -55 -210 -307v-264z" />
    <glyph glyph-name="Zcaron" unicode="&#x17d;" horiz-adv-x="540" 
d="M319 839h88l-97 -121h-83l-93 121h89l49 -74zM508 631q8 0 12 -6.5t0 -13.5l-330 -587h163q55 0 89 42.5t50 96.5q2 7 11 5t9 -9v-159h-481q-11 0 -16.5 10t0.5 20l333 577h-138q-54 0 -88 -42t-51 -96q-2 -7 -11 -5.5t-9 8.5v159h457z" />
    <glyph glyph-name="zcaron" unicode="&#x17e;" horiz-adv-x="476" 
d="M287 671h88l-97 -121h-83l-93 121h89l49 -74zM442 463q8 0 12 -6.5t0 -13.5l-259 -413h82q55 0 89 42t50 96q2 7 11 5t9 -9v-158h-400q-11 0 -16.5 9.5t0.5 19.5l262 404h-73q-95 0 -140 -139q-1 -7 -10 -5t-9 9v159h392z" />
    <glyph glyph-name="circumflex" unicode="&#x2c6;" horiz-adv-x="323" 
d="M201 671l97 -121h-88l-47 73l-49 -73h-89l93 121h83z" />
    <glyph glyph-name="caron" unicode="&#x2c7;" horiz-adv-x="259" 
d="M179 671h88l-97 -121h-83l-93 121h89l49 -74z" />
    <glyph glyph-name="tilde" unicode="&#x2dc;" horiz-adv-x="344" 
d="M261 649h56q0 -42 -21.5 -70t-62.5 -28q-27 0 -72 24q-28 16 -42 16q-15 0 -24 -11q-9 -9 -9 -30h-57q0 46 25 71q24 27 63 27q26 0 72 -23q25 -13 41 -13q17 0 22.5 9t8.5 28z" />
    <glyph glyph-name="endash" unicode="&#x2013;" horiz-adv-x="481" 
d="M451 200h-421v88h421v-88z" />
    <glyph glyph-name="emdash" unicode="&#x2014;" horiz-adv-x="569" 
d="M536 200h-504v105h504v-105z" />
    <glyph glyph-name="quoteleft" unicode="&#x2018;" horiz-adv-x="192" 
d="M99 621q27 0 43.5 -16t16.5 -43q0 -25 -17 -43.5t-43 -18.5q-30 0 -48 19t-18 54q0 62 51 108l9 -7q-7 -8 -10.5 -20t0 -22.5t16.5 -10.5z" />
    <glyph glyph-name="quoteright" unicode="&#x2019;" horiz-adv-x="189" 
d="M90 681q29 0 47.5 -19.5t18.5 -53.5q0 -62 -51 -108l-9 6q7 9 10.5 21t0 22.5t-16.5 10.5q-26 0 -43 16t-17 42t17 44.5t43 18.5z" />
    <glyph glyph-name="quotesinglbase" unicode="&#x201a;" horiz-adv-x="191" 
d="M92 121q29 0 47.5 -19.5t18.5 -53.5q0 -62 -51 -108l-9 6q7 9 10.5 21t0 22.5t-16.5 10.5q-26 0 -43 16t-17 42t17 44.5t43 18.5z" />
    <glyph glyph-name="quotedblleft" unicode="&#x201c;" horiz-adv-x="338" 
d="M99 621q27 0 43.5 -16t16.5 -43q0 -25 -17 -43.5t-43 -18.5q-30 0 -48 19t-18 54q0 62 51 108l9 -7q-7 -8 -10.5 -20t0 -22.5t16.5 -10.5zM246 621q26 0 43 -16t17 -43q0 -25 -17.5 -43.5t-42.5 -18.5q-30 0 -48 19t-18 54q0 61 50 108l10 -7q-7 -8 -10.5 -20t0 -22.5
t16.5 -10.5z" />
    <glyph glyph-name="quotedblright" unicode="&#x201d;" horiz-adv-x="335" 
d="M236 681q30 0 48.5 -19.5t18.5 -53.5q0 -60 -51 -108l-10 6q7 9 10.5 21t0 22.5t-16.5 10.5q-26 0 -43 16t-17 42t17.5 44.5t42.5 18.5zM90 681q29 0 47.5 -19.5t18.5 -53.5q0 -62 -51 -108l-9 6q7 9 10.5 21t0 22.5t-16.5 10.5q-26 0 -43 16t-17 42t17 44.5t43 18.5z
" />
    <glyph glyph-name="quotedblbase" unicode="&#x201e;" horiz-adv-x="337" 
d="M238 121q30 0 48.5 -19.5t18.5 -53.5q0 -60 -51 -108l-10 6q7 9 10.5 21t0 22.5t-16.5 10.5q-26 0 -43 16t-17 42t17.5 44.5t42.5 18.5zM92 121q29 0 47.5 -19.5t18.5 -53.5q0 -62 -51 -108l-9 6q7 9 10.5 21t0 22.5t-16.5 10.5q-26 0 -43 16t-17 42t17 44.5t43 18.5z
" />
    <glyph glyph-name="dagger" unicode="&#x2020;" horiz-adv-x="455" 
d="M272 537h153v-91h-153v-546h-91v546h-152v91h152v174h91v-174z" />
    <glyph glyph-name="bullet" unicode="&#x2022;" horiz-adv-x="266" 
d="M131 402q43 0 71.5 -29t28.5 -72q0 -45 -28.5 -73t-71.5 -28t-69.5 28t-26.5 73q0 43 27 72t69 29z" />
    <glyph glyph-name="guilsinglleft" unicode="&#x2039;" horiz-adv-x="321" 
d="M289 436l-141 -167l141 -169h-113l-142 166l-2 2l2 4l144 164h111z" />
    <glyph glyph-name="guilsinglright" unicode="&#x203a;" horiz-adv-x="321" 
d="M287 271l2 -3q0 -1 -2 -3l-144 -165h-111l141 168l-141 168h113z" />
    <glyph glyph-name="Euro" unicode="&#x20ac;" horiz-adv-x="626" 
d="M555 87q9 0 14 -10q5 -12 -3 -20q-28 -28 -73.5 -45t-92.5 -17q-109 0 -191 74.5t-101 190.5h-73v50h68q-1 4 -1 12q0 20 3 42h-70v50h78q28 116 100.5 177.5t181.5 61.5q74 0 128.5 -37t66.5 -95l2 -7l-98 -29l-1 9q0 3 -2 15t-8 34t-15 41t-26.5 33.5t-39.5 14.5
q-47 0 -85.5 -65.5t-38.5 -152.5h193v-50h-196v-54h196v-50h-190q13 -92 72 -141t130 -49q38 0 65 15z" />
    </font>
</defs>
</svg>
