<?xml version="1.0" standalone="no"?>
<!DOCTYPE svg PUBLIC "-//W3C//DTD SVG 1.1//EN" "http://www.w3.org/Graphics/SVG/1.1/DTD/svg11.dtd" >
<svg xmlns="http://www.w3.org/2000/svg" xmlns:xlink="http://www.w3.org/1999/xlink" version="1.1">
<metadata>
Created by FontForge 20201107 at Fri May  3 11:03:25 2024
 By 
Copyright (c) 2024 by CAT.B. All rights reserved.
</metadata>
<defs>
<font id="TheBrideinHacienda" horiz-adv-x="177" >
  <font-face 
    font-family="The Bride in Hacienda"
    font-weight="400"
    font-stretch="normal"
    units-per-em="600"
    panose-1="0 0 0 0 0 0 0 0 0 0"
    ascent="450"
    descent="-150"
    x-height="186"
    cap-height="393"
    bbox="-259 -217.529 719 557.6"
    underline-thickness="35"
    underline-position="-69"
    unicode-range="U+000D-FB02"
  />
<missing-glyph horiz-adv-x="136" 
 />
    <glyph glyph-name=".notdef" horiz-adv-x="136" 
 />
    <glyph glyph-name=".null" horiz-adv-x="0" 
 />
    <glyph glyph-name="nonmarkingreturn" unicode="&#xd;" horiz-adv-x="136" 
 />
    <glyph glyph-name="NULL" horiz-adv-x="0" 
 />
    <glyph glyph-name="NULL" horiz-adv-x="0" 
 />
    <glyph glyph-name="space" unicode=" " horiz-adv-x="136" 
 />
    <glyph glyph-name="exclam" unicode="!" horiz-adv-x="307" 
d="M278 431l-41 -101q-9 -24 -19.5 -49.5t-19.5 -49.5q-26 -67 -40.5 -101t-19.5 -45q-7 -22 -13 -23q-9 -5 -11.5 -4.5t-0.5 4.5q2 5 5.5 15.5t10.5 27.5l20 56q11 26 21.5 56t19.5 56q18 49 29 76.5t16.5 42t7 18.5t2.5 5t6 4l10 6t9 5.5t5 2.5zM118 32q9 -2 9 -7t-5 -13
q-2 -4 -5 -7.5t-10 -6.5h1q-7 -5 -10 -4.5t-8 5.5q-4 5 -4.5 7.5t1.5 8.5q2 2 8 7t12 9q8 4 12 1h-1z" />
    <glyph glyph-name="numbersign" unicode="#" horiz-adv-x="292" 
d="M284 336q0 -2 -8 -6.5t-16 -9.5q-11 -6 -15.5 -5t-5.5 -2q-1 -2 -4 -9t-6.5 -15t-6 -15l-2.5 -7q-1 0 3.5 0t10.5 0.5t13 0.5h11h3q0 -3 -6 -7t-13 -7.5t-14 -6t-8 -2.5h-9l-3 -6q-9 -20 -25.5 -35.5t-27.5 -15.5q0 1 13.5 16t20.5 41h-31q-12 0 -22.5 0.5t-12.5 0.5
q-1 -1 -2.5 -3t-3.5 -7q-9 -18 -15.5 -26t-20.5 -17q-11 -6 -12 -6t-1 1v-1q0 1 5 8t11 16.5t10.5 19t4.5 14.5q0 2 -9.5 2.5t-9.5 2.5q0 3 3.5 5t8 3t8.5 1.5t5 1.5q6 14 11 25q4 10 7.5 18.5t3.5 10.5q0 1 -4.5 2t-10 1.5t-10 1t-4.5 1.5q0 8 23 8q11 2 12.5 3t8.5 12
q13 23 24.5 33t17.5 10q2 0 2 -2q0 -4 -5 -4q-3 0 -7 -6t-8 -14t-7 -15.5t-4 -10.5v-4l7 1q3 1 14 1.5t23 0.5h19t9 1t4 3.5t4 7.5q11 22 21 31.5t16 9.5q1 0 1 -2t-1.5 -2.5t-4.5 -4.5t-8 -12.5t-12 -27.5v-2h37zM197 267q1 0 4.5 7t7.5 15.5t7 16t3 9.5h-35l-35 1l-1 -1
q0 -1 -3 -9t-6.5 -17t-6 -16.5l-2.5 -7.5q-2 -2 3 -2z" />
    <glyph glyph-name="dollar" unicode="$" horiz-adv-x="264" 
d="M210 172q4 -12 4 -24q0 -21 -13.5 -40.5t-33.5 -35.5t-43.5 -26.5t-42.5 -14.5h-4v-16q-3 -16 -6.5 -20.5t-15.5 -10.5q-5 -4 -7 -4q-3 0 -3 2q0 10 14 35l6 14h-4q-27 3 -40.5 19.5t-13.5 37.5q0 20 12.5 40t37.5 37q13 10 15 10h1q0 -3 -4 -4q-14 -10 -24 -28.5
t-10 -34.5q0 -26 18.5 -41.5t44.5 -15.5q21 0 37 7t26.5 18t16 25t5.5 29q0 8 -1.5 15.5t-7 17t-15.5 22l-26 32.5q-15 16 -23.5 27.5t-12.5 19.5t-5 13.5t-1 11.5q0 26 16.5 47.5t53.5 45.5q9 6 15.5 9.5t10.5 7.5t7.5 11.5t6.5 21.5q2 7 13.5 16t16.5 9v-2q-5 -11 -9 -20
l-12 -24q-3 -5 -3 -7q1 0 7 1.5t14 1.5q29 0 29 -22q0 -5 -4 -16t-10 -22t-13 -20.5t-13 -12.5q-1 -1 -2 -1h-1q0 2 4 7.5t8.5 13t8.5 17t4 20.5q0 21 -28 21q-13 0 -29 -5.5t-29.5 -16t-22.5 -25t-9 -32.5v-10.5t3 -12t11.5 -18.5t25.5 -30q25 -29 34.5 -43t14.5 -27z" />
    <glyph glyph-name="percent" unicode="%" horiz-adv-x="347" 
d="M39 137q-14 6 -22.5 20.5t-8.5 41.5q0 32 16.5 63t40 55t47.5 39t39 15q18 0 28 -11.5t10 -39.5q0 -36 -14 -71t-38 -62q-7 -8 -17 -17t-22 -17t-24 -13t-22 -5h-6t-7 2zM37 251q-6 -23 -6 -39q0 -26 13.5 -41.5t33.5 -15.5q19 0 34.5 16.5t26.5 39.5t17 48t6 42
q0 22 -9 37t-26 15q-15 0 -28.5 -9.5t-25.5 -24.5t-21.5 -33t-14.5 -35zM315 359l-1.5 -2.5t-6.5 -11t-16 -25.5t-30 -47q-21 -34 -36 -58.5t-30 -48.5l-32.5 -52t-42.5 -69q-21 -35 -33 -55.5t-19 -31t-11.5 -13.5t-10.5 -3q-5 0 -14.5 0.5t-9.5 2.5q0 1 2.5 5t9.5 15.5
t20.5 32.5t36.5 56q48 73 81 124.5t54.5 85.5t33.5 53.5t19 29t10.5 11.5t7.5 2t10.5 -0.5t7.5 -0.5zM315 186q11 -6 17 -17t6 -31q0 -36 -14 -71t-37 -63q-7 -8 -17.5 -17.5t-22.5 -17.5t-23.5 -13t-20.5 -5q-23 0 -34 19t-11 51q0 31 17 61t40 54t47.5 38.5t38.5 14.5
q4 0 8 -0.5t6 -2.5zM311 105q1 4 1 8v6q0 23 -9.5 37t-26.5 14q-15 0 -32 -13t-31 -33t-23.5 -45.5t-9.5 -49.5q0 -26 14 -41.5t34 -15.5q17 0 31.5 14.5t25 35.5t17.5 43.5t9 39.5z" />
    <glyph glyph-name="ampersand" unicode="&#x26;" horiz-adv-x="278" 
d="M316 51q1 7 5 7q1 0 1 -3q-2 -12 -15 -22.5t-31 -19t-37.5 -13t-32.5 -4.5q-22 0 -37 7l-5 2q-3 2 -7.5 3t-5.5 2h1l-7 4l-5 -3q-26 -12 -43 -18t-33 -6q-11 0 -20 3t-10 3q-2 -2 -5 -14.5t-4 -18.5q-1 -14 4 -25.5t14 -16.5h-1q5 -4 12 -4q8 0 11 6l3 4l1 3l2 7
q2 0 2.5 -2t0.5 -4q-1 -8 -10 -14t-18 -6q-15 0 -25.5 15t-8.5 34q2 6 3 12t4 13l4 16l-2 3q-11 9 -16.5 26t-3.5 34q4 24 22.5 56t45.5 62l11 12q3 21 14.5 44.5t27 43t33.5 32.5t34 13q19 0 16 -15q-1 -10 -4 -15.5t-14.5 -16t-32.5 -31t-58 -60.5l-7 -9q0 -2 -0.5 -2
t-0.5 -1l-1 -3q-2 -17 -1 -32.5t5 -28.5l4 -14l10 9q11 10 26 19t30.5 16.5t30 12t25.5 4.5q42 0 38 -35q-2 -21 -25.5 -48t-66.5 -50l-2 -1l-2 -2q3 -3 22 -8.5t36 -5.5q29 0 57 11.5t42 32.5zM114 251q-3 -3 -6.5 -11t-7.5 -16.5t-6.5 -15t-2.5 -7.5l12 11l7 7t9 8l15 14
q16 14 27 24t17 17t9 12.5t3 10.5q0 10 -8 10q-13 0 -33 -19t-35 -45zM54 49l12 17v-1l8 11l11 11l-3 4q-4 14 -5.5 34.5t0.5 37.5l-20 -31q-5 -11 -10.5 -27.5t-6.5 -25.5q-1 -6 1 -17t5 -19l-1 -1l2 -2zM136 19l-5 5q-12 9 -23 22.5t-17 28.5l-2 2l-10 -9q-7 -9 -15.5 -21
t-9.5 -14q-1 -6 12.5 -13.5t26.5 -7.5q7 0 14.5 1t13.5 2l10 3q2 0 2.5 0.5t1.5 0.5h1zM154 26q10 4 21.5 14.5t21.5 23t17 25.5t8 23q3 15 -11 24h1q-8 4 -15 4q-20 0 -41 -9t-51 -38l-6 -5l3 -4q4 -9 11.5 -19t16 -18.5t15 -14.5t9.5 -6z" />
    <glyph glyph-name="quotesingle" unicode="'" horiz-adv-x="54" 
d="M51 354q13 8 17 8q7 0 9 -9t2 -12q0 -10 -4.5 -18.5t-10.5 -14.5t-11.5 -9.5t-8.5 -3.5q-1 0 -1 2q2 3 6 10.5t4 14.5q0 5 -3 12t-3 11q0 3 4 9z" />
    <glyph glyph-name="parenleft" unicode="(" horiz-adv-x="169" 
d="M141 349q-17 -16 -34.5 -44.5t-30.5 -60.5q-26 -59 -33 -119t6 -116q2 -12 6 -22t9 -22q7 -11 7 -14q0 -2 -8 1q-10 5 -18 16q-22 30 -28 78t5 101q8 32 20.5 65t29.5 60q7 11 17.5 26.5t17.5 23.5q8 8 20.5 20t19.5 17q13 10 15 4q2 -2 -7 -4q-5 -2 -7 -3t-7 -7z" />
    <glyph glyph-name="parenright" unicode=")" horiz-adv-x="226" 
d="M203 299q11 -39 7.5 -88t-21.5 -96q-11 -30 -23 -53t-29 -47q-10 -15 -17.5 -24.5t-20.5 -20.5q-13 -13 -22.5 -18.5t-12.5 -3.5q-1 3 7 5q5 2 7.5 4t7.5 7q16 16 34 45t32 60q26 59 32 119t-7 115q-2 13 -5.5 22.5t-9.5 21.5q-2 5 -4 9.5t-2 5.5q0 3 8 -2
q12 -5 22 -21.5t17 -39.5z" />
    <glyph glyph-name="asterisk" unicode="*" horiz-adv-x="407" 
d="M255 346q1 -2 1 -5q0 -7 -5.5 -9.5t-12.5 -2.5t-13 0.5l-6 0.5q0 -26 8 -35h-1l-1 -1q0 -1 -0.5 -1t-0.5 -1q-2 -1 -7.5 -4t-11.5 -6t-10.5 -5t-5.5 -2q-2 0 -2.5 6t0.5 14t2 15.5t2 11.5v1l-8 -7q-8 -6 -17.5 -12t-18.5 -11t-16.5 -8.5t-10.5 -3.5h-1q0 3 11 9l3 2
q5 3 13.5 9l17 12t14.5 11t7 7q-36 10 -36 17q0 5 0.5 13.5t8.5 2.5q8 -8 20.5 -15t13.5 -7t7 8.5t15 19t20 19t21 8.5q1 0 1 -1q0 1 -4 -6.5t-9.5 -17.5t-10.5 -19t-7 -12q1 1 7 2t14 5l8 3z" />
    <glyph glyph-name="plus" unicode="+" horiz-adv-x="186" 
d="M102 132h14t26 1l35 -1q1 0 1 -1v-1l-6 -6l-22 -14h-54q-1 -2 -1 -7.5v-12.5q0 -20 -8 -32t-21 -12q-3 0 -3 3q0 1 1.5 7.5t3 15.5t3 19.5t1.5 19.5h-6q-3 0 -7.5 0.5t-9.5 0.5q-29 1 -35.5 1t-6.5 2q0 5 6 8.5t26 5.5q18 2 25.5 1t9.5 1t2.5 11t2.5 33q2 10 11.5 14
t11.5 4q3 0 3 -2q0 -3 -1.5 -11.5t-1.5 -13.5v-3q-2 -10 -2.5 -18t-0.5 -10v-3h3v0z" />
    <glyph glyph-name="comma" unicode="," horiz-adv-x="74" 
d="M54 29q19 -6 -5 -36q-7 -9 -14 -15.5t-15 -12.5q-7 -4 -9 -4.5t3 4.5q5 3 10 10.5t7 12.5t2 5.5t-3 0.5q-2 0 -6.5 4.5t-4.5 7.5q0 5 8 11.5t18 10.5q5 2 9 1z" />
    <glyph glyph-name="hyphen" unicode="-" horiz-adv-x="191" 
d="M44 127q-22 -1 -29 -4t-7 -7q0 -1 19.5 -3.5t54.5 -2.5h13q4 0 7.5 -0.5t7.5 -0.5h45l14 10l14 11q0 1 -1 1l-30 1q-28 -1 -58.5 -2t-49.5 -3zM44 127q-22 -1 -29 -4t-7 -7q0 -1 19.5 -3.5t54.5 -2.5h13q4 0 7.5 -0.5t7.5 -0.5h45l14 10l14 11q0 1 -1 1l-30 1
q-28 -1 -58.5 -2t-49.5 -3z" />
    <glyph glyph-name="period" unicode="." horiz-adv-x="60" 
d="M44 30q10 -3 0 -17q-5 -6 -8 -9.5t-9 -5.5q-5 -3 -7.5 -3t-7.5 5q-4 5 -4 6.5t2 5.5q2 3 10 9t14 8q4 2 5.5 2.5t4.5 -1.5z" />
    <glyph glyph-name="slash" unicode="/" horiz-adv-x="172" 
d="M164 416q0 -1 -1 -7.5t-4.5 -23t-10 -44t-16.5 -70.5q-11 -43 -19 -77.5t-10 -42.5l-32 -139l-32 -134l-3 -11l-8 -7q-7 -5 -13 -9.5t-8 -4.5v2q0 2 10 43.5t24 100.5l15.5 62t16.5 67t15 63.5t12 51.5q15 61 23 94t12 49t5.5 19.5t3.5 5.5q1 1 3.5 4t7.5 5q6 4 7 4.5
t2 -1.5z" />
    <glyph glyph-name="zero" unicode="0" horiz-adv-x="314" 
d="M305 281q0 -59 -22.5 -115t-56.5 -100t-73 -70.5t-72 -26.5q-39 0 -56 32t-17 79q0 23 6 50t16.5 54.5t24.5 53.5t30 46q15 18 34 34t39 28.5t38.5 19.5t31.5 7q37 0 57 -24t20 -68zM276 234q2 7 2 16v17q0 35 -20 61t-51 26q-20 0 -40 -10.5t-38.5 -29t-35 -43.5
t-29.5 -54q-6 -13 -8.5 -21t-4 -15t-2.5 -14t-3 -17l-7 -29q-1 -5 -1.5 -11.5t-0.5 -13.5q0 -20 3 -38.5t11 -33t21.5 -23.5t33.5 -9t39 8l4 1q17 10 37 35.5t38.5 58.5t32.5 69.5t19 69.5z" />
    <glyph glyph-name="one" unicode="1" horiz-adv-x="225" 
d="M169 231q-20 -51 -31 -81t-20 -56q-5 -14 -11 -30.5t-11 -31.5t-8.5 -25t-3.5 -11q5 -2 14.5 -4.5t14.5 -2.5q8 0 13 4.5t7 4.5l1 -1h-1q3 -2 3 -3q0 -3 -6.5 -8t-15 -9.5t-17 -8t-12.5 -3.5q-6 0 -22 4.5t-30 4.5q-9 0 -11 -6t-9 -6q-2 0 -4 0.5t-2 2.5t6 7t14 10.5
t15.5 9.5t11.5 4q3 0 9.5 16t16 42t21 59t24.5 67l52 136q2 5 2.5 6.5t0.5 3.5l-4 -4q-1 -1 -1 -2q-11 -11 -26.5 -19.5t-26.5 -8.5q-8 0 -15 4.5t-7 9.5q0 3 10.5 11.5t16.5 8.5q2 0 10.5 -5.5t16.5 -5.5q1 0 3.5 2t8.5 11q20 23 28.5 37t19.5 14q3 0 3 -5q0 -6 -12.5 -43
t-35.5 -100z" />
    <glyph glyph-name="two" unicode="2" horiz-adv-x="345" 
d="M132 27l-6 -4q-2 -2 -3 -2t-2 -1t-2 -1q0 -1 3 -1l19 -9q32 -12 53 -18.5t45 -6.5q8 0 24 1t23 8q1 0 5 4.5t8 9.5t8 9t5 4l1 -2q0 -9 -10 -19.5t-25 -18.5t-33.5 -13.5t-36.5 -5.5q-22 0 -45.5 6.5t-53.5 19.5l-17 6q-8 4 -9 4t-4.5 -2t-8.5 -4q-42 -22 -55 -22
q-8 0 -8 7q0 2 7 10t18.5 17t25 16t27.5 7q7 0 18 -3l7 -2l6 4h-1q39 24 73.5 54.5t60.5 63t41.5 65t15.5 60.5q0 22 -8 38.5t-20.5 27.5t-29 16t-33.5 5q-14 0 -28.5 -4t-26.5 -13t-20 -22.5t-8 -32.5q0 -14 9.5 -26t25.5 -12h5l8 3h-1q2 2 4 2h1q0 -5 -10.5 -11t-24.5 -6
q-20 0 -30 11.5t-10 28.5q0 22 13.5 40.5t33 32t42 21.5t41.5 8q45 0 70 -22.5t28 -60.5q0 -63 -55.5 -130t-146.5 -132zM68 -2q2 2 4 2h1q-2 1 -5 1h-5q-11 0 -18.5 -2t-7.5 -6q1 -1 2 -1q1 -1 5 -1q3 0 7 2l13 4h-1l2 1h3z" />
    <glyph glyph-name="three" unicode="3" horiz-adv-x="312" 
d="M261 221q23 -12 31.5 -36.5t2.5 -52.5q-8 -33 -34 -64t-60 -55t-71 -38t-67 -14q-43 0 -66 27.5t-14 68.5q2 6 3.5 11t4.5 9q2 5 7.5 14.5t12 18.5t14 16t12.5 7v-1q-2 -10 -12 -20t-14 -27q-5 -23 0 -41t17.5 -31t31 -20t39.5 -7q30 0 57 12t48.5 31t35.5 41.5t19 43.5
q7 32 -3 57.5t-32 36.5l-5 2l-11 -6q-13 -7 -24.5 -10.5t-19.5 -3.5q-7 0 -9.5 4t-1.5 8q4 11 25 20t40 9q4 0 7.5 -0.5t7.5 -0.5h6l7 6q17 17 27.5 30.5t13.5 30.5q5 20 -7 39t-39 19q-14 0 -28 -2t-26 -7q-9 -3 -17 -10.5t-14 -17.5t-10.5 -20t-6.5 -17q-5 -23 13 -36
l8 -6q-2 -5 -10 -7.5t-14 -2.5q-14 0 -23.5 10.5t-5.5 30.5q5 22 21.5 41.5t38.5 33.5t47.5 22.5t49.5 8.5q33 0 46.5 -15.5t6.5 -44.5q-4 -22 -21 -44t-40 -39l-9 -6q6 0 14 -6zM194 208q6 2 11.5 3.5t5.5 2.5q2 1 -4 1.5t-13 0.5q-17 0 -19 -4q4 -4 14 -4h5z" />
    <glyph glyph-name="four" unicode="4" horiz-adv-x="324" 
d="M294 365q2 2 11 7t10 5h1q0 -4 -4 -12q-14 -30 -30.5 -69.5t-31.5 -74.5t-25 -59.5t-10 -25.5q32 0 46.5 -3t14.5 -5q0 -5 -11 -10.5t-15 -5.5q-8 0 -15.5 1.5t-12.5 1.5h-15q0 -1 -0.5 -1t-0.5 -1l-1 -1q-4 -11 -8.5 -25.5t-8.5 -29.5t-6.5 -28t-2.5 -19
q0 -11 4.5 -17.5t8.5 -6.5q2 0 2 -2t-10.5 -9.5t-18.5 -8.5q-5 0 -10 2l-3 2h1l-5 3q-1 3 -1 14q0 5 2 16t5.5 26t8.5 32t12 35q2 7 3.5 12t1.5 6t-4 1q-6 0 -20 -1.5t-31 -4.5t-35 -6.5t-31 -6.5l-5 -2q-11 -3 -25 -10t-17 -7q-5 0 -5 1q0 3 6 7.5t14 9.5t17.5 9.5
t15.5 6.5t17.5 11t24.5 21.5t26 26.5t24 27q23 29 35 56t12 47q0 18 -9.5 30.5t-26.5 12.5q-8 0 -19 -1t-19 -6h1q-6 -5 -12 -13t-11.5 -17.5t-8.5 -18.5t-3 -15q0 -14 11 -21q4 -4 11 -6q0 -1 -4 -2t-8 -1q-13 0 -20 10t-7 21q0 15 11 31.5t27 30t34.5 22t33.5 8.5
q23 0 33.5 -13.5t10.5 -35.5q0 -20 -11.5 -44t-30.5 -49.5t-42.5 -51t-48.5 -47.5l-11 -6q8 1 20.5 3.5t27 4.5t28.5 4t24 3l9 2l2.5 7.5t3.5 6.5l3 6q4 10 10.5 24.5t13 30.5t13.5 32t13 29l8 16q11 24 21.5 48t16.5 30z" />
    <glyph glyph-name="five" unicode="5" horiz-adv-x="331" 
d="M317 337q-7 -11 -14 -11q-2 0 -2 4t-5 8.5t-19 8.5t-43 4t-45 -3.5t-23.5 -8.5t-9.5 -11.5t-4 -12.5q-5 -12 -12.5 -27t-14.5 -28.5t-12 -23.5t-5 -13q12 3 27 3q54 0 86.5 -29.5t32.5 -75.5q0 -23 -6 -38.5t-16 -29.5q-8 -12 -23.5 -26.5t-34.5 -27t-39.5 -21
t-38.5 -8.5q-40 0 -64.5 27t-24.5 80q0 13 2.5 17.5t4.5 4.5q0 -1 1 -2q1 -2 1 -3.5t2 -5.5l3 -10q11 -48 40 -66.5t59 -18.5q22 0 41 10t33.5 25.5t22.5 35.5t8 40q0 27 -11.5 46t-29.5 31.5t-38.5 18.5t-38.5 6q-11 0 -20.5 -8t-15.5 -8q-2 0 -5 4q0 4 9.5 10.5t17.5 15.5
v-1l30 79q1 5 2.5 10t3.5 9l21 20q19 17 43 25.5t68 8.5q10 0 21 -0.5t20 -2t15 -5t6 -9.5q0 -5 -2 -8.5t-4 -8.5z" />
    <glyph glyph-name="six" unicode="6" horiz-adv-x="287" 
d="M213 376q14 7 31 7q34 0 34 -30q0 -6 -1 -10t-2 -7q-1 -4 -2 -5q-4 0 -7 5q-18 26 -46 26q-21 0 -43.5 -17t-43.5 -44t-39 -60t-31 -66l-3 -6q-1 -1 -1 -2q-1 -1 -1 -2.5t-2 -3.5h1l1 2l5 4q26 19 52 30t55 11q39 0 60.5 -21.5t21.5 -51.5q0 -34 -26 -72
q-10 -14 -27 -29.5t-37.5 -29t-43 -22.5t-41.5 -9q-33 0 -51.5 22.5t-18.5 57.5q0 18 1.5 29.5t7.5 30.5q13 44 33.5 85.5t46 76t55.5 60.5t62 41zM63 158q-8 -6 -12.5 -17t-7.5 -23.5t-4 -24.5t-1 -19q0 -14 4 -27.5t12 -25t20 -18.5t29 -7q35 0 57.5 16t36 37t18.5 41
t5 29q0 28 -20.5 47t-55.5 19q-10 0 -21.5 -2.5t-23 -6t-21 -8.5t-15.5 -10z" />
    <glyph glyph-name="seven" unicode="7" horiz-adv-x="329" 
d="M312 362q-11 -10 -21.5 -15t-24.5 -8q-5 -2 -14 -12t-19.5 -23.5t-21 -29t-18.5 -28.5v1l-31 -55h4q2 0 7 0.5t13 0.5h7q20 -1 22 -3h-1q8 -2 8 -6q0 -3 -5 -9t-19 -6q-7 0 -21 1t-19 1l-7 -1q-1 -1 -1 -2t-1 -2l-2 -3q-21 -41 -36.5 -84t-15.5 -66q0 -9 3.5 -18t3.5 -12
q-2 -3 -10.5 -8t-13.5 -5q-15 0 -15 24q0 22 15 62.5t38 87.5l6 13q3 5 4.5 8l2.5 5h-7.5t-6.5 -1h-3q-5 -1 -8 -1t-5 -2l-6 -7q0 -1 -1 -1q-3 0 -3 5q0 4 5.5 8.5t12.5 8.5t14.5 6.5t11.5 2.5l8 2l2 4q1 2 2.5 4.5t1.5 4.5q21 35 44 67t47 58l3.5 3.5l3.5 3.5h-8
q-43 0 -115 15q-9 2 -15 3t-19 1q-19 0 -31 -5t-18.5 -12.5t-9 -16.5t-2.5 -18q0 -10 6.5 -18.5t17.5 -13.5q8 -2 11.5 -1.5t3.5 -1.5t-6 -4.5t-15 -2.5q-14 0 -25.5 9.5t-11.5 28.5q0 16 9.5 30t25 24.5t35 16.5t38.5 6h19l32 -5q30 -5 55.5 -9.5t45.5 -4.5l7 6
q20 15 36 17q8 0 9 -3t1 -5q0 -4 -9 -10zM284 358q12 1 12 4t-4 3q-6 0 -11 -7h3z" />
    <glyph glyph-name="eight" unicode="8" horiz-adv-x="310" 
d="M252 379q21 -6 35 -22t14 -34q0 -19 -11 -42t-25.5 -45t-28.5 -41t-20 -29l-5 -8l6 -5q27 -24 39 -41t12 -37q0 -19 -9 -32q-6 -11 -24 -25.5t-42 -27.5t-52 -22.5t-56 -9.5q-32 0 -55 15.5t-23 39.5q0 26 20.5 55.5t71.5 71.5l8 7q11 9 18.5 17t9.5 9l2 2l-7 8
q-39 39 -39 82q0 21 11 41.5t29.5 37.5t43 27.5t51.5 10.5q12 0 16.5 -0.5t9.5 -2.5zM211 112l-68 57l-2 -2l-28 -23q-45 -38 -59.5 -63t-15.5 -44q0 -5 2.5 -12t4.5 -12v1q11 -15 29.5 -23.5t40.5 -8.5q18 0 40 4.5t40.5 14t31 23.5t12.5 33q0 27 -28 54v1zM275 308
q0 26 -20.5 43t-49.5 17q-18 0 -35 -7t-30.5 -18t-21.5 -25.5t-8 -30.5q0 -18 13 -40.5t36 -43.5l4 -3l3 3q9 13 12.5 20t3.5 15q0 7 -2.5 13t-2.5 8v1q7 0 12.5 -5t5.5 -16q0 -10 -4.5 -18t-15.5 -21v1l-5 -9l3 -2l13.5 -13.5t11.5 -10.5l2 3q2 6 8 14l15 20l20 27
q12 17 21 38.5t11 32.5v7z" />
    <glyph glyph-name="nine" unicode="9" horiz-adv-x="287" 
d="M271 340q5 -11 6.5 -18.5t1.5 -24.5q0 -29 -8 -60.5t-22 -63t-32 -60.5t-37 -53q-12 -15 -30 -32t-37 -30.5t-38 -22.5t-33 -9q-16 0 -25.5 8.5t-9.5 22.5q0 5 3 14.5t5 9.5q7 -9 16 -16q7 -6 15.5 -10.5t16.5 -4.5q18 0 39 9q15 7 32 26.5t33.5 44.5t31.5 53t26 52l4 11
l-6 -4q-26 -19 -54 -30t-53 -11q-38 0 -59.5 19t-21.5 54q0 18 7 38.5t21 37.5q11 15 30 30.5t39.5 28t40 20.5t32.5 8q18 0 38 -10t28 -27zM238 216q5 18 7 33.5t2 28.5q0 35 -19 55.5t-49 20.5q-28 0 -49 -13t-35.5 -32t-22 -40t-7.5 -36q0 -33 23 -51t53 -18
q36 0 63 14.5t34 37.5z" />
    <glyph glyph-name="colon" unicode=":" horiz-adv-x="82" 
d="M67 91q13 -5 1 -18q-5 -7 -8.5 -9.5t-8.5 -5.5q-6 -3 -8.5 -3t-7.5 5q-4 6 0 12q0 4 8 9.5t14 7.5q5 2 6.5 2h3.5zM43 27q6 -2 6.5 -6t-5.5 -12q-5 -6 -8.5 -9t-8.5 -5q-5 -3 -7.5 -3t-7.5 5q-6 6 -2 12q2 3 10 8.5t14 8.5q5 2 9 1z" />
    <glyph glyph-name="semicolon" unicode=";" horiz-adv-x="93" 
d="M77 88q12 -4 1 -17q-9 -10 -16 -15q-6 -4 -9 -3.5t-7 5.5q-6 6 -2 12q2 3 10 8.5t14 8.5q5 2 9 1zM55 26q17 -6 -6 -36q-7 -8 -14 -15t-15 -12q-17 -11 -7 -1q5 2 10.5 10t7.5 13t2 5.5t-2 0.5q-3 0 -7.5 4.5t-4.5 7.5q0 4 8 11t17 10q7 3 11 2z" />
    <glyph glyph-name="less" unicode="&#x3c;" horiz-adv-x="159" 
d="M111 63q14 -5 17 -7t3 -3q0 -2 -4.5 -5t-10 -6.5t-11 -6t-7.5 -2.5q-1 0 -4 1t-8 3q-43 17 -59.5 34t-16.5 32q0 6 0.5 9t5.5 8t16.5 14l34.5 27q37 27 59 44t24 17q0 -5 -59 -48q-20 -15 -29.5 -23t-14 -12.5t-4.5 -7.5v-7q0 -15 16 -31t52 -30z" />
    <glyph glyph-name="equal" unicode="=" horiz-adv-x="192" 
d="M43 108q3 0 6.5 0.5t8.5 0.5l93 4l29 -2v-1l-5 -5l-6 -6t-8 -6l-7 -4h-44q-4 0 -8 0.5t-8 0.5h-13q-35 0 -54 2t-19 3q0 4 6 8t29 5zM83 133q-32 1 -52 2t-20 3q0 11 37 13.5t105 4.5l30 -1v-1l-6 -6q-1 -1 -2 -1t-1 -1l-18 -13h-23h-50z" />
    <glyph glyph-name="greater" unicode="&#x3e;" horiz-adv-x="160" 
d="M70 217q43 -17 61 -34t18 -34q0 -6 -0.5 -9.5t-5.5 -8.5t-16.5 -13.5t-33.5 -25.5q-38 -29 -60 -45.5t-24 -16.5h-1q1 2 15 14t45 35q17 13 26.5 20.5t14.5 12t6.5 7t1.5 5.5q0 9 -5 20.5t-21 22.5q-6 5 -16.5 10.5t-20.5 10.5t-17.5 8t-7.5 4q0 2 9 8t15 9l8 2l9 -2v0z
" />
    <glyph glyph-name="question" unicode="?" horiz-adv-x="489" 
d="M208 35q9 -3 9 -9t-10 -17.5t-20 -11.5q-5 0 -8.5 4.5t-4.5 8.5q0 2 3.5 6t8 8.5t10 7.5t9.5 3h3zM417 437q25 -8 39 -25t16 -40q2 -45 -30.5 -83t-93.5 -73l-41 -25q-17 -9 -30.5 -21t-26.5 -26q-11 -13 -17.5 -29t-12.5 -30.5t-13 -24t-18 -9.5q-3 0 -3 3q-1 6 3.5 20
t10.5 25q13 28 47.5 57.5t103.5 67.5q47 26 69.5 62.5t20.5 68.5q-1 15 -10 29.5t-23 22.5h1q-12 6 -23 9t-25 3q-28 0 -51 -12.5t-39.5 -30.5t-25.5 -37.5t-8 -33.5q2 -18 14 -29.5t29 -11.5q5 0 10 1t10 3l11 5h-1h5q2 2 9 11t10 9t3 -4q0 -6 -9.5 -13.5t-23 -14
t-27.5 -11.5t-23 -5q-22 0 -33 13t-13 31q-1 18 13.5 43.5t39.5 49.5t58 41t68 17q19 0 30 -3z" />
    <glyph glyph-name="at" unicode="@" horiz-adv-x="225" 
d="M180 208q22 -5 36 -23t14 -41q-1 -26 -15.5 -51.5t-38.5 -44.5q-29 -23 -41 -23q-8 0 -13 9t-3 23q0 6 -1 6t-9 -7q-6 -5 -16.5 -12t-15.5 -9q-11 -5 -18.5 -1t-9.5 15q-2 14 9.5 38.5t30.5 45.5q7 8 17 16.5t20 16t19 12.5t13 5q2 0 5.5 -2.5t5.5 -4.5l3 -7l1 -6l6 5
q14 9 16 7q2 0 1.5 -3.5t-2.5 -5.5q-1 -2 -6 -2l-5 1l-5 -6q-9 -16 -17.5 -35.5t-11.5 -34.5q0 -3 -0.5 -8t-0.5 -10q0 -6 0.5 -9t2.5 -7q6 -9 12 -9q5 0 6 1t6 4q10 11 19.5 24.5t14.5 26.5q11 24 9 45.5t-16 35.5q-19 16 -47 16q-13 0 -24 -3t-25 -9q-12 -6 -20 -11.5
t-16 -14.5q-31 -34 -39 -73q-2 -8 -2 -19.5t2 -18.5q5 -17 18 -31q16 -14 34 -18t43 1q5 2 10 3t6 1q2 2 2 0t-5.5 -5t-14 -6.5t-18 -6.5t-17.5 -4q-9 -2 -21 -2t-19 2q-35 10 -46 43q-2 6 -2 21t3 23q9 34 31 61t59 53q22 13 41 20q10 3 23 4t22 -1zM127 90q5 14 14 30.5
t20 29.5q0 3 -2 8q-6 8 -17 8q-12 0 -23 -12q-11 -13 -21.5 -30t-15.5 -31q-3 -8 -4 -17.5t1 -14.5q3 -12 20 -7q5 1 7.5 4t9.5 10q4 6 6 10t5 12z" />
    <glyph glyph-name="A" unicode="A" horiz-adv-x="412" 
d="M59 -25q-23 5 -38 23t-20 45v9t1 14q3 30 18 58.5t38 50t51 35t55 13.5q23 0 49 -6t61 -19l16 -6l2 3q1 4 4.5 9t5.5 10q55 94 103 138t94 44q13 0 15 -4t2 -5q-3 -5 -11 -5q-9 0 -29 -33.5t-48 -99.5l-29 -80l-2 -2h2q19 0 29 6.5t15.5 14.5t7 14.5t3.5 6.5t2 -5
q-1 -13 -8 -21.5t-16.5 -13.5t-19 -7t-16.5 -2q-1 -1 -5.5 -12.5t-10 -27t-11 -32l-9.5 -28.5q-6 -22 -10 -42t-6 -38q-6 -69 21 -98v1q17 -13 33.5 -7t31 20t26 31t17.5 26q1 0 2 -1t0 -4q-10 -23 -24.5 -42t-31 -32t-32.5 -20t-29 -7q-29 0 -42 32.5t-8 79.5q2 22 6.5 44
t12 46t17.5 51.5t24 60.5l-2 -1q-5 0 -23.5 3.5t-33.5 8.5l-8 3l-17 -27q-55 -85 -108 -130t-102 -45q-7 0 -15 2zM71 176q-17 -14 -27 -37t-13 -47q-2 -16 1.5 -31t11.5 -27t21 -19.5t31 -7.5q40 0 71.5 21t61.5 65q5 7 13.5 20.5l17 27t15.5 25t9 14.5l-22 8
q-30 11 -53.5 14t-43.5 4q-56 0 -94 -31v1zM358 278q-8 -12 -17 -28t-17.5 -30.5t-13.5 -24l-5 -9.5l18 -6q8 -4 18.5 -7.5t26.5 -3.5q2 0 3.5 3.5l7.5 17.5q28 68 55 115.5t51 70.5l8 7h-2q-21 -3 -38 -9.5t-32.5 -18.5t-30.5 -31t-32 -46z" />
    <glyph glyph-name="B" unicode="B" horiz-adv-x="408" 
d="M111 102q-17 -9 -34 -9q-32 0 -53 26t-21 70q0 50 30.5 91t75 68.5t96 38.5t93.5 0l8 9q15 13 27.5 18.5t21.5 5.5q8 0 11.5 -3t3.5 -6q0 -2 -9 -4t-20.5 -5t-20.5 -7t-9 -10q0 -1 8 -3q26 -11 43.5 -31.5t17.5 -49.5q0 -23 -12.5 -42t-35.5 -38l-3 -4q31 -15 49 -41.5
t18 -61.5q0 -34 -21 -71q-15 -29 -43 -58t-61 -52t-67 -38t-62 -15q-24 0 -37.5 14t-13.5 35t16 45.5t39.5 46t50.5 36t49 14.5q12 0 22.5 -2t12.5 -6l-2 -1q-5 0 -11 1t-14 1q-24 0 -48 -10.5t-43 -27.5t-30.5 -37.5t-11.5 -40.5q0 -41 50 -41q30 0 64 18t62.5 47.5
t47.5 67t19 76.5q0 14 -5 32t-16 32q-2 3 -6.5 7t-9.5 8t-9.5 7t-6.5 3q-6 0 -17 -4t-21 -4q-16 0 -22.5 6.5t-6.5 11.5q0 6 7 9.5t25 3.5h15t11 -2l9 -2l8 4h-1q18 12 24.5 33t3.5 42t-16 37t-35 17q-2 0 -6 -7t-8.5 -19t-9.5 -27t-10 -31q-12 -35 -20 -57.5t-13.5 -38
t-10 -25.5t-8.5 -20q-11 -23 -27.5 -48.5t-37 -47t-44 -35.5t-46.5 -14q-12 0 -20.5 5.5t-8.5 15.5t4 10q5 0 9 -4.5t20 -4.5q35 0 60 20t42 50q8 15 12.5 24t9.5 21.5t12.5 33.5t21.5 60q11 33 19.5 55t15.5 38t13.5 27.5t13.5 22.5v1q0 1 -5.5 2t-14 2t-17 1.5t-14.5 0.5
q-40 0 -77.5 -14.5t-67 -39t-47.5 -57t-18 -68.5q0 -39 20.5 -62t49.5 -23q12 0 24 6.5t21 17t15 24t6 28.5q0 8 -3 17.5t-3 10.5v2q5 0 9.5 -10.5t4.5 -27.5q0 -21 -14 -40.5t-36 -29.5z" />
    <glyph glyph-name="C" unicode="C" horiz-adv-x="315" 
d="M51 -70q-32 15 -46 46t-12 73q0 5 0.5 12.5t1.5 15.5q2 11 5.5 22t6.5 19q19 46 52.5 92t80.5 84q79 67 153 88q24 6 39.5 8t29.5 0q35 -6 40 -28q4 -14 -3 -31t-18 -32q-15 -20 -35.5 -39t-40.5 -32t-36 -18t-22 3q-5 6 -1.5 19t14.5 21l-1 -1q4 3 5 3.5t2 0.5t1 -1
q0 -5 -2 -8q-4 -8 -1.5 -12.5t9.5 -4.5q15 0 39 14.5t40 33.5q12 14 19 29.5t5 26.5t-11 20q-7 4 -21.5 6t-28.5 0q-19 -2 -41 -8t-44 -16t-43.5 -23t-39.5 -27q-17 -12 -32 -28.5t-29 -34.5q-20 -28 -33 -57t-20 -58q-17 -72 8 -110.5t76 -49.5q5 -1 11.5 -1.5t13.5 -0.5
q8 0 16 0.5t14 1.5q33 5 70 24.5t69 40.5q8 6 14.5 10t8.5 2t-9.5 -11.5t-24.5 -18.5q-42 -29 -85 -50t-78 -26q-5 -1 -11.5 -1.5t-12.5 -0.5t-13.5 0.5t-10.5 1.5q-10 1 -20 4t-18 7z" />
    <glyph glyph-name="D" unicode="D" horiz-adv-x="415" 
d="M21 102q-9 11 -15.5 27.5t-6.5 34.5q0 37 22.5 75t57.5 68.5t79 50t87 19.5q29 0 56 -8l8 -2q16 16 30 29t28 15q14 0 14 -12q0 -3 -2 -3q-1 0 -4 0.5t-8 0.5q-9 0 -16.5 -4.5t-13.5 -10.5t-9.5 -12t-4.5 -9q2 -4 6 -4q45 -22 71.5 -66.5t26.5 -98.5q0 -48 -23.5 -89
t-58 -71t-74.5 -46.5t-74 -16.5q-19 0 -40.5 6t-37.5 14l-9 -5q-9 -4 -18.5 -7t-18.5 -3q-11 0 -20 8t-9 19q0 13 12 22.5t29 9.5q13 0 40 -12l8 -4q4 0 14.5 12.5t23 35t27 53t27.5 65.5q24 64 40.5 99.5t23.5 55.5q-5 2 -5 3v-1q-17 6 -34 10t-34 4q-38 0 -73 -15.5
t-63 -40.5t-44.5 -57.5t-16.5 -65.5q0 -40 21 -66.5t51 -26.5q16 0 30.5 8t24.5 21.5t16 29.5t6 33v8t2 4q3 0 4 -6.5t1 -14.5q0 -17 -8.5 -34.5t-21.5 -31.5t-29.5 -22.5t-32.5 -8.5q-14 0 -32.5 9.5t-29.5 24.5zM102 1l-17 8q-16 7 -22 7q-5 0 -5 -4t11 -8t22 -4h9z
M306 328v-1l-4.5 -7.5t-5.5 -13t-12.5 -34t-24.5 -69.5q-14 -35 -26 -62t-24.5 -48.5t-25.5 -39t-29 -33.5l-7 -8q8 -4 27 -9t41 -5q38 0 70.5 13t56.5 36.5t37.5 55t13.5 69.5q0 50 -20.5 87t-58.5 63l-7 6h-1z" />
    <glyph glyph-name="E" unicode="E" horiz-adv-x="325" 
d="M-10 -23q-5 4 -5 9q0 8 6 14.5t15 11t20 7t21 2.5h22l13 -3l6 5q6 5 15.5 16t17.5 22q7 9 15.5 25t16.5 35t15.5 38t13.5 35q-2 0 -6 -4t-6 -7q-1 -8 -4 -8q-5 0 -5 8q0 6 3.5 9t8.5 6.5t10 9.5t9 18q14 42 30.5 72t39.5 56q3 5 7 5h-1q-4 0 -15.5 1t-25 2.5t-25 3
t-14.5 1.5q-41 0 -72.5 -10t-53 -26.5t-33 -38t-11.5 -45.5q0 -23 14 -37.5t33 -14.5q20 0 32.5 11t20 24t11 24t4.5 11v-7q0 -12 -5.5 -24.5t-15.5 -23t-24 -17.5t-31 -7q-23 0 -38.5 18t-15.5 40q0 30 18.5 57t48.5 47.5t68.5 32.5t78.5 12q17 0 37.5 -3t37.5 -3l8 6
q15 12 29 12t14 -7q-2 -5 -9.5 -3t-18.5 -3l-14 -7q10 -2 26.5 -4.5t34.5 -4.5t34.5 -3.5t27.5 -1.5q23 0 31.5 4t11 9t3 9t6.5 4q3 0 7 -4v1q2 -4 2 -5q0 -8 -9 -15.5t-23.5 -13.5t-33 -10t-36.5 -4q-17 0 -33 1.5t-44 6.5q-18 3 -25 3q-11 -11 -22.5 -32.5t-19.5 -43.5
q-2 -4 -5.5 -14l-7 -20t-6 -18l-2.5 -8h5q2 0 4.5 0.5t5.5 0.5q9 0 21 -1.5t33 -6.5q20 -5 32 -7t18 -2h8t2 -2q-2 -7 -15.5 -15.5t-28.5 -8.5q-4 0 -17.5 3t-29 6t-28.5 6t-15 3h-2l-5 -11q-10 -29 -20 -51t-22 -40.5t-26 -35t-33 -33.5l-10 -11q38 -15 72 -20t58 -5
q55 0 73 11q6 5 11 14t7 9q4 0 4 -5q-4 -23 -39.5 -40t-83.5 -17q-17 0 -44 3.5t-74 16.5l-19 6q-2 -2 -5 -2l-18 -8q-16 -8 -28 -8q-13 0 -19 7zM3 -4q0 -8 17 -8q3 0 9 2l14 4q-6 0 -15 3t-15 3q-8 0 -10 -4z" />
    <glyph glyph-name="F" unicode="F" horiz-adv-x="261" 
d="M193 179l6 13q1 2 1 3t-1 1q-2 0 -2 -1q-11 -6 -12 -13.5t-9 -7.5q-1 0 -1 1q0 5 4.5 10.5t10 11l11 11t7.5 11.5q15 34 30 67t38 63l3 5q3 2 4.5 4.5t3.5 2.5v1q-1 0 -9 0.5t-19.5 1t-25 1t-25.5 0.5q-41 0 -72.5 -9.5t-53.5 -25.5t-34 -36t-13 -41q-2 -28 12.5 -43.5
t34.5 -15.5q10 0 20.5 5.5t19.5 13.5t15 18.5t8 21.5q3 12 4 12q2 0 3.5 -2t0.5 -6q-1 -15 -9.5 -29t-21 -24.5t-27 -16.5t-27.5 -6q-22 0 -35.5 19.5t-11.5 45.5q1 27 19 53t49 46.5t74 33.5t96 13q6 0 12 -0.5t13 -0.5l30 -1q11 9 18 15.5t18 6.5q16 0 14 -13q0 -4 -3 -4
q-2 0 -6 0.5t-10 1.5q-6 0 -14 -4q-4 -2 -7 -3q0 -1 15 -3t36 -3.5t44.5 -2.5t40.5 -1q13 0 22.5 0.5t14.5 1.5l9 3q4 2 6 9.5t7 7.5q7 0 7 -6q-1 -2 -1.5 -4t-2.5 -5q-15 -19 -40 -26.5t-67 -7.5q-23 0 -41.5 1t-47.5 3l-25 3l-2 -1h1q-5 -6 -13.5 -21.5t-18 -35t-18 -40.5
t-12.5 -38q0 -1 -1 -2h8q7 0 18 -2l22 -4t20 -4.5t12 -2.5l12 -1l3 3h-1q4 6 8 6q1 0 1 -2q-1 -10 -11.5 -16.5t-25.5 -9.5t-30.5 -3t-25.5 3q-8 2 -12.5 3.5t-6.5 1.5l-11 -23q-13 -33 -30 -72t-40.5 -72.5t-54 -56t-69.5 -22.5q-14 0 -29.5 8t-17.5 17q-4 4 3 8v-1
q4 5 11 4q3 -3 3 -5q0 -10 5 -13q27 -12 53 0t48.5 36t40 53t26.5 52q0 2 3.5 9.5t15.5 38.5z" />
    <glyph glyph-name="G" unicode="G" horiz-adv-x="436" 
d="M435 407q35 -6 57 -22.5t24 -39.5q1 -18 -9 -33t-29.5 -26t-47 -17.5t-60.5 -6.5q-20 0 -36 1t-31 2.5t-30.5 4t-33.5 5.5q-25 4 -38.5 6.5t-19.5 4t-7 1.5h-2q-3 0 -9 -9q-21 -28 -31 -60t-7 -63q0 -6 2 -15.5t5 -18.5t6.5 -15t7.5 -5q13 3 25.5 12.5t22.5 22.5t16 27
t6 26q2 0 3 -8q2 -27 -18.5 -53t-53.5 -37q19 -28 44 -42t61 -14q18 0 39 6t41 17.5t36.5 28t25.5 37.5q-7 -6 -30 -8t-43 -2q-14 0 -17 1t-4 4q0 4 7 11q4 4 7 6.5t7.5 4t13 1.5h24.5h24q14 0 16.5 2t4.5 10q8 26 19 37.5t18 11.5q4 0 8.5 -4t2.5 -10q0 -2 -6 -1t-8 -1
q-1 0 -1.5 -2t-2.5 -7.5t-5 -17t-9 -30.5q-17 -56 -39 -104t-46 -82.5t-49.5 -53t-49.5 -16.5q-11 1 -20 8.5t-11 19.5q-2 19 8.5 36.5t30 32t46 24t58.5 13.5q5 8 14 29.5t17 44.5l2 6l-10 -11q-32 -36 -68 -54t-78 -18q-45 0 -77 21t-48 59q-19 2 -36.5 12.5t-31 25.5
t-22.5 32.5t-10 33.5q-3 29 8 50.5t30 36t44.5 22t52.5 7.5q8 0 16 -1t16 -1l10 9q49 44 110 70.5t121 26.5q8 0 15 -0.5t12 -1.5zM491 305q5 6 6.5 10.5t0.5 13.5q-1 24 -29 38.5t-73 14.5q-23 0 -52.5 -6.5t-59.5 -17.5t-56.5 -26t-44.5 -31q5 0 9.5 -0.5t12.5 -2.5
q44 -7 74.5 -14t53.5 -9l21 -2h31q42 0 67.5 9t38.5 23zM148 281q2 4 4 5t1 3q-3 0 -12 0.5t-18 0.5q-53 0 -84 -24t-28 -72q2 -20 11 -36.5t21.5 -29t26.5 -20t27 -10.5h1l-2 4q-13 49 3.5 95t48.5 84zM262 -104q8 4 20 14.5t23.5 25t22 30t15.5 29.5h-3q-16 0 -27.5 -3
t-17.5 -5q-26 -9 -40.5 -27t-18 -34.5t3.5 -26t22 -3.5z" />
    <glyph glyph-name="H" unicode="H" horiz-adv-x="346" 
d="M217 236q-4 -11 -7 -19.5t-3 -10.5q0 1 4.5 1h17.5q11 0 19 -0.5t17 -2t19.5 -3t27.5 -4.5v1l2 2q0 2 0.5 2.5t0.5 1.5q15 36 33.5 74.5t37.5 70t37 52t32 20.5q6 0 6 -6q-1 -5 -9 -5q-10 -2 -17.5 -9.5t-19.5 -29.5q-4 -8 -15.5 -31.5t-24 -51.5t-23.5 -54.5t-15 -40.5
q0 -2 -0.5 -2t-0.5 -1q3 -1 7 -1.5t14 -0.5q11 0 16 1.5t7 3t2.5 3t2.5 1.5t2 -2q0 -5 -5 -10t-13 -9t-18 -6.5t-20 -1.5q-5 0 -12 -20.5t-13.5 -48.5t-11.5 -56.5t-7 -44.5q-6 -44 6.5 -68t38.5 -24q19 0 33.5 9t26 21t20.5 25.5l15 22.5q0 1 0.5 0t-0.5 -3
q-4 -16 -17 -34.5t-30.5 -34t-37 -26t-36.5 -10.5q-28 0 -44.5 26t-11.5 77q9 83 51 190q-10 3 -24.5 6t-29.5 5.5t-27.5 4.5t-18.5 3q-18 -42 -32.5 -71t-27 -48.5t-23.5 -32t-21 -21.5q-28 -25 -44 -25q-10 0 -15 5t-6 11.5t1 12.5t7 7q1 1 2 -1t3 -5t6.5 -5t14.5 -2
q15 0 33.5 23t34.5 52.5t27.5 57t12.5 37.5v3q-2 0 -9.5 -2.5t-12.5 -4.5l-13 -9v1q-12 -14 -12 -22q-2 -5 1 -8v1q5 -4 5 -6q0 -1 -5 -1q-7 0 -10 5.5t-2 11.5q2 15 14 23q8 7 23.5 15t23.5 10q22 58 35.5 91t26.5 57h-12t-26.5 1t-33 1.5t-30.5 0.5q-56 0 -79.5 -23
t-25.5 -55q-2 -23 9.5 -39t34.5 -16q19 0 37.5 15.5t26.5 37.5v-1q1 7 5 7q2 0 2 -4q-1 -11 -10.5 -23t-23 -22t-28.5 -16.5t-28 -6.5q-27 0 -41 18.5t-12 40.5q2 19 15.5 39.5t34.5 37.5t47 27.5t54 10.5q9 0 22.5 -2t27.5 -5t25.5 -5t15.5 -2q2 0 7.5 4t12.5 9.5t14 9.5
t13 4q5 0 5 -5q0 -4 -9.5 -14.5t-26.5 -17.5q-9 -5 -17 -29.5t-16 -49.5zM265 371l-4 -6l9 3q4 2 9.5 6t5.5 7q-5 0 -10.5 -3t-9.5 -7z" />
    <glyph glyph-name="I" unicode="I" horiz-adv-x="157" 
d="M77 289q32 53 82 78.5t98 25.5q8 0 10.5 -1.5t2.5 -6.5q0 -4 -10.5 -7t-13.5 -5q-14 -12 -30 -44.5t-39 -98.5l-6 -18l4 -1q4 -3 7.5 -6t3.5 -5q0 -1 -3 -1q-2 1 -4 3q-4 4 -10 4q-1 -2 -2 -6q-1 -3 -2.5 -6.5t-3.5 -7.5l-12 -37l3 2q4 0 11 4t13.5 9t13 11t9.5 11
q3 3 3.5 4t-0.5 2q3 -3 -1.5 -10.5t-13 -15.5t-18.5 -15t-17 -10q-2 -2 -3.5 -2.5t-2.5 -2.5q-11 -41 -20 -67t-18 -42.5t-18.5 -26t-21.5 -17.5q-14 -10 -20 -12t-8 -2q-11 0 -20 16.5t-9 45.5q0 26 9 57.5t27 58.5l6 10q-3 7 -6 15.5t-3 21.5q0 23 8 47.5t25 47.5z
M234 382q-33 -2 -63 -16.5t-52 -37t-35 -50.5t-13 -56q0 -8 0.5 -14.5t2.5 -10.5l3 -14l8 6q12 11 24.5 18t23.5 9q11 0 12.5 2.5t6.5 14.5q15 42 38 81t46 62l6 6h-8zM51 -6q9 0 20 16.5t21 39t17.5 45t9.5 34.5q0 -2 -13 -2q-15 0 -25 4.5t-20 15.5l-4 4l-3 -4
q-13 -22 -21 -48t-8 -48q0 -19 7.5 -37.5t18.5 -19.5zM143 211q-6 0 -14 -2.5t-17 -7t-17 -10t-13 -10.5l-2 -2q3 -5 11 -13.5t16 -13.5q2 -1 5 -2l6 -2l6 -1v1l1 2q0 1 2.5 9.5t5.5 19t6 20t5 12.5h-1zM202 192v1v-1z" />
    <glyph glyph-name="J" unicode="J" horiz-adv-x="376" 
d="M401 325q7 9 13 18.5t12 15.5q-9 -3 -17.5 -4t-22.5 -1q-17 0 -37.5 2.5t-41 5.5t-37 5.5t-24.5 2.5q-29 0 -49 -15.5t-22 -44.5q0 -18 11 -32.5t25 -14.5q6 0 9 1l3 2h-1l5 3q4 3 5 3t1 -1q0 -5 -9.5 -10.5t-20.5 -5.5q-17 0 -29.5 17.5t-12.5 37.5q1 14 11.5 29.5
t27 28.5t37.5 21.5t44 8.5q17 0 35.5 -3.5t41.5 -9.5h-1q20 -5 36.5 -8t27.5 -3t25 9.5t23 9.5q6 0 6 -7q-2 -7 -13 -7q-9 0 -17.5 -7t-18.5 -28.5t-23 -61t-32 -104.5q-11 -36 -19.5 -62t-15.5 -45.5t-14 -34.5t-16 -28q-21 -32 -46.5 -57t-51.5 -42.5t-51.5 -27
t-46.5 -9.5q-45 0 -73.5 33t-24.5 88q2 26 12.5 48.5t25.5 39t31 25.5t30 9q8 0 8 -2q-43 -7 -64 -38t-23 -71q-2 -21 5 -40t20 -33.5t32 -23t42 -8.5q28 0 56 12t51 34q14 14 25 29t22 37.5t22.5 56t26.5 84.5q10 37 19.5 64t17.5 46.5t15.5 34t14.5 28.5zM427 359h1l1 2z
" />
    <glyph glyph-name="K" unicode="K" horiz-adv-x="374" 
d="M171 29q10 13 19 28.5t18 38t20 54t25 76.5q5 18 9.5 32t10.5 27t13.5 25.5t17.5 26.5l2 4q-11 0 -20.5 0.5t-20 2.5t-23.5 5t-31 8q-20 5 -31.5 6.5t-28.5 1.5q-26 0 -48.5 -8.5t-39 -23t-27 -33.5t-11.5 -40q-3 -34 18 -50t50 -16q10 1 21.5 5t22 10.5t17.5 14.5t7 17
q3 9 5 9v-2q0 -3 1 -5q-1 -10 -9 -20.5t-20 -19t-27.5 -14t-31.5 -5.5q-37 0 -56 21.5t-16 53.5q2 24 18.5 48t41.5 43t54.5 31t56.5 12q11 0 22.5 -2t25.5 -4q9 -2 24 -6.5t30 -9.5t27 -8.5t15 -3.5q11 11 25 18.5t22 7.5q5 0 8.5 -2.5t3.5 -5.5q-1 -8 -9 -12.5t-18 -9
t-20.5 -10.5t-16.5 -16q-6 -11 -10 -19.5t-7.5 -19.5t-8.5 -27.5t-13 -42.5l-6 -23q-11 -34 -15.5 -46.5t-5.5 -17.5q7 -2 13.5 -7.5t11.5 -11t8 -10l3 -4.5q21 3 35.5 14.5t24.5 28.5t17.5 37t15.5 39q14 38 25 59t22 35t24.5 25t21.5 11q7 0 11.5 -3.5t3.5 -8.5
q0 -6 -3 -6q-2 0 -5 2q-2 1 -5.5 1h-5.5q-13 0 -24 -20.5t-28 -68.5q-8 -21 -19 -46.5t-27 -49t-37 -41.5t-47 -23q0 -1 1 -2t1 -2.5t1 -3.5l33 -83q13 -33 26.5 -53t27 -31.5t27.5 -15.5t28 -5q14 0 22.5 5t19.5 16q5 8 8.5 10.5t4.5 2.5t1 -2q-1 -10 -11 -20t-23.5 -18
t-28.5 -13t-26 -5q-27 0 -48 15.5t-36.5 39.5t-26 51.5t-17.5 51.5l-20 62l-18 11l-2 -5q-17 -33 -43 -67.5t-59 -56.5q-17 -11 -31 -16.5t-30 -4.5q-11 1 -18 7t-7 14q0 10 5 10t10 -5t23 -4q30 2 51.5 18.5t38.5 42.5zM339 359h5l8 2q4 2 9.5 4.5t5.5 3.5q0 2 -7 2
q-13 0 -25 -13z" />
    <glyph glyph-name="L" unicode="L" horiz-adv-x="192" 
d="M6 -11q11 11 23 17t31 6q8 0 14 -1t11 -1l7 10q13 15 24.5 33t22.5 42t22 54.5t24 71.5q10 30 22 61t26.5 56t30.5 40.5t35 15.5q16 0 27.5 -14.5t11.5 -34.5q0 -13 -5.5 -28t-14 -28t-20 -22t-23.5 -9q-22 0 -22 18q0 16 4 20q0 -1 0.5 -2.5t0.5 -2.5q0 -2 -0.5 -3
t-0.5 -2q0 -10 3 -15t13 -5q7 0 16.5 5.5t17 15t13 22t5.5 26.5q0 20 -7.5 33t-22.5 13q-13 0 -20.5 -8t-19.5 -33q-4 -8 -7 -15.5t-7 -19t-9.5 -29t-14.5 -45.5q-14 -41 -26 -72.5t-24.5 -57.5t-26.5 -46.5t-31 -38.5l-7 -9l7 -4q13 -6 31.5 -14t41.5 -19q28 -13 50 -22
t39 -15t30.5 -10t24.5 -7q26 -8 46 -12.5t38 -4.5q11 0 17 1.5t14 5.5h-1q8 5 13.5 15t7.5 12q2 -4 2 -5q0 -9 -7.5 -18t-19.5 -16t-27.5 -11.5t-31.5 -4.5q-2 0 -16.5 1t-39 6.5t-58 16t-73.5 29.5q-45 21 -74 35.5t-34 16.5q-2 0 -4 -2h1l-8 -4q-11 -6 -27.5 -12t-25.5 -6
q-11 0 -18 4t-7 10q0 3 13 16zM59 -11l-3 1q-4 0 -10.5 1.5t-12.5 1.5q-17 0 -17 -6q0 -8 8 -8q15 0 33 8z" />
    <glyph glyph-name="M" unicode="M" horiz-adv-x="446" 
d="M197 250q15 29 30 44.5t29 15.5q5 0 8.5 -4t3.5 -6q0 -6 -6 -6q-2 0 -5 0.5t-7 0.5q-10 0 -14 -9.5t-5 -25.5q0 -7 1 -13t3.5 -13.5t7.5 -18t13 -25.5q11 -22 17 -42t6 -32l14 25q29 52 62 98t65 80t61.5 53.5t51.5 19.5q12 0 12 -9q-1 -5 -11 -5h-7q-13 -12 -27 -38
t-28.5 -59.5t-27.5 -71t-23 -73.5t-16.5 -66.5t-6.5 -50.5q0 -53 13.5 -83.5t43.5 -30.5q18 0 31.5 8.5t23.5 20t17.5 24t13.5 21.5q3 0 2 -3q-7 -25 -21.5 -44t-32 -31.5t-34.5 -19t-28 -6.5q-20 0 -33.5 10t-21.5 25.5t-11 35t-3 38.5q0 49 18.5 105t47.5 128
q9 23 21.5 49t25 48.5t22 37t12.5 14.5l-1 1q-17 -4 -40.5 -23.5t-50.5 -52t-56.5 -76t-57.5 -96.5q-6 -12 -10 -18t-5.5 -10t-2.5 -6t-1 -6q-4 -21 -13 -41.5t-20 -20.5q-1 0 -2 1q-2 0 -2 5q1 7 5 20.5t13 33.5l8 14q0 17 -7.5 36.5t-22.5 52.5q-5 12 -8.5 19t-6 13.5
t-4 14t-3.5 20.5l-2 -7q-5 -14 -9.5 -27.5l-8.5 -25.5q-9 -38 -24.5 -77t-36.5 -70.5t-47.5 -51.5t-59.5 -20q-11 0 -18 5.5t-8 13.5q0 9 4 9t11.5 -6t22.5 -6q24 0 42 15.5t31.5 38.5t22.5 49t15 48q6 20 14 46t31 69zM258 35q5 10 5 17q-2 -1 -3 -7t-2 -10z" />
    <glyph glyph-name="N" unicode="N" horiz-adv-x="383" 
d="M18 -43q5 -4 14.5 -5.5t21.5 2.5t25.5 15t27.5 32q6 10 17 31t23 47.5t25.5 56t25.5 56t21.5 46.5t14.5 29q9 15 20 29.5t22 26t20.5 18.5t17.5 7q1 0 5 -1.5t4 -3.5q0 -1 -1 -2t-1.5 -2t-2.5 -2h1q-3 -3 -9 -3q-10 0 -16 -13t-6 -34q0 -20 6.5 -44.5t23.5 -59.5l16 -31
q2 -7 4 -11.5t3 -6.5q0 2 4 8q19 39 44 83.5t51 82t52 62.5t47 25q12 0 17.5 -8t5.5 -16q0 -10 -3 -15t-6 -5q-5 3 -9 6q-4 2 -8.5 4.5t-8.5 2.5q-8 0 -15.5 -3t-14.5 -7q-14 -9 -34.5 -37t-41.5 -63.5t-39.5 -73.5t-27.5 -66q-3 -6 -3 -9q0 -5 1.5 -12.5t1.5 -13.5
q0 -11 -4 -26t-11 -28.5t-16 -23t-19 -9.5q-3 0 -3 6q0 5 1.5 12t3.5 19q5 32 9 39.5t4 12.5q0 3 -3.5 10.5t-14.5 31.5q-10 22 -17 39.5t-11.5 31.5t-6.5 27t-2 28q0 11 4 28.5t9 28.5l-13 -23q-4 -9 -7 -15.5t-7 -15.5t-9 -22t-13 -34q-20 -52 -40 -93.5t-32 -62.5
t-26 -40.5t-29.5 -34.5t-33.5 -24.5t-38 -9.5q-8 0 -15 5t-9 14q0 9 3.5 17.5t6.5 8.5v-1q0 -1 1 -2q0 -1 -0.5 -2t-0.5 -3v-7t3 -4zM320 18q5 5 5 10.5v7.5q-2 -1 -3 -7.5t-2 -10.5zM343 133h-1h-1h2z" />
    <glyph glyph-name="O" unicode="O" horiz-adv-x="420" 
d="M336 393q57 -5 90 -45t31 -104q-2 -48 -29.5 -105t-70 -109t-94.5 -90.5t-102 -50.5q-29 -6 -49.5 -1.5t-33.5 16.5t-18.5 30.5t-3.5 40.5q0 12 3.5 24.5t1.5 15.5q0 3 -1 3t-3 2q-29 5 -43 29.5t-12 57.5q2 35 25 79t60 85t85.5 73.5t101.5 44.5q16 3 32 4.5t30 -0.5z
M338 23q38 45 58.5 97.5t22.5 98.5q2 40 -11.5 69t-37.5 46t-57 21.5t-70 -3.5q-41 -9 -78.5 -31.5t-66.5 -53.5t-47 -67.5t-19 -73.5q-1 -15 2.5 -30.5t9 -28.5t12.5 -20.5t14 -5.5q-1 1 2 3.5t5 6.5q13 33 37 66.5t53 62t60 48.5t59 26q18 5 29 5v-1q26 -1 43 -15t18 -37
q0 -10 -3.5 -24t-11 -29.5t-20.5 -30.5t-31 -27q-1 0 -0.5 0.5t-0.5 0.5l6 6q25 21 38 49t10.5 51.5t-22 36t-59.5 3.5q-38 -8 -69.5 -30.5t-57.5 -53.5q-12 -14 -23 -30.5t-20 -33.5t-15.5 -32.5t-8.5 -25.5q6 -2 19 1q14 3 28.5 13t26 24t19 30t8.5 33q0 8 -3.5 11t-2.5 5
q0 2 2 2q1 0 5.5 -3t3.5 -14q-1 -19 -10 -38t-23.5 -35t-32.5 -28t-36 -16l-7 -1q0 -4 -1 -8l-2 -8q-2 -46 27.5 -68t77.5 -11q42 9 82.5 36t68.5 62z" />
    <glyph glyph-name="P" unicode="P" horiz-adv-x="437" 
d="M50 -110q35 5 58 29t37 56l12 29h-2q6 12 6 17q0 1 -6.5 4t-15.5 6t-17.5 5.5t-12.5 2.5q-2 0 -3 -0.5t-2 -0.5q-3 0 -1 2q0 2 4.5 5.5t26.5 3.5q12 0 17.5 -0.5t10.5 -2.5h-1q2 0 5.5 -0.5t5.5 -0.5q2 3 10 22.5t17.5 43.5t19.5 48.5t15 38.5l3 7q12 31 20.5 54
t15.5 39.5t12.5 28.5t11.5 21q1 3 2.5 5t2.5 4q-9 5 -28.5 6.5t-33.5 1.5q-37 0 -74 -12.5t-68 -34.5t-51 -52t-22 -66q-1 -15 3.5 -31t13.5 -29.5t23.5 -22.5t33.5 -9q15 0 29 6.5t25 17.5t18 25t8 28v11v3q0 1 1 2q0 2 1 2q2 0 4 -5.5t1 -13.5q-1 -15 -9 -30.5t-21 -28
t-29.5 -21t-35.5 -8.5t-35.5 8t-28.5 21.5t-19 32.5t-5 40q3 51 35.5 90t78.5 64t99.5 35t98.5 3l14 -2l8 8q31 28 51 28q8 0 12.5 -3.5t3.5 -7.5q0 -7 -5 -7q-2 0 -7 1t-9 1q-6 0 -13 -2.5t-14 -6t-11.5 -7.5t-4.5 -7q2 0 10.5 -3t19 -8t20.5 -10.5t16 -9.5
q31 -22 46.5 -53.5t13.5 -68.5q-3 -45 -28.5 -86t-61.5 -72t-76 -49t-73 -18q-5 0 -12.5 1l-15 2t-12.5 2t-5 2l-3 -7h1q-11 -23 -25 -46.5t-31 -43t-36 -33.5t-39 -17q-12 -2 -20.5 3t-10.5 13q0 11 3 11q4 1 8.5 -3t20.5 -1zM237 32q36 0 69.5 13.5t59.5 37.5t43.5 56.5
t21.5 70.5q3 24 -4 47t-21.5 42t-36.5 33t-50 20q-1 -1 -7.5 -17t-16 -41t-21 -56t-24 -62t-24 -60t-20.5 -50l-3 -6q-4 -8 -6.5 -14.5t-2.5 -7.5t11.5 -3.5t31.5 -2.5z" />
    <glyph glyph-name="Q" unicode="Q" horiz-adv-x="423" 
d="M483 -13q2 5 2.5 5.5t1.5 0.5q4 0 5 -1q-2 -16 -10 -31.5t-20 -28t-26 -20t-26 -7.5q-15 0 -33 10t-29 25l-31 47q-33 -29 -60 -54t-57 -40h1q-14 -8 -26.5 -12.5t-23.5 -8.5q-44 -13 -71.5 1.5t-30.5 52.5q-1 9 0 19t2.5 19.5t3 17.5t0.5 13l-4 1q-23 4 -35.5 20.5
t-15.5 40.5q-2 22 6.5 52t26.5 62.5t43.5 65.5t57.5 62t69 51.5t77 34.5q35 10 65 8t53.5 -15.5t38 -37t18.5 -55.5q3 -26 -2 -56t-17.5 -62.5t-32 -65t-44.5 -63.5l-2 -3q-6 -7 -6 -12q0 -2 2 -4l1 -2l1 1l16 -25q25 -35 40 -45t29 -8q6 2 19 10.5t24 36.5zM341 32
q21 27 36.5 56.5t25.5 59t14 56.5t1 50q-3 33 -18.5 55t-39 33t-53 11.5t-60.5 -8.5q-44 -12 -84.5 -40.5t-71 -65t-47.5 -79t-12 -83.5q2 -15 6.5 -27t12.5 -20h-1q5 -3 9.5 -6.5t6.5 -2.5l6 9q17 36 41.5 71.5t53.5 65t60 51t60 30.5q18 6 28 6q29 1 42 -8.5t15 -26.5
q1 -17 -7 -39t-22 -45.5t-31.5 -46t-34.5 -39.5h3q29 6 53 -12q3 -2 5 -3.5t3 -1.5zM312 -5q-20 15 -32 25.5t-24 6.5q-5 -2 -17.5 -11t-19.5 -10q-2 -2 -2 1q0 10 37 30q20 15 40 37.5t36 47.5t25 48.5t7 41.5q-3 20 -21 28t-60 -4q-37 -11 -68.5 -35.5t-60.5 -56.5
q-11 -14 -22.5 -32.5t-21.5 -36.5t-17 -34t-8 -24q1 -5 19 1q12 3 27.5 14.5t28.5 27t21.5 33.5t6.5 34q0 5 -2 8t-3 5q0 1 1 1q2 0 5 -1.5t4 -9.5q1 -5 0 -11t-2 -13q-5 -17 -16 -34t-24.5 -31.5t-29.5 -25.5t-31 -15l-9 -2q0 -9 -1 -19t-1 -19q5 -37 31.5 -50.5t68.5 -0.5
q32 9 64.5 30.5t61.5 50.5z" />
    <glyph glyph-name="R" unicode="R" horiz-adv-x="407" 
d="M214 74q-10 -19 -22 -42t-28 -43t-35.5 -34t-43.5 -15q-11 0 -18.5 4.5t-9.5 11.5q0 5 0.5 8.5t2.5 2.5q13 -6 28 -4t28 8q34 17 51 48t29 66q-5 0 -7 3q0 1 7 6q3 2 7 5l28 76q14 41 24 70t15 40q6 16 13 29.5t15 22.5q3 3 -29 3q-54 0 -100 -12.5t-79.5 -35.5
t-52 -55.5t-18.5 -72.5q0 -21 7 -39t18 -31t25 -20.5t29 -7.5q13 0 26.5 7t24 18.5t17 26t6.5 29.5q0 6 -2 11.5t-2 10.5q0 3 2 3q8 0 8 -25q0 -19 -8 -35.5t-21 -29t-29.5 -20t-32.5 -7.5q-18 0 -33.5 8.5t-27 23.5t-18 34.5t-6.5 41.5q0 39 24.5 77t64 67t89 47t98.5 18
q12 0 23 -0.5t16 -0.5l7 -3l4 4q11 10 20 16.5t17 6.5q6 0 12.5 -4t6.5 -9q0 -6 -5 -6q-6 0 -9 2h1q-4 1 -12 1t-13 -3.5t-12 -8.5q42 -11 74.5 -37t36.5 -64q4 -31 -7 -58.5t-34.5 -50.5t-57 -40.5t-74.5 -28.5q15 -11 30 -28.5t37 -50.5q20 -32 35.5 -51.5t29 -31.5
t26 -17t27.5 -6q14 0 22 5t18 17q4 8 7.5 10t4.5 2q2 0 2 -1q0 -10 -9 -20t-22 -18t-27.5 -13t-25.5 -5q-17 0 -31 5t-28.5 18t-30 33.5t-34.5 52.5q-32 50 -50.5 70.5t-32.5 20.5q-2 0 -6 -6zM231 97q41 1 73.5 15t55 34.5t34.5 45.5t12 49t-8.5 42t-22 29t-29 16.5
t-30.5 5.5q-3 0 -12.5 -25t-22 -61t-26.5 -75.5t-27 -68.5l-1 -3q0 -1 1 -1q2 0 0 -1.5t3 -1.5z" />
    <glyph glyph-name="S" unicode="S" horiz-adv-x="380" 
d="M334 117q16 -22 20 -43t0 -40q-5 -31 -30.5 -58.5t-60 -48t-73.5 -32.5t-71 -12q-36 0 -63.5 16.5t-45 42.5t-24.5 57.5t-1 62.5q5 27 21 52.5t37.5 45t46 31.5t45.5 12q24 0 43 -11.5t31 -29.5t16.5 -40t0.5 -43q-9 -44 -29 -63t-42 -19q-8 0 -8 6q1 3 7.5 3t15.5 4
t18.5 15.5t14.5 37.5q4 25 -2.5 46t-20 36t-32 23.5t-36.5 8.5q-22 0 -38.5 -8t-28.5 -21.5t-19.5 -30.5t-10.5 -35q-6 -30 1.5 -60.5t26 -54.5t48 -39t67.5 -15q25 0 51.5 7t48.5 20t38 32t21 43q2 13 1 25t-7 25.5t-17 30t-28 37.5q-11 14 -22.5 28t-20 29.5t-12.5 32.5
t0 38q3 20 17 42q10 16 29 33t39 31t39.5 23t31.5 9q22 0 36 -14.5t10 -33.5q-2 -12 -11 -26.5t-22 -27.5t-28 -22t-29 -9q-3 0 -3 3q1 4 8 4q11 2 22.5 10t21 18.5t16 22.5t6.5 21q0 13 -11.5 19.5t-26.5 6.5t-32 -6.5t-32.5 -19t-27.5 -31t-17 -41.5q-2 -15 -0.5 -26.5
t8.5 -23.5t18.5 -27.5t29.5 -37.5z" />
    <glyph glyph-name="T" unicode="T" horiz-adv-x="281" 
d="M632 385q-10 -23 -43.5 -34t-76 -13t-86.5 1.5t-75 9.5q-3 1 -10.5 -12.5t-17.5 -37t-22 -53.5t-23 -63q-11 -30 -19.5 -51.5t-16 -39t-15 -31.5t-16.5 -29q-23 -38 -49 -60.5t-43 -22.5q-7 0 -12 4t-4 12q1 4 3 8.5t6 2.5q31 -22 60.5 22.5t71.5 164.5q12 36 22 62.5
t20 47t20 37t23 33.5l5 8h1q0 1 -10 2.5t-27 3.5l-13 2q-33 6 -51.5 7.5t-40.5 1.5q-36 0 -67.5 -9t-55.5 -25.5t-38.5 -40.5t-16.5 -54q-2 -16 2 -31.5t13 -28t22 -20t30 -7.5t35.5 7.5t34 20t26 28t11.5 31.5q0 5 0.5 10t2.5 5q1 0 3 -4.5t1 -10.5q-2 -19 -14 -36.5
t-29.5 -31t-38.5 -21t-41 -5.5q-6 1 -10 1t-9 1q-30 8 -45 32.5t-12 59.5q3 31 23.5 59t52 49t71.5 33.5t81 12.5q24 0 46.5 -2.5t58.5 -7.5l27 -3l7 5q11 8 18 10.5t14 3.5q17 0 17 -9q0 -5 -2 -6.5t-4.5 -0.5t-6 2t-7.5 1q-5 -1 -9.5 -2.5t-12.5 -6.5q6 -2 22.5 -3.5
t37.5 -3.5t43.5 -3t41.5 -1q41 0 62.5 3t31 7.5t12 10t4.5 8.5q2 2 5 -0.5t3 -4.5q0 -3 -2 -5zM195 253q-1 0 -1 1q0 -1 1 -1z" />
    <glyph glyph-name="U" unicode="U" horiz-adv-x="390" 
d="M438 -33q2 0 2 -1t-3 -7q-4 -6 -17.5 -20t-30.5 -28.5t-34 -25.5t-29 -11q-20 0 -27 15t-7 36q0 17 5.5 45.5t15 62.5t23 71t29.5 72q-1 -1 -1 -1.5t-2 -2.5q-16 -20 -41 -49t-54.5 -56t-59 -46.5t-54.5 -19.5q-14 0 -23 6.5t-9 21.5q0 17 9 44.5t31 65.5q19 34 31 55
t19 35t11.5 23.5t8.5 20.5q0 8 2.5 16.5t2.5 16.5q0 23 -15 36t-41 13q-28 0 -57.5 -15.5t-53.5 -40t-39 -56t-15 -63.5q2 -24 15.5 -38.5t34.5 -14.5q13 0 24.5 6.5t21 16.5t16 22t8.5 22q0 2 1.5 0.5t1.5 -3.5q0 -14 -8.5 -28t-21 -24.5t-27 -17t-27.5 -5.5
q-21 2 -37.5 16.5t-16.5 42.5q0 37 21 73.5t53 65.5t68.5 47.5t68.5 18.5q26 0 44 -14t18 -38q0 -14 -3 -27t-10.5 -30t-21 -40t-33.5 -56q-25 -45 -37 -76.5t-12 -47.5q0 -14 5 -21t19 -7q15 0 40.5 17t55 46t60.5 69t57 86q19 33 33 54t23.5 33t16 16.5t11.5 4.5q2 0 2 -3
q0 -4 -5 -7v1q-5 -5 -17 -23t-22 -41q-24 -53 -44 -102t-33.5 -91t-21 -76.5t-7.5 -58.5q0 -48 25 -48q8 0 22 10.5t27.5 23t24 23z" />
    <glyph glyph-name="V" unicode="V" horiz-adv-x="391" 
d="M548 387q24 -12 24 -40q0 -7 -3.5 -15t-9 -15t-12.5 -11.5t-13 -4.5h-5q-1 0 -2 1q21 5 27 25.5t-11 37.5q-15 15 -28.5 11.5t-25.5 -16t-22 -30.5t-18 -33q-8 -16 -16.5 -36t-17.5 -49q-14 -41 -26 -68.5t-27 -52.5q-24 -40 -53 -69.5t-61.5 -47.5t-66.5 -23.5t-67 2.5
l-14 3l-8 -5q-8 -5 -15 -8.5t-12 -3.5q-6 0 -9.5 4t-3.5 7q0 8 14.5 18.5t34.5 12.5l10 1l6 8q18 23 38 65t39 103q14 43 27.5 72.5t25.5 49.5l3 5q-10 -3 -16.5 -3.5t-16.5 -0.5q-22 0 -44 9q-17 7 -26.5 11t-16.5 6.5t-14 3t-17 0.5q-15 0 -28 -6t-23.5 -16.5t-16.5 -24
t-6 -29.5q0 -20 14 -36t34 -16q14 0 28 6.5t25 18.5q9 10 14.5 24.5t6.5 14.5q2 0 2 -9q0 -10 -8.5 -22t-21.5 -22t-28 -16.5t-29 -6.5q-9 0 -19.5 3t-19.5 10t-14.5 18t-5.5 27t10.5 35.5t28 36t39 27.5t43.5 12q13 0 30.5 -5.5t35.5 -12t35 -12t29 -5.5h14l9 7
q8 6 13 10.5t7 3.5q1 0 1 -3q0 -9 -4 -11t-12 -10t-20 -31t-28 -74q-15 -48 -26.5 -80.5t-23 -55.5t-23.5 -40t-28 -33q-5 -7 -8 -7l1 -1l6.5 -1t14.5 -2l16 -2t12 -1q57 0 98.5 32t77.5 102q9 19 20.5 47.5t22 57.5t19.5 53.5t14 35.5q19 43 45.5 66.5t52.5 23.5
q10 0 23 -5zM279 306q0 -2 5.5 3.5t6.5 7.5q-5 -4 -7.5 -5.5t-3.5 -3.5q-2 -2 -1 -2zM73 -38q0 -1 1 -1h3q3 0 5.5 0.5t4.5 0.5h-14z" />
    <glyph glyph-name="W" unicode="W" horiz-adv-x="533" 
d="M683 394q3 0 5.5 -0.5t4.5 -0.5q11 -3 18.5 -10t7.5 -17t-8.5 -24.5t-22.5 -21.5q-1 0 -1 1q0 2 10 11t10 17q0 12 -10 19t-24 7q-21 0 -40.5 -17.5t-37 -46t-33 -64t-29 -71t-24.5 -68t-20 -54.5q-30 -68 -88 -102.5t-130 -34.5h-22q-1 0 -3 -2l-1 -1q-15 -12 -24 -12
q-5 0 -5 7q0 5 5.5 10t12.5 9.5t14.5 9t10.5 9.5q3 6 12.5 28.5t20 48t19 49.5t10.5 33q-2 -4 -6 -10q-16 -22 -37.5 -43.5t-44 -38t-45 -26.5t-39.5 -10q-5 0 -11.5 0.5t-13.5 1.5q-1 0 -5.5 -2.5t-10 -5.5t-11 -5.5t-7.5 -2.5q-5 0 -9 3.5t-4 7.5q0 8 9.5 13.5t25.5 5.5h8
l4 6q11 16 25.5 48.5t32.5 86.5q11 34 18.5 54.5t14.5 34.5t14.5 25t17.5 25q-6 -1 -14 -1.5t-19 -0.5q-7 0 -13.5 0.5t-11.5 0.5q-6 1 -20 5.5t-29 9t-28.5 8.5t-19.5 4q-26 0 -42.5 -16t-16.5 -45q0 -6 1 -8v1q2 -18 18.5 -29.5t38.5 -11.5q23 2 32 14t14 26l2 2q3 0 3 -5
q0 -9 -6 -17.5t-16 -15t-21.5 -11t-21.5 -4.5q-30 0 -48 18.5t-18 41.5q0 18 11.5 34t28 28t35.5 19.5t34 7.5q7 0 14.5 -1t17 -4t23 -8.5t33.5 -13.5q11 -2 23 -5t24 -3h7l11 7q18 15 28 15q6 0 6 -4q0 -7 -8.5 -14.5t-22.5 -12.5l-10 -5q1 1 -1.5 -2.5t-3.5 -5.5
q-7 -11 -11.5 -20t-9 -20.5t-9.5 -27.5t-12 -41q-11 -36 -20 -62t-18 -45t-19 -33t-22 -26h1q-2 -4 -4 -4q3 0 5.5 -0.5t4.5 -0.5q14 1 32.5 6.5t37.5 16.5q14 9 32 26t35 36.5t31 38.5t20 34q9 22 15.5 35t11.5 20.5t9.5 10.5t10.5 5q5 0 9.5 -2.5t4.5 -6.5q0 -2 -4.5 -3.5
t-6.5 -1.5q-8 0 -12 -10t-9 -32q-7 -26 -11.5 -42.5t-8 -28.5t-7 -21.5t-8.5 -21.5q-15 -39 -28 -65.5t-26 -41.5q34 0 60.5 2.5t46.5 10t35.5 21t28.5 35.5q4 8 8.5 17.5t9.5 23t11.5 34t15.5 50.5q8 25 18 49.5t20.5 45.5t20.5 38.5t17 29.5q11 18 26 35t31 29.5
t31.5 20.5t27.5 8zM287 301q-2 0 -3.5 -1t-3.5 -2q-3 -2 -5 -3q2 0 9.5 3t7.5 4t-1 1q-2 0 -4 -2zM102 -17l2 1z" />
    <glyph glyph-name="X" unicode="X" horiz-adv-x="326" 
d="M466 -52l5 5v-3q0 -2 -1 -4l-2 -4q-9 -14 -23.5 -26t-31 -21.5t-33.5 -15t-32 -5.5q-33 0 -53 34.5t-31 97.5q-2 13 -3 32t-2.5 36.5t-2 30t-0.5 14.5l-36 -29q-11 -10 -27.5 -23.5t-31.5 -25.5l-14 -10l-37 -31l9 -6q15 -11 29 -14t25 -4h7h4t4 -1q-8 -10 -26.5 -18.5
t-30.5 -8.5q-16 0 -54 22l-5 2l-9 -5q-12 -6 -21.5 -10.5t-16.5 -4.5q-5 0 -9.5 5t-2.5 10q1 4 7 11t15.5 14t21 12t22.5 5h3q5 -1 8 -1.5t6 -0.5l7 -3l10 8q6 4 26.5 20.5t44 35.5t43.5 35.5t23 21.5q2 2 2.5 4t1.5 4q2 4 0 13q-5 109 -30.5 160t-84.5 51q-40 0 -68.5 -21
t-38.5 -72q-1 -8 -2 -14t0 -11q2 -30 15 -44.5t36 -14.5q26 0 44.5 17t27.5 44q3 9 7 15q4 0 1 -9q-2 -15 -11.5 -29.5t-23 -26t-30.5 -18.5t-33 -7q-19 0 -32 8.5t-20.5 21.5t-10 28t0.5 29q5 25 22 48.5t40.5 42.5t51.5 30.5t55 11.5q46 0 73 -31.5t38 -81.5q1 -9 3 -26.5
t3.5 -35.5t2.5 -32.5t0 -17.5q1 0 19.5 16t42.5 37t46.5 41.5t31.5 29.5l7 5l-16 3q-8 2 -13 2.5t-12 0.5h-11l-6 -8q-4 -5 -7 -5q-7 0 -4 5q1 7 8.5 13.5t17.5 11.5t19 8t14 3q7 0 13 -1t12 -3q9 -3 17 -3l10 6q8 5 15 7t12 4q4 0 7.5 -2t2.5 -5q-2 -5 -15 -15t-24 -15
q-9 -3 -14 -4q-13 -2 -25 -12l-112 -101l-3 -3l-4 -2l-29 -26q0 -7 0.5 -16t1.5 -17q3 -61 9 -103t16.5 -67.5t27 -37t40.5 -11.5q25 0 46.5 16t34.5 34v1zM59 -19l-13 -3q0 -4 5.5 -1.5t7.5 4.5z" />
    <glyph glyph-name="Y" unicode="Y" horiz-adv-x="391" 
d="M329 80q12 45 24 84q-25 -33 -51 -62.5t-51.5 -52t-50 -35.5t-45.5 -13q-14 0 -23.5 6.5t-9.5 21.5q0 17 9 44.5t31 65.5q19 34 31 55t19.5 35t11.5 23.5t7 20.5q2 8 4 16.5t2 16.5q0 49 -56 49q-28 0 -57.5 -15.5t-53.5 -40t-39 -56t-15 -63.5q2 -24 16 -38.5t34 -14.5
q13 0 25 6.5t21.5 16.5t16 22t8.5 22q0 2 1.5 0.5t1.5 -3.5q0 -14 -8.5 -28t-21 -24.5t-27 -17t-27.5 -5.5q-22 2 -38.5 16.5t-16.5 42.5q0 37 21.5 73.5t53 65.5t68.5 47.5t68 18.5q26 0 44 -14t18 -38q0 -14 -3 -27t-11 -30t-21 -40t-32 -56q-26 -45 -37.5 -76.5
t-11.5 -47.5q0 -14 4 -21t19 -7q12 0 32.5 13.5t45.5 37t51.5 54t50.5 63.5q8 24 15 43t12 33q9 21 20.5 41t23.5 35.5t24 25t22 9.5q6 0 11 -4.5t5 -9.5q0 -7 -6 -7q-4 0 -6 2q-8 2 -11 2q-8 0 -17.5 -12t-21.5 -40t-27 -73.5t-34 -111.5q-9 -29 -15.5 -50.5t-12.5 -38
t-11.5 -30t-12.5 -27.5q-39 -81 -82.5 -113.5t-78.5 -32.5q-14 0 -26.5 6.5t-22.5 18t-15.5 27t-5.5 33.5q0 9 4.5 20t11 21.5t13.5 17.5t13 7v-1q0 -1 -4 -4.5t-8.5 -9t-8.5 -13.5t-4 -18q0 -15 5.5 -29t14.5 -25.5t22 -18.5t28 -7q31 0 54 20t40 50t30 64.5t23 63.5z" />
    <glyph glyph-name="Z" unicode="Z" horiz-adv-x="301" 
d="M469 -64q2 0 2 -8t-7 -18.5t-19.5 -20t-28.5 -16t-34 -6.5q-25 0 -44 3t-41 14.5t-51.5 33t-75.5 58.5q-17 13 -27.5 22t-17.5 14t-11.5 7.5t-8.5 3.5l-7 -5q-29 -26 -50.5 -39.5t-32.5 -14.5q-2 0 -8.5 1.5t-6.5 13.5q0 13 10 27.5t25 26.5t32 20t30 8q8 0 15 -1t12 -3
q1 0 8.5 6.5t19.5 17.5t27 25.5t31 29.5l26 26q-2 0 -4 0.5t-4 0.5q-6 0 -13 -2.5t-7 -9.5v-3q0 -1 1 -1q0 -3 -4 -3q-5 0 -5 5q0 6 5.5 12.5t14 12t18.5 9.5t18 4h5l17 16q7 8 20 21.5t25 26.5l43 46h-1q2 2 3 2.5t3 2.5l7 7q-8 0 -17.5 -1.5t-18.5 -1.5q-23 0 -46 4.5
t-58 13.5q-37 11 -56 14t-38 3q-16 0 -25 -1.5t-17 -6.5q-13 -8 -23.5 -29.5t-10.5 -40.5q0 -23 14 -42.5t37 -19.5q18 0 34.5 16t21.5 38q0 6 2 6t2 -2q0 -14 -7 -26.5t-17.5 -22.5t-23 -15.5t-23.5 -5.5q-15 0 -26 7t-17.5 17.5t-10 22.5t-3.5 23q0 21 11 41t28 35.5
t39 25t44 9.5q12 0 22 -1.5t21 -3.5t23.5 -5t29.5 -7l8 -2q41 -12 64.5 -16.5t43.5 -4.5h14l5 6v-1q9 8 16.5 14t11.5 8l7 4q1 0 2 -1l1 -3q1 0 1 -4q0 -8 -12 -20t-29 -18v1q-1 -1 -3 -1h1l-7.5 -4.5t-5.5 -4.5t-8 -9t-15 -17q-14 -16 -29.5 -32.5t-28.5 -30t-21.5 -22.5
l-8.5 -9q0 -1 10 -3l22.5 -4.5t23.5 -4t12 -1.5q8 0 13 2t8 2q2 0 2 -2q0 -3 -6.5 -8t-16 -9t-19 -7t-15.5 -3q-10 1 -20 3q-8 2 -17.5 3.5t-16.5 3.5l-6 2l-25 -24q-17 -17 -32 -32.5t-32 -29.5l-25 -23q2 -2 4 -2q4 -2 9.5 -5.5t13.5 -9.5t19.5 -15t28.5 -23
q39 -32 67 -52t49.5 -31t40.5 -15.5t40 -4.5h17t9 2q6 3 11.5 9.5t9.5 13.5t7.5 12.5t6.5 5.5zM46 -6q4 2 12 7.5l16 11t13.5 10.5t5.5 6q-3 0 -7 1q-8 2 -14 2q-23 0 -33.5 -11t-10.5 -24q0 -6 5 -6q4 0 13 3zM421 337q5 2 5.5 2.5l1.5 1.5h-1q2 2 2 3v1q-1 0 -6 -3t-8 -8z
" />
    <glyph glyph-name="bracketleft" unicode="[" horiz-adv-x="200" 
d="M93 -21q0 -2 -6.5 -8t-11.5 -8l-7 -4h-29q-6 0 -11.5 -0.5t-9.5 -0.5h-9q-3 -1 0 5q0 2 6.5 25t14.5 54q4 15 8.5 31t8.5 31t7.5 27t5.5 19q22 82 36.5 132.5t16.5 57.5q3 5 9 10t20 12q5 2 17 4t24 3l10 1l-5 -5q-11 -11 -18.5 -13.5t-22.5 -2.5q-5 0 -8.5 -0.5
t-4.5 -0.5q-2 -2 -3 -7q-2 -5 -8.5 -31.5t-16 -64t-20.5 -80t-21 -80.5q-9 -36 -14.5 -57t-8.5 -32t-3.5 -14t0.5 -3h29h25z" />
    <glyph glyph-name="backslash" unicode="\" horiz-adv-x="172" 
d="M164 -151q-1 -2 -2 -1.5t-7 5.5q-5 2 -7.5 4.5l-3.5 3.5q-2 2 -3.5 5.5t-5.5 19.5t-12 49t-23 94q-5 21 -12 51.5t-15 63.5t-16.5 66.5t-15.5 62.5q-14 59 -24 100.5t-10 43.5v2q2 0 8 -4t13 -10l8 -6l3 -12l32 -134l32 -139q2 -7 10 -42t19 -78q10 -43 16.5 -70.5
t10 -43.5t4.5 -23t1 -8z" />
    <glyph glyph-name="bracketright" unicode="]" horiz-adv-x="257" 
d="M246 362q1 0 1 -0.5t-1.5 -7.5t-6.5 -25t-14 -52q-8 -30 -16 -61.5t-13 -46.5q-23 -81 -36.5 -132t-17.5 -57q-4 -10 -29 -22q-5 -2 -16.5 -4.5t-24.5 -2.5l-9 -1l5 5q11 9 18 12t23 3q11 0 12 1q3 3 3 8q1 5 8 31.5t16.5 63.5t20.5 79t21 80q10 36 15.5 57.5t8 33
t3 14.5l0.5 3q-2 0 -9.5 -0.5t-18.5 -0.5h-23t-5 1q0 2 7 7.5t12 8.5l7 2l30 1q11 1 19.5 1t9.5 1z" />
    <glyph glyph-name="asciicircum" unicode="^" horiz-adv-x="155" 
d="M11 299q-4 4 -2 8q1 3 13 15l27 24v-1q45 46 54 46q4 0 10 -6q3 -3 8.5 -12t10 -20.5t6.5 -23t-2 -19.5q-1 -1 -2 -1q-2 0 -2 1.5t-4 8.5l-11 38l-5 9q-3 -3 -16.5 -16t-28.5 -27.5t-27.5 -26t-13.5 -11.5t-6.5 4t-8.5 9v1z" />
    <glyph glyph-name="underscore" unicode="_" horiz-adv-x="303" 
d="M44 127q9 1 39.5 2t65.5 2t67.5 1.5t46.5 0.5h30h1v-1l-13 -11l-15 -10l-133 -2q-4 0 -19 0.5t-19 0.5h-13q-35 0 -54.5 2.5t-19.5 3.5q0 4 7 7t29 4z" />
    <glyph glyph-name="grave" unicode="`" horiz-adv-x="81" 
d="M29 368q11 0 12 -8.5t8 -16.5q6 -7 15.5 -9.5t9.5 -4.5t-7 -3t-15 -1q-12 0 -28 6.5t-16 25.5q0 6 5 7.5t16 3.5z" />
    <glyph glyph-name="a" unicode="a" 
d="M175 65q14 17 19 19q12 6 -15 -24q-14 -19 -24 -29t-18 -16q-31 -25 -45 -17q-15 12 -9 46q2 4 2 5v2l-6 -5q-7 -8 -17.5 -18t-18.5 -16q-10 -6 -17.5 -10t-15.5 -4q-13 0 -18 16q-2 4 -2 17q1 16 9 35.5t21 39t30 37t36 31.5q40 25 54 17q9 -6 9 -16l1 -4l3 3q6 5 13 10
t9 7q4 1 9 -2q2 -2 0.5 -6t-3.5 -6h1q-2 -2 -8 -2q-3 0 -4.5 -1t-5.5 -6q-9 -11 -17.5 -27.5t-15 -34.5t-11 -35t-4.5 -28q2 -11 3.5 -15.5t6.5 -4.5h4t3 1q4 2 16.5 14t26.5 27h-1zM102 98q6 14 12.5 25t12.5 21q6 7 6 11q-2 7 -9 11q-9 5 -24 -0.5t-27 -18.5
q-11 -11 -23 -29t-18 -35q-2 -4 -5 -14.5t-3 -20.5t5 -16.5t17 -1.5q4 2 13 10.5t20 22.5q7 8 12.5 16.5t10.5 18.5z" />
    <glyph glyph-name="b" unicode="b" horiz-adv-x="149" 
d="M131 184q10 0 17 -7t5 -28q-2 -18 -13 -44.5t-28 -50.5t-36.5 -41t-37.5 -15q-7 2 -15.5 8t-10.5 17l-3 -2q-6 -11 -19 -22t-20 -11l-1 2v1l1 2q1 3 3 4t3 2q1 0 2.5 3.5t5 13t9.5 27.5l16 48q15 45 33.5 90t38 81t40 58.5t39.5 22.5q2 0 6 -4q5 -3 5 -8q0 -3 -3 -5.5
t-5 -2.5q-1 0 -5 2q-3 1 -9 1t-13.5 -7.5t-17.5 -26t-24 -50.5t-32 -81l-13 -33l1 -1q17 24 39 40.5t42 16.5zM65 22q12 4 21 18t16 30.5t11 33t4 25.5q2 20 -2 26t-14 6q-7 0 -19 -12t-24 -28t-21 -32t-10 -25q0 -4 3.5 -12t9 -15.5t12 -12.5t13.5 -2z" />
    <glyph glyph-name="c" unicode="c" horiz-adv-x="133" 
d="M154 79q1 0 1 -1q0 -9 -14 -24t-33 -29t-40 -23.5t-34 -7.5q-36 6 -36 44q0 26 14.5 54t35 51.5t42.5 38.5t36 15q8 0 10 -11q0 -4 -1 -13.5t-4 -11.5h-1l-1 -1q-1 0 -1 -0.5t-1 -0.5l-7 5q-5 4 -6.5 5.5t-6.5 2.5q-12 1 -25.5 -10.5t-24.5 -28.5t-18 -37.5t-5 -36.5
q1 -16 8 -27.5t26 -11.5q12 0 26 7.5t26 17.5t21.5 20t12.5 14z" />
    <glyph glyph-name="d" unicode="d" 
d="M149 115q-9 -27 -12 -42t-4 -30q-1 -6 1 -12t7 -6q4 0 16 12l26 27l9 10q2 0 2 -3q-1 -2 -11.5 -15t-19.5 -22q-32 -35 -50 -35q-8 0 -12.5 10.5t-3.5 25.5q0 8 2 14l-3 -5q-19 -20 -40 -34.5t-35 -14.5q-15 0 -22.5 11.5t-5.5 28.5q1 12 6.5 28.5t16.5 33.5
q11 18 27 36.5t33 34t33 25.5t28 10q5 0 7 -0.5t7 -3.5l3 -3l7 18q13 28 27 51.5t28 41t27 27t24 9.5q6 0 9 -4.5t3 -9.5q0 -2 -3.5 -6.5t-5.5 -2.5q-6 6 -15 3q-15 -5 -29 -26t-27 -51t-25.5 -65t-24.5 -67v1zM138 161q1 7 -3 13.5t-11 6.5q-15 0 -31.5 -14.5t-30 -34.5
t-23 -41.5t-10.5 -35.5q-2 -31 19 -31q6 0 14.5 5t18 13.5t17.5 19.5t12 22l6 15q4 15 9 28t13 34z" />
    <glyph glyph-name="e" unicode="e" horiz-adv-x="125" 
d="M134 66q-32 -43 -58 -58.5t-47 -13.5q-16 2 -25.5 18.5t-7.5 41.5q4 25 19 50.5t33.5 46t38 33.5t32.5 13q10 0 16 -6t4 -17q-2 -16 -11 -31t-21.5 -27t-27.5 -19t-30 -7q-5 0 -9.5 0.5t-4.5 1.5h-2q-5 -11 -6.5 -24.5t1.5 -25t10.5 -18t21.5 -3.5q10 1 23 7t36 29l17 18
q2 0 2 -1zM63 148q-8 -10 -16.5 -24.5t-9.5 -18.5q0 -3 5.5 -4.5t11.5 -1.5q10 0 20.5 5t19.5 13.5t15 19t7 21.5q3 14 -16 14q-7 0 -16.5 -5.5t-20.5 -18.5z" />
    <glyph glyph-name="f" unicode="f" horiz-adv-x="74" 
d="M127 305q-3 -5 -18.5 -35.5t-34.5 -75.5l3 -1q14 0 21.5 -2t17.5 -2q13 -2 15.5 5.5t4.5 7.5t2 -3q-5 -20 -27 -27.5t-42 -8.5l-6 1q-2 -6 -4.5 -12.5t-4.5 -13.5l-5 -14l-4 -13h-1q-17 -45 -29.5 -71.5t-27.5 -52.5q-23 -37 -49 -59.5t-43 -22.5q-7 0 -12 3.5t-4 11.5
q1 5 3 9t6 2q31 -21 60.5 23.5t71.5 164.5l1 2v3q-2 11 -7 21.5t-5 15.5q0 8 8.5 15.5t19.5 12.5l10 5q16 38 36.5 75.5t49.5 66.5l7 6q19 12 32 12q17 2 17 -9q-1 -10 -6.5 -6t-13.5 4q-3 0 -6.5 -0.5t-9 -4t-12 -11t-14.5 -22.5zM37 170q0 4 -8.5 1.5t-8.5 -10.5
q-1 -3 3.5 -11t4.5 -7q2 5 4.5 11.5t4.5 12.5v3z" />
    <glyph glyph-name="g" unicode="g" horiz-adv-x="159" 
d="M165 175q-3 -8 -8 -21t-10.5 -29.5l-11.5 -34.5t-11 -35l-24 -65q14 -7 28 -15.5t27 -20.5q11 -11 19 -22t8 -18q-1 -8 -11.5 -16.5t-15.5 -8.5q-1 0 -6.5 7.5t-14 17.5t-19.5 21t-22 17l-4 2q-2 2 -3 2q-12 -29 -32 -61t-44.5 -58t-52.5 -41.5t-56 -12.5
q-24 2 -37.5 17.5t-15.5 37.5q-1 32 16.5 61t47.5 52q29 21 62.5 33t71.5 12q6 0 11.5 -0.5t7.5 -0.5q12 0 12 5l20 44l1 3l2 7l-2 -3q-17 -21 -38.5 -36.5t-35.5 -15.5q-13 0 -21 12t-8 27q0 26 17 58q8 16 21 33t28 31t31 23t29 9q9 0 16.5 -6t9.5 -11l9 8q11 11 15 12.5
t6 1.5q7 0 7 -8q0 -5 -2 -7.5t-4 -2.5t-3 1q-7 0 -10 -5zM-78 -187q23 -1 43 10t36.5 27.5t28.5 36t20 36.5q3 6 6 13t6 13.5t4.5 11t1.5 5.5q0 2 -14.5 5.5t-29.5 4.5q-23 1 -51 -6.5t-47 -18.5q-22 -14 -39.5 -36.5t-22.5 -45t7.5 -39t50.5 -17.5zM92 63q12 15 16 25
t11 27l7 18l4 9q1 3 2 5t1 4q0 5 -9 10.5t-19 5.5q-11 0 -19 -4t-15 -10v1q-11 -10 -22 -29t-16 -38v1q-4 -15 -4 -31q0 -31 20 -31q10 0 19.5 8.5t23.5 28.5z" />
    <glyph glyph-name="h" unicode="h" horiz-adv-x="169" 
d="M162 180q1 -6 -4.5 -18t-16.5 -32q-13 -23 -21 -47.5t-8 -39.5q-1 -20 8 -20h4t3 1q5 2 18 14t27 27q6 8 11.5 13t7.5 6q6 3 1 -3.5t-17 -20.5q-15 -19 -25.5 -29t-19.5 -16q-32 -25 -45 -17q-14 11 -6 46q5 25 18 49t27 48q10 17 9.5 24.5t-14.5 6.5q-8 0 -19.5 -7
t-25 -20t-27 -31.5t-23.5 -40.5q-35 -80 -62 -80q-3 0 -4 3t-1 6q1 9 8 9q4 0 8 2.5t9.5 14.5t15 36t26.5 66q20 49 32 77.5t19.5 45t12.5 25.5t11 20q17 27 30.5 34t21.5 5q5 -1 7.5 -4.5t2.5 -7t-1.5 -6t-2.5 -1.5q-4 2 -6 4t-5 2q-2 0 -7 -3.5t-13.5 -17t-22 -40.5
t-31.5 -74l-27 -65l4 4q23 27 47 48t44 21q11 0 17 -6q3 -2 3.5 -4.5t1.5 -6.5z" />
    <glyph glyph-name="i" unicode="i" horiz-adv-x="82" 
d="M65 214q-3 0 1 13q4 11 6 14.5t7 8.5q8 7 15.5 7.5t5.5 -4.5q0 -3 -4 -4q-1 -1 -2 -9q0 -7 -2 -10t-7 -8q-4 -4 -11 -6.5t-9 -1.5zM2 -1q-12 6 -11 27q1 15 6.5 36t14.5 42.5t20 40.5t22 30q16 16 23 15q4 0 7 -3q4 -9 -7 -9q-7 0 -9 -2t-5 -13q-8 -14 -17.5 -41
t-16.5 -48q-2 -6 -5 -16.5t-3 -20t3.5 -15t14.5 -2.5q8 2 18.5 12t19.5 20.5t14.5 17.5t4.5 4q-2 -4 -11 -16.5t-14 -20.5q-19 -23 -37 -33t-32 -5z" />
    <glyph glyph-name="j" unicode="j" horiz-adv-x="65" 
d="M23 54l-20 -64q14 -7 27.5 -15.5t24.5 -20.5q11 -11 17.5 -22t6.5 -18q-1 -8 -12.5 -16.5t-16.5 -8.5l-5 7.5t-13 17.5t-18.5 21t-20.5 17l-3 2q-1 0 -2 1q-1 0 -1 1q-12 -34 -34 -66.5t-49 -57t-56.5 -38.5t-57.5 -11q-23 2 -36 17.5t-13 37.5q1 32 20 61t51 52
q30 21 64.5 33t72.5 12q7 0 12.5 -0.5t8.5 -0.5q8 0 11 5l42 134l3 8q4 10 7 15t5 9q5 7 16.5 18t16.5 13t6 1.5l3 -1.5q6 -4 2 -12q-2 -4 -3 -4.5t-4 -0.5q-5 2 -11 -5q-3 -7 -10 -25.5t-13 -36.5zM-188 -187q27 2 48 13.5t37.5 27t29.5 34t22 35.5l6.5 13t6.5 13.5t5 11
t2 5.5q1 2 -13.5 5.5t-28.5 4.5q-23 1 -52.5 -7t-48.5 -18q-23 -14 -42.5 -38t-25.5 -47.5t5 -39.5t49 -13zM73 209q-2 0 -2.5 4t0.5 9q0 16 7 27q5 7 11.5 9.5t6.5 -2.5q0 -3 -2 -5q-1 -1 0 -6q2 -9 1.5 -13.5t-5.5 -9.5h1q-4 -4 -10 -8.5t-8 -4.5z" />
    <glyph glyph-name="k" unicode="k" horiz-adv-x="146" 
d="M93 82q2 -8 2 -17t-2 -22q3 -20 12 -20q5 0 16 9t31 33q9 12 13.5 16t6.5 4q1 0 1 -1q0 -2 -4.5 -7.5t-12.5 -16.5q-30 -40 -48.5 -52.5t-28.5 -12.5t-14.5 9.5t-5.5 20.5q-1 9 0.5 20t2.5 21.5t1 17.5t-3 7q-11 0 -31 -8l-11 -30q-11 -23 -28 -42t-28 -19q-6 0 -9 8
q0 5 1 7t10 3q15 0 23 19t20 59q39 126 66 190.5t56 64.5q5 0 7.5 -4.5t2.5 -8.5q0 -7 -6 -7q-3 0 -7 1q-8 2 -12 2q-5 -5 -10.5 -21t-15.5 -46l-26 -78q14 21 25 28.5t19 7.5q16 0 25.5 -15t8.5 -32q-1 -22 -14.5 -40.5t-47.5 -29.5q7 -3 10 -5t5 -13zM32 95q9 2 10.5 3
t6.5 3q15 2 29.5 15t23.5 29t9.5 31t-11.5 21t-28.5 -15t-27.5 -52z" />
    <glyph glyph-name="l" unicode="l" horiz-adv-x="74" 
d="M68 49q10 11 17.5 18t9.5 7q0 -2 -6 -10t-21 -26q-6 -6 -13.5 -13t-16.5 -14t-18.5 -11.5t-18.5 -4.5q-6 0 -10 6.5t-3 20.5q2 23 20.5 71.5t47.5 119.5q17 40 31 65t26 39t21.5 19t17.5 5q5 0 6 -3t3 -8q0 -2 -1 -3.5t-2 -3.5q-3 -3 -4 -3q-2 0 -6.5 2.5t-7.5 2.5
q-8 0 -16.5 -16t-21.5 -43q-41 -98 -60 -149.5t-21 -76.5q-2 -12 1 -15h-1q3 -4 8 -4t11 3.5t17 13.5l11 11v0z" />
    <glyph glyph-name="m" unicode="m" horiz-adv-x="246" 
d="M60 134q17 20 37 36.5t36 16.5q10 0 16 -6v1q6 -6 6 -12q2 -8 -5 -20q19 19 37 33t32 14q11 0 17 -6q6 -3 6 -11q2 -6 -3.5 -18t-16.5 -32q-11 -23 -18 -47.5t-7 -39.5q1 -20 10 -20h4t3 1q4 2 16.5 14t26.5 27q5 8 10.5 13t7.5 6q12 6 -15 -24q-14 -19 -24 -29t-19 -16
q-30 -25 -44 -17q-14 11 -9 46q5 25 17 49l24 48q10 17 9 26t-15 5q-6 -2 -14.5 -8t-18 -15t-18.5 -20t-15 -22q-13 -24 -18 -41t-6 -29t0 -19t1 -9q0 -5 -4 -6t-8.5 1t-9.5 6t-7 7q-5 7 -4.5 15.5t4 18.5t9 20t9.5 19l12 22t11 23q16 34 -9 27q-8 -2 -21.5 -12.5
t-26.5 -22.5q-4 -5 -8 -9.5t-8 -10.5q-11 -18 -20 -38.5t-13 -32.5q-3 -10 -12.5 -22t-17.5 -14q-8 -1 -5 4q1 3 9.5 27t19 52t20 53t12.5 30q8 15 21 22q11 5 11 0q-2 -4 -7.5 -19.5t-12.5 -32.5l-6 -17l1 1v1v1l8 11l3 1v0z" />
    <glyph glyph-name="n" unicode="n" horiz-adv-x="166" 
d="M54 133q21 24 43.5 44t40.5 20q10 0 17 -6q6 -4 6 -11q1 -10 -20 -50q-11 -23 -18.5 -47.5t-6.5 -39.5q0 -20 8 -20q6 0 8 1q4 2 16.5 14t26.5 27q13 17 18 19q6 3 1.5 -3.5t-16.5 -20.5q-14 -19 -24 -29t-19 -16q-32 -25 -44 -17q-17 12 -9 46q5 25 17 49t25 48
q9 17 8 26t-14 5q-12 -4 -31 -18.5t-36 -37.5q-12 -19 -22.5 -42.5t-15.5 -37.5q-3 -10 -13 -22t-18 -14q-8 -1 -5 4q0 2 4.5 14t11 28.5t13.5 36t13.5 36.5t11.5 29.5t6 15.5q8 16 22 22q9 5 9 0q-1 -3 -5.5 -18t-11.5 -32l-7 -17l1 1l9 13v0z" />
    <glyph glyph-name="o" unicode="o" horiz-adv-x="154" 
d="M107 43q-13 -19 -35.5 -34t-43.5 -12q-17 3 -26 20t-7 34q4 20 17.5 45t35.5 47q22 21 46.5 37t38.5 16q11 0 16 -9t3 -24q-3 -17 -10 -37.5t-14 -38.5q-1 -8 4.5 -16t16.5 -8q3 0 8.5 4t6.5 4q-1 -6 -11.5 -15t-26.5 -7q-5 0 -8 1t-6 1zM61 21q5 0 12 4t13.5 10
t11.5 12.5t6 11.5q0 1 -0.5 1.5t-0.5 2.5h1q-3 8 -3.5 12.5t1.5 12.5q1 9 6.5 19.5t11.5 19.5t11 15t5 7q1 4 1 8.5t-2 8.5t-8.5 5t-19.5 -2t-26 -13.5t-23.5 -25t-18.5 -30.5t-10 -29q-6 -50 32 -50z" />
    <glyph glyph-name="p" unicode="p" horiz-adv-x="156" 
d="M127 197q15 0 20.5 -14.5t5.5 -29.5q0 -33 -13 -61.5t-31 -50t-36.5 -33.5t-29.5 -12t-19 10t-8 16q-1 -1 -4 -10q-9 -30 -16.5 -51t-13.5 -36.5t-11.5 -26t-11.5 -18.5q-4 -6 -10.5 -12.5t-12.5 -11.5t-11.5 -8.5t-7.5 -3.5q-8 0 -13 8t-5 16q0 11 2 11t11.5 -6t15.5 -6
t15.5 22.5t21.5 57.5l39 123q13 44 23.5 71t19.5 41.5t17.5 19.5t17.5 5q4 0 6.5 -3t2.5 -5q0 -7 -16 -8l-6 -1l-4 -7q-1 -4 -4.5 -14t-7.5 -20.5t-6.5 -18.5l-2.5 -8q7 13 17.5 26.5t22 24.5t23 17.5t20.5 6.5zM97 49q12 20 18 42.5t6 45.5q0 16 -3.5 26.5t-11.5 10.5
q-11 0 -29 -22.5t-36 -60.5q-4 -8 -6 -14t-4 -10t-2 -7q1 -17 11.5 -27.5t22.5 -10.5q8 0 16 5.5t18 21.5z" />
    <glyph glyph-name="q" unicode="q" horiz-adv-x="149" 
d="M111 46q-26 -70 -41 -110.5t-14 -66.5q0 -11 7 -11q2 0 6.5 3.5t6.5 3.5q1 0 1 -2q0 -4 -4.5 -8.5t-11 -8t-12.5 -6t-9 -2.5q-17 0 -17 18q0 9 5 28t12.5 43.5t17.5 52.5t21 55l4 10q-7 -8 -17.5 -18t-18.5 -16q-20 -13 -32 -13q-14 0 -20 15q-2 5 -2 17q0 16 7.5 35.5
t20 39t29 37t34.5 31.5q18 12 31.5 17t21.5 0q10 -7 10 -16l1 -4q1 2 1.5 2t1.5 1q5 5 12 10.5t10 6.5t8 -1q2 -2 1 -6t-3 -6h1q-1 -2 -8 -2q-3 0 -4.5 -1.5t-5.5 -6.5q-6 -8 -13.5 -23.5t-14.5 -33.5t-13 -35t-10 -29zM102 97q6 14 16 31.5t16 26.5q3 5 0.5 1.5t-2.5 -1.5
q-2 2 -4.5 5t-5.5 5q-9 5 -24 -0.5t-27 -17.5q-10 -11 -21 -29.5t-16 -35.5q-2 -4 -4 -14.5t-2 -20.5t4.5 -16t16.5 -2q5 2 13.5 10.5t19.5 22.5q6 8 10.5 17t9.5 18z" />
    <glyph glyph-name="r" unicode="r" horiz-adv-x="105" 
d="M172 183q-2 -5 -6 -11.5t-10.5 -12.5t-15.5 -9.5t-22 -1.5q-7 1 -13.5 5t-12 8t-9 7.5t-4.5 3.5q-6 -1 -14 -17.5t-17 -38t-17.5 -43.5t-14.5 -35l-3 -6t-7.5 -13t-10 -13t-11.5 -6q-2 0 -2 0.5t-1 0.5q0 1 3 11.5t8 26t11 33t11 32.5q9 23 13.5 35t6.5 17.5t3.5 7
t3.5 4.5q14 12 17 12q2 0 2 -3q0 -5 -9 -33q0 1 1 2l4 6q8 16 18.5 28.5t27.5 11.5q6 0 13.5 -3.5l15 -7t13 -6.5t8.5 -3q8 0 14 8.5t7 8.5h1q0 -3 -2 -6z" />
    <glyph glyph-name="s" unicode="s" horiz-adv-x="144" 
d="M84 186q10 8 18.5 11t14.5 3q17 0 17 -17q0 -2 -1.5 -12.5t-5.5 -10.5q-5 5 -12 9t-12 3q-15 -2 -31 -15.5t-16 -30.5q0 -5 5 -8.5t15 -9.5l10 -6q25 -17 34 -25t9 -17q0 -17 -10 -30t-24.5 -21.5t-30.5 -12.5t-27 -3q-20 2 -32 13t-12 29q0 7 3 16.5t7.5 18.5t9.5 15.5
t10 7.5v-2q-2 -2 -3.5 -6t-1.5 -17q0 -23 16.5 -36.5t36.5 -13.5q8 0 15.5 3t12.5 11v-1q5 8 -2 23.5t-33 30.5q-17 8 -22.5 16.5t-5.5 17.5q0 14 15 34t33 33z" />
    <glyph glyph-name="t" unicode="t" horiz-adv-x="85" 
d="M9 212q1 8 17.5 16t39.5 9q6 10 14.5 27t18 33t20 27.5t20.5 11.5q6 0 9 -4t3 -9q0 -10 -8 -10q-1 0 -4.5 6t-8.5 3q-11 -16 -21 -40.5t-18 -44.5q14 0 27.5 -2t23.5 -2q14 0 17 5.5t5 5.5t2 -3q-2 -11 -12.5 -17.5t-24 -10t-27.5 -4.5t-23 -1l-10 -23q-15 -36 -24 -60
t-14.5 -39.5t-7.5 -25t-2 -17.5q0 -12 3 -16.5t7 -4.5q3 0 11 2t29 20q8 7 17.5 16t11.5 9q1 0 1 -1q-10 -14 -22.5 -26.5t-25.5 -22t-25 -15.5t-21 -6q-10 0 -15 7.5t-4 18.5q1 21 19 67.5t50 119.5q-2 0 -8 1.5t-9 1.5q-13 0 -18.5 -1.5t-7.5 -3t-2 -2.5t-2 -1q-1 0 -1 6z
" />
    <glyph glyph-name="u" unicode="u" horiz-adv-x="172" 
d="M100 -2q-11 0 -14.5 8t-3 19t3.5 21.5t5 15.5v1q-11 -14 -21 -26.5t-20.5 -21.5t-21 -13t-21.5 -1q-11 4 -15 20q-5 18 6 40.5t28 54.5q7 15 11 23t5.5 12.5t2 8t0.5 9.5q1 8 -1.5 10.5t-2.5 4.5q0 3 5.5 5.5t11.5 2.5q13 0 15.5 -7.5t0 -18t-8 -21t-8.5 -16.5
q-6 -13 -12.5 -27t-11 -26.5t-7.5 -22.5t-3 -15q-1 -12 5.5 -12t15.5 5.5t18 13.5t12 11q6 7 12.5 15.5t14.5 19.5l6 8q19 38 37 66t32 28q7 0 7 -8t-9 -8l-5 -1q-12 -15 -23 -40.5t-18.5 -49.5t-9 -42.5t5.5 -20.5q5 -2 14.5 3.5t26.5 23.5l13 14q8 6 8 9q2 0 2 -2
q0 -3 -13 -20q-18 -23 -39 -38t-36 -15z" />
    <glyph glyph-name="v" unicode="v" horiz-adv-x="119" 
d="M28 0q-10 -3 -21 1q-6 2 -10 6.5t-6 13.5q-5 17 5.5 40t25.5 54q7 15 10.5 23t5 12.5t2 8.5t0.5 10q0 8 -2.5 10t-2.5 4q0 3 6 5.5t11 2.5q13 0 16 -7.5t1 -18t-7.5 -21t-8.5 -16.5q-6 -13 -11.5 -27t-10 -26.5t-7.5 -22.5t-3 -15q0 -12 6 -13.5t14 3t16.5 12.5t13.5 16
q16 25 28.5 51t23 47t20 34t20.5 13q2 0 8 -2.5t8 -8.5q1 -2 -0.5 -6t-3.5 -6q0 -1 -2 -0.5t-4 0.5q-8 3 -14 1q-6 -1 -10.5 -5.5t-6.5 -9.5q-33 -74 -55 -115t-55 -48z" />
    <glyph glyph-name="w" unicode="w" horiz-adv-x="214" 
d="M99 -2q-11 0 -14.5 8t-2.5 19t4 21.5t5 15.5v1q-11 -14 -21 -26.5t-20.5 -21.5t-21 -13t-21.5 -1q-12 4 -16 20q-5 18 6.5 40.5t27.5 54.5q8 15 11.5 23t5 12.5t2 8t0.5 9.5q1 8 -1.5 10.5t-2.5 4.5q0 3 5.5 5.5t11.5 2.5q13 0 15.5 -7.5t0 -18t-7.5 -21t-8 -16.5
q-7 -13 -13 -27t-11 -26.5t-8 -22.5t-3 -15q0 -12 6.5 -12t15.5 5.5t17.5 13.5t11.5 11q6 7 13 15.5t14 19.5l6 8q19 38 37 66t32 28q2 0 5 -2.5t3 -5.5q0 -8 -10 -8l-4 -1q-12 -15 -23.5 -41t-18.5 -50.5t-9 -43t6 -18.5q11 -1 22 12t22.5 33t22.5 43t22 43t21.5 33.5
t21.5 13.5q2 0 7.5 -3t6.5 -9q1 -2 0 -6t-3 -6h-4t-4 1q-5 3 -14 1q-5 -1 -7.5 -3t-4.5 -6q-19 -41 -35 -73t-31 -54t-31.5 -33.5t-36.5 -11.5z" />
    <glyph glyph-name="x" unicode="x" horiz-adv-x="134" 
d="M27 149q-8 -12 -16 -28.5t-12 -20.5l-1 2q4 8 9.5 22t12 27.5t13.5 23.5t13 10q15 0 23.5 -16t8.5 -36q0 -9 -0.5 -19.5t-1.5 -15.5q4 3 11 7q5 4 14 10t20 15l16 14q7 7 7 13q0 3 -2 7q-1 2 -1 4q0 1 6 9.5t14 8.5q2 0 3.5 -6t1.5 -9q0 -5 -10 -18t-27 -26l-38 -28
q-13 -9 -15 -12.5t-3 -15.5v-3q0 -20 4 -32t16 -12q4 0 8 1.5t9.5 6.5t14 15t22.5 27q0 -9 -9.5 -22t-22 -24.5t-25.5 -19.5t-19 -8q-27 0 -30 36q0 8 1 16.5t1 12.5l-31 -25q-8 -8 -8 -14q0 -4 1.5 -4.5t1.5 -2.5q0 -8 -10 -14t-14 -6q-2 0 -4 4l-3 6q2 5 10 13.5
t17.5 17.5t20.5 18t19 15q2 2 4 16.5t2 25.5q0 14 -5.5 26t-11.5 17l-5 -9v0z" />
    <glyph glyph-name="y" unicode="y" horiz-adv-x="163" 
d="M169 177q-11 -15 -20.5 -39t-18.5 -50.5t-16.5 -52.5t-14.5 -45q14 -7 28 -15.5t26 -20.5q11 -11 18.5 -22t7.5 -18q-1 -8 -12 -16.5t-16 -8.5q-1 0 -6.5 7.5t-13.5 17.5t-18.5 21t-20.5 17l-4 2q-1 0 -2 1q-1 0 -1 1q-14 -29 -34.5 -61t-46 -58t-53.5 -41.5t-56 -12.5
q-23 2 -37 17.5t-15 37.5q0 32 18 61t50 52q29 21 62.5 33t71.5 12q7 0 13 -0.5t8 -0.5q10 0 11 5l21 64l2 10l2 4q-12 -16 -23 -31.5t-22 -27t-23 -17t-25 -1.5q-13 5 -16 20q-7 18 4 40.5t25 54.5l10.5 22.5t5 11.5t1.5 7v9q0 8 -2 10t-2 4q0 3 5 6t11 3q13 0 16 -7.5
t0.5 -17t-7 -19.5t-7.5 -16q-12 -26 -20 -52t-8 -36q0 -13 10 -12q8 1 32 24.5t48 61.5q23 36 34 57.5t26 21.5q2 0 5 -3t3 -5q0 -3 -3 -6t-7 -3h-4zM-84 -187q24 -1 44 10t37 27.5t29.5 36t21.5 36.5q3 6 6 13t6 13.5t4.5 11t1.5 5.5q0 2 -14 5.5t-29 4.5q-23 1 -51.5 -6.5
t-46.5 -18.5q-23 -14 -41.5 -36.5t-23.5 -45t6.5 -39t49.5 -17.5z" />
    <glyph glyph-name="z" unicode="z" horiz-adv-x="151" 
d="M19 50q7 7 13 12.5t11 10.5t10 9l-2 1l-2 2q-14 4 -24 -6h1q-9 -10 -9 -1q0 3 10 12t18 13q7 3 10 3.5t12 0.5h12l20 17l28 26l3 2q-15 -5 -28 -5q-8 0 -12 0.5t-18 5.5q-11 5 -16 6l-10 2q-11 0 -14 -4q-2 -2 -5.5 -9t-5.5 -16v1q-2 -11 -4 -13t-7 -1q-2 1 -3 5.5t0 9.5
q2 12 6 16q8 12 22 23t25 13q8 2 19.5 0.5t25.5 -6.5q8 -2 13.5 -3.5t12.5 -1.5q20 0 25 5q3 2 6 2t3 -2q0 -1 -5 -7t-13.5 -14t-19 -18t-20.5 -20l-19 -16l8 -4q21 -9 34 -9q6 2 6 -2q-1 -2 -10 -7.5t-14 -7.5q-8 -2 -21.5 -1.5t-20.5 2.5q-2 0 -3.5 0.5t-2.5 0.5t-1 1
q-3 0 -25 -21l-3 -4q-18 -15 -18 -17q1 0 1 1q12 6 25 6q9 1 21 -4q6 -2 14 -4.5t13 -4.5q8 -3 11.5 -3.5t8.5 -0.5t8 0.5t7 2.5q7 2 13 9t17 27q6 11 8 7h-1q2 -1 -2 -13t-8 -19q-7 -13 -26 -26t-35 -18q-8 -2 -19 0q-8 2 -15.5 5t-22.5 11q-11 5 -14.5 6t-8.5 1
q-7 1 -11.5 -1t-13.5 -9q-15 -14 -15 -8t47 49z" />
    <glyph glyph-name="braceleft" unicode="{" horiz-adv-x="175" 
d="M67 166q-2 -1 -3 -2t0 -1q3 0 7.5 -4t6.5 -9q10 -19 4.5 -49.5t-29.5 -88.5q-11 -26 -15 -44.5t-6 -36.5q0 -11 1 -19t5 -16l6 -10l5 -7l3 -4l-3 -2q-9 -7 -23 -4q-4 2 -8 5.5t-6 8.5q-4 8 -4.5 14.5t-0.5 19.5q1 19 5.5 37t18.5 50q17 45 24 71t5 44q-3 22 -14 29l-6 4
q0 2 8 7.5t15 9.5q2 2 7 10.5t8 16.5q5 14 13 60q2 23 4.5 36t6.5 24q6 24 13.5 39.5t19.5 26.5q11 10 19 13t12 1q6 -6 -5 -6q-8 0 -11.5 -2t-7.5 -6q-9 -13 -14.5 -33t-11.5 -65q-4 -26 -8 -44.5t-9.5 -32t-13 -23t-18.5 -18.5z" />
    <glyph glyph-name="bar" unicode="|" horiz-adv-x="43" 
d="M33 410q0 -2 0.5 -8.5t0.5 -23.5t0.5 -45.5t0.5 -73.5q-2 -43 -2 -78.5t1 -43.5v-143v-49.5t-0.5 -42.5t-0.5 -31v-15v-12l-7 -8q-5 -7 -10.5 -13t-6.5 -6v2q0 1 -0.5 12.5t-0.5 31.5t0.5 46.5t0.5 56.5t0.5 65t1 69t0.5 65v52q0 63 0.5 97.5t1 51t1 20t1.5 5.5l9 12
q6 6 7 7.5t2 -0.5z" />
    <glyph glyph-name="braceright" unicode="}" horiz-adv-x="228" 
d="M189 114q0 -1 -8 -6.5t-15 -9.5q-3 -2 -7.5 -10.5t-8.5 -16.5q-5 -17 -12 -60q-3 -23 -5 -36t-6 -24q-12 -45 -34 -66q-22 -20 -30 -14q-3 5 6 6q11 0 18 7q9 13 14.5 33.5t11.5 65.5q3 26 7 44.5t10 31.5t13.5 22.5t18.5 18.5q3 3 2 3q-2 0 -7 4.5t-7 9.5q-5 9 -5.5 21
t2.5 28t10 38t18 51q11 26 16 44.5t6 35.5q0 12 -1 20t-6 16l-5 11q-1 2 -2.5 3t-2.5 3l-3 3l3 3q7 5 20 4q6 -2 8 -3q7 -4 11 -16q2 -5 2 -8.5v-16.5v-17.5t-2 -13.5q-5 -23 -21 -60q-17 -45 -24 -71t-5 -45q2 -11 5 -17.5t10 -10.5z" />
    <glyph glyph-name="asciitilde" unicode="~" horiz-adv-x="207" 
d="M193 274q5 4 4.5 2.5t-6.5 -4.5q-5 -5 -13.5 -8.5t-15.5 -4.5q-5 -2 -16.5 -2.5t-16.5 0.5q-10 2 -22 6t-32 12q-16 8 -21.5 10t-13.5 2q-15 0 -24 -9q-3 -4 -6 -5.5t-2 0.5t10.5 9t16.5 10q11 7 19.5 9t18.5 2t17.5 -2.5t28.5 -12.5q46 -21 64 -18q2 1 5 2t5 2z" />
    <glyph glyph-name="exclamdown" unicode="&#xa1;" horiz-adv-x="175" 
d="M203 -8h-1q-1 0 -5 2.5t-9.5 5.5t-10 5.5t-5.5 3.5t-3 5.5t-7.5 18.5t-16 42t-28.5 77q-9 26 -19.5 56t-20.5 56l-22 56q-6 17 -10 27.5t-6 15.5q-2 4 1 4.5t11 -4.5q6 -2 14 -23q5 -11 19 -45t40 -101q9 -25 19.5 -50t19.5 -50l41 -101zM45 393q-5 -3 -11 1t-12.5 9
t-8.5 7q-2 6 -1 8.5t4 7.5q5 5 8.5 5.5t10.5 -4.5q9 -5 14 -14q5 -8 4.5 -13t-9.5 -7h1z" />
    <glyph glyph-name="cent" unicode="&#xa2;" horiz-adv-x="134" 
d="M115 257q10 14 12 14v-1q0 -1 -2.5 -5t-6 -8.5l-7 -9t-6.5 -6.5q-4 -5 -13 -11.5t-19.5 -12.5t-20 -10.5t-13.5 -4.5q-3 0 -5.5 -6t-5 -12.5t-6 -12.5t-7.5 -6q-5 0 -5 5q0 2 2 6.5t5 10t5 9.5l2 4v1q-6 0 -11.5 10.5t-5.5 21.5q1 29 24 61q6 10 16.5 20t20 18t16.5 14.5
t7 8.5v2q0 4 3.5 11t11.5 7q1 0 1 -0.5t1 -0.5q0 -1 -0.5 -3t-2.5 -7l-6 -9h6q4 0 7.5 -3t3.5 -9q0 -5 -2 -10.5t-4 -5.5t-9.5 6.5t-12.5 6.5q-8 0 -16 -10.5t-15 -24.5t-11.5 -28t-4.5 -22q0 -14 6 -25t18 -11q20 0 50 38z" />
    <glyph glyph-name="sterling" unicode="&#xa3;" horiz-adv-x="301" 
d="M259 429q7 3 14 3q8 0 14 -4t6 -13q0 -2 -0.5 -3.5t-0.5 -5.5q-1 -6 -5.5 -16t-9.5 -19.5t-10.5 -16t-9.5 -6.5q0 1 2.5 6.5t5.5 13t5.5 15t2.5 12.5q0 20 -21 20q-8 0 -18.5 -9t-21 -24t-21 -34.5t-19.5 -40.5l-23 -57q0 -2 12 -2h26t26 -0.5t12 -2.5q0 -7 -9 -12
t-19 -5h-10.5t-17.5 0.5t-16.5 0.5h-8.5q-2 0 -4 -6t-7 -22q-20 -56 -32.5 -85.5t-27.5 -44.5l-6 -6l7 -1q9 -2 21 -3.5t23.5 -3.5t21 -3t13.5 -1h8l16 1l7 5q6 5 11 7t6 2q0 -1 -5.5 -6.5t-15.5 -12t-25.5 -11.5t-34.5 -5q-6 0 -17 1.5t-23 4t-23 4t-16 1.5t-13.5 -3.5
t-13.5 -3.5q-7 0 -7 3q0 4 8 9t17 9t16.5 6.5l7.5 2.5q5 4 13.5 23t18 43t18 49.5t13.5 44.5q0 1 -2 1t-5 -0.5t-6 -0.5q-4 -1 -7 -1q-1 0 -1 1t8 6t13 7t7.5 5.5t7.5 21.5q26 66 54.5 104.5t70.5 57.5z" />
    <glyph glyph-name="currency" unicode="&#xa4;" horiz-adv-x="180" 
d="M173 375l-2 -2q-1 -3 -10 -8q-1 -1 -6 -5t-10 -9t-9.5 -10t-4.5 -8v-2q1 -17 -5 -36.5t-17 -38.5q-4 -8 -9 -13.5t-10 -10.5t-11 -10q1 0 4 -4.5t6.5 -9.5t7.5 -8.5t7 -2.5q0 -1 -4 -4t-9 -6t-9.5 -5t-5.5 -2q-4 0 -6.5 9.5t-2.5 14.5v5q0 4 -2 4q-1 0 -7.5 -4t-8.5 -4v2
v1q-3 5 -6 5h-2q-16 -18 -19 -23t-13 -5q-2 0 -2 1t19 20l11 11l-2 4q-5 10 -5 23q0 18 9 41t25 39q0 3 -3 12t-7 15l-3 7l5 4q11 9 17 9q2 0 3 -4.5t1 -10.5v-8t-1 -8l-2 -11l7 6q21 16 32 16q7 0 12 -6l4 -2l1 2q5 6 16 14t23 14zM103 297q2 6 2 11v8q0 19 -13 19
q-8 0 -15.5 -10.5t-13.5 -24t-9.5 -28t-3.5 -21.5t4.5 -18t12.5 -11q4 0 9.5 8.5t10.5 20t9.5 24.5t6.5 22z" />
    <glyph glyph-name="yen" unicode="&#xa5;" horiz-adv-x="315" 
d="M238 306q-11 -16 -20.5 -27.5t-18 -21t-18 -17.5t-20.5 -15l-13 -8h24q7 0 17.5 -0.5t20.5 -1.5t16.5 -3t6.5 -4t-9 -10.5t-16 -10.5q2 2 -12 6t-52 4h-10q0 -1 -3 -9.5t-6.5 -18.5t-6.5 -18.5l-3 -8.5q2 0 17 1t35 1q23 0 37 -1t14 -3t-3 -5.5t-7 -7t-8 -6t-7 -2.5
l-7.5 0.5t-18.5 1.5t-23.5 1.5t-22.5 0.5q-11 0 -12 -1q-2 -1 -4.5 -10t-5 -20t-4.5 -20t-2 -10q0 -2 1.5 -2t1.5 -1q0 -2 -4.5 -5t-10 -6t-10.5 -5.5t-6 -2.5q-3 0 -3 3t2.5 13t6 22t7.5 23.5t7 19.5h-2q-3 0 -14 -1t-22.5 -2t-21.5 -2t-12 -1q-3 0 -4 0.5t-2 0.5
q0 2 9.5 9t26.5 8q19 2 33.5 4t14.5 3l4 8.5t8.5 19t7.5 19.5t3 10q-5 0 -17.5 -1.5t-26 -3t-25 -3t-13.5 -1.5l-6 -1l7 4l10.5 7t10 5.5t13 4t18.5 3.5q7 0 13 2q3 1 4 1q0 3 -1 5q-14 20 -14 59q0 13 1.5 28t3.5 34q3 23 4 26.5t3 5.5q6 6 11 6q2 0 2.5 -2.5t0.5 -10.5
q0 -6 -0.5 -20t-0.5 -25q0 -52 11.5 -72t26.5 -20q9 0 24 16t31.5 41t32.5 55t27 58q8 20 18 33.5t23 13.5q2 0 2 -1t-8 -23q-14 -32 -29.5 -59.5t-32.5 -55.5z" />
    <glyph glyph-name="dieresis" unicode="&#xa8;" horiz-adv-x="116" 
d="M38 385q11 -3 11 -10t-3.5 -12t-8 -8.5t-9 -5.5t-5.5 -2q-5 0 -10 6t-5 10t10 13t20 9zM97 385q9 -3 9 -9q0 -10 -6.5 -16.5l-8.5 -8.5q-5 -4 -9 -4t-9.5 5.5t-5.5 10.5q0 4 4 8t9.5 7t10 5t6.5 2z" />
    <glyph glyph-name="copyright" unicode="&#xa9;" horiz-adv-x="255" 
d="M231 371q15 -19 15 -46q0 -14 -3.5 -27.5t-11.5 -27.5q-10 -20 -29 -40t-41 -35.5t-42.5 -25.5t-32.5 -10q-7 0 -7 3q0 1 4 5l3 2h-15q-32 0 -47.5 17t-15.5 45q0 31 18 60t44.5 51.5t55.5 36.5t51 14q32 0 54 -22zM208 268q2 7 5 19.5t3 19.5q0 27 -18.5 46.5
t-48.5 19.5q-26 0 -47 -12.5t-35 -31t-21.5 -40.5t-7.5 -40q0 -29 18 -47t51 -18q3 0 5 0.5t4 0.5q3 0 3 -1l-4 -4q15 0 29 8.5t26.5 21.5t22 28.5t15.5 29.5zM177 268q0 -7 -10.5 -18t-25.5 -21t-30.5 -17t-25.5 -7q-8 0 -15 8t-7 19v13q2 12 12.5 31t25 37t30.5 31t29 13
q2 0 5.5 -3t3.5 -11q0 -11 -1.5 -13.5t-3.5 -2.5t-6 8t-14 8q-9 0 -17.5 -11t-15.5 -25t-11.5 -28.5t-5.5 -20.5q0 -33 23 -33q8 0 16 3q3 1 10 8t14.5 14t13.5 13l6 6v-1z" />
    <glyph glyph-name="registered" unicode="&#xae;" horiz-adv-x="432" 
d="M345 372q17 -18 17 -46t-18.5 -57t-44 -53t-52.5 -39.5t-45 -15.5q-7 0 -7 4l4 4l3 3h-16q-30 0 -46 16.5t-16 43.5q0 30 17.5 59.5t43.5 53t55.5 37.5t52.5 14q31 0 52 -24zM324 270q2 6 4.5 18t2.5 19q0 29 -18.5 48.5t-48.5 19.5q-26 0 -46 -12.5t-34 -31t-21.5 -40.5
t-7.5 -40q0 -30 17.5 -47.5t51.5 -17.5q2 0 4 0.5t3 0.5q3 0 3 -1q1 0 -1 -2q-1 -1 -3 -2h1q15 0 29.5 8.5t26.5 21.5t21.5 28.5t15.5 29.5zM264 350q3 1 10 1q16 0 26.5 -7.5t10.5 -20.5q0 -26 -57 -50l-9 -3l5 -4q11 -8 24 -14t13 -7q0 -5 -11 -9t-17 -4q-2 0 -9.5 4
t-28.5 18l-3 -5.5t-9 -12.5t-13.5 -12.5t-15.5 -5.5h-2q-1 0 -1 1t2 3q0 1 8 16t17.5 33t18.5 33.5t11 18.5q3 3 8 6t8 3q1 0 1 -3q0 -2 -4 -11t-8 -19.5t-7.5 -19l-3.5 -8.5q5 3 15 5.5t19.5 6.5t17 10.5t7.5 18.5q0 28 -31 28q-11 0 -20.5 -3.5t-17.5 -8t-13 -8l-5 -3.5
q-2 0 -2 1q0 4 6.5 9t16 9.5t21 8t22.5 5.5z" />
    <glyph glyph-name="acute" unicode="&#xb4;" horiz-adv-x="82" 
d="M52 368q12 -2 17 -3.5t5 -7.5q0 -9 -5 -15.5t-11.5 -10t-14.5 -5t-14 -1.5q-8 0 -15 1t-7 3q0 1 0.5 1t0.5 1q11 0 17.5 6t10.5 12.5t7 12.5t9 6z" />
    <glyph glyph-name="cedilla" unicode="&#xb8;" horiz-adv-x="62" 
d="M52 -36q3 -14 -15 -30q-6 -5 -9.5 -5.5t-9.5 3.5q-11 7 -11 13q0 2 9 7q16 10 19 23q1 5 0 10q-1 1 -1 1.5t-1 1.5t-1 2t-0.5 1.5t-0.5 1.5q2 2 14 -14q7 -11 7 -15z" />
    <glyph glyph-name="questiondown" unicode="&#xbf;" horiz-adv-x="335" 
d="M282 402q-9 3 -9 8q0 6 10 18t20 12q5 0 8.5 -4.5t4.5 -8.5q0 -2 -3.5 -6.5t-8 -9t-10 -7.5t-9.5 -3q-1 0 -1.5 0.5t-1.5 0.5zM73 0q-25 7 -39 24t-16 40q-2 45 30 83.5t93 73.5l42 24q17 10 30 21.5t27 26.5q11 13 17.5 29t12.5 30t12.5 23.5t18.5 9.5q3 0 3 -3
q1 -5 -3.5 -19.5t-10.5 -24.5q-7 -14 -18.5 -28.5t-29.5 -29.5t-43.5 -31.5t-59.5 -35.5q-47 -27 -69.5 -63t-20.5 -68q1 -15 10 -30t23 -23h-1q22 -11 48 -11q28 0 51 12.5t39.5 30t25.5 37t8 34.5q-2 18 -14 29t-29 11q-10 0 -20 -3l-11 -5h1q-1 -1 -5 -1q-2 -2 -9 -10.5
t-10 -8.5t-3 3q0 6 9.5 13.5t23 14t27.5 11.5t23 5q21 0 32.5 -12.5t12.5 -31.5q1 -17 -13.5 -42.5t-39.5 -49.5t-57.5 -41t-68.5 -17q-8 0 -16 0.5t-13 2.5z" />
    <glyph glyph-name="Agrave" unicode="&#xc0;" horiz-adv-x="412" 
d="M59 -25q-23 5 -38 23t-20 45v9t1 14q3 30 18 58.5t38 50t51 35t55 13.5q23 0 49 -6t61 -19l16 -6l2 3q1 4 4.5 9t5.5 10q55 94 103 138t94 44q13 0 15 -4t2 -5q-3 -5 -11 -5q-9 0 -29 -33.5t-48 -99.5l-29 -80l-2 -2h2q19 0 29 6.5t15.5 14.5t7 14.5t3.5 6.5t2 -5
q-1 -13 -8 -21.5t-16.5 -13.5t-19 -7t-16.5 -2q-1 -1 -5.5 -12.5t-10 -27t-11 -32l-9.5 -28.5q-6 -22 -10 -42t-6 -38q-6 -69 21 -98v1q17 -13 33.5 -7t31 20t26 31t17.5 26q1 0 2 -1t0 -4q-10 -23 -24.5 -42t-31 -32t-32.5 -20t-29 -7q-29 0 -42 32.5t-8 79.5q2 22 6.5 44
t12 46t17.5 51.5t24 60.5l-2 -1q-5 0 -23.5 3.5t-33.5 8.5l-8 3l-17 -27q-55 -85 -108 -130t-102 -45q-7 0 -15 2zM71 176q-17 -14 -27 -37t-13 -47q-2 -16 1.5 -31t11.5 -27t21 -19.5t31 -7.5q40 0 71.5 21t61.5 65q5 7 13.5 20.5l17 27t15.5 25t9 14.5l-22 8
q-30 11 -53.5 14t-43.5 4q-56 0 -94 -31v1zM358 278q-8 -12 -17 -28t-17.5 -30.5t-13.5 -24l-5 -9.5l18 -6q8 -4 18.5 -7.5t26.5 -3.5q2 0 3.5 3.5l7.5 17.5q28 68 55 115.5t51 70.5l8 7h-2q-21 -3 -38 -9.5t-32.5 -18.5t-30.5 -31t-32 -46zM484 453q11 0 12.5 -8t8.5 -16
q6 -6 16 -8.5t10 -3.5q0 -2 -7 -3t-15 -1q-13 0 -29.5 6.5t-16.5 23.5q0 9 21 10z" />
    <glyph glyph-name="Aacute" unicode="&#xc1;" horiz-adv-x="412" 
d="M59 -25q-23 5 -38 23t-20 45v9t1 14q3 30 18 58.5t38 50t51 35t55 13.5q23 0 49 -6t61 -19l16 -6l2 3q1 4 4.5 9t5.5 10q55 94 103 138t94 44q13 0 15 -4t2 -5q-3 -5 -11 -5q-9 0 -29 -33.5t-48 -99.5l-29 -80l-2 -2h2q19 0 29 6.5t15.5 14.5t7 14.5t3.5 6.5t2 -5
q-1 -13 -8 -21.5t-16.5 -13.5t-19 -7t-16.5 -2q-1 -1 -5.5 -12.5t-10 -27t-11 -32l-9.5 -28.5q-6 -22 -10 -42t-6 -38q-6 -69 21 -98v1q17 -13 33.5 -7t31 20t26 31t17.5 26q1 0 2 -1t0 -4q-10 -23 -24.5 -42t-31 -32t-32.5 -20t-29 -7q-29 0 -42 32.5t-8 79.5q2 22 6.5 44
t12 46t17.5 51.5t24 60.5l-2 -1q-5 0 -23.5 3.5t-33.5 8.5l-8 3l-17 -27q-55 -85 -108 -130t-102 -45q-7 0 -15 2zM71 176q-17 -14 -27 -37t-13 -47q-2 -16 1.5 -31t11.5 -27t21 -19.5t31 -7.5q40 0 71.5 21t61.5 65q5 7 13.5 20.5l17 27t15.5 25t9 14.5l-22 8
q-30 11 -53.5 14t-43.5 4q-56 0 -94 -31v1zM358 278q-8 -12 -17 -28t-17.5 -30.5t-13.5 -24l-5 -9.5l18 -6q8 -4 18.5 -7.5t26.5 -3.5q2 0 3.5 3.5l7.5 17.5q28 68 55 115.5t51 70.5l8 7h-2q-21 -3 -38 -9.5t-32.5 -18.5t-30.5 -31t-32 -46zM532 455q21 0 21 -9
q0 -19 -16 -26t-29 -7q-8 0 -14.5 1.5t-6.5 3.5l1 1q11 0 17.5 5.5t10.5 12.5t7 12.5t9 5.5z" />
    <glyph glyph-name="Acircumflex" unicode="&#xc2;" horiz-adv-x="412" 
d="M59 -25q-23 5 -38 23t-20 45v9t1 14q3 30 18 58.5t38 50t51 35t55 13.5q23 0 49 -6t61 -19l16 -6l2 3q1 4 4.5 9t5.5 10q55 94 103 138t94 44q13 0 15 -4t2 -5q-3 -5 -11 -5q-9 0 -29 -33.5t-48 -99.5l-29 -80l-2 -2h2q19 0 29 6.5t15.5 14.5t7 14.5t3.5 6.5t2 -5
q-1 -13 -8 -21.5t-16.5 -13.5t-19 -7t-16.5 -2q-1 -1 -5.5 -12.5t-10 -27t-11 -32l-9.5 -28.5q-6 -22 -10 -42t-6 -38q-6 -69 21 -98v1q17 -13 33.5 -7t31 20t26 31t17.5 26q1 0 2 -1t0 -4q-10 -23 -24.5 -42t-31 -32t-32.5 -20t-29 -7q-29 0 -42 32.5t-8 79.5q2 22 6.5 44
t12 46t17.5 51.5t24 60.5l-2 -1q-5 0 -23.5 3.5t-33.5 8.5l-8 3l-17 -27q-55 -85 -108 -130t-102 -45q-7 0 -15 2zM71 176q-17 -14 -27 -37t-13 -47q-2 -16 1.5 -31t11.5 -27t21 -19.5t31 -7.5q40 0 71.5 21t61.5 65q5 7 13.5 20.5l17 27t15.5 25t9 14.5l-22 8
q-30 11 -53.5 14t-43.5 4q-56 0 -94 -31v1zM358 278q-8 -12 -17 -28t-17.5 -30.5t-13.5 -24l-5 -9.5l18 -6q8 -4 18.5 -7.5t26.5 -3.5q2 0 3.5 3.5l7.5 17.5q28 68 55 115.5t51 70.5l8 7h-2q-21 -3 -38 -9.5t-32.5 -18.5t-30.5 -31t-32 -46zM530 441q2 -2 5.5 -12.5
t3.5 -15.5t-9 -6q-4 0 -8 3l-11 13q-8 11 -13 11q-2 0 -10 -4l-5 -3q-11 -7 -20 -10.5t-12 -3.5h-1q0 1 5.5 4.5t14 8t18 9.5t15.5 8q13 7 19 7q3 0 8 -9z" />
    <glyph glyph-name="Atilde" unicode="&#xc3;" horiz-adv-x="412" 
d="M59 -25q-23 5 -38 23t-20 45v9t1 14q3 30 18 58.5t38 50t51 35t55 13.5q23 0 49 -6t61 -19l16 -6l2 3q1 4 4.5 9t5.5 10q55 94 103 138t94 44q13 0 15 -4t2 -5q-3 -5 -11 -5q-9 0 -29 -33.5t-48 -99.5l-29 -80l-2 -2h2q19 0 29 6.5t15.5 14.5t7 14.5t3.5 6.5t2 -5
q-1 -13 -8 -21.5t-16.5 -13.5t-19 -7t-16.5 -2q-1 -1 -5.5 -12.5t-10 -27t-11 -32l-9.5 -28.5q-6 -22 -10 -42t-6 -38q-6 -69 21 -98v1q17 -13 33.5 -7t31 20t26 31t17.5 26q1 0 2 -1t0 -4q-10 -23 -24.5 -42t-31 -32t-32.5 -20t-29 -7q-29 0 -42 32.5t-8 79.5q2 22 6.5 44
t12 46t17.5 51.5t24 60.5l-2 -1q-5 0 -23.5 3.5t-33.5 8.5l-8 3l-17 -27q-55 -85 -108 -130t-102 -45q-7 0 -15 2zM71 176q-17 -14 -27 -37t-13 -47q-2 -16 1.5 -31t11.5 -27t21 -19.5t31 -7.5q40 0 71.5 21t61.5 65q5 7 13.5 20.5l17 27t15.5 25t9 14.5l-22 8
q-30 11 -53.5 14t-43.5 4q-56 0 -94 -31v1zM358 278q-8 -12 -17 -28t-17.5 -30.5t-13.5 -24l-5 -9.5l18 -6q8 -4 18.5 -7.5t26.5 -3.5q2 0 3.5 3.5l7.5 17.5q28 68 55 115.5t51 70.5l8 7h-2q-21 -3 -38 -9.5t-32.5 -18.5t-30.5 -31t-32 -46zM558 431q6 7 8 7q1 0 1 -4
q0 -5 -6 -9.5t-14 -7.5t-16.5 -5t-14.5 -2q-3 0 -10 2.5t-15.5 5.5t-16.5 5.5t-11 2.5q-4 0 -11 -8v1q-2 -4 -3 -4q-2 0 -2 3q0 1 3 5t8 8t13 7.5t17 3.5q5 0 14 -2.5t18.5 -5.5t17.5 -5.5t12 -2.5h3z" />
    <glyph glyph-name="Adieresis" unicode="&#xc4;" horiz-adv-x="412" 
d="M59 -25q-23 5 -38 23t-20 45v9t1 14q3 30 18 58.5t38 50t51 35t55 13.5q23 0 49 -6t61 -19l16 -6l2 3q1 4 4.5 9t5.5 10q55 94 103 138t94 44q13 0 15 -4t2 -5q-3 -5 -11 -5q-9 0 -29 -33.5t-48 -99.5l-29 -80l-2 -2h2q19 0 29 6.5t15.5 14.5t7 14.5t3.5 6.5t2 -5
q-1 -13 -8 -21.5t-16.5 -13.5t-19 -7t-16.5 -2q-1 -1 -5.5 -12.5t-10 -27t-11 -32l-9.5 -28.5q-6 -22 -10 -42t-6 -38q-6 -69 21 -98v1q17 -13 33.5 -7t31 20t26 31t17.5 26q1 0 2 -1t0 -4q-10 -23 -24.5 -42t-31 -32t-32.5 -20t-29 -7q-29 0 -42 32.5t-8 79.5q2 22 6.5 44
t12 46t17.5 51.5t24 60.5l-2 -1q-5 0 -23.5 3.5t-33.5 8.5l-8 3l-17 -27q-55 -85 -108 -130t-102 -45q-7 0 -15 2zM71 176q-17 -14 -27 -37t-13 -47q-2 -16 1.5 -31t11.5 -27t21 -19.5t31 -7.5q40 0 71.5 21t61.5 65q5 7 13.5 20.5l17 27t15.5 25t9 14.5l-22 8
q-30 11 -53.5 14t-43.5 4q-56 0 -94 -31v1zM358 278q-8 -12 -17 -28t-17.5 -30.5t-13.5 -24l-5 -9.5l18 -6q8 -4 18.5 -7.5t26.5 -3.5q2 0 3.5 3.5l7.5 17.5q28 68 55 115.5t51 70.5l8 7h-2q-21 -3 -38 -9.5t-32.5 -18.5t-30.5 -31t-32 -46zM498 450q10 -3 10 -9
q0 -7 -3.5 -12.5t-8 -9t-8.5 -5t-5 -1.5q-5 0 -9.5 6t-4.5 9t9.5 12.5t19.5 9.5zM557 450q10 -3 10 -9q0 -10 -7.5 -16.5t-9.5 -8.5h1q-4 -3 -10 -3q-3 0 -8.5 5t-5.5 10q0 4 4 8t9.5 7t10 5t6.5 2z" />
    <glyph glyph-name="Aring" unicode="&#xc5;" horiz-adv-x="412" 
d="M59 -25q-23 5 -38 23t-20 45v9t1 14q3 30 18 58.5t38 50t51 35t55 13.5q23 0 49 -6t61 -19l16 -6l2 3q1 4 4.5 9t5.5 10q55 94 103 138t94 44q13 0 15 -4t2 -5q-3 -5 -11 -5q-9 0 -29 -33.5t-48 -99.5l-29 -80l-2 -2h2q19 0 29 6.5t15.5 14.5t7 14.5t3.5 6.5t2 -5
q-1 -13 -8 -21.5t-16.5 -13.5t-19 -7t-16.5 -2q-1 -1 -5.5 -12.5t-10 -27t-11 -32l-9.5 -28.5q-6 -22 -10 -42t-6 -38q-6 -69 21 -98v1q17 -13 33.5 -7t31 20t26 31t17.5 26q1 0 2 -1t0 -4q-10 -23 -24.5 -42t-31 -32t-32.5 -20t-29 -7q-29 0 -42 32.5t-8 79.5q2 22 6.5 44
t12 46t17.5 51.5t24 60.5l-2 -1q-5 0 -23.5 3.5t-33.5 8.5l-8 3l-17 -27q-55 -85 -108 -130t-102 -45q-7 0 -15 2zM71 176q-17 -14 -27 -37t-13 -47q-2 -16 1.5 -31t11.5 -27t21 -19.5t31 -7.5q40 0 71.5 21t61.5 65q5 7 13.5 20.5l17 27t15.5 25t9 14.5l-22 8
q-30 11 -53.5 14t-43.5 4q-56 0 -94 -31v1zM358 278q-8 -12 -17 -28t-17.5 -30.5t-13.5 -24l-5 -9.5l18 -6q8 -4 18.5 -7.5t26.5 -3.5q2 0 3.5 3.5l7.5 17.5q28 68 55 115.5t51 70.5l8 7h-2q-21 -3 -38 -9.5t-32.5 -18.5t-30.5 -31t-32 -46zM539 455q2 0 2 -4q0 -2 -6.5 -9
t-15 -14.5t-15.5 -13t-8 -5.5l1 -1q0 -1 -1 -1q-5 0 -5 3q0 1 1 2.5t1 2.5q-3 3 -7 8t-4 10t15 14.5t31 9.5q10 0 11 -2zM505 424q4 3 9 9.5t5 7.5q0 3 -8 3t-9.5 -0.5t-2.5 -5.5v-6t1 -6l2 -5z" />
    <glyph glyph-name="AE" unicode="&#xc6;" horiz-adv-x="554" 
d="M689 388v-2q0 -1 1 -1q0 -7 -8 -14t-21.5 -12.5t-30.5 -9t-35 -3.5q-21 0 -46 2.5t-63 8.5q-5 -8 -19 -31.5t-22 -47.5l-3 -10v1q-2 -2 -4.5 -10.5t-4.5 -17.5l-6 -24h6h8q2 0 20 -3t39 -7t38 -6.5t17 -1.5q0 -4 -4.5 -8.5t-11.5 -8t-15 -5.5t-15 -2q-6 0 -24 5l-31 7
l-4 -8v1q-5 -8 -17.5 -14t-25.5 -8q-17 -45 -39 -76.5t-51 -60.5l-12 -12q41 -12 85.5 -19.5t73.5 -7.5q41 0 59.5 6t26.5 22v-1l5 9l3 -3q0 -12 -12.5 -23t-32 -18.5t-44 -12t-48.5 -4.5q-9 0 -23.5 1.5t-32 4.5t-36 7t-36.5 9l-20 5l-6 -3l-17 -8q-8 -5 -16.5 -6t-15.5 -2
q-11 0 -15.5 5t-4.5 10q0 16 19.5 26t41.5 10q5 0 11 -0.5t11 -0.5l12 -3l8 6l5 7q16 16 31 47.5t25 62.5l6 18q0 4 -15.5 6t-44.5 11l-8 3l-16 -27q-98 -176 -196 -176q-15 0 -29 6.5t-25.5 18t-18.5 27.5t-7 35q0 34 13 63.5t34.5 51.5t48.5 34.5t55 12.5q22 0 49.5 -7
t63.5 -18l16 -5l1 2l4 6q2 3 5.5 7.5t2.5 4.5v-1q29 63 55 100t55 57q-5 1 -9.5 1h-9.5q-45 0 -77 -12.5t-53 -32t-33 -43t-18 -45.5q-1 0 -1 5v7q2 27 19.5 52.5t46.5 45.5t66.5 32t79.5 12h33q13 4 28 4h10t4 -1l2 -5l9 5q15 9 28 9q3 0 7 -0.5t4 -2.5q0 -4 -1.5 -4.5
t-9.5 -0.5q-11 0 -18.5 -3t-9.5 -5q-1 -1 -2 -1q0 -2 18.5 -4.5t34.5 -4.5l17 -2q14 -2 29 -3t23 -1q24 0 34 4t13 8.5t3 8.5t5 4q1 0 6 -3v-1zM235 90q5 8 13 22t15.5 27.5t13.5 24.5t6 13l-21 8q-32 11 -56.5 14.5t-44.5 4.5q-26 0 -49 -8.5t-40 -24t-27 -37.5t-10 -48
q0 -15 5.5 -30t15 -27t23 -19.5t29.5 -7.5q38 0 68.5 22t58.5 66zM436 325q6 12 11.5 21t9.5 15q-4 0 -7.5 0.5t-7.5 0.5l-18 3q-1 -1 -1 -2h-1l-11 -6q-7 -5 -16 -15t-14 -15q-4 -5 -16.5 -26.5t-26 -46t-24.5 -45.5t-11 -25t21 -9t47 -10h-6q0 -1 3 -1h4q0 3 8 25t19 49
t21.5 52t15.5 35zM438 175q6 4 12 12q-21 6 -28 6h-4l-10 -30q8 2 16.5 4.5t13.5 7.5zM256 -12v2q-2 0 -15 2.5t-22 2.5l-5 -3l3 -6q4 -4 14 -4q4 0 11 1.5t12 3.5z" />
    <glyph glyph-name="Ccedilla" unicode="&#xc7;" horiz-adv-x="315" 
d="M115 -99q2 -16 -16 -29q-6 -5 -9.5 -5.5t-9.5 2.5q-4 3 -7 7.5t-3 6.5q0 1 8 7q16 9 19 22q1 2 1 6q-3 0 -5 0.5t-4 0.5q-10 1 -20 4t-18 7q-32 15 -46 46t-12 73q0 5 0.5 12.5t1.5 15.5q2 11 5.5 22t6.5 19q19 46 52.5 92t80.5 84q79 67 153 88q24 6 39.5 8t29.5 0
q35 -6 40 -28q4 -14 -3 -31t-18 -32q-15 -20 -35.5 -39t-40.5 -32t-36 -18t-22 3q-5 6 -1.5 19t14.5 21l-1 -1q4 3 5 3.5t2 0.5t1 -1q0 -5 -2 -8q-4 -8 -1.5 -12.5t9.5 -4.5q15 0 39 14.5t40 33.5q12 14 19 29.5t5 26.5t-11 20q-7 4 -21.5 6t-28.5 0q-19 -2 -41 -8t-44 -16
t-43.5 -23t-39.5 -27q-17 -12 -32 -28.5t-29 -34.5q-20 -28 -33 -57t-20 -58q-17 -72 8 -110.5t76 -49.5q5 -1 11.5 -1.5t13.5 -0.5q8 0 16 0.5t14 1.5q33 5 70 24.5t69 40.5q8 6 14.5 10t8.5 2t-9.5 -11.5t-24.5 -18.5q-42 -29 -85 -50t-78 -26q-5 -1 -11.5 -1.5
t-12.5 -0.5h-7h1q8 -11 8 -16z" />
    <glyph glyph-name="Egrave" unicode="&#xc8;" horiz-adv-x="351" 
d="M17 -23q-4 2 -4.5 4t-0.5 5q0 8 6 14.5t15 11t20 7t21 2.5h22l13 -3l5 5q6 5 15.5 16t17.5 22q7 9 15.5 25t17 35t15.5 38t13 35q-2 0 -5.5 -4t-5.5 -7q-3 -8 -4 -8q-4 0 -4 8q0 6 3 9t7.5 6.5t10 9.5t9.5 18q14 42 30.5 72t39.5 56q3 5 6 5q-4 0 -16 1t-25.5 2.5t-25 3
t-14.5 1.5q-40 0 -71.5 -10t-53 -26.5t-33 -38t-11.5 -45.5q0 -23 13.5 -37.5t33.5 -14.5q19 0 32 11t20.5 24t10.5 24t4 11q2 0 2 -7q0 -12 -6 -24.5t-16 -23t-24.5 -17.5t-30.5 -7q-23 0 -39 18t-16 40q0 30 18.5 57t48.5 47.5t69 32.5t80 12q17 0 36.5 -3t36.5 -3l8 6
q16 12 31 12q5 0 8.5 -2t3.5 -5q-2 -5 -9.5 -3t-17.5 -3l-13 -7q9 -2 25.5 -4.5t34.5 -4.5t34.5 -3.5t26.5 -1.5q23 0 32 4t11 9t2.5 9t6.5 4q3 0 7 -4v1q3 -3 3 -5q0 -8 -9 -15.5t-23.5 -13.5t-33 -10t-36.5 -4q-17 0 -33.5 1.5t-44.5 6.5q-18 3 -25 3q-10 -11 -22 -32.5
t-20 -43.5q-2 -4 -5.5 -14t-6.5 -20t-5.5 -18l-2.5 -8h5q2 0 4.5 0.5t4.5 0.5q10 0 22.5 -1.5t33.5 -6.5q19 -5 30.5 -7t17.5 -2h8t2 -2q-2 -7 -15.5 -15.5t-27.5 -8.5q-4 0 -17.5 3t-29 6t-28.5 6t-16 3h-2l-4 -11q-11 -29 -21 -51t-21.5 -40.5t-25.5 -35t-32 -33.5
l-12 -11q38 -15 72 -20t58 -5q56 0 74 11q6 5 11 14t7 9q3 0 3 -5q-1 -12 -11.5 -22t-27 -18t-38.5 -12.5t-46 -4.5q-16 0 -43 3.5t-74 16.5l-19 6q-1 -1 -3 -1q-1 0 -2 -1l-18 -8q-16 -8 -29 -8q-12 0 -18 7zM29 -4q0 -4 5 -6t12 -2q2 0 10 2l13 4q-6 0 -14.5 3t-14.5 3
q-9 0 -11 -4zM343 455q10 0 11 -8.5t7 -16.5q7 -5 16 -8t9 -4q0 -2 -6.5 -3.5t-14.5 -1.5q-12 0 -28 7t-16 26q0 9 22 9z" />
    <glyph glyph-name="Eacute" unicode="&#xc9;" horiz-adv-x="351" 
d="M17 -23q-4 2 -4.5 4t-0.5 5q0 8 6 14.5t15 11t20 7t21 2.5h22l13 -3l5 5q6 5 15.5 16t17.5 22q7 9 15.5 25t17 35t15.5 38t13 35q-2 0 -5.5 -4t-5.5 -7q-3 -8 -4 -8q-4 0 -4 8q0 6 3 9t7.5 6.5t10 9.5t9.5 18q14 42 30.5 72t39.5 56q3 5 6 5q-4 0 -16 1t-25.5 2.5t-25 3
t-14.5 1.5q-40 0 -71.5 -10t-53 -26.5t-33 -38t-11.5 -45.5q0 -23 13.5 -37.5t33.5 -14.5q19 0 32 11t20.5 24t10.5 24t4 11q2 0 2 -7q0 -12 -6 -24.5t-16 -23t-24.5 -17.5t-30.5 -7q-23 0 -39 18t-16 40q0 30 18.5 57t48.5 47.5t69 32.5t80 12q17 0 36.5 -3t36.5 -3l8 6
q16 12 31 12q5 0 8.5 -2t3.5 -5q-2 -5 -9.5 -3t-17.5 -3l-13 -7q9 -2 25.5 -4.5t34.5 -4.5t34.5 -3.5t26.5 -1.5q23 0 32 4t11 9t2.5 9t6.5 4q3 0 7 -4v1q3 -3 3 -5q0 -8 -9 -15.5t-23.5 -13.5t-33 -10t-36.5 -4q-17 0 -33.5 1.5t-44.5 6.5q-18 3 -25 3q-10 -11 -22 -32.5
t-20 -43.5q-2 -4 -5.5 -14t-6.5 -20t-5.5 -18l-2.5 -8h5q2 0 4.5 0.5t4.5 0.5q10 0 22.5 -1.5t33.5 -6.5q19 -5 30.5 -7t17.5 -2h8t2 -2q-2 -7 -15.5 -15.5t-27.5 -8.5q-4 0 -17.5 3t-29 6t-28.5 6t-16 3h-2l-4 -11q-11 -29 -21 -51t-21.5 -40.5t-25.5 -35t-32 -33.5
l-12 -11q38 -15 72 -20t58 -5q56 0 74 11q6 5 11 14t7 9q3 0 3 -5q-1 -12 -11.5 -22t-27 -18t-38.5 -12.5t-46 -4.5q-16 0 -43 3.5t-74 16.5l-19 6q-1 -1 -3 -1q-1 0 -2 -1l-18 -8q-16 -8 -29 -8q-12 0 -18 7zM29 -4q0 -4 5 -6t12 -2q2 0 10 2l13 4q-6 0 -14.5 3t-14.5 3
q-9 0 -11 -4zM388 456q12 -1 17 -2.5t5 -7.5q0 -19 -16.5 -26t-28.5 -7q-8 0 -15 1.5t-7 3.5q0 1 0.5 1t0.5 1q11 0 17.5 5.5t10.5 12.5t7 12.5t9 5.5z" />
    <glyph glyph-name="Ecircumflex" unicode="&#xca;" horiz-adv-x="351" 
d="M17 -23q-4 2 -4.5 4t-0.5 5q0 8 6 14.5t15 11t20 7t21 2.5h22l13 -3l5 5q6 5 15.5 16t17.5 22q7 9 15.5 25t17 35t15.5 38t13 35q-2 0 -5.5 -4t-5.5 -7q-3 -8 -4 -8q-4 0 -4 8q0 6 3 9t7.5 6.5t10 9.5t9.5 18q14 42 30.5 72t39.5 56q3 5 6 5q-4 0 -16 1t-25.5 2.5t-25 3
t-14.5 1.5q-40 0 -71.5 -10t-53 -26.5t-33 -38t-11.5 -45.5q0 -23 13.5 -37.5t33.5 -14.5q19 0 32 11t20.5 24t10.5 24t4 11q2 0 2 -7q0 -12 -6 -24.5t-16 -23t-24.5 -17.5t-30.5 -7q-23 0 -39 18t-16 40q0 30 18.5 57t48.5 47.5t69 32.5t80 12q17 0 36.5 -3t36.5 -3l8 6
q16 12 31 12q5 0 8.5 -2t3.5 -5q-2 -5 -9.5 -3t-17.5 -3l-13 -7q9 -2 25.5 -4.5t34.5 -4.5t34.5 -3.5t26.5 -1.5q23 0 32 4t11 9t2.5 9t6.5 4q3 0 7 -4v1q3 -3 3 -5q0 -8 -9 -15.5t-23.5 -13.5t-33 -10t-36.5 -4q-17 0 -33.5 1.5t-44.5 6.5q-18 3 -25 3q-10 -11 -22 -32.5
t-20 -43.5q-2 -4 -5.5 -14t-6.5 -20t-5.5 -18l-2.5 -8h5q2 0 4.5 0.5t4.5 0.5q10 0 22.5 -1.5t33.5 -6.5q19 -5 30.5 -7t17.5 -2h8t2 -2q-2 -7 -15.5 -15.5t-27.5 -8.5q-4 0 -17.5 3t-29 6t-28.5 6t-16 3h-2l-4 -11q-11 -29 -21 -51t-21.5 -40.5t-25.5 -35t-32 -33.5
l-12 -11q38 -15 72 -20t58 -5q56 0 74 11q6 5 11 14t7 9q3 0 3 -5q-1 -12 -11.5 -22t-27 -18t-38.5 -12.5t-46 -4.5q-16 0 -43 3.5t-74 16.5l-19 6q-1 -1 -3 -1q-1 0 -2 -1l-18 -8q-16 -8 -29 -8q-12 0 -18 7zM29 -4q0 -4 5 -6t12 -2q2 0 10 2l13 4q-6 0 -14.5 3t-14.5 3
q-9 0 -11 -4zM392 442q1 -2 5 -12.5t4 -15.5q0 -4 -9 -7q-5 0 -8 4l-11 13q-10 11 -14 11q-1 -1 -3 -2q-4 -2 -7 -2l-5 -3q-11 -7 -20.5 -11t-11.5 -4q0 1 5.5 4.5t14 8.5t18 10t15.5 8q11 7 18 7q4 0 9 -9z" />
    <glyph glyph-name="Edieresis" unicode="&#xcb;" horiz-adv-x="351" 
d="M17 -23q-4 2 -4.5 4t-0.5 5q0 8 6 14.5t15 11t20 7t21 2.5h22l13 -3l5 5q6 5 15.5 16t17.5 22q7 9 15.5 25t17 35t15.5 38t13 35q-2 0 -5.5 -4t-5.5 -7q-3 -8 -4 -8q-4 0 -4 8q0 6 3 9t7.5 6.5t10 9.5t9.5 18q14 42 30.5 72t39.5 56q3 5 6 5q-4 0 -16 1t-25.5 2.5t-25 3
t-14.5 1.5q-40 0 -71.5 -10t-53 -26.5t-33 -38t-11.5 -45.5q0 -23 13.5 -37.5t33.5 -14.5q19 0 32 11t20.5 24t10.5 24t4 11q2 0 2 -7q0 -12 -6 -24.5t-16 -23t-24.5 -17.5t-30.5 -7q-23 0 -39 18t-16 40q0 30 18.5 57t48.5 47.5t69 32.5t80 12q17 0 36.5 -3t36.5 -3l8 6
q16 12 31 12q5 0 8.5 -2t3.5 -5q-2 -5 -9.5 -3t-17.5 -3l-13 -7q9 -2 25.5 -4.5t34.5 -4.5t34.5 -3.5t26.5 -1.5q23 0 32 4t11 9t2.5 9t6.5 4q3 0 7 -4v1q3 -3 3 -5q0 -8 -9 -15.5t-23.5 -13.5t-33 -10t-36.5 -4q-17 0 -33.5 1.5t-44.5 6.5q-18 3 -25 3q-10 -11 -22 -32.5
t-20 -43.5q-2 -4 -5.5 -14t-6.5 -20t-5.5 -18l-2.5 -8h5q2 0 4.5 0.5t4.5 0.5q10 0 22.5 -1.5t33.5 -6.5q19 -5 30.5 -7t17.5 -2h8t2 -2q-2 -7 -15.5 -15.5t-27.5 -8.5q-4 0 -17.5 3t-29 6t-28.5 6t-16 3h-2l-4 -11q-11 -29 -21 -51t-21.5 -40.5t-25.5 -35t-32 -33.5
l-12 -11q38 -15 72 -20t58 -5q56 0 74 11q6 5 11 14t7 9q3 0 3 -5q-1 -12 -11.5 -22t-27 -18t-38.5 -12.5t-46 -4.5q-16 0 -43 3.5t-74 16.5l-19 6q-1 -1 -3 -1q-1 0 -2 -1l-18 -8q-16 -8 -29 -8q-12 0 -18 7zM345 449q11 -4 11 -10q0 -7 -3.5 -12t-8 -8.5t-9 -5.5t-5.5 -2
q-5 0 -10 6t-5 10q0 3 10 12.5t20 9.5zM404 449q9 -4 9 -9q0 -10 -6.5 -17t-8.5 -8h1l-6 -3t-4 -1q-3 0 -9 5.5t-6 10.5q0 4 4 8t9.5 7t10 5t6.5 2zM29 -4q0 -4 5 -6t12 -2q2 0 10 2l13 4q-6 0 -14.5 3t-14.5 3q-9 0 -11 -4z" />
    <glyph glyph-name="Igrave" unicode="&#xcc;" horiz-adv-x="157" 
d="M77 289q32 53 82 78.5t98 25.5q8 0 10.5 -1.5t2.5 -6.5q0 -4 -10.5 -7t-13.5 -5q-14 -12 -30 -44.5t-39 -98.5l-6 -18l4 -1q4 -3 7.5 -6t3.5 -5q0 -1 -3 -1q-2 1 -4 3q-4 4 -10 4q-1 -2 -2 -6q-1 -3 -2.5 -6.5t-3.5 -7.5l-12 -37l3 2q4 0 11 4t13.5 9t13 11t9.5 11
q3 3 3.5 4t-0.5 2q3 -3 -1.5 -10.5t-13 -15.5t-18.5 -15t-17 -10q-2 -2 -3.5 -2.5t-2.5 -2.5q-11 -41 -20 -67t-18 -42.5t-18.5 -26t-21.5 -17.5q-14 -10 -20 -12t-8 -2q-11 0 -20 16.5t-9 45.5q0 26 9 57.5t27 58.5l6 10q-3 7 -6 15.5t-3 21.5q0 23 8 47.5t25 47.5z
M234 382q-33 -2 -63 -16.5t-52 -37t-35 -50.5t-13 -56q0 -8 0.5 -14.5t2.5 -10.5l3 -14l8 6q12 11 24.5 18t23.5 9q11 0 12.5 2.5t6.5 14.5q15 42 38 81t46 62l6 6h-8zM51 -6q9 0 20 16.5t21 39t17.5 45t9.5 34.5q0 -2 -13 -2q-15 0 -25 4.5t-20 15.5l-4 4l-3 -4
q-13 -22 -21 -48t-8 -48q0 -19 7.5 -37.5t18.5 -19.5zM143 211q-6 0 -14 -2.5t-17 -7t-17 -10t-13 -10.5l-2 -2q3 -5 11 -13.5t16 -13.5q2 -1 5 -2l6 -2l6 -1v1l1 2q0 1 2.5 9.5t5.5 19t6 20t5 12.5h-1zM224 455q10 0 11 -8.5t8 -17.5q6 -5 15.5 -8t9.5 -4q0 -2 -6.5 -3
t-14.5 -1q-12 0 -28 6.5t-16 25.5q0 5 4.5 7t16.5 3zM202 192v1v-1z" />
    <glyph glyph-name="Iacute" unicode="&#xcd;" horiz-adv-x="157" 
d="M77 289q32 53 82 78.5t98 25.5q8 0 10.5 -1.5t2.5 -6.5q0 -4 -10.5 -7t-13.5 -5q-14 -12 -30 -44.5t-39 -98.5l-6 -18l4 -1q4 -3 7.5 -6t3.5 -5q0 -1 -3 -1q-2 1 -4 3q-4 4 -10 4q-1 -2 -2 -6q-1 -3 -2.5 -6.5t-3.5 -7.5l-12 -37l3 2q4 0 11 4t13.5 9t13 11t9.5 11
q3 3 3.5 4t-0.5 2q3 -3 -1.5 -10.5t-13 -15.5t-18.5 -15t-17 -10q-2 -2 -3.5 -2.5t-2.5 -2.5q-11 -41 -20 -67t-18 -42.5t-18.5 -26t-21.5 -17.5q-14 -10 -20 -12t-8 -2q-11 0 -20 16.5t-9 45.5q0 26 9 57.5t27 58.5l6 10q-3 7 -6 15.5t-3 21.5q0 23 8 47.5t25 47.5z
M234 382q-33 -2 -63 -16.5t-52 -37t-35 -50.5t-13 -56q0 -8 0.5 -14.5t2.5 -10.5l3 -14l8 6q12 11 24.5 18t23.5 9q11 0 12.5 2.5t6.5 14.5q15 42 38 81t46 62l6 6h-8zM51 -6q9 0 20 16.5t21 39t17.5 45t9.5 34.5q0 -2 -13 -2q-15 0 -25 4.5t-20 15.5l-4 4l-3 -4
q-13 -22 -21 -48t-8 -48q0 -19 7.5 -37.5t18.5 -19.5zM143 211q-6 0 -14 -2.5t-17 -7t-17 -10t-13 -10.5l-2 -2q3 -5 11 -13.5t16 -13.5q2 -1 5 -2l6 -2l6 -1v1l1 2q0 1 2.5 9.5t5.5 19t6 20t5 12.5h-1zM273 456q11 -1 15.5 -2.5t4.5 -7.5q0 -19 -16.5 -26t-28.5 -7
q-7 0 -13.5 1.5t-6.5 3.5v2q12 0 18 5.5t10.5 12.5t7.5 12.5t9 5.5zM202 192v1v-1z" />
    <glyph glyph-name="Icircumflex" unicode="&#xce;" horiz-adv-x="157" 
d="M77 289q32 53 82 78.5t98 25.5q8 0 10.5 -1.5t2.5 -6.5q0 -4 -10.5 -7t-13.5 -5q-14 -12 -30 -44.5t-39 -98.5l-6 -18l4 -1q4 -3 7.5 -6t3.5 -5q0 -1 -3 -1q-2 1 -4 3q-4 4 -10 4q-1 -2 -2 -6q-1 -3 -2.5 -6.5t-3.5 -7.5l-12 -37l3 2q4 0 11 4t13.5 9t13 11t9.5 11
q3 3 3.5 4t-0.5 2q3 -3 -1.5 -10.5t-13 -15.5t-18.5 -15t-17 -10q-2 -2 -3.5 -2.5t-2.5 -2.5q-11 -41 -20 -67t-18 -42.5t-18.5 -26t-21.5 -17.5q-14 -10 -20 -12t-8 -2q-11 0 -20 16.5t-9 45.5q0 26 9 57.5t27 58.5l6 10q-3 7 -6 15.5t-3 21.5q0 23 8 47.5t25 47.5z
M234 382q-33 -2 -63 -16.5t-52 -37t-35 -50.5t-13 -56q0 -8 0.5 -14.5t2.5 -10.5l3 -14l8 6q12 11 24.5 18t23.5 9q11 0 12.5 2.5t6.5 14.5q15 42 38 81t46 62l6 6h-8zM51 -6q9 0 20 16.5t21 39t17.5 45t9.5 34.5q0 -2 -13 -2q-15 0 -25 4.5t-20 15.5l-4 4l-3 -4
q-13 -22 -21 -48t-8 -48q0 -19 7.5 -37.5t18.5 -19.5zM143 211q-6 0 -14 -2.5t-17 -7t-17 -10t-13 -10.5l-2 -2q3 -5 11 -13.5t16 -13.5q2 -1 5 -2l6 -2l6 -1v1l1 2q0 1 2.5 9.5t5.5 19t6 20t5 12.5h-1zM300 441q1 -3 5 -13.5t4 -14.5q0 -5 -9 -8q-3 0 -4.5 0.5t-4.5 3.5
l-10 12q-11 11 -14 11q-2 0 -4 -1q-4 -2 -6 -2l-5 -2q-12 -8 -21 -11.5t-12 -4.5v1l6 4t14.5 8.5t18 9.5t15.5 8q14 7 17 7q5 0 10 -8zM202 192v1v-1z" />
    <glyph glyph-name="Idieresis" unicode="&#xcf;" horiz-adv-x="157" 
d="M77 289q32 53 82 78.5t98 25.5q8 0 10.5 -1.5t2.5 -6.5q0 -4 -10.5 -7t-13.5 -5q-14 -12 -30 -44.5t-39 -98.5l-6 -18l4 -1q4 -3 7.5 -6t3.5 -5q0 -1 -3 -1q-2 1 -4 3q-4 4 -10 4q-1 -2 -2 -6q-1 -3 -2.5 -6.5t-3.5 -7.5l-12 -37l3 2q4 0 11 4t13.5 9t13 11t9.5 11
q3 3 3.5 4t-0.5 2q3 -3 -1.5 -10.5t-13 -15.5t-18.5 -15t-17 -10q-2 -2 -3.5 -2.5t-2.5 -2.5q-11 -41 -20 -67t-18 -42.5t-18.5 -26t-21.5 -17.5q-14 -10 -20 -12t-8 -2q-11 0 -20 16.5t-9 45.5q0 26 9 57.5t27 58.5l6 10q-3 7 -6 15.5t-3 21.5q0 23 8 47.5t25 47.5z
M234 382q-33 -2 -63 -16.5t-52 -37t-35 -50.5t-13 -56q0 -8 0.5 -14.5t2.5 -10.5l3 -14l8 6q12 11 24.5 18t23.5 9q11 0 12.5 2.5t6.5 14.5q15 42 38 81t46 62l6 6h-8zM51 -6q9 0 20 16.5t21 39t17.5 45t9.5 34.5q0 -2 -13 -2q-15 0 -25 4.5t-20 15.5l-4 4l-3 -4
q-13 -22 -21 -48t-8 -48q0 -19 7.5 -37.5t18.5 -19.5zM143 211q-6 0 -14 -2.5t-17 -7t-17 -10t-13 -10.5l-2 -2q3 -5 11 -13.5t16 -13.5q2 -1 5 -2l6 -2l6 -1v1l1 2q0 1 2.5 9.5t5.5 19t6 20t5 12.5h-1zM255 449q9 -3 9 -9q0 -7 -3.5 -12.5t-8 -9t-8.5 -5t-5 -1.5
q-5 0 -9.5 6t-4.5 9q0 4 10 13t20 9zM314 449q9 -3 9 -8q0 -11 -7.5 -17.5t-9.5 -8.5h1q-6 -3 -9 -3q-4 0 -9 5t-5 10q0 4 4 8t9 7t10 5t7 2zM202 192v1v-1z" />
    <glyph glyph-name="Eth" unicode="&#xd0;" horiz-adv-x="415" 
d="M21 102q-9 11 -15.5 27.5t-6.5 34.5q0 37 22.5 75t57.5 68.5t79 50t87 19.5q29 0 56 -8l8 -2q16 16 30 29t28 15q14 0 14 -12q0 -3 -2 -3q-1 0 -4 0.5t-8 0.5q-9 0 -16.5 -4.5t-13.5 -10.5t-9.5 -12t-4.5 -9q2 -4 6 -4q45 -22 71.5 -66.5t26.5 -98.5q0 -48 -23.5 -89
t-58 -71t-74.5 -46.5t-74 -16.5q-19 0 -40.5 6t-37.5 14l-9 -5q-9 -4 -18.5 -7t-18.5 -3q-11 0 -20 8t-9 19q0 13 12 22.5t29 9.5q13 0 40 -12l8 -4q4 0 13.5 11.5t22 32.5t26 49.5t26.5 61.5q-16 0 -27 1t-19 2v-10q0 -17 -8.5 -34.5t-21.5 -31.5t-29.5 -22.5t-32.5 -8.5
q-14 0 -32.5 9.5t-29.5 24.5zM196 189q6 0 14.5 0.5t17.5 1.5q23 60 38.5 93.5t22.5 53.5q-5 2 -5 3v-1q-17 6 -34 10t-34 4q-38 0 -73 -15.5t-63 -40.5t-44.5 -57.5t-16.5 -65.5q0 -40 21 -66.5t51 -26.5q16 0 30.5 8t24.5 21.5t16 29.5t6 33v1q-2 0 -3 0.5t-2 0.5t-2 1
q0 5 6 8.5t29 3.5zM306 328v-1l-4.5 -7.5t-5.5 -13t-12.5 -34t-24.5 -69.5l-3 -11l47 2l31 -1v-1v-1l-13 -10l-15 -9h-44h-15q-23 -55 -44 -89.5t-49 -62.5l-7 -8q8 -4 27 -9t41 -5q38 0 70.5 13t56.5 36.5t37.5 55t13.5 69.5q0 50 -20.5 87t-58.5 63l-7 6h-1zM102 1l-17 8
q-16 7 -22 7q-5 0 -5 -4t11 -8t22 -4h9z" />
    <glyph glyph-name="Ntilde" unicode="&#xd1;" horiz-adv-x="383" 
d="M18 -43q5 -4 14.5 -5.5t21.5 2.5t25.5 15t27.5 32q6 10 17 31t23 47.5t25.5 56t25.5 56t21.5 46.5t14.5 29q9 15 20 29.5t22 26t20.5 18.5t17.5 7q1 0 5 -1.5t4 -3.5q0 -1 -1 -2t-1.5 -2t-2.5 -2h1q-3 -3 -9 -3q-10 0 -16 -13t-6 -34q0 -20 6.5 -44.5t23.5 -59.5l16 -31
q2 -7 4 -11.5t3 -6.5q0 2 4 8q19 39 44 83.5t51 82t52 62.5t47 25q12 0 17.5 -8t5.5 -16q0 -10 -3 -15t-6 -5q-5 3 -9 6q-4 2 -8.5 4.5t-8.5 2.5q-8 0 -15.5 -3t-14.5 -7q-14 -9 -34.5 -37t-41.5 -63.5t-39.5 -73.5t-27.5 -66q-3 -6 -3 -9q0 -5 1.5 -12.5t1.5 -13.5
q0 -11 -4 -26t-11 -28.5t-16 -23t-19 -9.5q-3 0 -3 6q0 5 1.5 12t3.5 19q5 32 9 39.5t4 12.5q0 3 -3.5 10.5t-14.5 31.5q-10 22 -17 39.5t-11.5 31.5t-6.5 27t-2 28q0 11 4 28.5t9 28.5l-13 -23q-4 -9 -7 -15.5t-7 -15.5t-9 -22t-13 -34q-20 -52 -40 -93.5t-32 -62.5
t-26 -40.5t-29.5 -34.5t-33.5 -24.5t-38 -9.5q-8 0 -15 5t-9 14q0 9 3.5 17.5t6.5 8.5v-1q0 -1 1 -2q0 -1 -0.5 -2t-0.5 -3v-7t3 -4zM447 427q7 7 8 7v-1q0 -1 0.5 -2t0.5 -2q0 -5 -5.5 -9t-14 -7.5t-17 -5.5t-14.5 -2q-2 0 -9.5 2.5t-15.5 5.5t-16 5.5t-12 2.5q-5 0 -10 -7
v1q-3 -3 -4 -3t-1 1t3 5t8 8.5t13 8t17 3.5q5 0 13.5 -2.5t18 -6t18 -6t12.5 -2.5h1zM320 18q5 5 5 10.5v7.5q-2 -1 -3 -7.5t-2 -10.5zM343 133h-1h-1h2z" />
    <glyph glyph-name="Ograve" unicode="&#xd2;" horiz-adv-x="446" 
d="M296 451q6 0 9 -6t7 -12.5t10.5 -12.5t17.5 -6q0 -1 1 -1q0 -2 -7 -3.5t-14 -1.5q-6 0 -14 1.5t-15 5t-11.5 10t-4.5 16.5q0 5 5 6.5t16 3.5zM338 390q56 -4 90 -44.5t31 -103.5q-2 -48 -29 -105t-69.5 -109t-94.5 -90.5t-103 -50.5q-28 -6 -48.5 -2t-33.5 16.5t-18.5 31
t-3.5 40.5q-1 12 2 24.5t2 15.5q0 3 -0.5 3t-2.5 2q-30 4 -44 28.5t-12 58.5t25 78t60 85.5t85.5 74t101.5 44.5q17 3 32.5 4t29.5 -1zM341 21q37 45 57.5 97t22.5 99q2 40 -11.5 68.5t-37.5 46t-57 22t-70 -3.5q-41 -9 -78.5 -31.5t-66.5 -53.5t-46.5 -67.5t-18.5 -73.5
q-1 -15 2 -30.5t8.5 -28.5t13 -20.5t14.5 -5.5q-1 1 1.5 3.5t3.5 6.5q14 33 38 66.5t53 62t60 48.5t59 26q9 2 16.5 3t12.5 1h-1q27 -1 44 -15t19 -37q0 -10 -3.5 -24t-11 -29.5t-20.5 -30.5t-31 -27l-1 1q0 1 1.5 2.5l3.5 3.5q25 21 38 49t10.5 51.5t-22 36t-58.5 3.5
q-38 -8 -70 -30.5t-58 -53.5q-12 -14 -23 -31t-20 -34t-15.5 -32t-7.5 -24q5 -2 19 0q14 3 28 13t25.5 24t19 30t8.5 33q0 8 -3.5 11t-1.5 5q0 1 1 1q2 0 6 -3t4 -14q-1 -19 -10.5 -38t-24 -35t-32 -27.5t-35.5 -15.5l-7 -1q-1 -5 -1.5 -8.5t-1.5 -7.5q-2 -46 27 -68t77 -11
q42 9 82.5 36t69.5 62z" />
    <glyph glyph-name="Oacute" unicode="&#xd3;" horiz-adv-x="446" 
d="M355 455q12 -2 16.5 -3.5t4.5 -7.5q0 -9 -5 -15.5t-11.5 -10t-14.5 -5t-14 -1.5q-8 0 -14.5 1t-6.5 3q0 1 0.5 1t0.5 1q11 0 17.5 6t10.5 12.5t7 12.5t9 6zM338 390q56 -4 90 -44.5t31 -103.5q-2 -48 -29 -105t-69.5 -109t-94.5 -90.5t-103 -50.5q-28 -6 -48.5 -2
t-33.5 16.5t-18.5 31t-3.5 40.5q-1 12 2 24.5t2 15.5q0 3 -0.5 3t-2.5 2q-30 4 -44 28.5t-12 58.5t25 78t60 85.5t85.5 74t101.5 44.5q17 3 32.5 4t29.5 -1zM341 21q37 45 57.5 97t22.5 99q2 40 -11.5 68.5t-37.5 46t-57 22t-70 -3.5q-41 -9 -78.5 -31.5t-66.5 -53.5
t-46.5 -67.5t-18.5 -73.5q-1 -15 2 -30.5t8.5 -28.5t13 -20.5t14.5 -5.5q-1 1 1.5 3.5t3.5 6.5q14 33 38 66.5t53 62t60 48.5t59 26q9 2 16.5 3t12.5 1h-1q27 -1 44 -15t19 -37q0 -10 -3.5 -24t-11 -29.5t-20.5 -30.5t-31 -27l-1 1q0 1 1.5 2.5l3.5 3.5q25 21 38 49
t10.5 51.5t-22 36t-58.5 3.5q-38 -8 -70 -30.5t-58 -53.5q-12 -14 -23 -31t-20 -34t-15.5 -32t-7.5 -24q5 -2 19 0q14 3 28 13t25.5 24t19 30t8.5 33q0 8 -3.5 11t-1.5 5q0 1 1 1q2 0 6 -3t4 -14q-1 -19 -10.5 -38t-24 -35t-32 -27.5t-35.5 -15.5l-7 -1q-1 -5 -1.5 -8.5
t-1.5 -7.5q-2 -46 27 -68t77 -11q42 9 82.5 36t69.5 62z" />
    <glyph glyph-name="Ocircumflex" unicode="&#xd4;" horiz-adv-x="446" 
d="M369 441q2 -2 5.5 -12.5t3.5 -15.5t-9 -6q-3 0 -4 0.5l-5 2.5l-10 13q-10 11 -13 11t-11 -4l-5 -3q-11 -7 -20.5 -10.5t-11.5 -3.5h-1q0 1 6 4.5t14.5 8t18 9.5t15.5 8q13 7 17 7q5 0 10 -9zM338 390q56 -4 90 -44.5t31 -103.5q-2 -48 -29 -105t-69.5 -109t-94.5 -90.5
t-103 -50.5q-28 -6 -48.5 -2t-33.5 16.5t-18.5 31t-3.5 40.5q-1 12 2 24.5t2 15.5q0 3 -0.5 3t-2.5 2q-30 4 -44 28.5t-12 58.5t25 78t60 85.5t85.5 74t101.5 44.5q17 3 32.5 4t29.5 -1zM341 21q37 45 57.5 97t22.5 99q2 40 -11.5 68.5t-37.5 46t-57 22t-70 -3.5
q-41 -9 -78.5 -31.5t-66.5 -53.5t-46.5 -67.5t-18.5 -73.5q-1 -15 2 -30.5t8.5 -28.5t13 -20.5t14.5 -5.5q-1 1 1.5 3.5t3.5 6.5q14 33 38 66.5t53 62t60 48.5t59 26q9 2 16.5 3t12.5 1h-1q27 -1 44 -15t19 -37q0 -10 -3.5 -24t-11 -29.5t-20.5 -30.5t-31 -27l-1 1
q0 1 1.5 2.5l3.5 3.5q25 21 38 49t10.5 51.5t-22 36t-58.5 3.5q-38 -8 -70 -30.5t-58 -53.5q-12 -14 -23 -31t-20 -34t-15.5 -32t-7.5 -24q5 -2 19 0q14 3 28 13t25.5 24t19 30t8.5 33q0 8 -3.5 11t-1.5 5q0 1 1 1q2 0 6 -3t4 -14q-1 -19 -10.5 -38t-24 -35t-32 -27.5
t-35.5 -15.5l-7 -1q-1 -5 -1.5 -8.5t-1.5 -7.5q-2 -46 27 -68t77 -11q42 9 82.5 36t69.5 62z" />
    <glyph glyph-name="Otilde" unicode="&#xd5;" horiz-adv-x="446" 
d="M389 428q6 7 8 7t2 -4q0 -5 -6 -9.5t-14.5 -7.5t-17 -5t-14.5 -2q-3 0 -10 2.5t-15.5 5.5t-16.5 5.5t-11 2.5q-5 0 -10 -8v1q-3 -3 -4 -3q-2 0 -2 2q0 1 3 5t8.5 8.5t13.5 8t17 3.5q5 0 13.5 -2.5t18 -6t18 -6t12.5 -2.5h2zM338 390q56 -4 90 -44.5t31 -103.5
q-2 -48 -29 -105t-69.5 -109t-94.5 -90.5t-103 -50.5q-28 -6 -48.5 -2t-33.5 16.5t-18.5 31t-3.5 40.5q-1 12 2 24.5t2 15.5q0 3 -0.5 3t-2.5 2q-30 4 -44 28.5t-12 58.5t25 78t60 85.5t85.5 74t101.5 44.5q17 3 32.5 4t29.5 -1zM341 21q37 45 57.5 97t22.5 99
q2 40 -11.5 68.5t-37.5 46t-57 22t-70 -3.5q-41 -9 -78.5 -31.5t-66.5 -53.5t-46.5 -67.5t-18.5 -73.5q-1 -15 2 -30.5t8.5 -28.5t13 -20.5t14.5 -5.5q-1 1 1.5 3.5t3.5 6.5q14 33 38 66.5t53 62t60 48.5t59 26q9 2 16.5 3t12.5 1h-1q27 -1 44 -15t19 -37q0 -10 -3.5 -24
t-11 -29.5t-20.5 -30.5t-31 -27l-1 1q0 1 1.5 2.5l3.5 3.5q25 21 38 49t10.5 51.5t-22 36t-58.5 3.5q-38 -8 -70 -30.5t-58 -53.5q-12 -14 -23 -31t-20 -34t-15.5 -32t-7.5 -24q5 -2 19 0q14 3 28 13t25.5 24t19 30t8.5 33q0 8 -3.5 11t-1.5 5q0 1 1 1q2 0 6 -3t4 -14
q-1 -19 -10.5 -38t-24 -35t-32 -27.5t-35.5 -15.5l-7 -1q-1 -5 -1.5 -8.5t-1.5 -7.5q-2 -46 27 -68t77 -11q42 9 82.5 36t69.5 62z" />
    <glyph glyph-name="Odieresis" unicode="&#xd6;" horiz-adv-x="446" 
d="M338 390q56 -4 90 -44.5t31 -103.5q-2 -48 -29 -105t-69.5 -109t-94.5 -90.5t-103 -50.5q-28 -6 -48.5 -2t-33.5 16.5t-18.5 31t-3.5 40.5q-1 12 2 24.5t2 15.5q0 3 -0.5 3t-2.5 2q-30 4 -44 28.5t-12 58.5t25 78t60 85.5t85.5 74t101.5 44.5q17 3 32.5 4t29.5 -1z
M341 21q37 45 57.5 97t22.5 99q2 40 -11.5 68.5t-37.5 46t-57 22t-70 -3.5q-41 -9 -78.5 -31.5t-66.5 -53.5t-46.5 -67.5t-18.5 -73.5q-1 -15 2 -30.5t8.5 -28.5t13 -20.5t14.5 -5.5q-1 1 1.5 3.5t3.5 6.5q14 33 38 66.5t53 62t60 48.5t59 26q9 2 16.5 3t12.5 1h-1
q27 -1 44 -15t19 -37q0 -10 -3.5 -24t-11 -29.5t-20.5 -30.5t-31 -27l-1 1q0 1 1.5 2.5l3.5 3.5q25 21 38 49t10.5 51.5t-22 36t-58.5 3.5q-38 -8 -70 -30.5t-58 -53.5q-12 -14 -23 -31t-20 -34t-15.5 -32t-7.5 -24q5 -2 19 0q14 3 28 13t25.5 24t19 30t8.5 33q0 8 -3.5 11
t-1.5 5q0 1 1 1q2 0 6 -3t4 -14q-1 -19 -10.5 -38t-24 -35t-32 -27.5t-35.5 -15.5l-7 -1q-1 -5 -1.5 -8.5t-1.5 -7.5q-2 -46 27 -68t77 -11q42 9 82.5 36t69.5 62zM328 449q9 -3 9 -9q0 -7 -3.5 -12.5t-8 -9t-8.5 -5t-5 -1.5q-5 0 -9.5 6t-4.5 9q0 4 10 13t20 9zM386 449
q10 -3 10 -8q0 -11 -7.5 -17.5t-9.5 -8.5h1q-6 -3 -9 -3q-4 0 -9 5t-5 10q0 4 4 8t9 7t9.5 5t6.5 2z" />
    <glyph glyph-name="Oslash" unicode="&#xd8;" horiz-adv-x="420" 
d="M342 429q0 -2 -1.5 -9.5t-6.5 -26.5h2q57 -5 90 -45t31 -104q-2 -41 -22.5 -89t-53.5 -93.5t-74.5 -85t-85.5 -63.5q-2 -8 -3 -13.5t-1 -7.5l-3 -12l-9 -7q-7 -5 -13 -9.5t-7 -4.5l-1 2q0 2 8 39q-8 -4 -15.5 -6.5t-15.5 -4.5q-29 -6 -49.5 -1.5t-33.5 16.5t-18.5 30.5
t-3.5 40.5q0 12 3.5 24.5t1.5 15.5q0 3 -1 3t-3 2q-29 5 -43 29.5t-12 57.5q2 35 25 79t60 85t85.5 73.5t101.5 44.5q10 2 19.5 3t18.5 2l5 17.5t3 5.5q2 1 5 4l6 6q7 4 8.5 4t2.5 -2zM338 23q38 45 58.5 97.5t22.5 98.5q3 57 -23.5 90.5t-70.5 44.5l-16 -70l-8 -27
q5 1 8.5 1.5t5.5 0.5v-1q26 -1 43 -15t18 -37q0 -10 -3.5 -24t-11 -29.5t-20.5 -30.5t-31 -27q-1 0 -0.5 0.5t-0.5 0.5l6 6q24 20 37 46t12 48.5t-16.5 37t-48.5 11.5l-19 -81l-33 -138l-19 -87q31 14 59.5 36t50.5 48zM77 51q13 32 35.5 64.5t50 60t57.5 48t58 28.5l25 105
q-14 1 -29 0t-31 -5q-41 -9 -78.5 -31.5t-66.5 -53.5t-47 -67.5t-19 -73.5q-1 -15 2.5 -30.5t9 -28.5t12.5 -20.5t14 -5.5q-1 1 2 3.5t5 6.5zM200 -72l18 77l57 235q-35 -9 -65.5 -31t-54.5 -51q-12 -14 -23 -30.5t-20 -33.5t-15.5 -32.5t-8.5 -25.5q6 -2 19 1q14 3 28.5 13
t26 24t19 30t8.5 33q0 8 -3.5 11t-2.5 5q0 2 2 2q1 0 5.5 -3t3.5 -14q-1 -19 -10 -38t-23.5 -35t-32.5 -28t-36 -16l-7 -1q0 -4 -1 -8l-2 -8q-2 -46 27.5 -68t77.5 -11z" />
    <glyph glyph-name="Ugrave" unicode="&#xd9;" horiz-adv-x="390" 
d="M438 -33q2 0 2 -1t-3 -7q-4 -6 -17.5 -20t-30.5 -28.5t-34 -25.5t-29 -11q-20 0 -27 15t-7 36q0 17 5.5 45.5t15 62.5t23 71t29.5 72q-1 -1 -1 -1.5t-2 -2.5q-16 -20 -41 -49t-54.5 -56t-59 -46.5t-54.5 -19.5q-14 0 -23 6.5t-9 21.5q0 17 9 44.5t31 65.5q19 34 31 55
t19 35t11.5 23.5t8.5 20.5q0 8 2.5 16.5t2.5 16.5q0 23 -15 36t-41 13q-28 0 -57.5 -15.5t-53.5 -40t-39 -56t-15 -63.5q2 -24 15.5 -38.5t34.5 -14.5q13 0 24.5 6.5t21 16.5t16 22t8.5 22q0 2 1.5 0.5t1.5 -3.5q0 -14 -8.5 -28t-21 -24.5t-27 -17t-27.5 -5.5
q-21 2 -37.5 16.5t-16.5 42.5q0 37 21 73.5t53 65.5t68.5 47.5t68.5 18.5q26 0 44 -14t18 -38q0 -14 -3 -27t-10.5 -30t-21 -40t-33.5 -56q-25 -45 -37 -76.5t-12 -47.5q0 -14 5 -21t19 -7q15 0 40.5 17t55 46t60.5 69t57 86q19 33 33 54t23.5 33t16 16.5t11.5 4.5q2 0 2 -3
q0 -4 -5 -7v1q-5 -5 -17 -23t-22 -41q-24 -53 -44 -102t-33.5 -91t-21 -76.5t-7.5 -58.5q0 -48 25 -48q8 0 22 10.5t27.5 23t24 23zM314 455q10 0 11 -8.5t7 -17.5q7 -5 16 -8t9 -4q0 -2 -6 -3t-14 -1q-13 0 -29 6.5t-16 25.5q0 9 22 10z" />
    <glyph glyph-name="Uacute" unicode="&#xda;" horiz-adv-x="390" 
d="M438 -33q2 0 2 -1t-3 -7q-4 -6 -17.5 -20t-30.5 -28.5t-34 -25.5t-29 -11q-20 0 -27 15t-7 36q0 17 5.5 45.5t15 62.5t23 71t29.5 72q-1 -1 -1 -1.5t-2 -2.5q-16 -20 -41 -49t-54.5 -56t-59 -46.5t-54.5 -19.5q-14 0 -23 6.5t-9 21.5q0 17 9 44.5t31 65.5q19 34 31 55
t19 35t11.5 23.5t8.5 20.5q0 8 2.5 16.5t2.5 16.5q0 23 -15 36t-41 13q-28 0 -57.5 -15.5t-53.5 -40t-39 -56t-15 -63.5q2 -24 15.5 -38.5t34.5 -14.5q13 0 24.5 6.5t21 16.5t16 22t8.5 22q0 2 1.5 0.5t1.5 -3.5q0 -14 -8.5 -28t-21 -24.5t-27 -17t-27.5 -5.5
q-21 2 -37.5 16.5t-16.5 42.5q0 37 21 73.5t53 65.5t68.5 47.5t68.5 18.5q26 0 44 -14t18 -38q0 -14 -3 -27t-10.5 -30t-21 -40t-33.5 -56q-25 -45 -37 -76.5t-12 -47.5q0 -14 5 -21t19 -7q15 0 40.5 17t55 46t60.5 69t57 86q19 33 33 54t23.5 33t16 16.5t11.5 4.5q2 0 2 -3
q0 -4 -5 -7v1q-5 -5 -17 -23t-22 -41q-24 -53 -44 -102t-33.5 -91t-21 -76.5t-7.5 -58.5q0 -48 25 -48q8 0 22 10.5t27.5 23t24 23zM358 455q21 -1 21 -10q0 -19 -16 -25.5t-29 -6.5q-7 0 -13.5 1t-6.5 3q0 1 1 1q11 0 17 6t10 12.5t7 12.5t9 6z" />
    <glyph glyph-name="Ucircumflex" unicode="&#xdb;" horiz-adv-x="390" 
d="M438 -33q2 0 2 -1t-3 -7q-4 -6 -17.5 -20t-30.5 -28.5t-34 -25.5t-29 -11q-20 0 -27 15t-7 36q0 17 5.5 45.5t15 62.5t23 71t29.5 72q-1 -1 -1 -1.5t-2 -2.5q-16 -20 -41 -49t-54.5 -56t-59 -46.5t-54.5 -19.5q-14 0 -23 6.5t-9 21.5q0 17 9 44.5t31 65.5q19 34 31 55
t19 35t11.5 23.5t8.5 20.5q0 8 2.5 16.5t2.5 16.5q0 23 -15 36t-41 13q-28 0 -57.5 -15.5t-53.5 -40t-39 -56t-15 -63.5q2 -24 15.5 -38.5t34.5 -14.5q13 0 24.5 6.5t21 16.5t16 22t8.5 22q0 2 1.5 0.5t1.5 -3.5q0 -14 -8.5 -28t-21 -24.5t-27 -17t-27.5 -5.5
q-21 2 -37.5 16.5t-16.5 42.5q0 37 21 73.5t53 65.5t68.5 47.5t68.5 18.5q26 0 44 -14t18 -38q0 -14 -3 -27t-10.5 -30t-21 -40t-33.5 -56q-25 -45 -37 -76.5t-12 -47.5q0 -14 5 -21t19 -7q15 0 40.5 17t55 46t60.5 69t57 86q19 33 33 54t23.5 33t16 16.5t11.5 4.5q2 0 2 -3
q0 -4 -5 -7v1q-5 -5 -17 -23t-22 -41q-24 -53 -44 -102t-33.5 -91t-21 -76.5t-7.5 -58.5q0 -48 25 -48q8 0 22 10.5t27.5 23t24 23zM396 441q1 -2 4.5 -13t3.5 -15q0 -5 -8 -7q-3 0 -4.5 0.5t-4.5 3.5l-11 12q-8 11 -13 11q-2 0 -10 -4l-5 -2q-12 -7 -21 -10.5t-12 -4.5v1
l6 4t14 8.5t17.5 9.5t15.5 8q13 6 18 6t10 -8z" />
    <glyph glyph-name="Udieresis" unicode="&#xdc;" horiz-adv-x="390" 
d="M438 -33q2 0 2 -1t-3 -7q-4 -6 -17.5 -20t-30.5 -28.5t-34 -25.5t-29 -11q-20 0 -27 15t-7 36q0 17 5.5 45.5t15 62.5t23 71t29.5 72q-1 -1 -1 -1.5t-2 -2.5q-16 -20 -41 -49t-54.5 -56t-59 -46.5t-54.5 -19.5q-14 0 -23 6.5t-9 21.5q0 17 9 44.5t31 65.5q19 34 31 55
t19 35t11.5 23.5t8.5 20.5q0 8 2.5 16.5t2.5 16.5q0 23 -15 36t-41 13q-28 0 -57.5 -15.5t-53.5 -40t-39 -56t-15 -63.5q2 -24 15.5 -38.5t34.5 -14.5q13 0 24.5 6.5t21 16.5t16 22t8.5 22q0 2 1.5 0.5t1.5 -3.5q0 -14 -8.5 -28t-21 -24.5t-27 -17t-27.5 -5.5
q-21 2 -37.5 16.5t-16.5 42.5q0 37 21 73.5t53 65.5t68.5 47.5t68.5 18.5q26 0 44 -14t18 -38q0 -14 -3 -27t-10.5 -30t-21 -40t-33.5 -56q-25 -45 -37 -76.5t-12 -47.5q0 -14 5 -21t19 -7q15 0 40.5 17t55 46t60.5 69t57 86q19 33 33 54t23.5 33t16 16.5t11.5 4.5q2 0 2 -3
q0 -4 -5 -7v1q-5 -5 -17 -23t-22 -41q-24 -53 -44 -102t-33.5 -91t-21 -76.5t-7.5 -58.5q0 -48 25 -48q8 0 22 10.5t27.5 23t24 23zM333 450q10 -3 10 -9q0 -7 -3.5 -12.5t-8 -9t-9 -5t-5.5 -1.5q-4 0 -9 6t-5 9t10 12.5t20 9.5zM392 450q9 -3 9 -9q0 -10 -7 -16.5t-9 -8.5
q-3 -3 -9 -3q-4 0 -9 5t-5 10q0 4 4 8t9 7t10 5t7 2z" />
    <glyph glyph-name="Yacute" unicode="&#xdd;" horiz-adv-x="391" 
d="M329 80q12 45 24 84q-25 -33 -51 -62.5t-51.5 -52t-50 -35.5t-45.5 -13q-14 0 -23.5 6.5t-9.5 21.5q0 17 9 44.5t31 65.5q19 34 31 55t19.5 35t11.5 23.5t7 20.5q2 8 4 16.5t2 16.5q0 49 -56 49q-28 0 -57.5 -15.5t-53.5 -40t-39 -56t-15 -63.5q2 -24 16 -38.5t34 -14.5
q13 0 25 6.5t21.5 16.5t16 22t8.5 22q0 2 1.5 0.5t1.5 -3.5q0 -14 -8.5 -28t-21 -24.5t-27 -17t-27.5 -5.5q-22 2 -38.5 16.5t-16.5 42.5q0 37 21.5 73.5t53 65.5t68.5 47.5t68 18.5q26 0 44 -14t18 -38q0 -14 -3 -27t-11 -30t-21 -40t-32 -56q-26 -45 -37.5 -76.5
t-11.5 -47.5q0 -14 4 -21t19 -7q12 0 32.5 13.5t45.5 37t51.5 54t50.5 63.5q8 24 15 43t12 33q9 21 20.5 41t23.5 35.5t24 25t22 9.5q6 0 11 -4.5t5 -9.5q0 -7 -6 -7q-4 0 -6 2q-8 2 -11 2q-8 0 -17.5 -12t-21.5 -40t-27 -73.5t-34 -111.5q-9 -29 -15.5 -50.5t-12.5 -38
t-11.5 -30t-12.5 -27.5q-39 -81 -82.5 -113.5t-78.5 -32.5q-14 0 -26.5 6.5t-22.5 18t-15.5 27t-5.5 33.5q0 9 4.5 20t11 21.5t13.5 17.5t13 7v-1q0 -1 -4 -4.5t-8.5 -9t-8.5 -13.5t-4 -18q0 -15 5.5 -29t14.5 -25.5t22 -18.5t28 -7q31 0 54 20t40 50t30 64.5t23 63.5z
M368 455q20 -1 20 -10t-5 -15.5t-11.5 -10t-14.5 -5t-14 -1.5q-7 0 -13.5 1t-6.5 3v1q12 0 18 6t10.5 12.5t7.5 12.5t9 6z" />
    <glyph glyph-name="agrave" unicode="&#xe0;" 
d="M175 65q14 17 19 19q12 6 -15 -24q-14 -19 -24 -29t-18 -16q-31 -25 -45 -17q-15 12 -9 46q2 4 2 5v2l-6 -5q-7 -8 -17.5 -18t-18.5 -16q-10 -6 -17.5 -10t-15.5 -4q-13 0 -18 16q-2 4 -2 17q1 16 9 35.5t21 39t30 37t36 31.5q40 25 54 17q9 -6 9 -16l1 -4l3 3q6 5 13 10
t9 7q4 1 9 -2q2 -2 0.5 -6t-3.5 -6h1q-2 -2 -8 -2q-3 0 -4.5 -1t-5.5 -6q-9 -11 -17.5 -27.5t-15 -34.5t-11 -35t-4.5 -28q2 -11 3.5 -15.5t6.5 -4.5h4t3 1q4 2 16.5 14t26.5 27h-1zM102 98q6 14 12.5 25t12.5 21q6 7 6 11q-2 7 -9 11q-9 5 -24 -0.5t-27 -18.5
q-11 -11 -23 -29t-18 -35q-2 -4 -5 -14.5t-3 -20.5t5 -16.5t17 -1.5q4 2 13 10.5t20 22.5q7 8 12.5 16.5t10.5 18.5zM97 253q10 0 11 -8.5t8 -16.5q6 -7 15.5 -9t9.5 -4t-6.5 -3.5t-14.5 -1.5q-6 0 -13 1.5t-14 5t-11.5 10t-4.5 16.5q0 5 4.5 6.5t15.5 3.5z" />
    <glyph glyph-name="aacute" unicode="&#xe1;" 
d="M175 65q14 17 19 19q12 6 -15 -24q-14 -19 -24 -29t-18 -16q-31 -25 -45 -17q-15 12 -9 46q2 4 2 5v2l-6 -5q-7 -8 -17.5 -18t-18.5 -16q-10 -6 -17.5 -10t-15.5 -4q-13 0 -18 16q-2 4 -2 17q1 16 9 35.5t21 39t30 37t36 31.5q40 25 54 17q9 -6 9 -16l1 -4l3 3q6 5 13 10
t9 7q4 1 9 -2q2 -2 0.5 -6t-3.5 -6h1q-2 -2 -8 -2q-3 0 -4.5 -1t-5.5 -6q-9 -11 -17.5 -27.5t-15 -34.5t-11 -35t-4.5 -28q2 -11 3.5 -15.5t6.5 -4.5h4t3 1q4 2 16.5 14t26.5 27h-1zM102 98q6 14 12.5 25t12.5 21q6 7 6 11q-2 7 -9 11q-9 5 -24 -0.5t-27 -18.5
q-11 -11 -23 -29t-18 -35q-2 -4 -5 -14.5t-3 -20.5t5 -16.5t17 -1.5q4 2 13 10.5t20 22.5q7 8 12.5 16.5t10.5 18.5zM144 254q20 -1 20 -9q0 -10 -5 -16.5t-11.5 -10.5t-14.5 -5.5t-14 -1.5q-7 0 -13.5 2t-6.5 4q12 0 18 6t10.5 12.5t7.5 12.5t9 6z" />
    <glyph glyph-name="acircumflex" unicode="&#xe2;" 
d="M152 240q1 -3 5 -13.5t4 -14.5q0 -6 -9 -7q-5 0 -8 3l-11 13q-5 7 -8.5 9t-5.5 2q-2 -1 -4 -1q-2 -1 -3 -1t-3 -1l-4 -3q-12 -7 -21 -11t-12 -4h-1q0 1 6 5t14 8.5t17.5 9.5t15.5 8q13 6 19 6q4 0 9 -8zM175 65q14 17 19 19q12 6 -15 -24q-14 -19 -24 -29t-18 -16
q-31 -25 -45 -17q-15 12 -9 46q2 4 2 5v2l-6 -5q-7 -8 -17.5 -18t-18.5 -16q-10 -6 -17.5 -10t-15.5 -4q-13 0 -18 16q-2 4 -2 17q1 16 9 35.5t21 39t30 37t36 31.5q40 25 54 17q9 -6 9 -16l1 -4l3 3q6 5 13 10t9 7q4 1 9 -2q2 -2 0.5 -6t-3.5 -6h1q-2 -2 -8 -2
q-3 0 -4.5 -1t-5.5 -6q-9 -11 -17.5 -27.5t-15 -34.5t-11 -35t-4.5 -28q2 -11 3.5 -15.5t6.5 -4.5h4t3 1q4 2 16.5 14t26.5 27h-1zM102 98q6 14 12.5 25t12.5 21q6 7 6 11q-2 7 -9 11q-9 5 -24 -0.5t-27 -18.5q-11 -11 -23 -29t-18 -35q-2 -4 -5 -14.5t-3 -20.5t5 -16.5
t17 -1.5q4 2 13 10.5t20 22.5q7 8 12.5 16.5t10.5 18.5z" />
    <glyph glyph-name="atilde" unicode="&#xe3;" 
d="M185 227q6 6 7 6q2 0 2 -3q0 -5 -6 -9.5t-14 -8t-16.5 -5.5t-14.5 -2q-3 0 -10.5 2.5t-15.5 5.5t-16 5.5t-11 2.5q-4 0 -11 -7v1q-4 -4 -3 -4q-2 0 -2 3q0 1 3 5t8.5 8t13.5 7.5t17 3.5q5 0 13.5 -2.5t18 -6t17.5 -6t12 -2.5h2zM175 65q14 17 19 19q12 6 -15 -24
q-14 -19 -24 -29t-18 -16q-31 -25 -45 -17q-15 12 -9 46q2 4 2 5v2l-6 -5q-7 -8 -17.5 -18t-18.5 -16q-10 -6 -17.5 -10t-15.5 -4q-13 0 -18 16q-2 4 -2 17q1 16 9 35.5t21 39t30 37t36 31.5q40 25 54 17q9 -6 9 -16l1 -4l3 3q6 5 13 10t9 7q4 1 9 -2q2 -2 0.5 -6t-3.5 -6h1
q-2 -2 -8 -2q-3 0 -4.5 -1t-5.5 -6q-9 -11 -17.5 -27.5t-15 -34.5t-11 -35t-4.5 -28q2 -11 3.5 -15.5t6.5 -4.5h4t3 1q4 2 16.5 14t26.5 27h-1zM102 98q6 14 12.5 25t12.5 21q6 7 6 11q-2 7 -9 11q-9 5 -24 -0.5t-27 -18.5q-11 -11 -23 -29t-18 -35q-2 -4 -5 -14.5t-3 -20.5
t5 -16.5t17 -1.5q4 2 13 10.5t20 22.5q7 8 12.5 16.5t10.5 18.5z" />
    <glyph glyph-name="adieresis" unicode="&#xe4;" 
d="M175 65q14 17 19 19q12 6 -15 -24q-14 -19 -24 -29t-18 -16q-31 -25 -45 -17q-15 12 -9 46q2 4 2 5v2l-6 -5q-7 -8 -17.5 -18t-18.5 -16q-10 -6 -17.5 -10t-15.5 -4q-13 0 -18 16q-2 4 -2 17q1 16 9 35.5t21 39t30 37t36 31.5q40 25 54 17q9 -6 9 -16l1 -4l3 3q6 5 13 10
t9 7q4 1 9 -2q2 -2 0.5 -6t-3.5 -6h1q-2 -2 -8 -2q-3 0 -4.5 -1t-5.5 -6q-9 -11 -17.5 -27.5t-15 -34.5t-11 -35t-4.5 -28q2 -11 3.5 -15.5t6.5 -4.5h4t3 1q4 2 16.5 14t26.5 27h-1zM102 98q6 14 12.5 25t12.5 21q6 7 6 11q-2 7 -9 11q-9 5 -24 -0.5t-27 -18.5
q-11 -11 -23 -29t-18 -35q-2 -4 -5 -14.5t-3 -20.5t5 -16.5t17 -1.5q4 2 13 10.5t20 22.5q7 8 12.5 16.5t10.5 18.5zM112 249q9 -3 9 -10t-3.5 -12t-8 -8.5t-8.5 -5.5t-5 -2q-4 0 -9 6t-5 11q0 1 3 4.5t7.5 7t9.5 6.5t10 3zM171 249q9 -3 9 -9q0 -9 -7.5 -16t-9.5 -8h1
q-5 -5 -9 -5t-9 5.5t-5 11.5q0 4 4 8t9 7t10 4.5t7 1.5z" />
    <glyph glyph-name="aring" unicode="&#xe5;" 
d="M175 65q14 17 19 19q12 6 -15 -24q-14 -19 -24 -29t-18 -16q-31 -25 -45 -17q-15 12 -9 46q2 4 2 5v2l-6 -5q-7 -8 -17.5 -18t-18.5 -16q-10 -6 -17.5 -10t-15.5 -4q-13 0 -18 16q-2 4 -2 17q1 16 9 35.5t21 39t30 37t36 31.5q40 25 54 17q9 -6 9 -16l1 -4l3 3q6 5 13 10
t9 7q4 1 9 -2q2 -2 0.5 -6t-3.5 -6h1q-2 -2 -8 -2q-3 0 -4.5 -1t-5.5 -6q-9 -11 -17.5 -27.5t-15 -34.5t-11 -35t-4.5 -28q2 -11 3.5 -15.5t6.5 -4.5h4t3 1q4 2 16.5 14t26.5 27h-1zM102 98q6 14 12.5 25t12.5 21q6 7 6 11q-2 7 -9 11q-9 5 -24 -0.5t-27 -18.5
q-11 -11 -23 -29t-18 -35q-2 -4 -5 -14.5t-3 -20.5t5 -16.5t17 -1.5q4 2 13 10.5t20 22.5q7 8 12.5 16.5t10.5 18.5zM175 256q0 -1 0.5 -2t0.5 -3t-6.5 -9t-15 -14.5t-15.5 -13t-8 -5.5l1 -1h-1q-5 0 -5 2v1q1 0 1.5 2t0.5 4q-3 2 -7 7t-4 9q0 5 15 15.5t31 10.5q9 0 12 -3z
M141 225q3 3 8 9t5 8q0 3 -8 3t-9.5 -0.5t-1.5 -5.5v-13l2 -5z" />
    <glyph glyph-name="ae" unicode="&#xe6;" horiz-adv-x="205" 
d="M221 66q-33 -43 -58.5 -58.5t-46.5 -13.5q-15 2 -25.5 17t-8.5 38l-3 -3q-7 -8 -17.5 -18t-18.5 -16q-10 -6 -17.5 -10t-15.5 -4q-13 0 -18 16q-2 4 -2 17q1 16 9 35.5t21 39t30 37t36 31.5q40 25 54 17q9 -6 9 -16l1 -4q0 1 3 -2q33 28 53 28q9 -1 15.5 -6.5t4.5 -16.5
q-2 -16 -11 -31t-21.5 -27t-28 -19t-30.5 -7q-4 0 -9 0.5t-5 1.5h-2q-8 -21 -5 -43q1 -8 5 -17q8 -15 28 -11q10 1 22.5 7t35.5 29l18 18q2 0 2 -1zM88 74q9 35 33 63l2 1l1 2l3 4q6 7 6 11q-2 7 -9 11q-9 5 -24 -0.5t-27 -18.5q-11 -11 -23 -29t-18 -35q-2 -4 -5 -14.5
t-3 -20.5t5 -16.5t17 -1.5q4 2 13 10.5t20 22.5zM150 148q-8 -10 -16.5 -24.5t-9.5 -18.5q0 -3 5.5 -4.5t11.5 -1.5q10 0 20.5 5t19.5 13.5t15 19t7 21.5q2 14 -16 14q-17 0 -37 -24z" />
    <glyph glyph-name="ccedilla" unicode="&#xe7;" horiz-adv-x="133" 
d="M53 -19q1 -8 -2.5 -14.5t-13.5 -14.5q-5 -5 -9 -5.5t-9 4.5q-5 2 -8 6t-3 7q0 1 9 6q17 12 18 23v1h-1q-36 6 -36 44q0 26 14.5 54t35 51.5t42.5 38.5t36 15q8 0 10 -11q0 -4 -1 -13.5t-4 -11.5h-1l-1 -1q-1 0 -1 -0.5t-1 -0.5l-7 5q-5 4 -6.5 5.5t-6.5 2.5
q-12 1 -25.5 -10.5t-24.5 -28.5t-18 -37.5t-5 -36.5q1 -16 8 -27.5t26 -11.5q12 0 26 7.5t26 17.5t21.5 20t12.5 14q1 0 1 -1q0 -8 -11 -21t-27.5 -26t-35.5 -23t-34 -13q6 -9 6 -14z" />
    <glyph glyph-name="egrave" unicode="&#xe8;" horiz-adv-x="125" 
d="M134 66q-32 -43 -58 -58.5t-47 -13.5q-16 2 -25.5 18.5t-7.5 41.5q4 25 19 50.5t33.5 46t38 33.5t32.5 13q10 0 16 -6t4 -17q-2 -16 -11 -31t-21.5 -27t-27.5 -19t-30 -7q-5 0 -9.5 0.5t-4.5 1.5h-2q-5 -11 -6.5 -24.5t1.5 -25t10.5 -18t21.5 -3.5q10 1 23 7t36 29l17 18
q2 0 2 -1zM63 148q-8 -10 -16.5 -24.5t-9.5 -18.5q0 -3 5.5 -4.5t11.5 -1.5q10 0 20.5 5t19.5 13.5t15 19t7 21.5q3 14 -16 14q-7 0 -16.5 -5.5t-20.5 -18.5zM99 253q10 0 11 -8.5t8 -16.5q6 -7 15.5 -9t9.5 -4t-6.5 -3.5t-15.5 -1.5q-6 0 -13.5 1.5t-14.5 5t-11.5 10
t-4.5 16.5q0 5 5 6.5t17 3.5z" />
    <glyph glyph-name="eacute" unicode="&#xe9;" horiz-adv-x="125" 
d="M134 66q-32 -43 -58 -58.5t-47 -13.5q-16 2 -25.5 18.5t-7.5 41.5q4 25 19 50.5t33.5 46t38 33.5t32.5 13q10 0 16 -6t4 -17q-2 -16 -11 -31t-21.5 -27t-27.5 -19t-30 -7q-5 0 -9.5 0.5t-4.5 1.5h-2q-5 -11 -6.5 -24.5t1.5 -25t10.5 -18t21.5 -3.5q10 1 23 7t36 29l17 18
q2 0 2 -1zM63 148q-8 -10 -16.5 -24.5t-9.5 -18.5q0 -3 5.5 -4.5t11.5 -1.5q10 0 20.5 5t19.5 13.5t15 19t7 21.5q3 14 -16 14q-7 0 -16.5 -5.5t-20.5 -18.5zM135 253q22 -1 22 -9q0 -10 -5 -16.5t-11.5 -10t-14.5 -5t-14 -1.5q-8 0 -14.5 1.5t-6.5 3.5v1q11 0 17.5 5.5
t10.5 12.5t7.5 12.5t8.5 5.5z" />
    <glyph glyph-name="ecircumflex" unicode="&#xea;" horiz-adv-x="125" 
d="M134 66q-32 -43 -58 -58.5t-47 -13.5q-16 2 -25.5 18.5t-7.5 41.5q4 25 19 50.5t33.5 46t38 33.5t32.5 13q10 0 16 -6t4 -17q-2 -16 -11 -31t-21.5 -27t-27.5 -19t-30 -7q-5 0 -9.5 0.5t-4.5 1.5h-2q-5 -11 -6.5 -24.5t1.5 -25t10.5 -18t21.5 -3.5q10 1 23 7t36 29l17 18
q2 0 2 -1zM63 148q-8 -10 -16.5 -24.5t-9.5 -18.5q0 -3 5.5 -4.5t11.5 -1.5q10 0 20.5 5t19.5 13.5t15 19t7 21.5q3 14 -16 14q-7 0 -16.5 -5.5t-20.5 -18.5zM149 239q2 -2 6 -12.5t4 -15.5q0 -6 -10 -7q-2 0 -3 0.5t-5 3.5l-10 12q-5 7 -8.5 9t-4.5 2t-4.5 -0.5t-6.5 -2.5
l-5 -3q-25 -13 -32 -15l-1 1q0 1 5.5 4.5t14 8.5t18 10t15.5 8q8 2 12 3.5t7 1.5q5 0 8 -8z" />
    <glyph glyph-name="edieresis" unicode="&#xeb;" horiz-adv-x="125" 
d="M134 66q-32 -43 -58 -58.5t-47 -13.5q-16 2 -25.5 18.5t-7.5 41.5q4 25 19 50.5t33.5 46t38 33.5t32.5 13q10 0 16 -6t4 -17q-2 -16 -11 -31t-21.5 -27t-27.5 -19t-30 -7q-5 0 -9.5 0.5t-4.5 1.5h-2q-5 -11 -6.5 -24.5t1.5 -25t10.5 -18t21.5 -3.5q10 1 23 7t36 29l17 18
q2 0 2 -1zM63 148q-8 -10 -16.5 -24.5t-9.5 -18.5q0 -3 5.5 -4.5t11.5 -1.5q10 0 20.5 5t19.5 13.5t15 19t7 21.5q3 14 -16 14q-7 0 -16.5 -5.5t-20.5 -18.5zM103 249q10 -3 10 -10t-3.5 -12t-8 -8.5t-8.5 -5.5t-5 -2q-5 0 -10 6t-5 11q0 1 3 4.5t7.5 7t9.5 6.5t10 3z
M161 249q10 -3 10 -9q0 -9 -7 -16t-9 -8q-7 -5 -8 -5q-5 0 -10 5.5t-5 11.5q0 4 4 8t9.5 7t10 4.5t5.5 1.5z" />
    <glyph glyph-name="igrave" unicode="&#xec;" horiz-adv-x="82" 
d="M2 -1q-12 6 -11 27q1 15 6.5 36t14.5 42.5t20 40.5t22 30q16 16 23 15q4 0 7 -3q4 -9 -7 -9q-7 0 -9 -2t-5 -13q-8 -14 -17.5 -41t-16.5 -48q-2 -6 -5 -16.5t-3 -20t3.5 -15t14.5 -2.5q8 2 18.5 12t19.5 20.5t14.5 17.5t4.5 4q-2 -4 -11 -16.5t-14 -20.5q-19 -23 -37 -33
t-32 -5zM63 255q10 0 11 -8.5t7 -16.5q7 -6 16 -9t9 -4q0 -2 -6.5 -3.5t-14.5 -1.5q-6 0 -13.5 1.5t-14.5 5t-11.5 10t-4.5 16.5q0 5 5 6.5t17 3.5z" />
    <glyph glyph-name="iacute" unicode="&#xed;" horiz-adv-x="82" 
d="M2 -1q-12 6 -11 27q1 15 6.5 36t14.5 42.5t20 40.5t22 30q16 16 23 15q4 0 7 -3q4 -9 -7 -9q-7 0 -9 -2t-5 -13q-8 -14 -17.5 -41t-16.5 -48q-2 -6 -5 -16.5t-3 -20t3.5 -15t14.5 -2.5q8 2 18.5 12t19.5 20.5t14.5 17.5t4.5 4q-2 -4 -11 -16.5t-14 -20.5q-19 -23 -37 -33
t-32 -5zM99 255q12 -2 16.5 -3.5t4.5 -6.5q0 -10 -5 -16.5t-11.5 -10t-14 -5t-13.5 -1.5q-8 0 -15 1.5t-7 3.5l1 1q11 0 17.5 6t10.5 12.5t7.5 12.5t8.5 6z" />
    <glyph glyph-name="icircumflex" unicode="&#xee;" horiz-adv-x="82" 
d="M2 -1q-12 6 -11 27q1 15 6.5 36t14.5 42.5t20 40.5t22 30q16 16 23 15q4 0 7 -3q4 -9 -7 -9q-7 0 -9 -2t-5 -13q-8 -14 -17.5 -41t-16.5 -48q-2 -6 -5 -16.5t-3 -20t3.5 -15t14.5 -2.5q8 2 18.5 12t19.5 20.5t14.5 17.5t4.5 4q-2 -4 -11 -16.5t-14 -20.5q-19 -23 -37 -33
t-32 -5zM116 240q2 -3 5.5 -13.5t3.5 -14.5q0 -6 -9 -7q-2 0 -3.5 0.5t-5.5 2.5l-10 13q-5 7 -8 9t-5 2q-1 0 -4.5 -0.5t-5.5 -2.5l-6 -3q-11 -7 -20 -11t-12 -4h-1q0 1 6 5t14.5 8.5t18 9.5t15.5 8q13 6 18 6q4 0 9 -8z" />
    <glyph glyph-name="idieresis" unicode="&#xef;" horiz-adv-x="82" 
d="M2 -1q-12 6 -11 27q1 15 6.5 36t14.5 42.5t20 40.5t22 30q16 16 23 15q4 0 7 -3q4 -9 -7 -9q-7 0 -9 -2t-5 -13q-8 -14 -17.5 -41t-16.5 -48q-2 -6 -5 -16.5t-3 -20t3.5 -15t14.5 -2.5q8 2 18.5 12t19.5 20.5t14.5 17.5t4.5 4q-2 -4 -11 -16.5t-14 -20.5q-19 -23 -37 -33
t-32 -5zM63 249q9 -3 9 -10t-3.5 -12t-8 -8.5t-8.5 -5.5t-5 -2q-5 0 -10 6t-5 11q0 1 3 4.5t7.5 7t10 6.5t10.5 3zM121 249q9 -3 9 -9q0 -9 -7 -16t-9 -8h1q-8 -5 -10 -5q-3 0 -8.5 5.5t-5.5 11.5q0 4 4 8t9.5 7t10 4.5t6.5 1.5z" />
    <glyph glyph-name="ntilde" unicode="&#xf1;" horiz-adv-x="166" 
d="M54 133q21 24 43.5 44t40.5 20q10 0 17 -6q6 -4 6 -11q1 -10 -20 -50q-11 -23 -18.5 -47.5t-6.5 -39.5q0 -20 8 -20q6 0 8 1q4 2 16.5 14t26.5 27q13 17 18 19q6 3 1.5 -3.5t-16.5 -20.5q-14 -19 -24 -29t-19 -16q-32 -25 -44 -17q-17 12 -9 46q5 25 17 49t25 48
q9 17 8 26t-14 5q-12 -4 -31 -18.5t-36 -37.5q-12 -19 -22.5 -42.5t-15.5 -37.5q-3 -10 -13 -22t-18 -14q-8 -1 -5 4q0 2 4.5 14t11 28.5t13.5 36t13.5 36.5t11.5 29.5t6 15.5q8 16 22 22q9 5 9 0q-1 -3 -5.5 -18t-11.5 -32l-7 -17l1 1zM164 227q7 6 8 6q2 0 2 -3
q0 -5 -6 -9.5t-14 -8t-17 -5.5t-15 -2q-2 0 -9.5 2.5t-15.5 5.5t-16 5.5t-12 2.5t-10 -7v1q-2 -2 -2 -3t-2 -1q-1 0 -1 3q0 1 3 5t8 8t13 7.5t17 3.5q5 0 14 -2.5t18.5 -6t17.5 -6t12 -2.5h2z" />
    <glyph glyph-name="ograve" unicode="&#xf2;" horiz-adv-x="154" 
d="M107 43q-13 -19 -35.5 -34t-43.5 -12q-17 3 -26 20t-7 34q4 20 17.5 45t35.5 47q22 21 46.5 37t38.5 16q11 0 16 -9t3 -24q-3 -17 -10 -37.5t-14 -38.5q-1 -8 4.5 -16t16.5 -8q3 0 8.5 4t6.5 4q-1 -6 -11.5 -15t-26.5 -7q-5 0 -8 1t-6 1zM61 21q5 0 12 4t13.5 10
t11.5 12.5t6 11.5q0 1 -0.5 1.5t-0.5 2.5h1q-3 8 -3.5 12.5t1.5 12.5q1 9 6.5 19.5t11.5 19.5t11 15t5 7q1 4 1 8.5t-2 8.5t-8.5 5t-19.5 -2t-26 -13.5t-23.5 -25t-18.5 -30.5t-10 -29q-6 -50 32 -50zM105 254q10 0 11 -8.5t7 -16.5q3 -3 7.5 -5t8.5 -4t9 -3q0 -2 -6.5 -4
t-14.5 -2q-6 0 -13.5 1.5t-14.5 5.5t-11.5 10.5t-4.5 16.5q0 8 22 9z" />
    <glyph glyph-name="oacute" unicode="&#xf3;" horiz-adv-x="154" 
d="M107 43q-13 -19 -35.5 -34t-43.5 -12q-17 3 -26 20t-7 34q4 20 17.5 45t35.5 47q22 21 46.5 37t38.5 16q11 0 16 -9t3 -24q-3 -17 -10 -37.5t-14 -38.5q-1 -8 4.5 -16t16.5 -8q3 0 8.5 4t6.5 4q-1 -6 -11.5 -15t-26.5 -7q-5 0 -8 1t-6 1zM61 21q5 0 12 4t13.5 10
t11.5 12.5t6 11.5q0 1 -0.5 1.5t-0.5 2.5h1q-3 8 -3.5 12.5t1.5 12.5q1 9 6.5 19.5t11.5 19.5t11 15t5 7q1 4 1 8.5t-2 8.5t-8.5 5t-19.5 -2t-26 -13.5t-23.5 -25t-18.5 -30.5t-10 -29q-6 -50 32 -50zM143 253q20 -1 20 -9q0 -10 -4.5 -16.5t-11.5 -10t-14.5 -5t-13.5 -1.5
q-8 0 -14.5 1.5t-6.5 3.5q0 1 1 1q11 0 17.5 5.5t10.5 12.5t7 12.5t9 5.5z" />
    <glyph glyph-name="ocircumflex" unicode="&#xf4;" horiz-adv-x="154" 
d="M107 43q-13 -19 -35.5 -34t-43.5 -12q-17 3 -26 20t-7 34q4 20 17.5 45t35.5 47q22 21 46.5 37t38.5 16q11 0 16 -9t3 -24q-3 -17 -10 -37.5t-14 -38.5q-1 -8 4.5 -16t16.5 -8q3 0 8.5 4t6.5 4q-1 -6 -11.5 -15t-26.5 -7q-5 0 -8 1t-6 1zM61 21q5 0 12 4t13.5 10
t11.5 12.5t6 11.5q0 1 -0.5 1.5t-0.5 2.5h1q-3 8 -3.5 12.5t1.5 12.5q1 9 6.5 19.5t11.5 19.5t11 15t5 7q1 4 1 8.5t-2 8.5t-8.5 5t-19.5 -2t-26 -13.5t-23.5 -25t-18.5 -30.5t-10 -29q-6 -50 32 -50zM169 240q2 -3 5.5 -13.5t3.5 -14.5q0 -6 -9 -7q-4 0 -8 3l-11 13
q-5 7 -8 9t-5 2q-4 0 -10 -3l-6 -3q-11 -7 -20 -11t-11 -4h-1q0 1 5.5 5t14 8.5t18 9.5t15.5 8q13 6 19 6q3 0 8 -8z" />
    <glyph glyph-name="otilde" unicode="&#xf5;" horiz-adv-x="154" 
d="M107 43q-13 -19 -35.5 -34t-43.5 -12q-17 3 -26 20t-7 34q4 20 17.5 45t35.5 47q22 21 46.5 37t38.5 16q11 0 16 -9t3 -24q-3 -17 -10 -37.5t-14 -38.5q-1 -8 4.5 -16t16.5 -8q3 0 8.5 4t6.5 4q-1 -6 -11.5 -15t-26.5 -7q-5 0 -8 1t-6 1zM61 21q5 0 12 4t13.5 10
t11.5 12.5t6 11.5q0 1 -0.5 1.5t-0.5 2.5h1q-3 8 -3.5 12.5t1.5 12.5q1 9 6.5 19.5t11.5 19.5t11 15t5 7q1 4 1 8.5t-2 8.5t-8.5 5t-19.5 -2t-26 -13.5t-23.5 -25t-18.5 -30.5t-10 -29q-6 -50 32 -50zM189 228q6 6 8 6v-1q0 -1 0.5 -1t0.5 -1q0 -5 -6 -10t-14 -8.5
t-16.5 -5.5t-14.5 -2q-3 0 -10 3t-15.5 6t-16.5 5.5t-12 2.5q-3 0 -10 -7v1q-2 -4 -4 -4l-1 2q0 1 3 5t8 8.5t13 8t17 3.5q5 0 14 -2.5t18.5 -6t18 -6t11.5 -2.5h2z" />
    <glyph glyph-name="odieresis" unicode="&#xf6;" horiz-adv-x="154" 
d="M107 43q-13 -19 -35.5 -34t-43.5 -12q-17 3 -26 20t-7 34q4 20 17.5 45t35.5 47q22 21 46.5 37t38.5 16q11 0 16 -9t3 -24q-3 -17 -10 -37.5t-14 -38.5q-1 -8 4.5 -16t16.5 -8q3 0 8.5 4t6.5 4q-1 -6 -11.5 -15t-26.5 -7q-5 0 -8 1t-6 1zM61 21q5 0 12 4t13.5 10
t11.5 12.5t6 11.5q0 1 -0.5 1.5t-0.5 2.5h1q-3 8 -3.5 12.5t1.5 12.5q1 9 6.5 19.5t11.5 19.5t11 15t5 7q1 4 1 8.5t-2 8.5t-8.5 5t-19.5 -2t-26 -13.5t-23.5 -25t-18.5 -30.5t-10 -29q-6 -50 32 -50zM127 247q9 -3 9 -9q0 -7 -3.5 -12.5t-8 -9t-8.5 -5t-5 -1.5q-5 0 -10 6
t-5 10t10 12.5t21 8.5zM186 247q8 -3 8 -8q0 -10 -7 -16.5t-9 -8.5h1q-5 -4 -9 -4t-9.5 5.5t-5.5 10.5q0 4 4 8t9.5 7t10.5 4.5t7 1.5z" />
    <glyph glyph-name="divide" unicode="&#xf7;" horiz-adv-x="187" 
d="M41 127q19 2 50 3t58 2l30 -1q1 0 1 -1l-9 -8h1l-12 -8l-8 -5h-42q-4 0 -8 0.5t-8 0.5h-14q-35 0 -54 2t-19 4q0 3 5.5 6.5t28.5 4.5zM94 95q11 -3 11 -10q0 -14 -12 -21t-15 -7t-9 5.5t-6 9.5q0 3 9 13.5t18 10.5q2 0 4 -1zM77 152q-5 4 -5 10q0 5 10 14.5t16 9.5
t9.5 -3.5t3.5 -7.5q0 -10 -6.5 -16.5t-9.5 -8.5h1q-4 -2 -5.5 -2.5t-3.5 -0.5q-5 0 -10 5z" />
    <glyph glyph-name="oslash" unicode="&#xf8;" horiz-adv-x="154" 
d="M141 321q0 -2 -1 -8t-4.5 -20.5t-9 -39.5t-14.5 -64q10 7 21 7t16 -9t3 -24q-3 -17 -10 -37.5t-14 -38.5q-1 -8 4.5 -16t16.5 -8q3 0 8.5 4t6.5 4q-1 -6 -11.5 -15t-26.5 -7q-5 0 -8 1t-6 1l-5 -8q-14 -20 -38 -36q-6 -24 -11 -46.5t-9 -40t-7 -28.5t-3 -14l-3 -11l-8 -7
q-7 -5 -13 -9.5t-8 -4.5v2q0 2 10 43.5t24 100.5l2 6q-5 -1 -8 -1.5t-7 0.5q-17 3 -26 20t-7 34q4 20 17.5 45t35.5 47q18 18 38 32q4 17 7.5 32.5t6.5 28.5q8 38 12.5 53.5t7.5 19.5q1 1 4.5 3.5t7.5 4.5q6 5 7.5 5.5t1.5 -1.5zM29 71q-5 -41 20 -50l33 135
q-20 -16 -35 -40.5t-18 -44.5zM106 169q-3 -17 -4 -21t-1 -3l-27 -121q10 7 19 17t11 18q0 1 -0.5 1.5t-0.5 2.5h1q-3 8 -3.5 12.5t1.5 12.5q1 9 6.5 19.5t11.5 19.5t11 15t5 7q1 4 1 8.5t-2 8.5t-8.5 5t-19.5 -2h-1zM102 148q0 -2 -1 -3zM103 151q0 -1 -1 -1q1 2 1.5 2.5
t-0.5 -1.5z" />
    <glyph glyph-name="ugrave" unicode="&#xf9;" horiz-adv-x="172" 
d="M100 -2q-11 0 -14.5 8t-3 19t3.5 21.5t5 15.5v1q-11 -14 -21 -26.5t-20.5 -21.5t-21 -13t-21.5 -1q-11 4 -15 20q-5 18 6 40.5t28 54.5q7 15 11 23t5.5 12.5t2 8t0.5 9.5q1 8 -1.5 10.5t-2.5 4.5q0 3 5.5 5.5t11.5 2.5q13 0 15.5 -7.5t0 -18t-8 -21t-8.5 -16.5
q-6 -13 -12.5 -27t-11 -26.5t-7.5 -22.5t-3 -15q-1 -12 5.5 -12t15.5 5.5t18 13.5t12 11q6 7 12.5 15.5t14.5 19.5l6 8q19 38 37 66t32 28q7 0 7 -8t-9 -8l-5 -1q-12 -15 -23 -40.5t-18.5 -49.5t-9 -42.5t5.5 -20.5q5 -2 14.5 3.5t26.5 23.5l13 14q8 6 8 9q2 0 2 -2
q0 -3 -13 -20q-18 -23 -39 -38t-36 -15zM96 255q10 0 11 -8.5t8 -16.5q6 -6 15.5 -9t9.5 -4q0 -2 -6.5 -3.5t-14.5 -1.5q-6 0 -13.5 1.5t-14.5 5t-11.5 10t-4.5 16.5q0 5 4.5 6.5t16.5 3.5z" />
    <glyph glyph-name="uacute" unicode="&#xfa;" horiz-adv-x="172" 
d="M100 -2q-11 0 -14.5 8t-3 19t3.5 21.5t5 15.5v1q-11 -14 -21 -26.5t-20.5 -21.5t-21 -13t-21.5 -1q-11 4 -15 20q-5 18 6 40.5t28 54.5q7 15 11 23t5.5 12.5t2 8t0.5 9.5q1 8 -1.5 10.5t-2.5 4.5q0 3 5.5 5.5t11.5 2.5q13 0 15.5 -7.5t0 -18t-8 -21t-8.5 -16.5
q-6 -13 -12.5 -27t-11 -26.5t-7.5 -22.5t-3 -15q-1 -12 5.5 -12t15.5 5.5t18 13.5t12 11q6 7 12.5 15.5t14.5 19.5l6 8q19 38 37 66t32 28q7 0 7 -8t-9 -8l-5 -1q-12 -15 -23 -40.5t-18.5 -49.5t-9 -42.5t5.5 -20.5q5 -2 14.5 3.5t26.5 23.5l13 14q8 6 8 9q2 0 2 -2
q0 -3 -13 -20q-18 -23 -39 -38t-36 -15zM137 254q21 -1 21 -9q0 -10 -4.5 -16.5t-11.5 -10.5t-15 -5.5t-14 -1.5q-7 0 -14 2t-7 4h1q11 0 17.5 6t10.5 12.5t7 12.5t9 6z" />
    <glyph glyph-name="ucircumflex" unicode="&#xfb;" horiz-adv-x="172" 
d="M100 -2q-11 0 -14.5 8t-3 19t3.5 21.5t5 15.5v1q-11 -14 -21 -26.5t-20.5 -21.5t-21 -13t-21.5 -1q-11 4 -15 20q-5 18 6 40.5t28 54.5q7 15 11 23t5.5 12.5t2 8t0.5 9.5q1 8 -1.5 10.5t-2.5 4.5q0 3 5.5 5.5t11.5 2.5q13 0 15.5 -7.5t0 -18t-8 -21t-8.5 -16.5
q-6 -13 -12.5 -27t-11 -26.5t-7.5 -22.5t-3 -15q-1 -12 5.5 -12t15.5 5.5t18 13.5t12 11q6 7 12.5 15.5t14.5 19.5l6 8q19 38 37 66t32 28q7 0 7 -8t-9 -8l-5 -1q-12 -15 -23 -40.5t-18.5 -49.5t-9 -42.5t5.5 -20.5q5 -2 14.5 3.5t26.5 23.5l13 14q8 6 8 9q2 0 2 -2
q0 -3 -13 -20q-18 -23 -39 -38t-36 -15zM153 239q2 -2 5.5 -12.5t3.5 -15.5q0 -6 -9 -7q-4 0 -8 4l-11 12q-5 7 -8 9t-5 2q-4 0 -11 -3l-5 -3q-11 -6 -20 -10t-11 -5l-1 1q0 1 5.5 4.5t14 8.5t18 10t15.5 8q15 5 18 5q5 0 9 -8z" />
    <glyph glyph-name="udieresis" unicode="&#xfc;" horiz-adv-x="172" 
d="M100 -2q-11 0 -14.5 8t-3 19t3.5 21.5t5 15.5v1q-11 -14 -21 -26.5t-20.5 -21.5t-21 -13t-21.5 -1q-11 4 -15 20q-5 18 6 40.5t28 54.5q7 15 11 23t5.5 12.5t2 8t0.5 9.5q1 8 -1.5 10.5t-2.5 4.5q0 3 5.5 5.5t11.5 2.5q13 0 15.5 -7.5t0 -18t-8 -21t-8.5 -16.5
q-6 -13 -12.5 -27t-11 -26.5t-7.5 -22.5t-3 -15q-1 -12 5.5 -12t15.5 5.5t18 13.5t12 11q6 7 12.5 15.5t14.5 19.5l6 8q19 38 37 66t32 28q7 0 7 -8t-9 -8l-5 -1q-12 -15 -23 -40.5t-18.5 -49.5t-9 -42.5t5.5 -20.5q5 -2 14.5 3.5t26.5 23.5l13 14q8 6 8 9q2 0 2 -2
q0 -3 -13 -20q-18 -23 -39 -38t-36 -15zM103 250q10 -4 10 -10q0 -7 -3.5 -12t-8 -8.5t-8.5 -5.5t-5 -2q-5 0 -10 6t-5 10q0 3 10 12.5t20 9.5zM161 250q10 -4 10 -9q0 -10 -7 -17t-9 -7q-7 -5 -8 -5q-5 0 -10 5.5t-5 10.5q0 4 4 8t9.5 7t10 5t5.5 2z" />
    <glyph glyph-name="yacute" unicode="&#xfd;" horiz-adv-x="163" 
d="M169 177q-11 -15 -20.5 -39t-18.5 -50.5t-16.5 -52.5t-14.5 -45q14 -7 28 -15.5t26 -20.5q11 -11 18.5 -22t7.5 -18q-1 -8 -12 -16.5t-16 -8.5q-1 0 -6.5 7.5t-13.5 17.5t-18.5 21t-20.5 17l-4 2q-1 0 -2 1q-1 0 -1 1q-14 -29 -34.5 -61t-46 -58t-53.5 -41.5t-56 -12.5
q-23 2 -37 17.5t-15 37.5q0 32 18 61t50 52q29 21 62.5 33t71.5 12q7 0 13 -0.5t8 -0.5q10 0 11 5l21 64l2 10l2 4q-12 -16 -23 -31.5t-22 -27t-23 -17t-25 -1.5q-13 5 -16 20q-7 18 4 40.5t25 54.5l10.5 22.5t5 11.5t1.5 7v9q0 8 -2 10t-2 4q0 3 5 6t11 3q13 0 16 -7.5
t0.5 -17t-7 -19.5t-7.5 -16q-12 -26 -20 -52t-8 -36q0 -13 10 -12q8 1 32 24.5t48 61.5q23 36 34 57.5t26 21.5q2 0 5 -3t3 -5q0 -3 -3 -6t-7 -3h-4zM-84 -187q24 -1 44 10t37 27.5t29.5 36t21.5 36.5q3 6 6 13t6 13.5t4.5 11t1.5 5.5q0 2 -14 5.5t-29 4.5q-23 1 -51.5 -6.5
t-46.5 -18.5q-23 -14 -41.5 -36.5t-23.5 -45t6.5 -39t49.5 -17.5zM131 254q12 -1 16.5 -2.5t4.5 -6.5q0 -10 -5 -16.5t-11.5 -10.5t-14.5 -5.5t-14 -1.5q-8 0 -14.5 2t-6.5 4h1q11 0 17.5 6t10.5 12.5t7 12.5t9 6z" />
    <glyph glyph-name="thorn" unicode="&#xfe;" horiz-adv-x="170" 
d="M34 393q0 -2 0.5 -8.5t0.5 -23v-45v-73.5q-1 -44 -1 -70.5t1 -33.5v-35q32 46 60.5 64t45.5 18q10 0 16.5 -6.5t5.5 -28.5q-2 -18 -13 -44.5t-27.5 -51t-36 -41t-37.5 -13.5q-6 0 -14 6v-11v-70v-12l-7 -8q-5 -7 -10.5 -13t-6.5 -6v2q0 1 -0.5 2t-1 8.5t-0.5 23v45.5
q1 30 1.5 65t1 69t0.5 64.5v52.5q0 63 0.5 94.5t0.5 44.5t0.5 13.5t1.5 2.5l10 12q5 6 6.5 7.5t2.5 -0.5zM75 24q11 4 20.5 17.5t16 30t10.5 33t5 26.5q2 20 -2 26t-15 6q-6 0 -18.5 -10.5t-25 -25.5t-21.5 -32t-9 -29q0 -4 3.5 -12t9 -15.5t12.5 -12t14 -2.5z" />
    <glyph glyph-name="ydieresis" unicode="&#xff;" horiz-adv-x="163" 
d="M169 177q-11 -15 -20.5 -39t-18.5 -50.5t-16.5 -52.5t-14.5 -45q14 -7 28 -15.5t26 -20.5q11 -11 18.5 -22t7.5 -18q-1 -8 -12 -16.5t-16 -8.5q-1 0 -6.5 7.5t-13.5 17.5t-18.5 21t-20.5 17l-4 2q-1 0 -2 1q-1 0 -1 1q-14 -29 -34.5 -61t-46 -58t-53.5 -41.5t-56 -12.5
q-23 2 -37 17.5t-15 37.5q0 32 18 61t50 52q29 21 62.5 33t71.5 12q7 0 13 -0.5t8 -0.5q10 0 11 5l21 64l2 10l2 4q-12 -16 -23 -31.5t-22 -27t-23 -17t-25 -1.5q-13 5 -16 20q-7 18 4 40.5t25 54.5l10.5 22.5t5 11.5t1.5 7v9q0 8 -2 10t-2 4q0 3 5 6t11 3q13 0 16 -7.5
t0.5 -17t-7 -19.5t-7.5 -16q-12 -26 -20 -52t-8 -36q0 -13 10 -12q8 1 32 24.5t48 61.5q23 36 34 57.5t26 21.5q2 0 5 -3t3 -5q0 -3 -3 -6t-7 -3h-4zM-84 -187q24 -1 44 10t37 27.5t29.5 36t21.5 36.5q3 6 6 13t6 13.5t4.5 11t1.5 5.5q0 2 -14 5.5t-29 4.5q-23 1 -51.5 -6.5
t-46.5 -18.5q-23 -14 -41.5 -36.5t-23.5 -45t6.5 -39t49.5 -17.5zM98 249q9 -3 9 -10t-3.5 -12t-8 -8.5t-8.5 -5.5t-5 -2q-4 0 -9 6t-5 11q0 1 3 4.5t7.5 7t9.5 6.5t10 3zM157 249q9 -3 9 -9q0 -9 -7.5 -16t-9.5 -8h1q-5 -5 -9 -5t-9 5.5t-5 11.5q0 4 4 8t9 7t10 4.5t7 1.5z
" />
    <glyph glyph-name="Lslash" unicode="&#x141;" horiz-adv-x="192" 
d="M169 172q5 11 8 23t8 26q10 30 22 61t26.5 56t30.5 40.5t35 15.5q16 0 27.5 -14.5t11.5 -34.5q0 -13 -5.5 -28t-14 -28t-20 -22t-23.5 -9q-22 0 -22 18q0 16 4 20q0 -1 0.5 -2.5t0.5 -2.5q0 -2 -0.5 -3t-0.5 -2q0 -10 3 -15t13 -5q7 0 16.5 5.5t17 15t13 22t5.5 26.5
q0 20 -7.5 33t-22.5 13q-13 0 -20.5 -8t-19.5 -33q-4 -8 -7 -15.5t-7 -19t-9.5 -29t-14.5 -45.5q-5 -13 -9.5 -25.5t-7.5 -23.5q11 4 21.5 7t19.5 6l29 8h1v-1l-10 -14l-11 -13l-59 -18q-1 0 -1 -1q-18 -48 -37 -81t-44 -59l-7 -9l7 -4q13 -6 31.5 -14t41.5 -19
q28 -13 50 -22t39 -15t30.5 -10t24.5 -7q26 -8 46 -12.5t38 -4.5q11 0 17 1.5t14 5.5h-1q8 5 13.5 15t7.5 12q2 -4 2 -5q0 -9 -7.5 -18t-19.5 -16t-27.5 -11.5t-31.5 -4.5q-2 0 -16.5 1t-39 6.5t-58 16t-73.5 29.5q-45 21 -74 35.5t-34 16.5q-2 0 -4 -2h1l-8 -4
q-11 -6 -27.5 -12t-25.5 -6q-11 0 -18 4t-7 10q0 3 13 16q11 11 23 17t31 6q8 0 14 -1t11 -1l7 10q20 22 36 52t33 77q-33 -11 -51.5 -13.5t-18.5 -1.5q-1 5 4.5 10t26.5 12zM59 -11l-3 1q-4 0 -10.5 1.5t-12.5 1.5q-17 0 -17 -6q0 -8 8 -8q15 0 33 8z" />
    <glyph glyph-name="lslash" unicode="&#x142;" horiz-adv-x="74" 
d="M68 49q10 11 17.5 18t9.5 7q0 -2 -6 -10t-21 -26q-6 -6 -13.5 -13t-16.5 -14t-18.5 -11.5t-18.5 -4.5q-6 0 -10 6.5t-3 20.5q2 18 12.5 50t28.5 77q-33 -11 -51 -13.5t-19 -1.5q-1 5 5 10t27 12l48 16q4 11 8 20.5t9 20.5q17 40 31 65t26 39t21.5 19t17.5 5q5 0 6 -3
t3 -8q0 -2 -1 -3.5t-2 -3.5q-3 -3 -4 -3q-2 0 -6.5 2.5t-7.5 2.5q-8 0 -16.5 -16t-21.5 -43l-36 -85l43 14l29 8h1v-1l-9 -14l-11 -13l-59 -18q-1 -1 -2 -1h-1q-17 -45 -25.5 -72t-10.5 -44q-2 -12 1 -15h-1q3 -4 8 -4t11 3.5t17 13.5l11 11v0z" />
    <glyph glyph-name="OE" unicode="&#x152;" horiz-adv-x="561" 
d="M326 390q29 -3 52.5 -14.5t40.5 -32.5q6 1 13 1.5t14 0.5q17 0 37 -2.5t37 -2.5l7 5q9 7 17 9.5t14 2.5q12 0 13 -7q-2 -5 -9.5 -3t-18.5 -3l-13 -6q9 -3 25.5 -5.5t34 -4.5t34 -3t27.5 -1q23 0 32 4t12 8.5t3.5 8.5t6.5 4q1 0 5 -4v1l4 -4q0 -8 -9 -16t-24 -14
t-33.5 -9.5t-37.5 -3.5q-17 0 -33.5 1.5t-42.5 5.5q-9 2 -16.5 2.5t-9.5 0.5q-10 -10 -22.5 -32t-20.5 -44q-4 -7 -10.5 -25t-10.5 -28l-2 -6q1 0 5.5 0.5t9.5 0.5q9 0 21 -2t33 -7q19 -5 31 -6.5t18.5 -2t8.5 -0.5t2 -2q-2 -6 -16 -14.5t-28 -8.5q-4 0 -18 2.5t-29 6t-28 6
t-15 2.5h-2l-6 -11q-11 -28 -21 -50t-22 -41t-26.5 -35.5t-33.5 -32.5l-11 -12q38 -14 71.5 -19.5t56.5 -5.5q54 0 74 11q6 6 11.5 15t7.5 9q3 0 3 -6q-4 -23 -39.5 -40t-84.5 -17q-17 0 -44 3.5t-73 17.5l-20 5q-51 -40 -103 -54q-28 -6 -48.5 -1.5t-34 16.5t-20.5 30.5
t-7 40.5q0 12 2.5 24.5t1.5 15.5t-1.5 3t-2.5 2q-30 5 -45 29.5t-15 58.5t21 78t56.5 85t82 73.5t99.5 44.5q17 3 32.5 4.5t29.5 -0.5zM268 276q18 19 42.5 32.5t51.5 22.5q-25 17 -57.5 21.5t-69.5 -3.5q-41 -9 -77.5 -31.5t-63.5 -53.5t-43 -67.5t-16 -73.5q0 -15 4 -30.5
t10 -28t13.5 -20t14.5 -6.5q0 1 5 11q12 33 34.5 66.5t50 61.5t57.5 48t58 26q20 5 30 5l-1 -1q26 -1 44 -15t20 -37q0 -10 -2.5 -24t-9.5 -29.5t-18.5 -30.5t-29.5 -27q-1 0 0 1q0 3 3 6q25 21 37 49t8.5 51.5t-24 36t-60.5 3.5q-37 -8 -67.5 -30.5t-55.5 -53.5
q-11 -14 -21.5 -30.5t-18.5 -33.5t-14 -32t-7 -25q7 -2 20 1t26.5 13t24 23.5t17.5 30t8 32.5q0 8 -3.5 11t-3.5 5t2 2q1 0 6 -3t5 -14q0 -19 -8.5 -38t-22 -35t-31 -28t-34.5 -16l-9 -1q1 -4 0 -7.5t-1 -8.5q0 -46 30.5 -67.5t78.5 -10.5l13 2l-5 4q-5 5 -4 9q0 8 6.5 14.5
t15.5 11.5t20 7.5t21 2.5q5 0 10.5 -0.5t10.5 -0.5l9 -2q14 11 26 23.5t23 26.5q35 45 53.5 97t18.5 99q0 32 -10.5 57t-27.5 42q-24 -3 -43 -10t-32.5 -13.5t-22.5 -11.5t-13 -5h-1zM436 317q7 -12 10.5 -27t5.5 -32q8 13 18 25t21 23q2 6 6 6h-1q-6 0 -25 1.5t-35 3.5z
M222 -51q0 -9 16 -9q5 0 9 2l12 4l1 1q-6 1 -14.5 3t-13.5 2q-10 0 -10 -3z" />
    <glyph glyph-name="oe" unicode="&#x153;" horiz-adv-x="212" 
d="M227 66q-33 -43 -59 -58.5t-47 -13.5q-22 3 -30 29q-14 -12 -30.5 -20t-32.5 -6q-17 3 -26 20t-7 34q4 20 17.5 45t35.5 47q22 21 46.5 37t38.5 16q11 0 16 -9t3 -24v-2q17 17 33 26.5t27 9.5q9 0 15 -6t4 -17q-2 -16 -10.5 -31t-21.5 -27t-28 -19t-30 -7q-5 0 -9.5 0.5
t-4.5 1.5h-2q-5 -11 -6 -24.5t1.5 -25t10 -18t21.5 -3.5q10 1 23 7t36 29l18 18q2 0 2 -1zM61 21q5 0 12.5 4.5t14.5 10.5v9t1 9q3 25 18 51q8 16 18.5 29t10.5 15q1 4 1 8.5t-2 8.5t-8.5 5t-19.5 -2t-26 -13.5t-23.5 -25t-18.5 -30.5t-10 -29q-6 -50 32 -50zM156 148
q-8 -10 -16.5 -24.5t-9.5 -18.5q0 -3 5 -4.5t12 -1.5q10 0 20.5 5t19 13.5t14.5 19t7 21.5q3 14 -16 14q-16 0 -36 -24z" />
    <glyph glyph-name="Scaron" unicode="&#x160;" horiz-adv-x="380" 
d="M334 117q16 -22 20 -43t0 -40q-5 -31 -30.5 -58.5t-60 -48t-73.5 -32.5t-71 -12q-36 0 -63.5 16.5t-45 42.5t-24.5 57.5t-1 62.5q5 27 21 52.5t37.5 45t46 31.5t45.5 12q24 0 43 -11.5t31 -29.5t16.5 -40t0.5 -43q-9 -44 -29 -63t-42 -19q-8 0 -8 6q1 3 7.5 3t15.5 4
t18.5 15.5t14.5 37.5q4 25 -2.5 46t-20 36t-32 23.5t-36.5 8.5q-22 0 -38.5 -8t-28.5 -21.5t-19.5 -30.5t-10.5 -35q-6 -30 1.5 -60.5t26 -54.5t48 -39t67.5 -15q25 0 51.5 7t48.5 20t38 32t21 43q2 13 1 25t-7 25.5t-17 30t-28 37.5q-11 14 -22.5 28t-20 29.5t-12.5 32.5
t0 38q3 20 17 42q10 16 29 33t39 31t39.5 23t31.5 9q22 0 36 -14.5t10 -33.5q-2 -12 -11 -26.5t-22 -27.5t-28 -22t-29 -9q-3 0 -3 3q1 4 8 4q11 2 22.5 10t21 18.5t16 22.5t6.5 21q0 13 -11.5 19.5t-26.5 6.5t-32 -6.5t-32.5 -19t-27.5 -31t-17 -41.5q-2 -15 -0.5 -26.5
t8.5 -23.5t18.5 -27.5t29.5 -37.5zM470 514q4 -4 2 -8q-1 -3 -13 -15l-27 -24q-45 -45 -53 -45q-2 0 -5 1.5t-5 3.5q-3 3 -9 12.5t-10.5 20.5t-6.5 23t2 20q0 1 2 1q3 0 2.5 -1.5t4.5 -8.5l11 -37l5 -10q3 3 16.5 16t28.5 27.5t27 26t13 11.5t7 -4t8 -8v-2z" />
    <glyph glyph-name="scaron" unicode="&#x161;" horiz-adv-x="144" 
d="M84 186q10 8 18.5 11t14.5 3q17 0 17 -17q0 -2 -1.5 -12.5t-5.5 -10.5q-5 5 -12 9t-12 3q-15 -2 -31 -15.5t-16 -30.5q0 -5 5 -8.5t15 -9.5l10 -6q25 -17 34 -25t9 -17q0 -17 -10 -30t-24.5 -21.5t-30.5 -12.5t-27 -3q-20 2 -32 13t-12 29q0 7 3 16.5t7.5 18.5t9.5 15.5
t10 7.5v-2q-2 -2 -3.5 -6t-1.5 -17q0 -23 16.5 -36.5t36.5 -13.5q8 0 15.5 3t12.5 11v-1q5 8 -2 23.5t-33 30.5q-17 8 -22.5 16.5t-5.5 17.5q0 14 15 34t33 33zM208 303q3 -4 2 -8q-4 -6 -13 -15l-27 -24q-46 -45 -54 -45q-4 0 -10 6q-3 3 -8.5 12t-10.5 20t-7 23t2 20h3
q2 0 1.5 -1t4.5 -8l11 -38l5 -9q3 3 16.5 16t28.5 27.5t27 26t13 11.5q2 0 7.5 -4.5t8.5 -8.5v-1z" />
    <glyph glyph-name="Ydieresis" unicode="&#x178;" horiz-adv-x="391" 
d="M329 80q12 45 24 84q-25 -33 -51 -62.5t-51.5 -52t-50 -35.5t-45.5 -13q-14 0 -23.5 6.5t-9.5 21.5q0 17 9 44.5t31 65.5q19 34 31 55t19.5 35t11.5 23.5t7 20.5q2 8 4 16.5t2 16.5q0 49 -56 49q-28 0 -57.5 -15.5t-53.5 -40t-39 -56t-15 -63.5q2 -24 16 -38.5t34 -14.5
q13 0 25 6.5t21.5 16.5t16 22t8.5 22q0 2 1.5 0.5t1.5 -3.5q0 -14 -8.5 -28t-21 -24.5t-27 -17t-27.5 -5.5q-22 2 -38.5 16.5t-16.5 42.5q0 37 21.5 73.5t53 65.5t68.5 47.5t68 18.5q26 0 44 -14t18 -38q0 -14 -3 -27t-11 -30t-21 -40t-32 -56q-26 -45 -37.5 -76.5
t-11.5 -47.5q0 -14 4 -21t19 -7q12 0 32.5 13.5t45.5 37t51.5 54t50.5 63.5q8 24 15 43t12 33q9 21 20.5 41t23.5 35.5t24 25t22 9.5q6 0 11 -4.5t5 -9.5q0 -7 -6 -7q-4 0 -6 2q-8 2 -11 2q-8 0 -17.5 -12t-21.5 -40t-27 -73.5t-34 -111.5q-9 -29 -15.5 -50.5t-12.5 -38
t-11.5 -30t-12.5 -27.5q-39 -81 -82.5 -113.5t-78.5 -32.5q-14 0 -26.5 6.5t-22.5 18t-15.5 27t-5.5 33.5q0 9 4.5 20t11 21.5t13.5 17.5t13 7v-1q0 -1 -4 -4.5t-8.5 -9t-8.5 -13.5t-4 -18q0 -15 5.5 -29t14.5 -25.5t22 -18.5t28 -7q31 0 54 20t40 50t30 64.5t23 63.5z
M329 446q11 -4 11 -10q0 -7 -3.5 -12t-8 -8.5t-8.5 -5.5t-5 -2q-5 0 -10 6t-5 10q0 3 9.5 12.5t19.5 9.5zM388 446q10 -4 10 -9q0 -10 -7 -17t-9 -7q-7 -5 -9 -5q-4 0 -9.5 5.5t-5.5 10.5q0 4 4.5 8t9.5 7t10 5t6 2z" />
    <glyph glyph-name="Zcaron" unicode="&#x17d;" horiz-adv-x="301" 
d="M469 -64q2 0 2 -8t-7 -18.5t-19.5 -20t-28.5 -16t-34 -6.5q-25 0 -44 3t-41 14.5t-51.5 33t-75.5 58.5q-17 13 -27.5 22t-17.5 14t-11.5 7.5t-8.5 3.5l-7 -5q-29 -26 -50.5 -39.5t-32.5 -14.5q-2 0 -8.5 1.5t-6.5 13.5q0 13 10 27.5t25 26.5t32 20t30 8q8 0 15 -1t12 -3
q1 0 8.5 6.5t19.5 17.5t27 25.5t31 29.5l26 26q-2 0 -4 0.5t-4 0.5q-6 0 -13 -2.5t-7 -9.5v-3q0 -1 1 -1q0 -3 -4 -3q-5 0 -5 5q0 6 5.5 12.5t14 12t18.5 9.5t18 4h5l17 16q7 8 20 21.5t25 26.5l43 46h-1q2 2 3 2.5t3 2.5l7 7q-8 0 -17.5 -1.5t-18.5 -1.5q-23 0 -46 4.5
t-58 13.5q-37 11 -56 14t-38 3q-16 0 -25 -1.5t-17 -6.5q-13 -8 -23.5 -29.5t-10.5 -40.5q0 -23 14 -42.5t37 -19.5q18 0 34.5 16t21.5 38q0 6 2 6t2 -2q0 -14 -7 -26.5t-17.5 -22.5t-23 -15.5t-23.5 -5.5q-15 0 -26 7t-17.5 17.5t-10 22.5t-3.5 23q0 21 11 41t28 35.5
t39 25t44 9.5q12 0 22 -1.5t21 -3.5t23.5 -5t29.5 -7l8 -2q41 -12 64.5 -16.5t43.5 -4.5h14l5 6v-1q9 8 16.5 14t11.5 8l7 4q1 0 2 -1l1 -3q1 0 1 -4q0 -8 -12 -20t-29 -18v1q-1 -1 -3 -1h1l-7.5 -4.5t-5.5 -4.5t-8 -9t-15 -17q-14 -16 -29.5 -32.5t-28.5 -30t-21.5 -22.5
l-8.5 -9q0 -1 10 -3l22.5 -4.5t23.5 -4t12 -1.5q8 0 13 2t8 2q2 0 2 -2q0 -3 -6.5 -8t-16 -9t-19 -7t-15.5 -3q-10 1 -20 3q-8 2 -17.5 3.5t-16.5 3.5l-6 2l-25 -24q-17 -17 -32 -32.5t-32 -29.5l-25 -23q2 -2 4 -2q4 -2 9.5 -5.5t13.5 -9.5t19.5 -15t28.5 -23
q39 -32 67 -52t49.5 -31t40.5 -15.5t40 -4.5h17t9 2q6 3 11.5 9.5t9.5 13.5t7.5 12.5t6.5 5.5zM391 482q4 -6 2 -9q-1 -2 -4.5 -5.5t-8.5 -9.5l-26 -24q-46 -45 -54 -45q-5 0 -11 6q-3 3 -8.5 12t-10 20t-6.5 23t2 20q1 1 2 1q3 0 2.5 -1.5t3.5 -8.5l12 -37l4 -10
q4 3 17.5 16t28.5 28t27 26.5t13 11.5t6.5 -4.5t8.5 -8.5v-1zM46 -6q4 2 12 7.5l16 11t13.5 10.5t5.5 6q-3 0 -7 1q-8 2 -14 2q-23 0 -33.5 -11t-10.5 -24q0 -6 5 -6q4 0 13 3zM421 337q5 2 5.5 2.5l1.5 1.5h-1q2 2 2 3v1q-1 0 -6 -3t-8 -8z" />
    <glyph glyph-name="zcaron" unicode="&#x17e;" horiz-adv-x="151" 
d="M19 50q7 7 13 12.5t11 10.5t10 9l-2 1l-2 2q-14 4 -24 -6h1q-9 -10 -9 -1q0 3 10 12t18 13q7 3 10 3.5t12 0.5h12h-1l21 17l28 26l3 2q-15 -5 -28 -5q-8 0 -12 0.5t-18 5.5q-11 5 -16 6l-10 2q-11 0 -14 -4q-2 -2 -5.5 -9t-5.5 -16v1q-2 -11 -4 -13t-7 -1q-2 1 -3 5.5
t0 9.5q2 12 6 16q8 12 22 23t25 13q8 2 19.5 0.5t25.5 -6.5q8 -2 13.5 -3.5t12.5 -1.5q20 0 25 5q3 2 6 2t3 -2q0 -1 -5 -7t-13.5 -14t-19 -18t-20.5 -20l-19 -16l8 -4q21 -9 34 -9q6 2 6 -2q-1 -2 -10 -7.5t-14 -7.5q-8 -2 -21.5 -1.5t-20.5 2.5q-2 0 -3.5 0.5t-2.5 0.5
t-1 1q-3 0 -25 -21l-3 -4q-18 -15 -18 -17q1 0 1 1q12 6 25 6q9 1 21 -4q6 -2 14 -4.5t13 -4.5q8 -3 11.5 -3.5t8.5 -0.5t8 0.5t7 2.5q7 2 13 9t17 27q6 11 8 7h-1q2 -1 -2 -13t-8 -19q-7 -13 -26 -26t-35 -18q-8 -2 -19 0q-8 2 -15.5 5t-22.5 11q-11 5 -14.5 6t-8.5 1
q-7 1 -11.5 -1t-13.5 -9q-15 -14 -15 -8t47 49zM185 301q4 -6 2 -9q-1 -2 -4.5 -5.5t-8.5 -9.5l-27 -24q-45 -45 -54 -45q-4 0 -10 6q-3 3 -8.5 12t-10 20t-6.5 23t2 20h2q2 0 2 -1t4 -8l11 -37l5 -10q3 3 16.5 16t28.5 28t27 26.5t13 11.5q2 0 7.5 -5t8.5 -9z" />
    <glyph glyph-name="circumflex" unicode="&#x2c6;" horiz-adv-x="106" 
d="M88 378q2 -3 5.5 -13t3.5 -15q0 -6 -9 -7q-2 0 -3.5 0.5t-5.5 2.5l-10 13q-8 12 -13 12q-1 0 -4.5 -1.5t-5.5 -2.5l-6 -3q-11 -7 -20 -11t-12 -5l-1 1q0 1 6 4.5t14.5 8.5t18 10t15.5 8q7 4 11.5 5t6.5 1q5 0 9 -8z" />
    <glyph glyph-name="caron" unicode="&#x2c7;" horiz-adv-x="155" 
d="M144 377q3 -4 3 -8q-2 -3 -14 -15l-27 -25q-45 -44 -54 -44q-4 0 -9 5q-3 3 -9 12t-10.5 20.5t-7 23t2.5 20.5q1 1 2 1q2 0 1.5 -1.5t4.5 -8.5l11 -37l5 -10q3 3 16.5 16t28.5 27.5t27.5 26t13.5 11.5t7 -4t8 -8v-2z" />
    <glyph glyph-name="ring" unicode="&#x2da;" horiz-adv-x="74" 
d="M65 379q2 -2 2 -5q0 -2 -6.5 -8.5t-15 -14t-16 -13.5t-8.5 -6l1 -1h-1q-4 0 -4 2v1q1 0 1.5 2t0.5 4q-3 2 -7.5 7t-4.5 10q0 4 15.5 14.5t31.5 10.5q8 0 11 -3zM32 348q2 3 7.5 9t5.5 8q0 3 -9 3q-7 0 -8.5 -0.5t-1.5 -5.5v-13l2 -5z" />
    <glyph glyph-name="tilde" unicode="&#x2dc;" horiz-adv-x="136" 
d="M119 379q5 6 8 6v-1q0 -1 1 -2q0 -5 -6 -9.5t-14 -8t-16.5 -5.5t-14.5 -2q-3 0 -10 2.5t-15.5 5.5t-16.5 5.5t-12 2.5q-3 0 -10 -7v1q-2 -4 -4 -4l-1 2q0 1 3 5t8 8.5t13 8t17 3.5q5 0 14 -2.5t18.5 -6t18 -6t11.5 -2.5h2l6 6v0z" />
    <glyph glyph-name="endash" unicode="&#x2013;" horiz-adv-x="218" 
d="M44 127q9 1 24.5 1.5t33.5 1.5t35.5 1.5t31.5 0.5l30 -1q1 0 1 -1l-14 -11l-14 -10h-62q-4 0 -7.5 0.5t-7.5 0.5h-13q-35 0 -54.5 2.5t-19.5 3.5q0 4 7 7t29 4z" />
    <glyph glyph-name="emdash" unicode="&#x2014;" horiz-adv-x="257" 
d="M44 127q9 1 28 1.5t41 1.5t43 1.5t35 0.5l30 -1q1 0 1 -1l-14 -11l-14 -10h-61q-4 0 -19 0.5t-19 0.5h-13q-35 0 -54.5 2.5t-19.5 3.5q0 4 7 7t29 4z" />
    <glyph glyph-name="quoteleft" unicode="&#x2018;" horiz-adv-x="54" 
d="M37 304q-12 -9 -16 -9q-7 0 -10 9t-3 13q0 10 4.5 18t10.5 14t12 9.5t9 3.5q2 0 2 -1q-2 -3 -6.5 -10.5t-4.5 -14.5q0 -5 3 -12.5t3 -10.5q0 -5 -4 -9z" />
    <glyph glyph-name="quoteright" unicode="&#x2019;" horiz-adv-x="54" 
d="M183 354q13 8 17 8q6 0 9 -9t3 -12q0 -10 -4.5 -18.5t-10.5 -14.5t-12 -9.5t-9 -3.5q-1 0 -1 2q2 3 6.5 10.5t4.5 14.5q0 5 -3.5 12t-3.5 11q0 5 4 9z" />
    <glyph glyph-name="quotedblleft" unicode="&#x201c;" horiz-adv-x="92" 
d="M35 277q-9 -9 -14 -9q-7 0 -11 7q-3 4 -3 14t4.5 18.5t10.5 14.5t12 9.5t9 3.5q1 0 2 -1q0 -2 -0.5 -2.5t-1.5 -2.5l-3 -2q-5 -10 -5 -18q0 -7 2 -12.5t2 -10.5q0 -6 -4 -9zM77 303q-12 -9 -16 -9q-6 0 -9 8.5t-3 13.5q0 9 4.5 17.5t10 14.5t11.5 9.5t9 3.5q1 0 1 -1
q-5 -8 -8 -12.5t-3 -12.5q0 -5 3.5 -14t3.5 -11q0 -1 -4 -7z" />
    <glyph glyph-name="quotedblright" unicode="&#x201d;" horiz-adv-x="92" 
d="M227 352q9 9 15 9t10 -7q3 -4 3 -14q0 -9 -4.5 -17.5t-10.5 -15t-12 -10t-9 -3.5q-1 0 -2 1q0 2 0.5 2.5t1.5 2.5l3 2q2 5 4 9.5t2 8.5q0 7 -2.5 12.5t-2.5 10.5q0 6 4 9zM186 326q10 9 16 9q5 0 8.5 -8.5t3.5 -13.5q0 -9 -4.5 -17.5t-10.5 -14.5t-12 -9.5t-9 -3.5
q-1 0 -1 1q5 8 8.5 12.5t3.5 12.5q0 5 -4 14t-4 11t5 7z" />
    <glyph glyph-name="dagger" unicode="&#x2020;" horiz-adv-x="277" 
d="M144 130v87q1 63 1 97.5t0.5 51t0.5 20t1 5.5l11 12q5 6 6 7.5t2 -0.5v-8.5v-23.5t0.5 -45.5t0.5 -73.5q-1 -43 -1 -78.5v-43.5v-7l47 2l30 -1q1 0 1 -1l-13 -11l-15 -10h-50v-115v-138v-12l-7 -8q-5 -7 -10 -13t-7 -6v2q0 1 -0.5 12.5t-0.5 31.5t0.5 46.5t0.5 56.5
q1 32 1.5 69.5t0.5 74.5h-1q-36 0 -55 2.5t-19 3.5q0 4 7 7t29 4z" />
    <glyph glyph-name="daggerdbl" unicode="&#x2021;" horiz-adv-x="251" 
d="M110 236q-32 1 -52 2.5t-20 3.5q0 8 19.5 11t55.5 4q0 46 0.5 72.5t0.5 39.5t0.5 16.5t1.5 5.5l10 12q5 6 6 7.5t2 -0.5q0 -2 0.5 -8.5t0.5 -23.5v-45.5v-73.5v-1l45 1h30q1 0 1 -1v-1l-7 -6l-3 -3l-18 -13h-48q-2 -36 -1.5 -64t1.5 -34v-27l43 3l29 -2q1 0 1 -1l-5 -5
q-6 -6 -14 -12l-8 -4h-46v-95v-49.5t-0.5 -42.5t-0.5 -31v-15v-12l-7 -8q-5 -7 -10 -13t-7 -6v2v147q1 28 1.5 60t0.5 64h-4q-34 0 -53.5 2t-19.5 3q0 4 6 8t29 5q3 0 6.5 0.5t8.5 0.5l27 1q1 32 1 59.5v47.5v19h-3v0z" />
    <glyph glyph-name="ellipsis" unicode="&#x2026;" horiz-adv-x="214" 
d="M45 30q10 -3 0 -17q-5 -6 -8.5 -9.5t-8.5 -5.5q-5 -3 -8 -3t-8 5q-3 5 -3 6.5t2 5.5q1 3 9 9t15 8q4 2 5.5 2.5t4.5 -1.5zM105 30q10 -3 0 -17q-10 -12 -17 -15t-9.5 -3t-6.5 5q-3 5 -3 6.5t2 5.5q1 3 9 9t13 8q8 3 12 1zM163 30q13 -3 0 -17q-7 -11 -16 -15
q-6 -3 -8.5 -3t-6.5 5t-4 6.5t2 5.5q2 3 10 9t13 8q8 3 10 1z" />
    <glyph glyph-name="perthousand" unicode="&#x2030;" horiz-adv-x="516" 
d="M314 359q0 -1 -1.5 -4t-7 -12t-16 -25.5t-28.5 -44.5q-21 -34 -36 -59t-30 -49l-32.5 -52l-42.5 -68q-21 -35 -33 -55.5t-19 -31t-11 -13.5t-9 -3t-15.5 0.5t-10.5 2.5q0 1 2.5 5t9.5 15.5t20.5 32.5t36.5 56q48 73 81 124.5t54.5 85.5t34 53.5t19.5 29t10.5 11.5t7.5 2
q2 0 5 -0.5t5 -0.5h6zM39 137q-14 6 -22.5 20.5t-8.5 41.5q0 32 16.5 63t40 55t47.5 39t39 15q18 0 28 -11.5t10 -39.5q0 -35 -14 -70.5t-38 -62.5q-7 -8 -17.5 -17t-22 -17t-23.5 -13t-22 -5h-6.5t-6.5 2zM37 251q-6 -23 -6 -39q0 -26 13.5 -41.5t33.5 -15.5
q19 0 34.5 16.5t26.5 40t17 48t6 41.5q0 21 -8 36.5t-27 15.5q-15 0 -28.5 -9.5t-25.5 -24.5t-21.5 -33t-14.5 -35zM337 156q0 -3 0.5 -8t0.5 -10q0 -36 -14 -71t-37 -63q-6 -8 -17 -17t-23 -17t-23.5 -13.5t-20.5 -5.5q-26 0 -35.5 19t-9.5 51t17.5 62.5t40.5 54t47 37.5
t38 14t22.5 -9t13.5 -24zM311 105q0 4 0.5 7.5t0.5 6.5q0 23 -9.5 37t-26.5 14q-15 0 -32 -13t-31 -33t-23.5 -45.5t-9.5 -49.5q0 -26 14 -41.5t34 -15.5q17 0 31.5 14.5t25 35.5t17.5 43.5t9 39.5zM506 156q2 -8 2 -18q0 -36 -15 -71t-38 -63q-6 -8 -16.5 -17.5
t-22.5 -17.5t-24 -13t-21 -5q-21 0 -32 17.5t-11 46.5q0 32 16.5 63.5t39 56t46.5 39.5t40 15q15 0 23.5 -9.5t12.5 -23.5zM481 105q0 4 0.5 6.5t0.5 5.5q0 24 -9.5 38.5t-26.5 14.5q-15 0 -32 -13t-31.5 -33.5t-24 -45.5t-9.5 -49q0 -26 14 -41.5t34 -15.5q16 0 30.5 14.5
t26 35.5t18.5 43.5t9 39.5z" />
    <glyph glyph-name="fraction" unicode="&#x2044;" horiz-adv-x="136" 
d="M147 556q0 -1 -1.5 -7.5t-5 -23t-10 -44t-16.5 -70.5q-11 -43 -19 -77.5t-10 -42.5l-32 -139l-32 -134l-2 -11l-9 -7q-7 -5 -12.5 -9.5t-7.5 -4.5v2q0 2 9.5 43.5t23.5 100.5l15.5 62t16.5 67t15 63.5t12 51.5q15 61 23 94t12 49t5.5 19.5t3.5 5.5q3 3 11 9q7 4 8.5 4.5
t1.5 -1.5z" />
    <glyph glyph-name="Euro" unicode="&#x20ac;" horiz-adv-x="313" 
d="M287 404q2 -3 2 -11q0 -7 -3 -20t-8 -26t-12 -22.5t-16 -9.5q-2 0 -2 2t1.5 8.5t4 14.5t4 16.5t1.5 14.5q0 31 -23 28q-8 -1 -24 -13.5t-33 -30t-30.5 -35.5t-15.5 -30q86 0 86 -5q0 -3 -9 -11.5t-17 -8.5q-11 0 -28 2.5t-29 2.5t-14 -1q-1 -1 -5.5 -9t-9 -18t-8 -20
t-3.5 -14q0 -2 4 -2q2 0 25 2t54 2q14 0 14 -2t-3 -5t-6.5 -6t-7 -5.5t-4.5 -2.5q-2 0 -2 1q-1 0 -1 1q-1 0 -1 -0.5t-1 -0.5l-9.5 -1t-21.5 -1.5t-23.5 -1t-16.5 -0.5h-2q-1 0 -1 1q-2 -1 -3.5 -8t-1.5 -27q0 -37 17 -61.5t44 -24.5q10 0 21 5.5t21.5 13.5t19 17t12.5 17h2
q0 -12 -14 -25t-32 -23.5t-36 -17.5t-27 -7q-28 0 -44 24t-16 60q0 7 1 16t2.5 17t2.5 13.5l1 5.5q0 1 -2 1l-6.5 -1.5t-15.5 -3t-18 -2.5t-14 -1q0 1 10 7.5t15 8.5q5 3 20 6.5t17 5.5q0 1 4.5 11t10 21.5t10 21t4.5 11.5q-2 0 -8.5 -1t-15 -2.5t-17 -2.5t-12.5 -1h-2
q0 2 10.5 9.5t25.5 10.5q13 2 19 3t9 2.5t5 4.5t7 10q8 14 25.5 34.5t38.5 39t43 32t39 13.5q8 0 14 -4t8 -12z" />
    <glyph glyph-name="minus" unicode="&#x2212;" horiz-adv-x="191" 
d="M44 127q19 2 49.5 3t58.5 2l30 -1q1 0 1 -1l-14 -11l-14 -10h-45q-4 0 -7.5 0.5t-7.5 0.5h-13q-35 0 -54.5 2.5t-19.5 3.5q0 4 7 7t29 4z" />
    <glyph glyph-name="fi" unicode="&#xfb01;" horiz-adv-x="156" 
d="M127 305q-3 -5 -18.5 -35.5t-34.5 -75.5l3 -1q14 0 21.5 -2t17.5 -2q13 -2 15.5 5.5t4.5 7.5t2 -3q-5 -20 -27 -27.5t-42 -8.5l-6 1q-2 -6 -4.5 -12.5t-4.5 -13.5l-5 -14l-4 -13h-1q-17 -45 -29.5 -71.5t-27.5 -52.5q-23 -37 -49 -59.5t-43 -22.5q-7 0 -12 3.5t-4 11.5
q1 5 3 9t6 2q31 -21 60.5 23.5t71.5 164.5l1 2v3q-2 11 -7 21.5t-5 15.5q0 8 8.5 15.5t19.5 12.5l10 5q16 38 36.5 75.5t49.5 66.5l7 6q19 12 32 12q17 2 17 -9q-1 -10 -6.5 -6t-13.5 4q-3 0 -6.5 -0.5t-9 -4t-12 -11t-14.5 -22.5zM37 170q0 4 -8.5 1.5t-8.5 -10.5
q-1 -3 3.5 -11t4.5 -7q2 5 4.5 11.5t4.5 12.5v3zM139 214q-3 0 2 13q3 11 5.5 14.5t7.5 8.5q7 7 14.5 7.5t6.5 -4.5q0 -3 -4 -4q-2 -1 -2 -9q0 -7 -2 -10t-7 -8q-4 -4 -11 -6.5t-10 -1.5zM77 -1q-13 6 -12 27q0 15 6 36t15 42.5t20.5 40.5t22.5 30q15 17 22 15q5 0 7 -3
q4 -9 -8 -9q-5 0 -7.5 -2t-6.5 -13q-7 -14 -16 -41l-16 -48q-2 -6 -5 -16.5t-3.5 -20t3 -15t14.5 -2.5q7 2 18 12t20 20.5l15 17.5t5 4q-2 -4 -11 -16.5t-14 -20.5q-20 -23 -38 -33t-31 -5z" />
    <glyph glyph-name="fl" unicode="&#xfb02;" horiz-adv-x="148" 
d="M142 49q10 11 17.5 18t9.5 7q0 -2 -6 -10t-21 -26q-6 -6 -13.5 -13t-16.5 -14t-18.5 -11.5t-18.5 -4.5q-5 0 -9.5 6.5t-2.5 20.5q0 20 13.5 58t36.5 92q-11 -5 -22.5 -7t-21.5 -2l-6 1q-2 -6 -4.5 -12.5t-4.5 -13.5l-5 -14l-4 -13h-1q-17 -45 -29.5 -71.5t-27.5 -52.5
q-23 -37 -49 -59.5t-43 -22.5q-7 0 -12 3.5t-4 11.5q1 5 3 9t6 2q31 -21 60.5 23.5t71.5 164.5l1 2v3q-2 11 -7 21.5t-5 15.5q0 8 8.5 15.5t19.5 12.5l10 5q16 38 36.5 75.5t49.5 66.5l7 6q19 12 32 12q17 2 17 -9q-1 -10 -6.5 -6t-13.5 4q-3 0 -6.5 -0.5t-9 -4t-12 -11
t-14.5 -22.5q-3 -5 -18.5 -35.5t-34.5 -75.5l3 -1q14 0 21.5 -2t17.5 -2l2 -1h1l11 25q17 40 31 65t26 39t21.5 19t18.5 5q5 0 7 -11q0 -3 -3 -7h1q-2 -3 -4 -3t-7 2.5t-7 2.5q-8 0 -16.5 -16t-22.5 -43q-20 -49 -34.5 -85.5t-24 -63.5t-15 -45.5t-6.5 -31.5q-3 -13 1 -15
q1 -4 7 -4q5 0 11 3.5t17 13.5zM37 170q0 4 -8.5 1.5t-8.5 -10.5q-1 -3 3.5 -11t4.5 -7q2 5 4.5 11.5t4.5 12.5v3z" />
    <glyph glyph-name="_0016" horiz-adv-x="77" 
d="M66 394q4 -3 4 -7q-1 -2 -8 -9t-15 -14.5t-15 -13l-7 -5.5q-6 0 -6 3q0 1 1 2q0 1 0.5 1.5t0.5 2.5q-2 0 -7.5 5.5t-5.5 11.5q0 2 4.5 6.5t11 8.5t15 7t17.5 3q7 0 9 -2h1zM42 371q4 4 4 6q0 5 -9 5q-7 0 -8 -2t-1 -7v-5.5t2 -5.5l1 -2z" />
    <glyph glyph-name="_0024" horiz-adv-x="0" 
 />
    </font>
</defs>
</svg>
