<svg width="23" height="17" viewBox="0 0 23 17" fill="none" xmlns="http://www.w3.org/2000/svg">
<path d="M7.07364 14.2661C6.84278 14.2664 6.61975 14.1825 6.4463 14.0303L0.635959 8.95141C0.533768 8.86203 0.451876 8.75186 0.39577 8.62829C0.339664 8.50472 0.310638 8.3706 0.310638 8.23492C0.310638 8.09923 0.339664 7.96511 0.39577 7.84154C0.451876 7.71797 0.533768 7.60781 0.635959 7.51843L6.4463 2.43951C6.63658 2.27318 6.8852 2.18917 7.13748 2.20597C7.38976 2.22276 7.62503 2.33899 7.79153 2.52907C7.95803 2.71916 8.04212 2.96753 8.02531 3.21956C8.0085 3.47158 7.89216 3.70661 7.70188 3.87294L2.71089 8.23492L7.70143 12.5969C7.84749 12.7245 7.95111 12.8935 7.99845 13.0815C8.04579 13.2694 8.0346 13.4673 7.96636 13.6488C7.89813 13.8302 7.7761 13.9865 7.61658 14.0968C7.45706 14.2071 7.26765 14.2662 7.07364 14.2661ZM15.7891 14.2661C15.5951 14.2663 15.4056 14.2073 15.246 14.097C15.0864 13.9867 14.9643 13.8304 14.896 13.649C14.8278 13.4675 14.8165 13.2696 14.8639 13.0816C14.9112 12.8936 15.0148 12.7245 15.1609 12.5969L20.1519 8.23492L15.1614 3.87294C14.9711 3.70661 14.8547 3.47158 14.8379 3.21956C14.8211 2.96753 14.9052 2.71916 15.0717 2.52907C15.2382 2.33899 15.4735 2.22276 15.7258 2.20597C15.978 2.18917 16.2267 2.27318 16.4169 2.43951L22.2273 7.51843C22.3295 7.60781 22.4114 7.71797 22.4675 7.84154C22.5236 7.96511 22.5526 8.09923 22.5526 8.23492C22.5526 8.3706 22.5236 8.50472 22.4675 8.62829C22.4114 8.75186 22.3295 8.86203 22.2273 8.95141L16.4169 14.0303C16.2434 14.1827 16.0202 14.2666 15.7891 14.2661ZM9.25251 16.4428C9.10406 16.4428 8.95767 16.4081 8.825 16.3416C8.69234 16.275 8.57706 16.1784 8.48835 16.0595C8.39965 15.9406 8.33997 15.8027 8.31408 15.6566C8.28818 15.5106 8.29679 15.3605 8.3392 15.2184L12.697 0.707237C12.7298 0.584098 12.787 0.468792 12.8653 0.368151C12.9435 0.26751 13.0412 0.183581 13.1525 0.121336C13.2638 0.0590909 13.3865 0.019796 13.5133 0.00577881C13.64 -0.0082384 13.7684 0.00330745 13.8906 0.0397323C14.0128 0.0761572 14.1265 0.13672 14.2249 0.217833C14.3233 0.298947 14.4044 0.398961 14.4633 0.51195C14.5223 0.624939 14.558 0.748605 14.5683 0.875622C14.5785 1.00264 14.5632 1.13042 14.5231 1.25141L10.1654 15.7626C10.1068 15.959 9.98626 16.1313 9.8218 16.2538C9.65734 16.3764 9.45769 16.4427 9.25251 16.4428Z" fill="#750E21"/>
</svg>
